<?xml version="1.0" encoding="UTF-8"?>
<!DOCTYPE svg PUBLIC "-//W3C//DTD SVG 1.1//EN" "http://www.w3.org/Graphics/SVG/1.1/DTD/svg11.dtd">
<svg xmlns="http://www.w3.org/2000/svg" version="1.1" width="450px" height="113px" style="shape-rendering:geometricPrecision; text-rendering:geometricPrecision; image-rendering:optimizeQuality; fill-rule:evenodd; clip-rule:evenodd" xmlns:xlink="http://www.w3.org/1999/xlink">
<g><path style="opacity:0.93" fill="#212120" d="M 216.5,42.5 C 217.609,43.29 218.942,43.79 220.5,44C 218.055,45.778 215.389,47.1113 212.5,48C 213.167,48.3333 213.833,48.6667 214.5,49C 212.765,49.6514 211.098,49.4847 209.5,48.5C 208.749,49.376 208.249,50.376 208,51.5C 207.617,50.944 207.117,50.6107 206.5,50.5C 196.675,49.3417 186.675,49.1751 176.5,50C 177.416,50.2784 178.082,50.7784 178.5,51.5C 168.839,51.958 159.172,52.2913 149.5,52.5C 149.785,54.288 149.452,55.9547 148.5,57.5C 147.294,55.5159 147.294,53.5159 148.5,51.5C 147.167,50.1667 145.833,50.1667 144.5,51.5C 143.356,60.7794 143.856,60.7794 146,51.5C 146.687,53.5675 146.52,55.5675 145.5,57.5C 146.328,58.4147 147.328,59.0814 148.5,59.5C 149.611,58.3887 150.945,57.722 152.5,57.5C 155.013,58.7553 157.68,59.422 160.5,59.5C 166.177,58.1689 171.844,58.1689 177.5,59.5C 195.398,59.4319 212.731,59.7652 229.5,60.5C 224.167,60.5 218.833,60.5 213.5,60.5C 205.836,60.8886 198.17,61.222 190.5,61.5C 180.985,61.1731 171.652,61.5064 162.5,62.5C 158.908,62.698 155.574,63.698 152.5,65.5C 150.25,66.1302 148.25,67.1302 146.5,68.5C 146.167,68.5 145.833,68.5 145.5,68.5C 142.48,65.4838 139.146,62.8171 135.5,60.5C 135.5,60.1667 135.5,59.8333 135.5,59.5C 136.847,60.1712 138.014,60.1712 139,59.5C 139.667,57.1667 139.667,54.8333 139,52.5C 138.64,54.6079 137.973,56.6079 137,58.5C 136.218,55.7431 136.718,53.2431 138.5,51C 138.272,50.6012 137.938,50.4346 137.5,50.5C 138.263,49.7321 139.263,49.2321 140.5,49C 138.382,47.9509 136.716,46.4509 135.5,44.5C 138.855,44.0914 141.855,44.7581 144.5,46.5C 146.5,47.8333 148.5,47.8333 150.5,46.5C 151.531,47.355 152.697,48.0217 154,48.5C 154.765,48.4301 155.265,48.0967 155.5,47.5C 156.833,47.5 158.167,47.5 159.5,47.5C 160.167,47.5 160.833,47.5 161.5,47.5C 162.833,47.5 164.167,47.5 165.5,47.5C 169.167,47.5 172.833,47.5 176.5,47.5C 176.5,45.8333 176.5,44.1667 176.5,42.5C 177.404,41.791 177.737,40.791 177.5,39.5C 174.402,39.5875 174.068,39.0875 176.5,38C 183.846,34.7303 191.513,33.397 199.5,34C 198.672,34.9147 197.672,35.5814 196.5,36C 197.167,36.1667 197.833,36.3333 198.5,36.5C 201.642,34.8813 204.975,34.2146 208.5,34.5C 208.5,33.1667 208.5,31.8333 208.5,30.5C 207.127,30.6567 205.793,30.49 204.5,30C 205.38,28.6439 205.714,27.1439 205.5,25.5C 202.167,25.5 198.833,25.5 195.5,25.5C 195.737,26.791 195.404,27.791 194.5,28.5C 194.123,26.742 193.456,25.0754 192.5,23.5C 193.948,22.6461 195.281,21.6461 196.5,20.5C 199.174,21.517 201.84,21.6837 204.5,21C 205.803,24.0706 207.47,26.9039 209.5,29.5C 210.798,33.7154 210.798,37.8821 209.5,42C 211.81,42.4966 214.143,42.6633 216.5,42.5 Z M 198.5,43.5 C 200.048,43.8212 200.715,44.8212 200.5,46.5C 196.627,46.666 195.96,45.666 198.5,43.5 Z"/></g>
<g><path style="opacity:0.826" fill="#85817f" d="M 52.5,48.5 C 51.6027,47.319 51.1027,45.319 51,42.5C 49.561,40.9861 48.061,40.6527 46.5,41.5C 45.5713,40.3112 45.238,38.9778 45.5,37.5C 42.0791,37.7616 41.0791,36.4283 42.5,33.5C 36.3465,32.8332 30.3465,32.1666 24.5,31.5C 30.805,30.5133 37.1383,30.3466 43.5,31C 44.812,35.6537 47.6453,39.1537 52,41.5C 52.4966,43.8098 52.6633,46.1432 52.5,48.5 Z"/></g>
<g><path style="opacity:1" fill="#343434" d="M 176.5,42.5 C 176.158,41.6618 175.492,41.3284 174.5,41.5C 173.5,41.5 172.5,41.5 171.5,41.5C 169.5,39.8333 167.5,38.1667 165.5,36.5C 166.397,35.4019 167.23,35.4019 168,36.5C 168.333,35.8333 168.667,35.1667 169,34.5C 169.739,35.5742 170.739,36.2409 172,36.5C 175.062,36.4527 178.229,35.786 181.5,34.5C 179.922,33.7022 178.256,33.2022 176.5,33C 176.833,32.6667 177.167,32.3333 177.5,32C 173.074,31.2093 168.741,31.5427 164.5,33C 162.937,33.7589 161.937,34.9256 161.5,36.5C 156.107,37.5785 150.774,37.5785 145.5,36.5C 161.189,30.7189 177.522,28.0522 194.5,28.5C 195.404,27.791 195.737,26.791 195.5,25.5C 198.833,25.5 202.167,25.5 205.5,25.5C 205.714,27.1439 205.38,28.6439 204.5,30C 205.793,30.49 207.127,30.6567 208.5,30.5C 208.5,31.8333 208.5,33.1667 208.5,34.5C 204.975,34.2146 201.642,34.8813 198.5,36.5C 197.833,36.3333 197.167,36.1667 196.5,36C 197.672,35.5814 198.672,34.9147 199.5,34C 191.513,33.397 183.846,34.7303 176.5,38C 174.068,39.0875 174.402,39.5875 177.5,39.5C 177.737,40.791 177.404,41.791 176.5,42.5 Z"/></g>
<g><path style="opacity:1" fill="#76797c" d="M 165.5,36.5 C 164.167,36.5 162.833,36.5 161.5,36.5C 161.937,34.9256 162.937,33.7589 164.5,33C 168.741,31.5427 173.074,31.2093 177.5,32C 177.167,32.3333 176.833,32.6667 176.5,33C 178.256,33.2022 179.922,33.7022 181.5,34.5C 178.229,35.786 175.062,36.4527 172,36.5C 170.739,36.2409 169.739,35.5742 169,34.5C 168.667,35.1667 168.333,35.8333 168,36.5C 167.23,35.4019 166.397,35.4019 165.5,36.5 Z"/></g>
<g><path style="opacity:0.004" fill="#d0e6ff" d="M 252.5,36.5 C 253.601,35.4017 254.934,35.235 256.5,36C 255.207,36.49 253.873,36.6567 252.5,36.5 Z"/></g>
<g><path style="opacity:0.004" fill="#bcd8f1" d="M 266.5,37.5 C 265.127,37.6567 263.793,37.49 262.5,37C 264.066,36.235 265.399,36.4017 266.5,37.5 Z"/></g>
<g><path style="opacity:0.008" fill="#bad2e9" d="M 250.5,37.5 C 244.846,38.4443 239.18,38.9443 233.5,39C 237.977,38.0379 242.477,37.2046 247,36.5C 248.385,36.5143 249.551,36.8476 250.5,37.5 Z"/></g>
<g><path style="opacity:0.008" fill="#bad3eb" d="M 266.5,37.5 C 268.698,37.1201 270.365,37.7868 271.5,39.5C 269.597,39.2041 267.93,38.5375 266.5,37.5 Z"/></g>
<g><path style="opacity:1" fill="#2f3963" d="M 145.5,36.5 C 150.774,37.5785 156.107,37.5785 161.5,36.5C 162.833,36.5 164.167,36.5 165.5,36.5C 167.5,38.1667 169.5,39.8333 171.5,41.5C 165.675,41.1641 160.008,41.1641 154.5,41.5C 154.167,41.5 153.833,41.5 153.5,41.5C 151.305,39.8209 148.805,38.8209 146,38.5C 140.905,39.8991 135.738,40.8991 130.5,41.5C 135.216,39.2613 140.216,37.5946 145.5,36.5 Z"/></g>
<g><path style="opacity:1" fill="#436bae" d="M 153.5,41.5 C 153.167,42.1667 152.833,42.8333 152.5,43.5C 152.167,43.5 151.833,43.5 151.5,43.5C 150.294,40.8609 148.294,40.0276 145.5,41C 144.594,42.6995 144.261,44.5328 144.5,46.5C 141.855,44.7581 138.855,44.0914 135.5,44.5C 133.833,44.5 132.167,44.5 130.5,44.5C 129.167,43.8333 127.833,43.1667 126.5,42.5C 127.568,41.5655 128.901,41.2322 130.5,41.5C 135.738,40.8991 140.905,39.8991 146,38.5C 148.805,38.8209 151.305,39.8209 153.5,41.5 Z"/></g>
<g><path style="opacity:1" fill="#e6abaa" d="M 154.5,41.5 C 160.008,41.1641 165.675,41.1641 171.5,41.5C 172.5,41.5 173.5,41.5 174.5,41.5C 174.631,42.2389 174.464,42.9056 174,43.5C 172.951,42.4829 171.784,42.3162 170.5,43C 171.167,43.3333 171.833,43.6667 172.5,44C 171.549,44.7175 171.383,45.5509 172,46.5C 172.741,45.3595 173.575,45.3595 174.5,46.5C 175.172,45.0508 175.839,43.7175 176.5,42.5C 176.5,44.1667 176.5,45.8333 176.5,47.5C 172.833,47.5 169.167,47.5 165.5,47.5C 165.698,45.4247 165.865,43.4247 166,41.5C 164.956,42.6226 164.29,43.9559 164,45.5C 162.796,44.5294 162.296,43.5294 162.5,42.5C 161.548,44.0453 161.215,45.712 161.5,47.5C 160.833,47.5 160.167,47.5 159.5,47.5C 160.473,45.9317 160.64,44.265 160,42.5C 158.364,44.6606 156.197,45.9939 153.5,46.5C 153.709,45.0783 154.209,43.745 155,42.5C 155.654,43.6956 156.154,43.6956 156.5,42.5C 156.043,41.7025 155.376,41.3691 154.5,41.5 Z"/></g>
<g><path style="opacity:0.012" fill="#b9cee2" d="M 232.5,40.5 C 231.209,40.2627 230.209,40.596 229.5,41.5C 226.482,41.6646 223.482,41.498 220.5,41C 222.101,40.7266 223.601,40.2266 225,39.5C 227.558,39.4846 230.058,39.8179 232.5,40.5 Z"/></g>
<g><path style="opacity:0.987" fill="#161718" d="M 250.5,37.5 C 258.207,36.9284 265.54,38.2618 272.5,41.5C 272.842,42.3382 273.508,42.6716 274.5,42.5C 274.973,43.9063 275.973,44.573 277.5,44.5C 277.5,45.1667 277.833,45.5 278.5,45.5C 278.5,46.1667 278.833,46.5 279.5,46.5C 279.973,47.9063 280.973,48.573 282.5,48.5C 282.5,49.1667 282.833,49.5 283.5,49.5C 283.5,50.1667 283.833,50.5 284.5,50.5C 284.5,51.1667 284.833,51.5 285.5,51.5C 285.5,52.1667 285.833,52.5 286.5,52.5C 286.5,52.8333 286.5,53.1667 286.5,53.5C 281.934,54.7973 277.267,54.7973 272.5,53.5C 271.801,48.1338 268.801,45.1338 263.5,44.5C 260.814,43.0092 257.814,42.3425 254.5,42.5C 250.459,42.6735 246.459,43.1735 242.5,44C 239.726,45.7812 236.726,47.1145 233.5,48C 233.07,48.9195 232.736,49.7528 232.5,50.5C 230.657,50.2448 228.657,50.0781 226.5,50C 225.529,48.5187 224.196,47.6854 222.5,47.5C 223.897,45.6207 225.563,43.9541 227.5,42.5C 228.167,42.5 228.833,42.5 229.5,42.5C 232.817,41.7791 236.151,41.6124 239.5,42C 235.821,42.7873 232.154,43.6207 228.5,44.5C 228.833,44.8333 229.167,45.1667 229.5,45.5C 232.109,44.7695 234.776,44.2695 237.5,44C 240.574,41.7182 243.907,40.2182 247.5,39.5C 248.5,38.8333 249.5,38.1667 250.5,37.5 Z"/></g>
<g><path style="opacity:1" fill="#f65053" d="M 174.5,41.5 C 175.492,41.3284 176.158,41.6618 176.5,42.5C 175.839,43.7175 175.172,45.0508 174.5,46.5C 173.575,45.3595 172.741,45.3595 172,46.5C 171.383,45.5509 171.549,44.7175 172.5,44C 171.833,43.6667 171.167,43.3333 170.5,43C 171.784,42.3162 172.951,42.4829 174,43.5C 174.464,42.9056 174.631,42.2389 174.5,41.5 Z"/></g>
<g><path style="opacity:0.08" fill="#101213" d="M 301.5,54.5 C 300.833,54.5 300.167,54.5 299.5,54.5C 299.33,50.3553 299.997,46.3553 301.5,42.5C 302.184,46.4463 302.184,50.4463 301.5,54.5 Z"/></g>
<g><path style="opacity:1" fill="#9d9f9f" d="M 21.5,44.5 C 18.4008,45.5327 17.7341,47.5327 19.5,50.5C 18.8333,50.5 18.1667,50.5 17.5,50.5C 17.5,49.8333 17.5,49.1667 17.5,48.5C 17.6716,47.5084 17.3382,46.8417 16.5,46.5C 16.5,46.1667 16.5,45.8333 16.5,45.5C 17.5307,44.645 18.6974,43.9783 20,43.5C 20.7648,43.5699 21.2648,43.9033 21.5,44.5 Z"/></g>
<g><path style="opacity:0.951" fill="#424140" d="M 24.5,31.5 C 30.3465,32.1666 36.3465,32.8332 42.5,33.5C 41.0791,36.4283 42.0791,37.7616 45.5,37.5C 45.238,38.9778 45.5713,40.3112 46.5,41.5C 48.061,40.6527 49.561,40.9861 51,42.5C 51.1027,45.319 51.6027,47.319 52.5,48.5C 60.2291,48.0994 66.8958,50.4327 72.5,55.5C 73.8968,57.8225 73.2302,59.4891 70.5,60.5C 66.2219,57.3548 61.5552,55.3548 56.5,54.5C 57.2216,54.0825 57.7216,53.4158 58,52.5C 58.6667,55.1667 59.3333,55.1667 60,52.5C 61.0875,54.9316 61.5875,54.5983 61.5,51.5C 56.5,51.5 51.5,51.5 46.5,51.5C 46.5,52.5 46.5,53.5 46.5,54.5C 49.5,54.5 52.5,54.5 55.5,54.5C 52.3586,55.3213 49.0252,55.8213 45.5,56C 42.2766,58.0623 38.9432,59.8956 35.5,61.5C 35.5,60.8333 35.1667,60.5 34.5,60.5C 35.5981,59.603 35.5981,58.7697 34.5,58C 37.228,55.6078 40.228,53.6078 43.5,52C 40.1832,51.5017 36.8499,51.335 33.5,51.5C 34.4687,50.6906 35.3021,49.6906 36,48.5C 37.7702,50.4181 39.9369,50.9181 42.5,50C 41.5939,48.3005 41.2606,46.4672 41.5,44.5C 42.29,45.6085 42.79,46.9419 43,48.5C 43.6257,45.1374 43.9591,41.8041 44,38.5C 38.0383,40.9155 31.8716,41.0821 25.5,39C 24.1016,36.1343 21.7682,34.6343 18.5,34.5C 16.8546,33.5213 15.5213,32.188 14.5,30.5C 17.6199,29.4512 20.4533,30.1179 23,32.5C 23.3826,31.944 23.8826,31.6107 24.5,31.5 Z M 25.5,34.5 C 25.56,33.9569 25.8933,33.6236 26.5,33.5C 30.8456,34.6675 35.1789,35.8342 39.5,37C 35.5,37.6667 31.5,37.6667 27.5,37C 26.9341,36.0053 26.2674,35.172 25.5,34.5 Z"/></g>
<g><path style="opacity:1" fill="#fa6278" d="M 151.5,43.5 C 149.735,44.4614 147.735,44.7947 145.5,44.5C 145.369,43.7611 145.536,43.0944 146,42.5C 147.699,43.4061 149.533,43.7394 151.5,43.5 Z"/></g>
<g><path style="opacity:1" fill="#f3423e" d="M 153.5,41.5 C 153.833,41.5 154.167,41.5 154.5,41.5C 155.376,41.3691 156.043,41.7025 156.5,42.5C 156.154,43.6956 155.654,43.6956 155,42.5C 154.209,43.745 153.709,45.0783 153.5,46.5C 152.596,45.791 152.263,44.791 152.5,43.5C 152.833,42.8333 153.167,42.1667 153.5,41.5 Z"/></g>
<g><path style="opacity:1" fill="#525355" d="M 247.5,39.5 C 243.907,40.2182 240.574,41.7182 237.5,44C 234.776,44.2695 232.109,44.7695 229.5,45.5C 229.167,45.1667 228.833,44.8333 228.5,44.5C 232.154,43.6207 235.821,42.7873 239.5,42C 236.151,41.6124 232.817,41.7791 229.5,42.5C 229.5,42.1667 229.5,41.8333 229.5,41.5C 230.791,41.7373 231.791,41.404 232.5,40.5C 237.518,40.3867 242.518,40.0534 247.5,39.5 Z"/></g>
<g><path style="opacity:1" fill="#a6abaa" d="M 30.5,44.5 C 33.2516,44.2382 36.2516,44.2382 39.5,44.5C 39.631,45.2389 39.4643,45.9056 39,46.5C 37.4667,46.0563 35.9667,45.723 34.5,45.5C 33.7189,46.7287 33.2189,48.062 33,49.5C 32.9005,47.3474 32.0672,45.6808 30.5,44.5 Z"/></g>
<g><path style="opacity:1" fill="#beb0ae" d="M 151.5,43.5 C 151.833,43.5 152.167,43.5 152.5,43.5C 152.263,44.791 152.596,45.791 153.5,46.5C 153.842,47.3382 154.508,47.6716 155.5,47.5C 155.265,48.0967 154.765,48.4301 154,48.5C 152.697,48.0217 151.531,47.355 150.5,46.5C 148.833,45.8333 147.167,45.1667 145.5,44.5C 147.735,44.7947 149.735,44.4614 151.5,43.5 Z"/></g>
<g><path style="opacity:1" fill="#f05d56" d="M 165.5,47.5 C 164.167,47.5 162.833,47.5 161.5,47.5C 161.215,45.712 161.548,44.0453 162.5,42.5C 162.296,43.5294 162.796,44.5294 164,45.5C 164.29,43.9559 164.956,42.6226 166,41.5C 165.865,43.4247 165.698,45.4247 165.5,47.5 Z"/></g>
<g><path style="opacity:1" fill="#5db865" d="M 151.5,43.5 C 149.533,43.7394 147.699,43.4061 146,42.5C 145.536,43.0944 145.369,43.7611 145.5,44.5C 147.167,45.1667 148.833,45.8333 150.5,46.5C 148.5,47.8333 146.5,47.8333 144.5,46.5C 144.261,44.5328 144.594,42.6995 145.5,41C 148.294,40.0276 150.294,40.8609 151.5,43.5 Z"/></g>
<g><path style="opacity:1" fill="#5eba70" d="M 16.5,45.5 C 16.5,45.8333 16.5,46.1667 16.5,46.5C 14.549,46.7733 13.049,46.1066 12,44.5C 11.3333,45.5 11.3333,46.5 12,47.5C 13.6995,48.4061 15.5328,48.7394 17.5,48.5C 17.5,49.1667 17.5,49.8333 17.5,50.5C 13.7272,51.6559 11.0606,50.1559 9.5,46C 11.4673,42.8801 13.8007,42.7134 16.5,45.5 Z"/></g>
<g><path style="opacity:1" fill="#252d63" d="M 130.5,44.5 C 132.167,44.5 133.833,44.5 135.5,44.5C 136.716,46.4509 138.382,47.9509 140.5,49C 139.263,49.2321 138.263,49.7321 137.5,50.5C 134.94,48.7267 132.607,46.7267 130.5,44.5 Z"/></g>
<g><path style="opacity:1" fill="#f67271" d="M 159.5,47.5 C 158.167,47.5 156.833,47.5 155.5,47.5C 154.508,47.6716 153.842,47.3382 153.5,46.5C 156.197,45.9939 158.364,44.6606 160,42.5C 160.64,44.265 160.473,45.9317 159.5,47.5 Z"/></g>
<g><path style="opacity:0.008" fill="#bacfe5" d="M 271.5,39.5 C 273.677,39.5861 275.677,40.2528 277.5,41.5C 281.167,44.8333 284.833,48.1667 288.5,51.5C 288.043,52.2975 287.376,52.6309 286.5,52.5C 285.833,52.5 285.5,52.1667 285.5,51.5C 284.833,51.5 284.5,51.1667 284.5,50.5C 283.833,50.5 283.5,50.1667 283.5,49.5C 282.833,49.5 282.5,49.1667 282.5,48.5C 282.027,47.0937 281.027,46.427 279.5,46.5C 278.833,46.5 278.5,46.1667 278.5,45.5C 277.833,45.5 277.5,45.1667 277.5,44.5C 277.027,43.0937 276.027,42.427 274.5,42.5C 274.158,41.6618 273.492,41.3284 272.5,41.5C 272.167,40.8333 271.833,40.1667 271.5,39.5 Z"/></g>
<g><path style="opacity:1" fill="#f46f6d" d="M 21.5,44.5 C 22.1667,44.5 22.5,44.8333 22.5,45.5C 19.7124,49.9378 20.3791,50.4378 24.5,47C 23.944,46.6174 23.6107,46.1174 23.5,45.5C 24.1667,45.5 24.8333,45.5 25.5,45.5C 27.1511,47.4021 27.4845,49.4021 26.5,51.5C 24.2362,50.7814 21.9029,50.448 19.5,50.5C 17.7341,47.5327 18.4008,45.5327 21.5,44.5 Z"/></g>
<g><path style="opacity:1" fill="#fdf1f1" d="M 22.5,45.5 C 22.8333,45.5 23.1667,45.5 23.5,45.5C 23.6107,46.1174 23.944,46.6174 24.5,47C 20.3791,50.4378 19.7124,49.9378 22.5,45.5 Z"/></g>
<g><path style="opacity:1" fill="#f1b1b0" d="M 30.5,44.5 C 29.8333,46.8333 29.1667,49.1667 28.5,51.5C 27.8333,51.5 27.1667,51.5 26.5,51.5C 27.4845,49.4021 27.1511,47.4021 25.5,45.5C 27.2915,45.634 28.9582,45.3007 30.5,44.5 Z"/></g>
<g><path style="opacity:1" fill="#100f0d" d="M 343.5,46.5 C 347.982,47.3255 352.649,47.8255 357.5,48C 358.167,48.6667 358.833,49.3333 359.5,50C 353.118,50.2474 346.785,50.7474 340.5,51.5C 340.953,49.4348 341.953,47.7682 343.5,46.5 Z"/></g>
<g><path style="opacity:1" fill="#f46b68" d="M 41.5,44.5 C 41.2606,46.4672 41.5939,48.3005 42.5,50C 39.9369,50.9181 37.7702,50.4181 36,48.5C 35.3021,49.6906 34.4687,50.6906 33.5,51.5C 32.5416,51.0472 31.7083,50.3805 31,49.5C 30.2917,50.3805 29.4584,51.0472 28.5,51.5C 29.1667,49.1667 29.8333,46.8333 30.5,44.5C 32.0672,45.6808 32.9005,47.3474 33,49.5C 33.2189,48.062 33.7189,46.7287 34.5,45.5C 35.9667,45.723 37.4667,46.0563 39,46.5C 39.4643,45.9056 39.631,45.2389 39.5,44.5C 40.1667,43.1667 40.8333,43.1667 41.5,44.5 Z"/></g>
<g><path style="opacity:1" fill="#353853" d="M 206.5,50.5 C 197.348,51.4936 188.015,51.8269 178.5,51.5C 178.082,50.7784 177.416,50.2784 176.5,50C 186.675,49.1751 196.675,49.3417 206.5,50.5 Z"/></g>
<g><path style="opacity:1" fill="#cecab3" d="M 56.5,54.5 C 56.1667,54.5 55.8333,54.5 55.5,54.5C 52.5,54.5 49.5,54.5 46.5,54.5C 46.5,53.5 46.5,52.5 46.5,51.5C 51.5,51.5 56.5,51.5 61.5,51.5C 61.5875,54.5983 61.0875,54.9316 60,52.5C 59.3333,55.1667 58.6667,55.1667 58,52.5C 57.7216,53.4158 57.2216,54.0825 56.5,54.5 Z"/></g>
<g><path style="opacity:1" fill="#444448" d="M 268.5,51.5 C 265.813,51.3359 263.146,51.5026 260.5,52C 262.689,52.677 263.022,53.8437 261.5,55.5C 260.386,56.7759 259.386,56.7759 258.5,55.5C 258.918,54.7784 259.584,54.2784 260.5,54C 259.234,53.6905 258.067,53.1905 257,52.5C 256.601,52.7284 256.435,53.0618 256.5,53.5C 254.219,53.9227 252.552,53.256 251.5,51.5C 252.833,51.5 254.167,51.5 255.5,51.5C 255.5,50.1667 255.5,48.8333 255.5,47.5C 259.131,46.588 262.797,46.4213 266.5,47C 268.037,48.1096 268.703,49.6096 268.5,51.5 Z"/></g>
<g><path style="opacity:1" fill="#2b2b2a" d="M 33.5,51.5 C 36.8499,51.335 40.1832,51.5017 43.5,52C 40.228,53.6078 37.228,55.6078 34.5,58C 35.5981,58.7697 35.5981,59.603 34.5,60.5C 32.5,62.8333 30.5,65.1667 28.5,67.5C 29.038,65.8828 29.3713,64.2161 29.5,62.5C 28.1266,62.3433 26.7932,62.51 25.5,63C 26.3081,63.3076 26.9747,63.8076 27.5,64.5C 26.5,67.1667 25.5,69.8333 24.5,72.5C 21.4041,73.6194 18.4041,73.2861 15.5,71.5C 14.0968,68.1312 13.4301,64.7978 13.5,61.5C 14.8972,59.0182 15.7306,56.3516 16,53.5C 17.5185,52.8366 18.6851,51.8366 19.5,50.5C 21.9029,50.448 24.2362,50.7814 26.5,51.5C 27.1667,51.5 27.8333,51.5 28.5,51.5C 29.4584,51.0472 30.2917,50.3805 31,49.5C 31.7083,50.3805 32.5416,51.0472 33.5,51.5 Z"/></g>
<g><path style="opacity:0.004" fill="#bad8f1" d="M 91.5,52.5 C 92.8333,53.1667 92.8333,53.1667 91.5,52.5 Z"/></g>
<g><path style="opacity:1" fill="#4a494a" d="M 126.5,42.5 C 127.833,43.1667 129.167,43.8333 130.5,44.5C 132.607,46.7267 134.94,48.7267 137.5,50.5C 137.938,50.4346 138.272,50.6012 138.5,51C 136.718,53.2431 136.218,55.7431 137,58.5C 137.973,56.6079 138.64,54.6079 139,52.5C 139.667,54.8333 139.667,57.1667 139,59.5C 138.014,60.1712 136.847,60.1712 135.5,59.5C 132.397,57.5767 129.397,55.41 126.5,53C 122.833,52.6667 119.167,52.3333 115.5,52C 113.76,50.483 112.094,48.983 110.5,47.5C 115.524,45.0488 120.857,43.3822 126.5,42.5 Z"/></g>
<g><path style="opacity:1" fill="#434342" d="M 216.5,42.5 C 220.167,42.5 223.833,42.5 227.5,42.5C 225.563,43.9541 223.897,45.6207 222.5,47.5C 221.2,48.601 220.7,49.9343 221,51.5C 224.35,51.9184 227.184,53.2518 229.5,55.5C 212.085,55.8576 194.751,57.191 177.5,59.5C 171.844,58.1689 166.177,58.1689 160.5,59.5C 157.68,59.422 155.013,58.7553 152.5,57.5C 150.945,57.722 149.611,58.3887 148.5,59.5C 147.328,59.0814 146.328,58.4147 145.5,57.5C 146.52,55.5675 146.687,53.5675 146,51.5C 143.856,60.7794 143.356,60.7794 144.5,51.5C 145.833,50.1667 147.167,50.1667 148.5,51.5C 147.294,53.5159 147.294,55.5159 148.5,57.5C 149.452,55.9547 149.785,54.288 149.5,52.5C 159.172,52.2913 168.839,51.958 178.5,51.5C 188.015,51.8269 197.348,51.4936 206.5,50.5C 207.117,50.6107 207.617,50.944 208,51.5C 208.249,50.376 208.749,49.376 209.5,48.5C 211.098,49.4847 212.765,49.6514 214.5,49C 213.833,48.6667 213.167,48.3333 212.5,48C 215.389,47.1113 218.055,45.778 220.5,44C 218.942,43.79 217.609,43.29 216.5,42.5 Z"/></g>
<g><path style="opacity:1" fill="#b3b2b3" d="M 216.5,49.5 C 217.675,49.281 218.675,49.6143 219.5,50.5C 216.216,51.657 212.882,51.8236 209.5,51C 212.036,50.8138 214.369,50.3138 216.5,49.5 Z"/></g>
<g><path style="opacity:1" fill="#676868" d="M 263.5,44.5 C 253.729,45.0541 244.062,46.3874 234.5,48.5C 233.909,51.6753 234.909,54.0087 237.5,55.5C 234.833,55.5 232.167,55.5 229.5,55.5C 227.184,53.2518 224.35,51.9184 221,51.5C 220.7,49.9343 221.2,48.601 222.5,47.5C 224.196,47.6854 225.529,48.5187 226.5,50C 228.657,50.0781 230.657,50.2448 232.5,50.5C 232.736,49.7528 233.07,48.9195 233.5,48C 236.726,47.1145 239.726,45.7812 242.5,44C 246.459,43.1735 250.459,42.6735 254.5,42.5C 257.814,42.3425 260.814,43.0092 263.5,44.5 Z"/></g>
<g><path style="opacity:0.918" fill="#75777e" d="M 250.5,51.5 C 250.389,52.1174 250.056,52.6174 249.5,53C 247.19,53.4966 244.857,53.6633 242.5,53.5C 244.635,51.631 247.302,50.9644 250.5,51.5 Z"/></g>
<g><path style="opacity:0.008" fill="#b8d3ea" d="M 84.5,54.5 C 85.9464,53.3871 87.6131,53.2204 89.5,54C 87.8659,54.4935 86.1992,54.6602 84.5,54.5 Z"/></g>
<g><path style="opacity:1" fill="#4fbae2" d="M 110.5,47.5 C 112.094,48.983 113.76,50.483 115.5,52C 119.167,52.3333 122.833,52.6667 126.5,53C 129.397,55.41 132.397,57.5767 135.5,59.5C 135.5,59.8333 135.5,60.1667 135.5,60.5C 135.5,60.8333 135.5,61.1667 135.5,61.5C 132.119,61.4595 128.786,61.7929 125.5,62.5C 121.12,60.2999 117.12,57.4665 113.5,54C 111.288,53.2109 109.288,53.3775 107.5,54.5C 103.731,54.756 100.064,54.4227 96.5,53.5C 100.954,51.2068 105.62,49.2068 110.5,47.5 Z"/></g>
<g><path style="opacity:0.004" fill="#b6d1e6" d="M 78.5,55.5 C 79.9464,54.3871 81.6131,54.2204 83.5,55C 81.8659,55.4935 80.1992,55.6602 78.5,55.5 Z"/></g>
<g><path style="opacity:1" fill="#42413f" d="M 371.5,56.5 C 371.443,57.609 371.11,58.609 370.5,59.5C 370.5,60.1667 370.5,60.8333 370.5,61.5C 366.792,59.4303 363.125,57.4303 359.5,55.5C 359.5,54.1667 359.5,52.8333 359.5,51.5C 354.5,51.5 349.5,51.5 344.5,51.5C 344.5,52.5 344.5,53.5 344.5,54.5C 349.032,54.1818 353.366,54.5151 357.5,55.5C 352.821,55.3342 348.155,55.5008 343.5,56C 340.274,57.198 337.441,59.0314 335,61.5C 334.617,60.944 334.117,60.6107 333.5,60.5C 332.833,60.5 332.167,60.5 331.5,60.5C 331.918,59.7784 332.584,59.2784 333.5,59C 332.748,58.3292 332.414,57.4959 332.5,56.5C 334.484,53.8361 337.151,52.1695 340.5,51.5C 346.785,50.7474 353.118,50.2474 359.5,50C 358.833,49.3333 358.167,48.6667 357.5,48C 352.649,47.8255 347.982,47.3255 343.5,46.5C 347.665,44.7712 351.999,44.2712 356.5,45C 361.208,49.3383 366.208,53.1716 371.5,56.5 Z"/></g>
<g><path style="opacity:1" fill="#c1bdaa" d="M 359.5,55.5 C 358.833,55.5 358.167,55.5 357.5,55.5C 353.366,54.5151 349.032,54.1818 344.5,54.5C 344.5,53.5 344.5,52.5 344.5,51.5C 349.5,51.5 354.5,51.5 359.5,51.5C 359.5,52.8333 359.5,54.1667 359.5,55.5 Z"/></g>
<g><path style="opacity:1" fill="#0c0b0e" d="M 55.5,54.5 C 55.8333,54.5 56.1667,54.5 56.5,54.5C 61.5552,55.3548 66.2219,57.3548 70.5,60.5C 71.5,62.1667 72.8333,63.5 74.5,64.5C 78.1218,68.3583 79.7884,73.0249 79.5,78.5C 79.4389,81.9026 78.9389,85.2359 78,88.5C 76.396,92.0482 74.5626,95.3816 72.5,98.5C 71.7784,98.0825 71.2784,97.4158 71,96.5C 70.1187,98.8695 68.6187,101.036 66.5,103C 63.4525,103.58 63.1192,103.247 65.5,102C 63.6476,101.227 62.3143,101.727 61.5,103.5C 58.15,103.614 54.8167,103.947 51.5,104.5C 47.9839,104.073 44.6505,103.073 41.5,101.5C 40.6961,99.9906 39.5295,98.6573 38,97.5C 36.9593,99.3115 35.7927,99.6448 34.5,98.5C 35.0431,98.44 35.3764,98.1067 35.5,97.5C 26.2108,85.3982 26.2108,73.3982 35.5,61.5C 38.9432,59.8956 42.2766,58.0623 45.5,56C 49.0252,55.8213 52.3586,55.3213 55.5,54.5 Z"/></g>
<g><path style="opacity:0.008" fill="#b8d8ed" d="M 75.5,55.5 C 76.8333,56.1667 76.8333,56.1667 75.5,55.5 Z"/></g>
<g><path style="opacity:1" fill="#0f0e11" d="M 357.5,55.5 C 358.167,55.5 358.833,55.5 359.5,55.5C 363.125,57.4303 366.792,59.4303 370.5,61.5C 379.783,73.4374 379.783,85.4374 370.5,97.5C 370.624,98.1067 370.957,98.44 371.5,98.5C 370.207,99.6448 369.041,99.3115 368,97.5C 367.25,98.1258 366.416,98.6258 365.5,99C 366.598,99.7697 366.598,100.603 365.5,101.5C 364.395,102.6 363.062,103.267 361.5,103.5C 361.062,103.565 360.728,103.399 360.5,103C 362.595,102.444 362.762,101.944 361,101.5C 359.989,102.056 359.156,102.722 358.5,103.5C 353.261,104.74 348.261,104.74 343.5,103.5C 343.167,103.5 342.833,103.5 342.5,103.5C 340.819,101.992 338.819,100.992 336.5,100.5C 336.611,99.8826 336.944,99.3826 337.5,99C 336,97.5 334.5,96 333,94.5C 332.601,94.7284 332.435,95.0618 332.5,95.5C 324.233,83.6668 324.566,72.0001 333.5,60.5C 334.117,60.6107 334.617,60.944 335,61.5C 337.441,59.0314 340.274,57.198 343.5,56C 348.155,55.5008 352.821,55.3342 357.5,55.5 Z"/></g>
<g><path style="opacity:1" fill="#d5518c" d="M 96.5,53.5 C 100.064,54.4227 103.731,54.756 107.5,54.5C 107.5,55.5 107.5,56.5 107.5,57.5C 97.1458,57.362 86.8124,57.6954 76.5,58.5C 75.8333,58.5 75.5,58.1667 75.5,57.5C 82.6871,56.7152 89.6871,55.3818 96.5,53.5 Z"/></g>
<g><path style="opacity:1" fill="#303238" d="M 250.5,51.5 C 250.833,51.5 251.167,51.5 251.5,51.5C 252.552,53.256 254.219,53.9227 256.5,53.5C 256.5,54.1667 256.5,54.8333 256.5,55.5C 255.769,55.9418 254.769,56.1085 253.5,56C 255.594,57.3515 257.927,57.8515 260.5,57.5C 260.5,58.5 260.5,59.5 260.5,60.5C 251.5,60.5 242.5,60.5 233.5,60.5C 233.5,62.1667 233.5,63.8333 233.5,65.5C 232.5,65.5 231.5,65.5 230.5,65.5C 229.11,63.8306 228.777,62.1639 229.5,60.5C 212.731,59.7652 195.398,59.4319 177.5,59.5C 194.751,57.191 212.085,55.8576 229.5,55.5C 232.167,55.5 234.833,55.5 237.5,55.5C 239.135,54.1854 240.801,54.1854 242.5,55.5C 243.463,55.0302 243.463,54.3635 242.5,53.5C 244.857,53.6633 247.19,53.4966 249.5,53C 250.056,52.6174 250.389,52.1174 250.5,51.5 Z"/></g>
<g><path style="opacity:1" fill="#4fbbe5" d="M 299.5,54.5 C 300.167,54.5 300.833,54.5 301.5,54.5C 311.219,55.0804 320.885,56.0804 330.5,57.5C 329.972,58.7206 329.305,59.8873 328.5,61C 321.11,61.273 313.777,60.773 306.5,59.5C 305.893,59.6236 305.56,59.9569 305.5,60.5C 302.95,58.9228 300.95,56.9228 299.5,54.5 Z"/></g>
<g><path style="opacity:1" fill="#dac2dc" d="M 107.5,57.5 C 107.5,57.8333 107.5,58.1667 107.5,58.5C 97.8153,58.9259 88.1486,59.5926 78.5,60.5C 77.5,60.1667 76.8333,59.5 76.5,58.5C 86.8124,57.6954 97.1458,57.362 107.5,57.5 Z"/></g>
<g><path style="opacity:1" fill="#121315" d="M 268.5,51.5 C 269.833,51.5 270.5,52.1667 270.5,53.5C 273.689,55.9689 277.689,58.4689 282.5,61C 290.916,61.8177 298.583,61.6511 305.5,60.5C 305.56,59.9569 305.893,59.6236 306.5,59.5C 313.777,60.773 321.11,61.273 328.5,61C 329.305,59.8873 329.972,58.7206 330.5,57.5C 331.167,57.1667 331.833,56.8333 332.5,56.5C 332.414,57.4959 332.748,58.3292 333.5,59C 332.584,59.2784 331.918,59.7784 331.5,60.5C 322.171,72.8 322.171,85.1334 331.5,97.5C 333.643,98.3293 333.976,97.6626 332.5,95.5C 332.435,95.0618 332.601,94.7284 333,94.5C 334.5,96 336,97.5 337.5,99C 336.944,99.3826 336.611,99.8826 336.5,100.5C 337.348,102.093 338.681,103.26 340.5,104C 341.437,104.692 342.103,104.525 342.5,103.5C 342.833,103.5 343.167,103.5 343.5,103.5C 343.577,104.75 344.244,105.583 345.5,106C 348.426,106.218 351.26,106.718 354,107.5C 356.118,106.717 357.618,105.384 358.5,103.5C 359.156,102.722 359.989,102.056 361,101.5C 362.762,101.944 362.595,102.444 360.5,103C 360.728,103.399 361.062,103.565 361.5,103.5C 360.031,105.105 360.365,105.605 362.5,105C 364.116,104.385 365.449,103.385 366.5,102C 366.272,101.601 365.938,101.435 365.5,101.5C 366.598,100.603 366.598,99.7697 365.5,99C 366.416,98.6258 367.25,98.1258 368,97.5C 369.041,99.3115 370.207,99.6448 371.5,98.5C 382.465,85.1463 382.132,72.1463 370.5,59.5C 371.11,58.609 371.443,57.609 371.5,56.5C 374.861,58.8949 377.528,61.8949 379.5,65.5C 378.601,66.9943 378.935,68.4943 380.5,70C 385.341,72.0906 390.341,73.5906 395.5,74.5C 394.701,77.4299 394.368,80.4299 394.5,83.5C 377.232,83.5128 377.232,84.1795 394.5,85.5C 394.5,87.8333 394.5,90.1667 394.5,92.5C 397.482,92.9629 400.482,93.2962 403.5,93.5C 403.833,94.8333 404.167,94.8333 404.5,93.5C 406.167,93.5 407.833,93.5 409.5,93.5C 409.5,95.1667 409.5,96.8333 409.5,98.5C 405.277,98.2128 401.11,97.5462 397,96.5C 396.127,96.7355 395.293,97.0688 394.5,97.5C 393.548,95.9547 393.215,94.288 393.5,92.5C 388.456,92.1725 383.456,92.5059 378.5,93.5C 369.923,107.423 357.589,112.256 341.5,108C 330.69,103.213 324.023,95.0459 321.5,83.5C 322.043,83.44 322.376,83.1067 322.5,82.5C 316.167,81.1667 309.833,81.1667 303.5,82.5C 300.318,88.8644 297.151,95.1978 294,101.5C 293.5,93.8406 293.334,86.1739 293.5,78.5C 290.61,78.278 287.943,78.9447 285.5,80.5C 284.817,80.1373 284.15,79.8039 283.5,79.5C 279.731,79.244 276.064,79.5773 272.5,80.5C 259.351,82.2038 246.351,84.7038 233.5,88C 229.167,88.3333 224.833,88.6667 220.5,89C 213.151,91.8611 205.817,94.3611 198.5,96.5C 188.494,96.3231 178.494,95.9898 168.5,95.5C 171.383,94.0773 174.383,92.744 177.5,91.5C 174.216,90.343 170.882,90.1764 167.5,91C 166.953,91.9246 166.287,92.7579 165.5,93.5C 163.851,91.5625 161.685,90.5625 159,90.5C 155.775,91.6137 152.608,91.6137 149.5,90.5C 149.5,91.5 149.5,92.5 149.5,93.5C 154.118,92.7335 158.785,92.9002 163.5,94C 160.518,94.498 157.518,94.6646 154.5,94.5C 141.83,94.1514 129.163,93.6514 116.5,93C 111.657,92.886 106.991,92.0527 102.5,90.5C 101.737,89.7321 100.737,89.2321 99.5,89C 101.218,88.654 102.885,88.154 104.5,87.5C 105.696,87.8457 105.696,88.3457 104.5,89C 113.061,87.147 121.228,83.9804 129,79.5C 129.448,81.4089 128.615,82.5756 126.5,83C 128.5,83.3333 130.5,83.6667 132.5,84C 129.366,84.1122 127.033,84.6122 125.5,85.5C 126.436,86.9744 127.77,87.9744 129.5,88.5C 137.316,89.4924 145.316,89.8257 153.5,89.5C 168.862,89.7691 184.195,89.4358 199.5,88.5C 199.5,87.5 199.5,86.5 199.5,85.5C 199.5,84.8333 199.833,84.5 200.5,84.5C 200.5,85.5 200.5,86.5 200.5,87.5C 204.674,87.6664 208.674,86.9997 212.5,85.5C 213.922,85.2914 215.255,84.7914 216.5,84C 215.167,83.3333 215.167,82.6667 216.5,82C 215.307,80.9054 213.973,80.072 212.5,79.5C 212.5,78.8333 212.5,78.1667 212.5,77.5C 219.636,77.9508 226.636,77.2841 233.5,75.5C 227.311,70.9096 220.978,66.5763 214.5,62.5C 214.167,61.8333 213.833,61.1667 213.5,60.5C 218.833,60.5 224.167,60.5 229.5,60.5C 228.777,62.1639 229.11,63.8306 230.5,65.5C 228.738,65.6427 227.071,65.3094 225.5,64.5C 224.054,67.4061 225.054,68.7394 228.5,68.5C 229.994,68.2908 231.161,67.6241 232,66.5C 233.087,68.9316 233.587,68.5983 233.5,65.5C 233.5,63.8333 233.5,62.1667 233.5,60.5C 242.5,60.5 251.5,60.5 260.5,60.5C 260.5,59.5 260.5,58.5 260.5,57.5C 257.927,57.8515 255.594,57.3515 253.5,56C 254.769,56.1085 255.769,55.9418 256.5,55.5C 257.167,55.5 257.833,55.5 258.5,55.5C 259.386,56.7759 260.386,56.7759 261.5,55.5C 263.022,53.8437 262.689,52.677 260.5,52C 263.146,51.5026 265.813,51.3359 268.5,51.5 Z"/></g>
<g><path style="opacity:1" fill="#171617" d="M 50.5,57.5 C 67.851,58.2168 76.0176,67.2168 75,84.5C 68.2914,99.4389 57.4581,103.606 42.5,97C 32.7255,88.3064 30.8922,78.1397 37,66.5C 40.8258,62.3476 45.3258,59.3476 50.5,57.5 Z"/></g>
<g><path style="opacity:1" fill="#9ac8d9" d="M 270.5,53.5 C 271.167,53.5 271.833,53.5 272.5,53.5C 277.267,54.7973 281.934,54.7973 286.5,53.5C 290.857,53.5865 295.19,53.9198 299.5,54.5C 300.95,56.9228 302.95,58.9228 305.5,60.5C 298.583,61.6511 290.916,61.8177 282.5,61C 277.689,58.4689 273.689,55.9689 270.5,53.5 Z"/></g>
<g><path style="opacity:1" fill="#c52857" d="M 213.5,60.5 C 213.833,61.1667 214.167,61.8333 214.5,62.5C 209.167,62.5 203.833,62.5 198.5,62.5C 195.615,62.8064 192.948,62.4731 190.5,61.5C 198.17,61.222 205.836,60.8886 213.5,60.5 Z"/></g>
<g><path style="opacity:1" fill="#e44185" d="M 107.5,58.5 C 108.537,59.9303 109.204,61.597 109.5,63.5C 99.8468,64.1484 90.1802,64.4817 80.5,64.5C 79.3995,63.3951 78.7329,62.0618 78.5,60.5C 88.1486,59.5926 97.8153,58.9259 107.5,58.5 Z"/></g>
<g><path style="opacity:1" fill="#c66a93" d="M 162.5,62.5 C 171.652,61.5064 180.985,61.1731 190.5,61.5C 192.948,62.4731 195.615,62.8064 198.5,62.5C 196.052,63.4731 193.385,63.8064 190.5,63.5C 189.833,67.5 189.167,67.5 188.5,63.5C 185.167,63.5 181.833,63.5 178.5,63.5C 177.833,67.5 177.167,67.5 176.5,63.5C 171.786,63.6469 167.119,63.3136 162.5,62.5 Z"/></g>
<g><path style="opacity:1" fill="#ae4a98" d="M 69.5,83.5 C 68.8333,83.5 68.1667,83.5 67.5,83.5C 68.5024,70.3345 62.5024,64.5012 49.5,66C 46.6688,67.6657 44.3355,69.8324 42.5,72.5C 41.5,72.5 40.5,72.5 39.5,72.5C 47.0205,60.7457 56.1872,59.4123 67,68.5C 70.3695,73.1401 71.2028,78.1401 69.5,83.5 Z"/></g>
<g><path style="opacity:1" fill="#8b8b8c" d="M 290.5,64.5 C 298.125,64.4607 298.458,65.794 291.5,68.5C 290.571,67.3112 290.238,65.9778 290.5,64.5 Z"/></g>
<g><path style="opacity:1" fill="#8b8b8c" d="M 230.5,65.5 C 231.5,65.5 232.5,65.5 233.5,65.5C 233.587,68.5983 233.087,68.9316 232,66.5C 231.161,67.6241 229.994,68.2908 228.5,68.5C 225.054,68.7394 224.054,67.4061 225.5,64.5C 227.071,65.3094 228.738,65.6427 230.5,65.5 Z"/></g>
<g><path style="opacity:1" fill="#979798" d="M 302.5,64.5 C 304.017,64.5106 305.184,65.1772 306,66.5C 306.308,65.6919 306.808,65.0253 307.5,64.5C 308.759,68.94 307.592,69.6066 304,66.5C 303.692,67.3081 303.192,67.9747 302.5,68.5C 301.374,67.1916 301.374,65.8583 302.5,64.5 Z"/></g>
<g><path style="opacity:1" fill="#c8d3d9" d="M 125.5,62.5 C 128.239,66.0094 131.906,67.3428 136.5,66.5C 136.634,64.7085 136.301,63.0418 135.5,61.5C 135.5,61.1667 135.5,60.8333 135.5,60.5C 139.146,62.8171 142.48,65.4838 145.5,68.5C 144.391,68.5569 143.391,68.8902 142.5,69.5C 139.813,69.3359 137.146,69.5026 134.5,70C 135.381,70.7083 136.047,71.5416 136.5,72.5C 135.833,72.8333 135.167,73.1667 134.5,73.5C 132.319,73.7163 130.653,72.883 129.5,71C 125.848,70.5014 122.182,70.3347 118.5,70.5C 118.421,71.9305 118.754,73.2638 119.5,74.5C 117.955,75.4519 116.288,75.7852 114.5,75.5C 114.714,73.8561 114.38,72.3561 113.5,71C 110.854,70.5026 108.187,70.3359 105.5,70.5C 105.047,69.5416 104.381,68.7083 103.5,68C 106.226,67.8184 108.893,67.3184 111.5,66.5C 111.058,65.2613 110.391,64.2613 109.5,63.5C 109.204,61.597 108.537,59.9303 107.5,58.5C 107.5,58.1667 107.5,57.8333 107.5,57.5C 107.5,56.5 107.5,55.5 107.5,54.5C 109.288,53.3775 111.288,53.2109 113.5,54C 117.12,57.4665 121.12,60.2999 125.5,62.5 Z"/></g>
<g><path style="opacity:1" fill="#1f3972" d="M 135.5,61.5 C 136.301,63.0418 136.634,64.7085 136.5,66.5C 131.906,67.3428 128.239,66.0094 125.5,62.5C 128.786,61.7929 132.119,61.4595 135.5,61.5 Z"/></g>
<g><path style="opacity:1" fill="#0f50a3" d="M 115.5,63.5 C 116.5,63.5 117.5,63.5 118.5,63.5C 122.572,64.75 122.906,65.75 119.5,66.5C 117.018,66.8896 115.685,65.8896 115.5,63.5 Z"/></g>
<g><path style="opacity:1" fill="#d03e75" d="M 118.5,63.5 C 117.5,63.5 116.5,63.5 115.5,63.5C 114.152,62.4732 113.652,61.1398 114,59.5C 115.992,60.3281 117.492,61.6614 118.5,63.5 Z"/></g>
<g><path style="opacity:1" fill="#cccbcc" d="M 279.5,64.5 C 280.627,65.1217 281.627,65.955 282.5,67C 280.833,66.3333 279.167,66.3333 277.5,67C 278.381,66.2917 279.047,65.4584 279.5,64.5 Z"/></g>
<g><path style="opacity:1" fill="#818182" d="M 310.5,64.5 C 312.167,64.5 313.833,64.5 315.5,64.5C 315.5,65.8333 315.5,67.1667 315.5,68.5C 313.833,68.5 312.167,68.5 310.5,68.5C 310.5,67.1667 310.5,65.8333 310.5,64.5 Z"/></g>
<g><path style="opacity:1" fill="#77baea" d="M 355.5,63.5 C 359.915,64.2426 363.248,66.5759 365.5,70.5C 365.158,71.3382 364.492,71.6716 363.5,71.5C 359.795,67.3154 355.128,65.3154 349.5,65.5C 351.102,63.9261 353.102,63.2594 355.5,63.5 Z"/></g>
<g><path style="opacity:1" fill="#1e81bb" d="M 109.5,63.5 C 110.391,64.2613 111.058,65.2613 111.5,66.5C 108.893,67.3184 106.226,67.8184 103.5,68C 104.381,68.7083 105.047,69.5416 105.5,70.5C 99.642,70.1778 93.9753,70.5111 88.5,71.5C 86.5,71.5 84.5,71.5 82.5,71.5C 82.5997,68.8915 81.9331,66.5582 80.5,64.5C 90.1802,64.4817 99.8468,64.1484 109.5,63.5 Z"/></g>
<g><path style="opacity:1" fill="#8a8a8a" d="M 284.5,64.5 C 286.213,65.305 287.879,66.305 289.5,67.5C 286.167,69.2518 284.501,68.2518 284.5,64.5 Z"/></g>
<g><path style="opacity:1" fill="#ddd613" d="M 72.5,98.5 C 74.5626,95.3816 76.396,92.0482 78,88.5C 78.9389,85.2359 79.4389,81.9026 79.5,78.5C 79.7884,73.0249 78.1218,68.3583 74.5,64.5C 71.9743,59.6765 72.8076,59.3431 77,63.5C 83.4069,75.2767 82.7403,86.61 75,97.5C 74.3292,98.2524 73.4959,98.5858 72.5,98.5 Z"/></g>
<g><path style="opacity:1" fill="#272a2f" d="M 270.5,67.5 C 271.5,67.5 272.5,67.5 273.5,67.5C 273.5,69.5 273.5,71.5 273.5,73.5C 265.461,73.9817 257.461,73.9817 249.5,73.5C 256.487,70.9799 263.487,68.9799 270.5,67.5 Z"/></g>
<g><path style="opacity:1" fill="#d8e0e9" d="M 162.5,62.5 C 167.119,63.3136 171.786,63.6469 176.5,63.5C 177.167,67.5 177.833,67.5 178.5,63.5C 181.833,63.5 185.167,63.5 188.5,63.5C 189.167,67.5 189.833,67.5 190.5,63.5C 193.385,63.8064 196.052,63.4731 198.5,62.5C 203.833,62.5 209.167,62.5 214.5,62.5C 214.942,66.1545 215.276,69.8212 215.5,73.5C 214.5,73.5 213.5,73.5 212.5,73.5C 212.5,74.8333 212.5,76.1667 212.5,77.5C 212.5,78.1667 212.5,78.8333 212.5,79.5C 212.5,81.5 212.5,83.5 212.5,85.5C 208.674,86.9997 204.674,87.6664 200.5,87.5C 200.5,86.5 200.5,85.5 200.5,84.5C 200.817,81.4281 200.484,78.4281 199.5,75.5C 197.582,78.5843 196.249,81.9176 195.5,85.5C 195.586,86.4959 195.252,87.3292 194.5,88C 192.5,88.1667 190.5,88.3333 188.5,88.5C 186.036,88.4101 183.87,87.7435 182,86.5C 180.178,88.0454 178.011,88.712 175.5,88.5C 172.214,88.7737 170.047,87.4403 169,84.5C 167.786,86.0488 166.286,87.2155 164.5,88C 160.848,88.4986 157.182,88.6653 153.5,88.5C 151.833,88.5 150.167,88.5 148.5,88.5C 146.538,81.9826 145.538,75.3159 145.5,68.5C 145.833,68.5 146.167,68.5 146.5,68.5C 147.167,72.1667 147.833,75.8333 148.5,79.5C 148.5,80.1667 148.5,80.8333 148.5,81.5C 148.421,82.9305 148.754,84.2638 149.5,85.5C 154.467,86.6623 159.467,86.8289 164.5,86C 167.889,83.6785 168.223,81.1785 165.5,78.5C 165.196,77.8501 164.863,77.1835 164.5,76.5C 167.087,73.677 167.087,71.0103 164.5,68.5C 164.389,67.8826 164.056,67.3826 163.5,67C 159.644,66.8227 155.977,66.3227 152.5,65.5C 155.574,63.698 158.908,62.698 162.5,62.5 Z"/></g>
<g><path style="opacity:1" fill="#243a8a" d="M 211.5,64.5 C 213.344,66.2789 214.01,68.6122 213.5,71.5C 212.167,71.5 210.833,71.5 209.5,71.5C 207.283,72.3686 204.95,72.702 202.5,72.5C 201.5,72.5 200.5,72.5 199.5,72.5C 199.936,70.2537 200.603,68.0871 201.5,66C 205.025,65.8213 208.359,65.3213 211.5,64.5 Z"/></g>
<g><path style="opacity:1" fill="#93a2cb" d="M 196.5,65.5 C 201.305,64.5128 206.305,64.1795 211.5,64.5C 208.359,65.3213 205.025,65.8213 201.5,66C 200.603,68.0871 199.936,70.2537 199.5,72.5C 198.833,72.8333 198.167,73.1667 197.5,73.5C 198.371,70.8877 199.037,68.221 199.5,65.5C 198.5,65.5 197.5,65.5 196.5,65.5 Z"/></g>
<g><path style="opacity:1" fill="#d7d216" d="M 34.5,60.5 C 35.1667,60.5 35.5,60.8333 35.5,61.5C 26.2108,73.3982 26.2108,85.3982 35.5,97.5C 35.3764,98.1067 35.0431,98.44 34.5,98.5C 26.957,89.314 24.957,78.9806 28.5,67.5C 30.5,65.1667 32.5,62.8333 34.5,60.5 Z"/></g>
<g><path style="opacity:1" fill="#292c2c" d="M 142.5,69.5 C 140.819,71.0075 138.819,72.0075 136.5,72.5C 136.047,71.5416 135.381,70.7083 134.5,70C 137.146,69.5026 139.813,69.3359 142.5,69.5 Z"/></g>
<g><path style="opacity:1" fill="#3c5198" d="M 152.5,65.5 C 155.977,66.3227 159.644,66.8227 163.5,67C 164.056,67.3826 164.389,67.8826 164.5,68.5C 163.216,70.6138 161.216,71.6138 158.5,71.5C 157.5,71.5 156.5,71.5 155.5,71.5C 155.5,72.5 155.5,73.5 155.5,74.5C 154.732,73.7375 154.232,72.7375 154,71.5C 153.517,72.448 153.351,73.448 153.5,74.5C 151.833,74.5 150.167,74.5 148.5,74.5C 148.5,76.1667 148.5,77.8333 148.5,79.5C 147.833,75.8333 147.167,72.1667 146.5,68.5C 148.25,67.1302 150.25,66.1302 152.5,65.5 Z"/></g>
<g><path style="opacity:1" fill="#e33a7b" d="M 214.5,62.5 C 220.978,66.5763 227.311,70.9096 233.5,75.5C 226.636,77.2841 219.636,77.9508 212.5,77.5C 212.5,76.1667 212.5,74.8333 212.5,73.5C 213.5,73.5 214.5,73.5 215.5,73.5C 215.276,69.8212 214.942,66.1545 214.5,62.5 Z"/></g>
<g><path style="opacity:1" fill="#39428e" d="M 379.5,65.5 C 384.97,66.7681 390.304,68.4348 395.5,70.5C 395.5,71.8333 395.5,73.1667 395.5,74.5C 390.341,73.5906 385.341,72.0906 380.5,70C 378.935,68.4943 378.601,66.9943 379.5,65.5 Z"/></g>
<g><path style="opacity:1" fill="#1f3683" d="M 164.5,68.5 C 167.087,71.0103 167.087,73.677 164.5,76.5C 164.863,77.1835 165.196,77.8501 165.5,78.5C 160.167,79.8333 154.833,79.8333 149.5,78.5C 149.737,79.791 149.404,80.791 148.5,81.5C 148.5,80.8333 148.5,80.1667 148.5,79.5C 148.5,77.8333 148.5,76.1667 148.5,74.5C 150.167,74.5 151.833,74.5 153.5,74.5C 153.351,73.448 153.517,72.448 154,71.5C 154.232,72.7375 154.732,73.7375 155.5,74.5C 156.5,74.5 157.5,74.5 158.5,74.5C 158.5,73.5 158.5,72.5 158.5,71.5C 161.216,71.6138 163.216,70.6138 164.5,68.5 Z"/></g>
<g><path style="opacity:1" fill="#3c4b66" d="M 298.5,70.5 C 298.5,71.1667 298.5,71.8333 298.5,72.5C 281.167,71.8333 281.167,71.1667 298.5,70.5 Z"/></g>
<g><path style="opacity:1" fill="#66191a" d="M 298.5,70.5 C 310.5,71.1667 310.5,71.8333 298.5,72.5C 298.5,71.8333 298.5,71.1667 298.5,70.5 Z"/></g>
<g><path style="opacity:1" fill="#2d3948" d="M 88.5,71.5 C 93.9753,70.5111 99.642,70.1778 105.5,70.5C 108.187,70.3359 110.854,70.5026 113.5,71C 114.38,72.3561 114.714,73.8561 114.5,75.5C 116.288,75.7852 117.955,75.4519 119.5,74.5C 118.754,73.2638 118.421,71.9305 118.5,70.5C 122.182,70.3347 125.848,70.5014 129.5,71C 130.653,72.883 132.319,73.7163 134.5,73.5C 134.5,73.8333 134.5,74.1667 134.5,74.5C 125.745,78.2921 116.912,81.9588 108,85.5C 107.5,85.3333 107,85.1667 106.5,85C 107.743,83.1303 108.41,80.9637 108.5,78.5C 108.461,76.0478 107.794,74.0478 106.5,72.5C 100.69,71.5104 94.69,71.1771 88.5,71.5 Z"/></g>
<g><path style="opacity:1" fill="#8a2f4c" d="M 145.5,68.5 C 145.538,75.3159 146.538,81.9826 148.5,88.5C 150.167,88.5 151.833,88.5 153.5,88.5C 153.5,88.8333 153.5,89.1667 153.5,89.5C 145.316,89.8257 137.316,89.4924 129.5,88.5C 133.182,88.6653 136.848,88.4986 140.5,88C 138.934,87.3918 137.6,86.5585 136.5,85.5C 139.85,85.665 143.183,85.4983 146.5,85C 142.307,81.6349 138.307,78.1349 134.5,74.5C 134.5,74.1667 134.5,73.8333 134.5,73.5C 135.167,73.1667 135.833,72.8333 136.5,72.5C 138.819,72.0075 140.819,71.0075 142.5,69.5C 143.391,68.8902 144.391,68.5569 145.5,68.5 Z"/></g>
<g><path style="opacity:1" fill="#e9eef6" d="M 158.5,71.5 C 158.5,72.5 158.5,73.5 158.5,74.5C 157.5,74.5 156.5,74.5 155.5,74.5C 155.5,73.5 155.5,72.5 155.5,71.5C 156.5,71.5 157.5,71.5 158.5,71.5 Z"/></g>
<g><path style="opacity:0.796" fill="#19191a" d="M 18.5,34.5 C 21.7682,34.6343 24.1016,36.1343 25.5,39C 31.8716,41.0821 38.0383,40.9155 44,38.5C 43.9591,41.8041 43.6257,45.1374 43,48.5C 42.79,46.9419 42.29,45.6085 41.5,44.5C 40.8333,43.1667 40.1667,43.1667 39.5,44.5C 36.2516,44.2382 33.2516,44.2382 30.5,44.5C 28.9582,45.3007 27.2915,45.634 25.5,45.5C 24.8333,45.5 24.1667,45.5 23.5,45.5C 23.1667,45.5 22.8333,45.5 22.5,45.5C 22.5,44.8333 22.1667,44.5 21.5,44.5C 21.2648,43.9033 20.7648,43.5699 20,43.5C 18.6974,43.9783 17.5307,44.645 16.5,45.5C 13.8007,42.7134 11.4673,42.8801 9.5,46C 11.0606,50.1559 13.7272,51.6559 17.5,50.5C 18.1667,50.5 18.8333,50.5 19.5,50.5C 18.6851,51.8366 17.5185,52.8366 16,53.5C 15.7306,56.3516 14.8972,59.0182 13.5,61.5C 13.4301,64.7978 14.0968,68.1312 15.5,71.5C 18.4041,73.2861 21.4041,73.6194 24.5,72.5C 25.5,69.8333 26.5,67.1667 27.5,64.5C 26.9747,63.8076 26.3081,63.3076 25.5,63C 26.7932,62.51 28.1266,62.3433 29.5,62.5C 29.3713,64.2161 29.038,65.8828 28.5,67.5C 24.957,78.9806 26.957,89.314 34.5,98.5C 35.7927,99.6448 36.9593,99.3115 38,97.5C 39.5295,98.6573 40.6961,99.9906 41.5,101.5C 40.448,101.351 39.448,101.517 38.5,102C 41.9518,103.226 45.2852,104.726 48.5,106.5C 49.086,106.291 49.586,105.957 50,105.5C 53.6399,107.486 57.1399,107.486 60.5,105.5C 61.2975,105.043 61.6309,104.376 61.5,103.5C 62.3143,101.727 63.6476,101.227 65.5,102C 63.1192,103.247 63.4525,103.58 66.5,103C 68.6187,101.036 70.1187,98.8695 71,96.5C 71.2784,97.4158 71.7784,98.0825 72.5,98.5C 72.4142,99.4959 72.7476,100.329 73.5,101C 72.6195,101.708 71.9528,102.542 71.5,103.5C 69.572,105.474 67.2387,106.974 64.5,108C 57.8333,108.667 51.1667,108.667 44.5,108C 39.8456,106.338 35.8456,103.671 32.5,100C 28.1866,99.2646 23.8533,98.7646 19.5,98.5C 19.1918,92.5746 19.5251,86.7412 20.5,81C 17.0736,79.3466 13.4069,78.5133 9.5,78.5C 9.23897,74.5075 9.90564,70.6742 11.5,67C 9.73432,57.7719 7.73432,48.6052 5.5,39.5C 9.55461,39.8242 13.5546,39.4909 17.5,38.5C 18.2458,37.2638 18.5792,35.9305 18.5,34.5 Z"/></g>
<g><path style="opacity:1" fill="#fc7381" d="M 16.5,46.5 C 17.3382,46.8417 17.6716,47.5084 17.5,48.5C 15.5328,48.7394 13.6995,48.4061 12,47.5C 11.3333,46.5 11.3333,45.5 12,44.5C 13.049,46.1066 14.549,46.7733 16.5,46.5 Z"/></g>
<g><path style="opacity:0.989" fill="#454544" d="M 428.5,82.5 C 430.167,84.5 431.833,86.5 433.5,88.5C 422.006,86.2738 410.673,83.1072 399.5,79C 400.056,78.6174 400.389,78.1174 400.5,77.5C 399.005,77.4148 398.005,78.0815 397.5,79.5C 399.546,81.1962 401.879,82.5295 404.5,83.5C 403.933,85.9823 403.266,88.3157 402.5,90.5C 402.119,89.0689 401.119,88.2355 399.5,88C 403.554,86.0588 403.22,85.2254 398.5,85.5C 399.609,84.71 400.942,84.21 402.5,84C 401.667,83.8333 400.833,83.6667 400,83.5C 398.463,84.1136 397.13,84.1136 396,83.5C 395.722,84.4158 395.222,85.0825 394.5,85.5C 377.232,84.1795 377.232,83.5128 394.5,83.5C 394.368,80.4299 394.701,77.4299 395.5,74.5C 395.5,73.1667 395.5,71.8333 395.5,70.5C 395.5,69.5 395.5,68.5 395.5,67.5C 403.235,67.8614 410.902,68.6947 418.5,70C 422.807,73.4647 426.141,77.6313 428.5,82.5 Z"/></g>
<g><path style="opacity:1" fill="#828138" d="M 403.5,73.5 C 403.5,74.1667 403.5,74.8333 403.5,75.5C 403.179,77.0481 402.179,77.7148 400.5,77.5C 400.5,75.8333 400.5,74.1667 400.5,72.5C 401.791,72.2627 402.791,72.596 403.5,73.5 Z"/></g>
<g><path style="opacity:1" fill="#87909b" d="M 403.5,73.5 C 407.789,74.5283 412.289,74.5283 417,73.5C 417.692,74.0253 418.192,74.6919 418.5,75.5C 413.449,76.7786 408.449,76.7786 403.5,75.5C 403.5,74.8333 403.5,74.1667 403.5,73.5 Z"/></g>
<g><path style="opacity:1" fill="#1a2250" d="M 209.5,71.5 C 209.826,75.8839 209.492,80.2172 208.5,84.5C 206.591,85.3482 204.591,85.6816 202.5,85.5C 202.5,81.1667 202.5,76.8333 202.5,72.5C 204.95,72.702 207.283,72.3686 209.5,71.5 Z"/></g>
<g><path style="opacity:1" fill="#223275" d="M 196.5,65.5 C 197.5,65.5 198.5,65.5 199.5,65.5C 199.037,68.221 198.371,70.8877 197.5,73.5C 196.013,77.7826 194.679,82.116 193.5,86.5C 190.5,86.5 187.5,86.5 184.5,86.5C 184.752,83.6802 184.252,81.0135 183,78.5C 182.235,81.1959 181.068,83.6959 179.5,86C 177.098,86.8141 174.765,86.6474 172.5,85.5C 170.807,79.3922 168.807,73.3922 166.5,67.5C 169.106,66.3483 171.773,66.1816 174.5,67C 176.944,77.0178 178.611,76.8511 179.5,66.5C 181.857,66.3367 184.19,66.5034 186.5,67C 187.207,69.5197 188.04,72.0197 189,74.5C 190.197,71.9109 191.197,69.2442 192,66.5C 193.356,65.6198 194.856,65.2865 196.5,65.5 Z"/></g>
<g><path style="opacity:1" fill="#1a2026" d="M 321.5,83.5 C 317.254,84.4648 313.087,84.7981 309,84.5C 308.402,88.0571 307.569,91.5571 306.5,95C 306.833,95.5 307.167,96 307.5,96.5C 309.516,95.2941 311.516,95.2941 313.5,96.5C 311.453,98.0152 309.119,98.8485 306.5,99C 307.5,99.8333 308.5,100.667 309.5,101.5C 309.291,102.086 308.957,102.586 308.5,103C 283.997,103.83 259.663,103.663 235.5,102.5C 241.765,100.875 247.765,98.3748 253.5,95C 259.126,93.1775 264.792,91.6775 270.5,90.5C 270.923,88.2188 270.256,86.5521 268.5,85.5C 270.072,84.3127 271.739,83.3127 273.5,82.5C 277.048,81.8699 280.381,80.8699 283.5,79.5C 284.15,79.8039 284.817,80.1373 285.5,80.5C 287.943,78.9447 290.61,78.278 293.5,78.5C 293.334,86.1739 293.5,93.8406 294,101.5C 297.151,95.1978 300.318,88.8644 303.5,82.5C 309.833,81.1667 316.167,81.1667 322.5,82.5C 322.376,83.1067 322.043,83.44 321.5,83.5 Z"/></g>
<g><path style="opacity:1" fill="#ddd513" d="M 331.5,60.5 C 332.167,60.5 332.833,60.5 333.5,60.5C 324.566,72.0001 324.233,83.6668 332.5,95.5C 333.976,97.6626 333.643,98.3293 331.5,97.5C 322.171,85.1334 322.171,72.8 331.5,60.5 Z"/></g>
<g><path style="opacity:1" fill="#9aaac0" d="M 283.5,79.5 C 280.381,80.8699 277.048,81.8699 273.5,82.5C 273.167,81.8333 272.833,81.1667 272.5,80.5C 276.064,79.5773 279.731,79.244 283.5,79.5 Z"/></g>
<g><path style="opacity:1" fill="#e6457d" d="M 200.5,84.5 C 199.833,84.5 199.5,84.8333 199.5,85.5C 198.167,85.5 196.833,85.5 195.5,85.5C 196.249,81.9176 197.582,78.5843 199.5,75.5C 200.484,78.4281 200.817,81.4281 200.5,84.5 Z"/></g>
<g><path style="opacity:1" fill="#d73269" d="M 212.5,79.5 C 213.973,80.072 215.307,80.9054 216.5,82C 215.167,82.6667 215.167,83.3333 216.5,84C 215.255,84.7914 213.922,85.2914 212.5,85.5C 212.5,83.5 212.5,81.5 212.5,79.5 Z"/></g>
<g><path style="opacity:1" fill="#21252a" d="M 106.5,72.5 C 107.794,74.0478 108.461,76.0478 108.5,78.5C 108.41,80.9637 107.743,83.1303 106.5,85C 107,85.1667 107.5,85.3333 108,85.5C 116.912,81.9588 125.745,78.2921 134.5,74.5C 138.307,78.1349 142.307,81.6349 146.5,85C 143.183,85.4983 139.85,85.665 136.5,85.5C 132.833,85.5 129.167,85.5 125.5,85.5C 127.033,84.6122 129.366,84.1122 132.5,84C 130.5,83.6667 128.5,83.3333 126.5,83C 128.615,82.5756 129.448,81.4089 129,79.5C 121.228,83.9804 113.061,87.147 104.5,89C 105.696,88.3457 105.696,87.8457 104.5,87.5C 102.885,88.154 101.218,88.654 99.5,89C 100.737,89.2321 101.737,89.7321 102.5,90.5C 101.833,90.5 101.5,90.8333 101.5,91.5C 98.6097,91.4732 97.6097,90.3065 98.5,88C 98.1404,82.7807 97.1404,77.7807 95.5,73C 99.1516,72.5014 102.818,72.3347 106.5,72.5 Z"/></g>
<g><path style="opacity:1" fill="#1d2350" d="M 165.5,78.5 C 168.223,81.1785 167.889,83.6785 164.5,86C 159.467,86.8289 154.467,86.6623 149.5,85.5C 148.754,84.2638 148.421,82.9305 148.5,81.5C 149.404,80.791 149.737,79.791 149.5,78.5C 154.833,79.8333 160.167,79.8333 165.5,78.5 Z"/></g>
<g><path style="opacity:1" fill="#dde2e8" d="M 155.5,80.5 C 156.833,80.5 158.167,80.5 159.5,80.5C 159.5,81.5 159.5,82.5 159.5,83.5C 158.167,83.5 156.833,83.5 155.5,83.5C 155.5,82.5 155.5,81.5 155.5,80.5 Z"/></g>
<g><path style="opacity:1" fill="#476bb3" d="M 355.5,63.5 C 353.102,63.2594 351.102,63.9261 349.5,65.5C 338.938,69.6678 336.105,77.0012 341,87.5C 347.622,93.8121 354.622,94.1455 362,88.5C 366.116,83.1787 366.616,77.512 363.5,71.5C 364.492,71.6716 365.158,71.3382 365.5,70.5C 369.986,78.2695 368.986,85.4361 362.5,92C 350.538,98.5677 341.705,95.7344 336,83.5C 334.8,68.8688 341.3,62.2021 355.5,63.5 Z"/></g>
<g><path style="opacity:0.926" fill="#0f1114" d="M 273.5,82.5 C 271.739,83.3127 270.072,84.3127 268.5,85.5C 263.465,89.0364 257.798,91.5364 251.5,93C 244.822,96.509 238.156,99.6757 231.5,102.5C 224.469,103.295 217.469,103.628 210.5,103.5C 207.63,102.878 204.796,102.211 202,101.5C 200.915,102.293 199.748,102.96 198.5,103.5C 193.315,101.948 187.981,101.281 182.5,101.5C 164.482,102.694 146.482,102.694 128.5,101.5C 140.993,100.669 153.66,100.169 166.5,100C 166.833,99.6667 167.167,99.3333 167.5,99C 163.5,98.6667 159.5,98.3333 155.5,98C 159.821,97.501 164.154,97.3343 168.5,97.5C 173.167,97.5 177.833,97.5 182.5,97.5C 188.653,98.6533 194.986,98.82 201.5,98C 207.5,95.6667 213.5,93.3333 219.5,91C 234.451,89.9292 249.118,87.2625 263.5,83C 266.817,82.5017 270.15,82.335 273.5,82.5 Z"/></g>
<g><path style="opacity:1" fill="#29384b" d="M 272.5,80.5 C 272.833,81.1667 273.167,81.8333 273.5,82.5C 270.15,82.335 266.817,82.5017 263.5,83C 249.118,87.2625 234.451,89.9292 219.5,91C 213.5,93.3333 207.5,95.6667 201.5,98C 194.986,98.82 188.653,98.6533 182.5,97.5C 188.599,97.8334 193.932,97.5 198.5,96.5C 205.817,94.3611 213.151,91.8611 220.5,89C 224.833,88.6667 229.167,88.3333 233.5,88C 246.351,84.7038 259.351,82.2038 272.5,80.5 Z"/></g>
<g><path style="opacity:0.875" fill="#15171b" d="M 72.5,55.5 C 73.391,56.1098 74.391,56.4431 75.5,56.5C 75.5,56.8333 75.5,57.1667 75.5,57.5C 75.5,58.1667 75.8333,58.5 76.5,58.5C 76.8333,59.5 77.5,60.1667 78.5,60.5C 78.7329,62.0618 79.3995,63.3951 80.5,64.5C 81.9331,66.5582 82.5997,68.8915 82.5,71.5C 84.5,71.5 86.5,71.5 88.5,71.5C 94.69,71.1771 100.69,71.5104 106.5,72.5C 102.818,72.3347 99.1516,72.5014 95.5,73C 97.1404,77.7807 98.1404,82.7807 98.5,88C 97.6097,90.3065 98.6097,91.4732 101.5,91.5C 103.359,92.5942 105.359,93.4275 107.5,94C 127.983,95.208 148.316,96.3747 168.5,97.5C 164.154,97.3343 159.821,97.501 155.5,98C 159.5,98.3333 163.5,98.6667 167.5,99C 167.167,99.3333 166.833,99.6667 166.5,100C 153.66,100.169 140.993,100.669 128.5,101.5C 109.455,101.795 90.4554,102.462 71.5,103.5C 71.9528,102.542 72.6195,101.708 73.5,101C 72.7476,100.329 72.4142,99.4959 72.5,98.5C 73.4959,98.5858 74.3292,98.2524 75,97.5C 82.7403,86.61 83.4069,75.2767 77,63.5C 72.8076,59.3431 71.9743,59.6765 74.5,64.5C 72.8333,63.5 71.5,62.1667 70.5,60.5C 73.2302,59.4891 73.8968,57.8225 72.5,55.5 Z"/></g>
<g><path style="opacity:1" fill="#e9b0dd" d="M 125.5,85.5 C 129.167,85.5 132.833,85.5 136.5,85.5C 137.6,86.5585 138.934,87.3918 140.5,88C 136.848,88.4986 133.182,88.6653 129.5,88.5C 127.77,87.9744 126.436,86.9744 125.5,85.5 Z"/></g>
<g><path style="opacity:1" fill="#234998" d="M 428.5,82.5 C 432.958,84.2288 437.291,86.2288 441.5,88.5C 438.995,89.4967 436.328,89.4967 433.5,88.5C 431.833,86.5 430.167,84.5 428.5,82.5 Z"/></g>
<g><path style="opacity:1" fill="#313130" d="M 67.5,83.5 C 62.2406,92.9047 54.9073,94.9047 45.5,89.5C 40.4931,84.4722 39.4931,78.8055 42.5,72.5C 44.3355,69.8324 46.6688,67.6657 49.5,66C 62.5024,64.5012 68.5024,70.3345 67.5,83.5 Z"/></g>
<g><path style="opacity:1" fill="#69686b" d="M 51.5,73.5 C 56.6579,72.3312 59.6579,74.3312 60.5,79.5C 57.4601,86.2552 53.6268,86.9219 49,81.5C 48.0182,78.2253 48.8515,75.5586 51.5,73.5 Z"/></g>
<g><path style="opacity:1" fill="#2a2a2c" d="M 52.5,74.5 C 58.6426,75.0262 59.9759,77.8595 56.5,83C 51.5454,84.3758 49.3787,82.5425 50,77.5C 51.045,76.6266 51.8783,75.6266 52.5,74.5 Z"/></g>
<g><path style="opacity:1" fill="#75111e" d="M 195.5,85.5 C 196.833,85.5 198.167,85.5 199.5,85.5C 199.5,86.5 199.5,87.5 199.5,88.5C 184.195,89.4358 168.862,89.7691 153.5,89.5C 153.5,89.1667 153.5,88.8333 153.5,88.5C 157.182,88.6653 160.848,88.4986 164.5,88C 166.286,87.2155 167.786,86.0488 169,84.5C 170.047,87.4403 172.214,88.7737 175.5,88.5C 178.011,88.712 180.178,88.0454 182,86.5C 183.87,87.7435 186.036,88.4101 188.5,88.5C 190.5,88.3333 192.5,88.1667 194.5,88C 195.252,87.3292 195.586,86.4959 195.5,85.5 Z"/></g>
<g><path style="opacity:1" fill="#33312f" d="M 349.5,65.5 C 355.128,65.3154 359.795,67.3154 363.5,71.5C 366.616,77.512 366.116,83.1787 362,88.5C 354.622,94.1455 347.622,93.8121 341,87.5C 336.105,77.0012 338.938,69.6678 349.5,65.5 Z"/></g>
<g><path style="opacity:1" fill="#202020" d="M 355.5,84.5 C 355.389,85.1174 355.056,85.6174 354.5,86C 343.128,87.2798 339.795,82.6131 344.5,72C 350.769,68.0287 356.269,68.862 361,74.5C 361.79,77.634 361.457,80.634 360,83.5C 358.644,84.3802 357.144,84.7135 355.5,84.5 Z"/></g>
<g><path style="opacity:1" fill="#68686a" d="M 355.5,75.5 C 358.09,78.3833 358.09,81.3833 355.5,84.5C 350.385,86.1067 347.052,84.2733 345.5,79C 347.433,73.304 350.767,72.1373 355.5,75.5 Z"/></g>
<g><path style="opacity:1" fill="#17171a" d="M 355.5,75.5 C 357.18,82.9956 354.68,84.9956 348,81.5C 347.056,75.2811 349.556,73.2811 355.5,75.5 Z"/></g>
<g><path style="opacity:1" fill="#545455" d="M 350.5,76.5 C 355.394,77.5396 355.727,79.5396 351.5,82.5C 348.529,80.6621 348.195,78.6621 350.5,76.5 Z"/></g>
<g><path style="opacity:1" fill="#63717a" d="M 138.5,90.5 C 141.247,90.1866 143.914,90.52 146.5,91.5C 145.167,91.8333 143.833,92.1667 142.5,92.5C 140.667,92.4146 139.334,91.7479 138.5,90.5 Z"/></g>
<g><path style="opacity:0.848" fill="#252524" d="M 400.5,77.5 C 400.389,78.1174 400.056,78.6174 399.5,79C 410.673,83.1072 422.006,86.2738 433.5,88.5C 436.328,89.4967 438.995,89.4967 441.5,88.5C 443.291,89.4832 444.791,90.8165 446,92.5C 446.986,91.8288 448.153,91.8288 449.5,92.5C 449.5,93.5 449.5,94.5 449.5,95.5C 448.178,95.67 447.011,95.3366 446,94.5C 440.936,98.198 435.27,100.198 429,100.5C 422.335,99.9748 415.835,99.3082 409.5,98.5C 409.5,96.8333 409.5,95.1667 409.5,93.5C 407.833,93.5 406.167,93.5 404.5,93.5C 404.167,93.5 403.833,93.5 403.5,93.5C 400.482,93.2962 397.482,92.9629 394.5,92.5C 394.5,90.1667 394.5,87.8333 394.5,85.5C 395.222,85.0825 395.722,84.4158 396,83.5C 397.13,84.1136 398.463,84.1136 400,83.5C 400.833,83.6667 401.667,83.8333 402.5,84C 400.942,84.21 399.609,84.71 398.5,85.5C 396.639,89.3282 397.973,90.9949 402.5,90.5C 403.266,88.3157 403.933,85.9823 404.5,83.5C 401.879,82.5295 399.546,81.1962 397.5,79.5C 398.005,78.0815 399.005,77.4148 400.5,77.5 Z"/></g>
<g><path style="opacity:1" fill="#abbcc5" d="M 398.5,85.5 C 403.22,85.2254 403.554,86.0588 399.5,88C 401.119,88.2355 402.119,89.0689 402.5,90.5C 397.973,90.9949 396.639,89.3282 398.5,85.5 Z"/></g>
<g><path style="opacity:1" fill="#7f8a92" d="M 404.5,86.5 C 407.684,86.8331 411.018,86.9998 414.5,87C 414.957,87.414 415.291,87.914 415.5,88.5C 412.936,89.1207 410.436,89.454 408,89.5C 406.271,89.0257 405.105,88.0257 404.5,86.5 Z"/></g>
<g><path style="opacity:1" fill="#d2a3d0" d="M 39.5,72.5 C 40.5,72.5 41.5,72.5 42.5,72.5C 39.4931,78.8055 40.4931,84.4722 45.5,89.5C 54.9073,94.9047 62.2406,92.9047 67.5,83.5C 68.1667,83.5 68.8333,83.5 69.5,83.5C 66.0877,92.7133 59.421,96.5466 49.5,95C 39.1059,90.3957 35.7726,82.8957 39.5,72.5 Z"/></g>
<g><path style="opacity:1" fill="#2b3135" d="M 168.5,95.5 C 163.637,95.8195 158.97,95.4861 154.5,94.5C 157.518,94.6646 160.518,94.498 163.5,94C 158.785,92.9002 154.118,92.7335 149.5,93.5C 149.5,92.5 149.5,91.5 149.5,90.5C 152.608,91.6137 155.775,91.6137 159,90.5C 161.685,90.5625 163.851,91.5625 165.5,93.5C 166.287,92.7579 166.953,91.9246 167.5,91C 170.882,90.1764 174.216,90.343 177.5,91.5C 174.383,92.744 171.383,94.0773 168.5,95.5 Z"/></g>
<g><path style="opacity:1" fill="#464f55" d="M 183.5,90.5 C 189.666,90.7001 195.999,90.7001 202.5,90.5C 202.649,91.552 202.483,92.552 202,93.5C 197.013,93.4558 192.013,93.1225 187,92.5C 184.607,94.994 183.44,94.3273 183.5,90.5 Z"/></g>
<g><path style="opacity:1" fill="#d6cf15" d="M 370.5,59.5 C 382.132,72.1463 382.465,85.1463 371.5,98.5C 370.957,98.44 370.624,98.1067 370.5,97.5C 379.783,85.4374 379.783,73.4374 370.5,61.5C 370.5,60.8333 370.5,60.1667 370.5,59.5 Z"/></g>
<g><path style="opacity:1" fill="#526074" d="M 101.5,91.5 C 101.5,90.8333 101.833,90.5 102.5,90.5C 106.991,92.0527 111.657,92.886 116.5,93C 129.163,93.6514 141.83,94.1514 154.5,94.5C 158.97,95.4861 163.637,95.8195 168.5,95.5C 178.494,95.9898 188.494,96.3231 198.5,96.5C 193.932,97.5 188.599,97.8334 182.5,97.5C 177.833,97.5 173.167,97.5 168.5,97.5C 148.316,96.3747 127.983,95.208 107.5,94C 105.359,93.4275 103.359,92.5942 101.5,91.5 Z"/></g>
<g><path style="opacity:1" fill="#37404d" d="M 272.5,92.5 C 276.22,92.5642 279.886,93.0642 283.5,94C 284.833,96 284.833,98 283.5,100C 274.308,102.158 264.974,102.825 255.5,102C 261.24,98.7212 266.906,95.5545 272.5,92.5 Z"/></g>
<g><path style="opacity:1" fill="#4e545d" d="M 268.5,85.5 C 270.256,86.5521 270.923,88.2188 270.5,90.5C 264.792,91.6775 259.126,93.1775 253.5,95C 247.765,98.3748 241.765,100.875 235.5,102.5C 234.167,102.5 232.833,102.5 231.5,102.5C 238.156,99.6757 244.822,96.509 251.5,93C 257.798,91.5364 263.465,89.0364 268.5,85.5 Z"/></g>
<g><path style="opacity:1" fill="#a3982e" d="M 336.5,100.5 C 338.819,100.992 340.819,101.992 342.5,103.5C 342.103,104.525 341.437,104.692 340.5,104C 338.681,103.26 337.348,102.093 336.5,100.5 Z"/></g>
<g><path style="opacity:1" fill="#84763a" d="M 365.5,101.5 C 365.938,101.435 366.272,101.601 366.5,102C 365.449,103.385 364.116,104.385 362.5,105C 360.365,105.605 360.031,105.105 361.5,103.5C 363.062,103.267 364.395,102.6 365.5,101.5 Z"/></g>
<g><path style="opacity:1" fill="#665e2e" d="M 41.5,101.5 C 44.6505,103.073 47.9839,104.073 51.5,104.5C 54.8167,103.947 58.15,103.614 61.5,103.5C 61.6309,104.376 61.2975,105.043 60.5,105.5C 57.1399,107.486 53.6399,107.486 50,105.5C 49.586,105.957 49.086,106.291 48.5,106.5C 45.2852,104.726 41.9518,103.226 38.5,102C 39.448,101.517 40.448,101.351 41.5,101.5 Z"/></g>
<g><path style="opacity:1" fill="#58512d" d="M 343.5,103.5 C 348.261,104.74 353.261,104.74 358.5,103.5C 357.618,105.384 356.118,106.717 354,107.5C 351.26,106.718 348.426,106.218 345.5,106C 344.244,105.583 343.577,104.75 343.5,103.5 Z"/></g>
</svg>
