<?xml version="1.0" encoding="UTF-8"?>
<!DOCTYPE svg PUBLIC "-//W3C//DTD SVG 1.1//EN" "http://www.w3.org/Graphics/SVG/1.1/DTD/svg11.dtd">
<svg xmlns="http://www.w3.org/2000/svg" version="1.1" width="585px" height="123px" style="shape-rendering:geometricPrecision; text-rendering:geometricPrecision; image-rendering:optimizeQuality; fill-rule:evenodd; clip-rule:evenodd" xmlns:xlink="http://www.w3.org/1999/xlink">
<g><path style="opacity:0.635" fill="#0f0f0e" d="M 247.5,5.5 C 246.993,6.85892 245.993,7.85892 244.5,8.5C 248.459,9.32654 252.459,9.82654 256.5,10C 255.377,11.0437 254.044,11.7104 252.5,12C 253.09,13.5095 253.756,15.0095 254.5,16.5C 256.179,14.8955 258.179,14.2289 260.5,14.5C 261.167,14.8333 261.833,15.1667 262.5,15.5C 265.724,16.0809 267.057,18.0809 266.5,21.5C 266,25.5 265.5,29.5 265,33.5C 264.623,34.9423 263.79,35.9423 262.5,36.5C 261.833,36.8333 261.167,37.1667 260.5,37.5C 252.401,39.9034 252.735,40.9034 261.5,40.5C 262.568,41.4345 263.901,41.7678 265.5,41.5C 265.5,41.8333 265.5,42.1667 265.5,42.5C 265.167,42.5 264.833,42.5 264.5,42.5C 261.733,43.0507 259.4,44.3841 257.5,46.5C 256.707,45.6446 257.04,44.8113 258.5,44C 257.906,43.5357 257.239,43.369 256.5,43.5C 252.929,43.5923 251.762,41.9257 253,38.5C 255.727,36.5895 258.727,35.2562 262,34.5C 263.316,31.3117 263.816,27.9783 263.5,24.5C 264.461,22.7354 264.795,20.7354 264.5,18.5C 248.163,18.3334 231.83,18.5001 215.5,19C 213.846,19.6077 212.179,20.1077 210.5,20.5C 208.638,18.5252 206.638,18.1919 204.5,19.5C 188.903,22.5672 173.569,26.2339 158.5,30.5C 145.618,33.262 132.785,36.262 120,39.5C 118.674,40.7989 117.34,42.1322 116,43.5C 115.312,44.3317 115.479,44.9984 116.5,45.5C 123.282,42.7213 130.282,40.7213 137.5,39.5C 139.735,40.2481 139.402,41.0814 136.5,42C 128.833,44.3333 121.167,46.6667 113.5,49C 111.918,51.0854 109.918,52.5854 107.5,53.5C 108.857,55.1856 110.19,56.8523 111.5,58.5C 111.5,58.8333 111.5,59.1667 111.5,59.5C 97.384,45.6105 81.384,42.9438 63.5,51.5C 62.7494,50.4265 61.7494,50.2599 60.5,51C 55.6445,54.3553 51.6445,58.522 48.5,63.5C 41.1936,61.9386 33.8602,60.4386 26.5,59C 25.5399,55.27 25.2065,51.4367 25.5,47.5C 25.8333,47.5 26.1667,47.5 26.5,47.5C 26.5,48.8333 26.5,50.1667 26.5,51.5C 36.1667,51.5 45.8333,51.5 55.5,51.5C 55.5,50.1667 55.5,48.8333 55.5,47.5C 59.4772,50.0052 63.4772,50.0052 67.5,47.5C 68.1174,47.3893 68.6174,47.056 69,46.5C 69.4396,44.1341 69.9396,41.8008 70.5,39.5C 70.7535,37.5992 70.4202,36.9326 69.5,37.5C 69.1667,37.5 68.8333,37.5 68.5,37.5C 68.5,36.5 68.5,35.5 68.5,34.5C 66.7085,34.366 65.0418,34.6993 63.5,35.5C 58.3595,34.5119 53.0262,34.1786 47.5,34.5C 45.2181,33.6103 42.8848,33.4436 40.5,34C 39.2888,34.8928 39.2888,35.7261 40.5,36.5C 44.7127,37.9114 49.046,38.5781 53.5,38.5C 47.8409,39.4083 42.1742,39.7417 36.5,39.5C 35.4104,38.6086 35.4104,37.6086 36.5,36.5C 32.2172,35.5078 27.8839,35.1744 23.5,35.5C 22.7988,31.2003 24.4655,28.5336 28.5,27.5C 31.7779,29.4773 35.1112,31.4773 38.5,33.5C 39.3081,33.1924 39.9747,32.6924 40.5,32C 36.8057,29.8218 33.1391,27.6552 29.5,25.5C 29.7713,23.6883 30.438,22.0217 31.5,20.5C 33.7081,23.0536 36.0414,25.5536 38.5,28C 39.4368,28.6917 40.1034,28.525 40.5,27.5C 41.391,28.1098 42.391,28.4431 43.5,28.5C 44.2674,29.172 44.9341,30.0053 45.5,31C 52.5237,31.8311 59.5237,31.6644 66.5,30.5C 66.032,28.8662 65.032,27.6995 63.5,27C 59.7778,26.7618 56.1111,26.2618 52.5,25.5C 51.8165,25.8627 51.1499,26.1961 50.5,26.5C 50.4431,25.391 50.1098,24.391 49.5,23.5C 51.3951,20.4433 54.0618,18.2767 57.5,17C 62.2867,16.1215 66.9534,16.4548 71.5,18C 73.4136,19.4133 74.7469,21.2466 75.5,23.5C 79.4836,23.6826 82.6502,25.3493 85,28.5C 86.6606,33.812 88.1606,39.1453 89.5,44.5C 95.2366,45.6192 100.403,47.9525 105,51.5C 106.987,50.782 108.821,49.782 110.5,48.5C 112.957,45.086 115.291,41.586 117.5,38C 145.125,31.1771 172.792,24.5104 200.5,18C 214.793,16.7756 229.127,16.1089 243.5,16C 242.205,13.2419 240.539,10.7419 238.5,8.5C 241.003,7.24115 243.503,5.90782 246,4.5C 246.765,4.56993 247.265,4.90326 247.5,5.5 Z M 43.5,28.5 C 45.4385,26.8372 47.7718,26.1706 50.5,26.5C 51.1499,26.1961 51.8165,25.8627 52.5,25.5C 56.1111,26.2618 59.7778,26.7618 63.5,27C 65.032,27.6995 66.032,28.8662 66.5,30.5C 59.5237,31.6644 52.5237,31.8311 45.5,31C 44.9341,30.0053 44.2674,29.172 43.5,28.5 Z"/></g>
<g><path style="opacity:0.941" fill="#2d2d2d" d="M 258.5,7.5 C 258.767,9.96527 259.434,12.2986 260.5,14.5C 258.179,14.2289 256.179,14.8955 254.5,16.5C 253.756,15.0095 253.09,13.5095 252.5,12C 254.044,11.7104 255.377,11.0437 256.5,10C 252.459,9.82654 248.459,9.32654 244.5,8.5C 245.993,7.85892 246.993,6.85892 247.5,5.5C 251.139,4.51849 254.639,4.18516 258,4.5C 258.483,5.44802 258.649,6.44802 258.5,7.5 Z"/></g>
<g><path style="opacity:0.056" fill="#eeeeee" d="M 258.5,7.5 C 260.837,9.50663 262.171,12.1733 262.5,15.5C 261.833,15.1667 261.167,14.8333 260.5,14.5C 259.434,12.2986 258.767,9.96527 258.5,7.5 Z"/></g>
<g><path style="opacity:0.678" fill="#09090a" d="M 40.5,26.5 C 40.5,26.8333 40.5,27.1667 40.5,27.5C 40.1034,28.525 39.4368,28.6917 38.5,28C 36.0414,25.5536 33.7081,23.0536 31.5,20.5C 30.438,22.0217 29.7713,23.6883 29.5,25.5C 28.6618,25.8417 28.3284,26.5084 28.5,27.5C 24.4655,28.5336 22.7988,31.2003 23.5,35.5C 23.631,36.2389 23.4643,36.9056 23,37.5C 21.9887,36.6634 20.8221,36.33 19.5,36.5C 19.19,39.7131 19.5233,42.7131 20.5,45.5C 21.2655,54.4789 21.5989,63.4789 21.5,72.5C 28.8748,73.7851 36.2081,74.9518 43.5,76C 44.7553,72.4861 46.0886,68.9861 47.5,65.5C 40.3245,63.3534 32.9912,61.5201 25.5,60C 23.9245,55.3294 23.2578,50.4961 23.5,45.5C 24.1667,45.5 24.8333,45.5 25.5,45.5C 25.5,46.1667 25.5,46.8333 25.5,47.5C 25.2065,51.4367 25.5399,55.27 26.5,59C 33.8602,60.4386 41.1936,61.9386 48.5,63.5C 51.6445,58.522 55.6445,54.3553 60.5,51C 61.7494,50.2599 62.7494,50.4265 63.5,51.5C 58.1667,54.8333 53.8333,59.1667 50.5,64.5C 42.3455,77.8208 42.5121,91.1541 51,104.5C 64.1938,121.475 80.6938,125.642 100.5,117C 116.733,105.986 122.566,90.8193 118,71.5C 116.643,68.1019 114.81,65.1019 112.5,62.5C 112.443,61.391 112.11,60.391 111.5,59.5C 111.5,59.1667 111.5,58.8333 111.5,58.5C 124.843,54.4929 138.176,50.4929 151.5,46.5C 148.752,50.7448 147.419,55.4115 147.5,60.5C 146.732,59.7375 146.232,58.7375 146,57.5C 138.037,63.8891 130.037,69.5558 122,74.5C 121.501,79.8229 121.334,85.1563 121.5,90.5C 131.57,87.9819 141.57,85.1485 151.5,82C 153.167,81.3333 154.833,81.3333 156.5,82C 144.94,85.2978 133.44,88.7978 122,92.5C 120.69,93.1301 119.856,94.1301 119.5,95.5C 119.5,96.5 119.5,97.5 119.5,98.5C 117.992,100.181 116.992,102.181 116.5,104.5C 116.5,106.833 116.5,109.167 116.5,111.5C 149.507,111.801 182.507,112.467 215.5,113.5C 222.655,113.559 229.655,112.559 236.5,110.5C 241.774,110.687 241.774,111.187 236.5,112C 271.839,112.294 307.173,112.794 342.5,113.5C 360.5,113.5 378.5,113.5 396.5,113.5C 396.439,111.408 395.439,109.908 393.5,109C 390.557,108.058 387.724,106.892 385,105.5C 384,106.833 383,108.167 382,109.5C 383.06,103.848 384.893,98.3482 387.5,93C 387.257,92.0979 386.923,91.2646 386.5,90.5C 388.5,90.5 389.5,89.5 389.5,87.5C 389.733,85.9382 390.4,84.6049 391.5,83.5C 392.268,82.7375 392.768,81.7375 393,80.5C 393.651,82.235 393.485,83.9017 392.5,85.5C 397.456,86.4941 402.456,86.8275 407.5,86.5C 407.5,83.5 407.5,80.5 407.5,77.5C 406.209,77.7373 405.209,77.404 404.5,76.5C 406.099,76.7678 407.432,76.4345 408.5,75.5C 409.51,70.4888 411.51,65.8221 414.5,61.5C 415.167,61.5 415.833,61.5 416.5,61.5C 406.562,78.0353 407.395,94.0353 419,109.5C 434.691,123.502 451.525,125.002 469.5,114C 480.162,104.493 485.496,92.6595 485.5,78.5C 485.5,78.8333 485.5,79.1667 485.5,79.5C 486.334,80.7479 487.667,81.4146 489.5,81.5C 491.045,81.4892 492.378,81.1558 493.5,80.5C 493.5,77.8333 493.5,75.1667 493.5,72.5C 490.289,71.6448 487.122,70.6448 484,69.5C 484.019,71.1075 484.185,72.7741 484.5,74.5C 484.649,75.552 484.483,76.552 484,77.5C 482.867,72.228 480.7,67.5613 477.5,63.5C 468.151,49.8357 455.151,44.3357 438.5,47C 432.915,48.459 427.915,50.959 423.5,54.5C 423.167,54.5 422.833,54.5 422.5,54.5C 423.04,50.3577 423.706,46.3577 424.5,42.5C 424.336,45.1873 424.503,47.854 425,50.5C 428.303,48.4322 431.803,46.7655 435.5,45.5C 436.228,43.8068 437.228,42.3068 438.5,41C 443.833,40.3333 449.167,40.3333 454.5,41C 456.976,42.3088 458.976,44.1421 460.5,46.5C 465.16,48.4947 469.494,50.9947 473.5,54C 477.579,58.4039 481.245,63.0706 484.5,68C 487.149,68.4523 489.649,69.2857 492,70.5C 492.5,70 493,69.5 493.5,69C 502.253,68.4751 510.919,69.1418 519.5,71C 527.243,73.4076 533.243,78.0742 537.5,85C 544.559,87.1775 551.225,90.0108 557.5,93.5C 569.866,91.7427 571.532,95.2427 562.5,104C 548.546,110.449 534.38,111.616 520,107.5C 517.925,108.134 515.759,108.468 513.5,108.5C 507.069,107.645 500.735,107.145 494.5,107C 492.58,101.803 491.913,96.3027 492.5,90.5C 490.401,89.7691 488.401,89.7691 486.5,90.5C 482.406,105.917 473.073,116.583 458.5,122.5C 450.167,122.5 441.833,122.5 433.5,122.5C 423.665,118.171 416.165,111.171 411,101.5C 408.165,100.084 405.498,98.417 403,96.5C 401.823,92.5082 403.323,90.8416 407.5,91.5C 407.5,90.5 407.5,89.5 407.5,88.5C 404.833,88.5 402.167,88.5 399.5,88.5C 399.5,97.5 399.5,106.5 399.5,115.5C 334.329,114.971 269.163,114.971 204,115.5C 177.168,114.925 150.335,114.425 123.5,114C 120.833,113.667 118.167,113.333 115.5,113C 114.299,112.097 113.465,110.931 113,109.5C 107.987,115.602 101.82,119.935 94.5,122.5C 86.1667,122.5 77.8333,122.5 69.5,122.5C 63.2545,120.11 57.9211,116.277 53.5,111C 47.8431,110.501 42.1764,110.334 36.5,110.5C 36.5,104.167 36.5,97.8333 36.5,91.5C 32.5743,91.9534 29.4077,90.6201 27,87.5C 26.8265,83.4592 26.3265,79.4592 25.5,75.5C 23.2906,74.8938 21.124,74.2272 19,73.5C 18.996,59.3986 17.8293,45.3986 15.5,31.5C 15.5698,30.2284 15.9032,29.0617 16.5,28C 23.1586,28.5877 27.3253,25.7544 29,19.5C 29.7247,18.9415 30.5581,18.6082 31.5,18.5C 35.113,20.4445 38.113,23.1112 40.5,26.5 Z M 343.5,41.5 C 345.255,42.0722 346.922,42.9055 348.5,44C 346.939,44.3176 345.772,45.1509 345,46.5C 344.648,44.7525 344.148,43.0858 343.5,41.5 Z"/></g>
<g><path style="opacity:0.621" fill="#a2a7aa" d="M 49.5,23.5 C 50.1098,24.391 50.4431,25.391 50.5,26.5C 47.7718,26.1706 45.4385,26.8372 43.5,28.5C 42.391,28.4431 41.391,28.1098 40.5,27.5C 40.5,27.1667 40.5,26.8333 40.5,26.5C 42.9966,24.1289 45.9966,23.1289 49.5,23.5 Z"/></g>
<g><path style="opacity:1" fill="#bcc807" d="M 204.5,19.5 C 205.239,19.369 205.906,19.5357 206.5,20C 191.41,24.0213 176.41,28.1879 161.5,32.5C 161.611,31.8826 161.944,31.3826 162.5,31C 161.207,30.51 159.873,30.3433 158.5,30.5C 173.569,26.2339 188.903,22.5672 204.5,19.5 Z"/></g>
<g><path style="opacity:1" fill="#158c91" d="M 263.5,24.5 C 253.468,24.2705 243.468,24.6039 233.5,25.5C 220.984,27.0366 208.651,29.5366 196.5,33C 195.944,33.3826 195.611,33.8826 195.5,34.5C 195.672,35.4916 195.338,36.1583 194.5,36.5C 193.5,36.5 192.5,36.5 191.5,36.5C 192.398,35.8423 193.398,35.1757 194.5,34.5C 193.833,34.1667 193.167,33.8333 192.5,33.5C 190.577,34.0924 188.911,35.0924 187.5,36.5C 187.5,35.8333 187.167,35.5 186.5,35.5C 185.5,35.1667 184.833,34.5 184.5,33.5C 200.418,27.9373 216.751,24.104 233.5,22C 225.283,21.6207 217.283,21.454 209.5,21.5C 210.167,21.5 210.5,21.1667 210.5,20.5C 212.179,20.1077 213.846,19.6077 215.5,19C 231.83,18.5001 248.163,18.3334 264.5,18.5C 264.795,20.7354 264.461,22.7354 263.5,24.5 Z"/></g>
<g><path style="opacity:1" fill="#c7e7e8" d="M 237.5,20.5 C 241.351,19.9709 244.851,20.6375 248,22.5C 249.309,20.1088 250.309,20.1088 251,22.5C 254.494,20.623 258.327,19.9564 262.5,20.5C 262.5,21.5 262.5,22.5 262.5,23.5C 254.167,23.5 245.833,23.5 237.5,23.5C 237.5,22.5 237.5,21.5 237.5,20.5 Z"/></g>
<g><path style="opacity:1" fill="#026d70" d="M 209.5,21.5 C 217.283,21.454 225.283,21.6207 233.5,22C 216.751,24.104 200.418,27.9373 184.5,33.5C 182.833,33.5 181.167,33.5 179.5,33.5C 189.344,29.3247 199.344,25.3247 209.5,21.5 Z"/></g>
<g><path style="opacity:0.628" fill="#101313" d="M 424.5,42.5 C 423.706,46.3577 423.04,50.3577 422.5,54.5C 420.471,56.8585 418.471,59.1918 416.5,61.5C 415.833,61.5 415.167,61.5 414.5,61.5C 415.81,59.8523 417.143,58.1856 418.5,56.5C 401.987,53.5484 385.321,51.7151 368.5,51C 359.772,50.1575 353.772,50.3242 350.5,51.5C 350.257,57.6125 349.423,63.6125 348,69.5C 343.516,73.653 338.349,76.8197 332.5,79C 332.167,79.3333 331.833,79.6667 331.5,80C 332.737,80.2321 333.737,80.7321 334.5,81.5C 328.438,82.1741 322.438,83.1741 316.5,84.5C 309.633,84.9402 302.966,86.2735 296.5,88.5C 296.5,87.8333 296.167,87.5 295.5,87.5C 305.528,84.2646 315.528,80.5979 325.5,76.5C 326.474,74.2573 326.808,71.924 326.5,69.5C 327.445,64.5947 327.779,59.5947 327.5,54.5C 303.895,54.4132 280.562,56.0799 257.5,59.5C 238.052,62.1957 218.719,65.529 199.5,69.5C 199.5,69.1667 199.5,68.8333 199.5,68.5C 199.833,68.5 200.167,68.5 200.5,68.5C 212.486,66.0041 224.486,63.5041 236.5,61C 232.848,60.5014 229.182,60.3347 225.5,60.5C 218.498,59.38 211.498,57.7133 204.5,55.5C 203.207,53.3635 203.207,51.3635 204.5,49.5C 235.268,55.9942 266.268,57.1609 297.5,53C 294.348,50.5295 292.015,47.5295 290.5,44C 290.585,42.8926 290.919,41.8926 291.5,41C 292.938,40.7811 294.271,40.2811 295.5,39.5C 295.137,38.8165 294.804,38.1499 294.5,37.5C 302.059,36.5457 309.559,35.2124 317,33.5C 319.137,35.1249 320.803,34.7916 322,32.5C 323.401,34.1922 325.234,34.8588 327.5,34.5C 327.5,33.5 327.5,32.5 327.5,31.5C 333.749,31.0577 339.749,32.0577 345.5,34.5C 346.696,34.1543 346.696,33.6543 345.5,33C 341.573,31.0691 337.406,30.2357 333,30.5C 319.691,31.6624 306.525,33.6624 293.5,36.5C 284.169,38.1658 274.836,39.8324 265.5,41.5C 263.901,41.7678 262.568,41.4345 261.5,40.5C 261.443,39.391 261.11,38.391 260.5,37.5C 261.167,37.1667 261.833,36.8333 262.5,36.5C 262.825,38.1316 263.825,39.1316 265.5,39.5C 289.97,34.0263 314.637,30.1929 339.5,28C 350.207,32.6921 359.541,39.3588 367.5,48C 377.481,49.69 387.481,50.19 397.5,49.5C 401.924,51.3512 406.591,52.3512 411.5,52.5C 411.169,45.1365 411.503,37.8032 412.5,30.5C 413.182,38.057 413.849,45.557 414.5,53C 416.749,53.8632 418.582,53.3632 420,51.5C 420.684,45.1441 421.517,38.8108 422.5,32.5C 423.167,32.1667 423.833,31.8333 424.5,31.5C 434.985,34.2855 434.985,35.2855 424.5,34.5C 424.281,35.675 424.614,36.675 425.5,37.5C 428.056,38.0512 430.389,39.0512 432.5,40.5C 430.56,41.5284 428.56,41.5284 426.5,40.5C 425.287,40.7472 424.62,41.4138 424.5,42.5 Z M 343.5,41.5 C 339.232,40.6274 334.898,40.2941 330.5,40.5C 330.5,43.1667 330.5,45.8333 330.5,48.5C 342.33,48.7692 342.33,49.9358 330.5,52C 320.5,52.6667 310.5,52.6667 300.5,52C 297.887,49.3874 295.221,46.7208 292.5,44C 305.524,40.1625 318.858,37.6625 332.5,36.5C 332.5,37.5 332.5,38.5 332.5,39.5C 334.342,39.2767 336.175,38.9434 338,38.5C 340.399,38.6132 342.232,39.6132 343.5,41.5 Z M 343.5,41.5 C 344.148,43.0858 344.648,44.7525 345,46.5C 345.772,45.1509 346.939,44.3176 348.5,44C 346.922,42.9055 345.255,42.0722 343.5,41.5 Z"/></g>
<g><path style="opacity:1" fill="#03494c" d="M 263.5,24.5 C 263.816,27.9783 263.316,31.3117 262,34.5C 258.727,35.2562 255.727,36.5895 253,38.5C 251.762,41.9257 252.929,43.5923 256.5,43.5C 255.791,44.404 254.791,44.7373 253.5,44.5C 251.05,44.298 248.717,44.6314 246.5,45.5C 240.525,46.1731 234.692,46.1731 229,45.5C 228.167,46.3333 227.333,47.1667 226.5,48C 218.989,48.1712 211.655,48.6712 204.5,49.5C 203.207,51.3635 203.207,53.3635 204.5,55.5C 211.498,57.7133 218.498,59.38 225.5,60.5C 217.208,61.4071 208.875,61.7404 200.5,61.5C 200.5,63.8333 200.5,66.1667 200.5,68.5C 200.167,68.5 199.833,68.5 199.5,68.5C 199.5,65.8333 199.5,63.1667 199.5,60.5C 199.335,56.8183 199.501,53.1516 200,49.5C 200.833,48.6667 201.667,47.8333 202.5,47C 194.711,43.9559 195.378,42.7892 204.5,43.5C 204.198,40.9407 204.532,38.6074 205.5,36.5C 205.192,38.924 205.526,41.2573 206.5,43.5C 207.48,40.9135 207.813,38.2469 207.5,35.5C 208.5,35.5 209.5,35.5 210.5,35.5C 210.5,38.1667 210.5,40.8333 210.5,43.5C 211.5,43.5 212.5,43.5 213.5,43.5C 213.447,33.2351 214.78,32.9017 217.5,42.5C 218.652,39.8938 218.818,37.2272 218,34.5C 217.617,33.944 217.117,33.6107 216.5,33.5C 221.298,32.0361 226.298,30.8694 231.5,30C 232.267,28.5295 232.933,27.0295 233.5,25.5C 243.468,24.6039 253.468,24.2705 263.5,24.5 Z"/></g>
<g><path style="opacity:1" fill="#d2de09" d="M 29.5,25.5 C 33.1391,27.6552 36.8057,29.8218 40.5,32C 39.9747,32.6924 39.3081,33.1924 38.5,33.5C 35.1112,31.4773 31.7779,29.4773 28.5,27.5C 28.3284,26.5084 28.6618,25.8417 29.5,25.5 Z"/></g>
<g><path style="opacity:1" fill="#242424" d="M 57.5,18.5 C 61.5138,18.3345 65.5138,18.5012 69.5,19C 71.5299,20.8962 73.1966,23.0629 74.5,25.5C 79.8621,25.6926 83.3621,28.3593 85,33.5C 85.4986,37.1516 85.6653,40.8183 85.5,44.5C 80.8075,44.5401 76.1408,44.8734 71.5,45.5C 71.4615,42.1927 72.1282,39.0261 73.5,36C 71.004,33.6713 69.1707,30.838 68,27.5C 67.0975,26.2986 65.9308,25.4652 64.5,25C 61.1832,24.5017 57.8499,24.335 54.5,24.5C 54.0283,21.6421 55.0283,19.6421 57.5,18.5 Z"/></g>
<g><path style="opacity:1" fill="#e9f1f2" d="M 179.5,33.5 C 181.167,33.5 182.833,33.5 184.5,33.5C 184.833,34.5 185.5,35.1667 186.5,35.5C 186.5,38.1667 186.5,40.8333 186.5,43.5C 184.143,43.6633 181.81,43.4966 179.5,43C 178.177,42.1841 177.511,41.0174 177.5,39.5C 177.253,37.1417 177.919,35.1417 179.5,33.5 Z"/></g>
<g><path style="opacity:1" fill="#dfebec" d="M 191.5,36.5 C 190.532,38.6074 190.198,40.9407 190.5,43.5C 189.5,43.5 188.5,43.5 187.5,43.5C 187.5,41.1667 187.5,38.8333 187.5,36.5C 188.911,35.0924 190.577,34.0924 192.5,33.5C 193.167,33.8333 193.833,34.1667 194.5,34.5C 193.398,35.1757 192.398,35.8423 191.5,36.5 Z"/></g>
<g><path style="opacity:1" fill="#e7efef" d="M 194.5,36.5 C 195.338,36.1583 195.672,35.4916 195.5,34.5C 202.397,32.4304 205.063,35.0971 203.5,42.5C 200.753,42.8134 198.086,42.48 195.5,41.5C 194.691,39.9291 194.357,38.2624 194.5,36.5 Z"/></g>
<g><path style="opacity:1" fill="#d3d6d6" d="M 216.5,33.5 C 217.117,33.6107 217.617,33.944 218,34.5C 218.818,37.2272 218.652,39.8938 217.5,42.5C 214.78,32.9017 213.447,33.2351 213.5,43.5C 212.5,43.5 211.5,43.5 210.5,43.5C 210.5,40.8333 210.5,38.1667 210.5,35.5C 209.5,35.5 208.5,35.5 207.5,35.5C 207.813,38.2469 207.48,40.9135 206.5,43.5C 205.526,41.2573 205.192,38.924 205.5,36.5C 205.5,35.5 205.5,34.5 205.5,33.5C 209.167,33.5 212.833,33.5 216.5,33.5 Z"/></g>
<g><path style="opacity:1" fill="#525252" d="M 294.5,37.5 C 293.833,37.5 293.5,37.1667 293.5,36.5C 306.525,33.6624 319.691,31.6624 333,30.5C 337.406,30.2357 341.573,31.0691 345.5,33C 346.696,33.6543 346.696,34.1543 345.5,34.5C 339.749,32.0577 333.749,31.0577 327.5,31.5C 327.5,32.5 327.5,33.5 327.5,34.5C 325.234,34.8588 323.401,34.1922 322,32.5C 320.803,34.7916 319.137,35.1249 317,33.5C 309.559,35.2124 302.059,36.5457 294.5,37.5 Z"/></g>
<g><path style="opacity:1" fill="#d9ef0f" d="M 47.5,34.5 C 47.369,35.2389 47.5357,35.9056 48,36.5C 53.0717,35.5286 58.2384,35.1953 63.5,35.5C 65.0418,34.6993 66.7085,34.366 68.5,34.5C 68.5,35.5 68.5,36.5 68.5,37.5C 63.7707,38.1315 58.7707,38.4648 53.5,38.5C 49.046,38.5781 44.7127,37.9114 40.5,36.5C 39.2888,35.7261 39.2888,34.8928 40.5,34C 42.8848,33.4436 45.2181,33.6103 47.5,34.5 Z"/></g>
<g><path style="opacity:1" fill="#8f9f0f" d="M 47.5,34.5 C 53.0262,34.1786 58.3595,34.5119 63.5,35.5C 58.2384,35.1953 53.0717,35.5286 48,36.5C 47.5357,35.9056 47.369,35.2389 47.5,34.5 Z"/></g>
<g><path style="opacity:1" fill="#d4e906" d="M 158.5,30.5 C 159.873,30.3433 161.207,30.51 162.5,31C 161.944,31.3826 161.611,31.8826 161.5,32.5C 153.272,34.4695 145.272,36.8028 137.5,39.5C 130.282,40.7213 123.282,42.7213 116.5,45.5C 115.479,44.9984 115.312,44.3317 116,43.5C 117.34,42.1322 118.674,40.7989 120,39.5C 132.785,36.262 145.618,33.262 158.5,30.5 Z"/></g>
<g><path style="opacity:1" fill="#578c8e" d="M 180.5,35.5 C 184.068,35.7593 185.401,37.7593 184.5,41.5C 179.74,41.7993 178.406,39.7993 180.5,35.5 Z"/></g>
<g><path style="opacity:1" fill="#b4b6b6" d="M 231.5,33.5 C 236.722,33.9446 238.389,36.6113 236.5,41.5C 232.162,44.6636 229.162,43.6636 227.5,38.5C 228.127,36.2127 229.46,34.546 231.5,33.5 Z"/></g>
<g><path style="opacity:1" fill="#194346" d="M 230.5,36.5 C 231.873,36.3433 233.207,36.51 234.5,37C 235.474,39.702 234.474,41.0354 231.5,41C 229.452,39.7741 229.119,38.2741 230.5,36.5 Z"/></g>
<g><path style="opacity:1" fill="#bdbebe" d="M 222.5,33.5 C 228.176,33.9475 228.509,34.7808 223.5,36C 221.531,40.0468 222.864,42.0468 227.5,42C 221.702,44.8787 219.202,43.0454 220,36.5C 220.698,35.3094 221.531,34.3094 222.5,33.5 Z"/></g>
<g><path style="opacity:1" fill="#414240" d="M 23.5,35.5 C 27.8839,35.1744 32.2172,35.5078 36.5,36.5C 35.4104,37.6086 35.4104,38.6086 36.5,39.5C 42.1742,39.7417 47.8409,39.4083 53.5,38.5C 58.7707,38.4648 63.7707,38.1315 68.5,37.5C 68.8333,37.5 69.1667,37.5 69.5,37.5C 69.5,38.1667 69.5,38.8333 69.5,39.5C 69.1667,39.5 68.8333,39.5 68.5,39.5C 67.6568,41.4872 66.9902,43.6539 66.5,46C 66.5699,46.7648 66.9033,47.2648 67.5,47.5C 63.4772,50.0052 59.4772,50.0052 55.5,47.5C 54.6586,45.6208 54.3253,43.6208 54.5,41.5C 44.8333,41.5 35.1667,41.5 25.5,41.5C 25.5,42.8333 25.5,44.1667 25.5,45.5C 24.8333,45.5 24.1667,45.5 23.5,45.5C 22.5,45.5 21.5,45.5 20.5,45.5C 19.5233,42.7131 19.19,39.7131 19.5,36.5C 20.8221,36.33 21.9887,36.6634 23,37.5C 23.4643,36.9056 23.631,36.2389 23.5,35.5 Z"/></g>
<g><path style="opacity:1" fill="#065b5e" d="M 233.5,25.5 C 232.933,27.0295 232.267,28.5295 231.5,30C 226.298,30.8694 221.298,32.0361 216.5,33.5C 212.833,33.5 209.167,33.5 205.5,33.5C 205.5,34.5 205.5,35.5 205.5,36.5C 204.532,38.6074 204.198,40.9407 204.5,43.5C 195.378,42.7892 194.711,43.9559 202.5,47C 201.667,47.8333 200.833,48.6667 200,49.5C 199.501,53.1516 199.335,56.8183 199.5,60.5C 198.833,59.8333 198.167,59.1667 197.5,58.5C 195.5,57.1667 193.5,57.1667 191.5,58.5C 191.167,58.5 190.833,58.5 190.5,58.5C 188.644,58.0411 186.811,57.7078 185,57.5C 183.347,57.8198 182.347,58.8198 182,60.5C 179.819,56.7098 177.819,56.7098 176,60.5C 175.667,59.1667 175.333,57.8333 175,56.5C 172.101,56.9767 169.434,57.9767 167,59.5C 165.951,57.8934 164.451,57.2267 162.5,57.5C 162.5,58.5 162.5,59.5 162.5,60.5C 160.876,60.6399 159.71,59.9733 159,58.5C 158.601,58.7284 158.435,59.0618 158.5,59.5C 157.833,60.1667 157.167,60.8333 156.5,61.5C 157.158,57.3228 155.492,55.8228 151.5,57C 150.02,59.2345 150.353,61.0679 152.5,62.5C 151.194,63.4674 150.527,64.8007 150.5,66.5C 149.5,64.5 148.5,62.5 147.5,60.5C 147.419,55.4115 148.752,50.7448 151.5,46.5C 152.167,45.8333 152.833,45.1667 153.5,44.5C 153.56,45.0431 153.893,45.3764 154.5,45.5C 162.066,43.0254 169.733,41.0254 177.5,39.5C 177.511,41.0174 178.177,42.1841 179.5,43C 181.81,43.4966 184.143,43.6633 186.5,43.5C 186.5,40.8333 186.5,38.1667 186.5,35.5C 187.167,35.5 187.5,35.8333 187.5,36.5C 187.5,38.8333 187.5,41.1667 187.5,43.5C 188.5,43.5 189.5,43.5 190.5,43.5C 190.198,40.9407 190.532,38.6074 191.5,36.5C 192.5,36.5 193.5,36.5 194.5,36.5C 194.357,38.2624 194.691,39.9291 195.5,41.5C 198.086,42.48 200.753,42.8134 203.5,42.5C 205.063,35.0971 202.397,32.4304 195.5,34.5C 195.611,33.8826 195.944,33.3826 196.5,33C 208.651,29.5366 220.984,27.0366 233.5,25.5 Z"/></g>
<g><path style="opacity:1" fill="#236366" d="M 198.5,35.5 C 199.496,35.4142 200.329,35.7476 201,36.5C 201.494,38.1341 201.66,39.8008 201.5,41.5C 197.556,41.1156 196.556,39.1156 198.5,35.5 Z"/></g>
<g><path style="opacity:1" fill="#232322" d="M 204.5,19.5 C 206.638,18.1919 208.638,18.5252 210.5,20.5C 210.5,21.1667 210.167,21.5 209.5,21.5C 199.344,25.3247 189.344,29.3247 179.5,33.5C 170.282,36.0123 161.616,39.6789 153.5,44.5C 152.833,45.1667 152.167,45.8333 151.5,46.5C 138.176,50.4929 124.843,54.4929 111.5,58.5C 110.19,56.8523 108.857,55.1856 107.5,53.5C 109.918,52.5854 111.918,51.0854 113.5,49C 121.167,46.6667 128.833,44.3333 136.5,42C 139.402,41.0814 139.735,40.2481 137.5,39.5C 145.272,36.8028 153.272,34.4695 161.5,32.5C 176.41,28.1879 191.41,24.0213 206.5,20C 205.906,19.5357 205.239,19.369 204.5,19.5 Z"/></g>
<g><path style="opacity:1" fill="#97793e" d="M 52.5,43.5 C 49.8333,43.5 47.1667,43.5 44.5,43.5C 43.8333,43.5 43.1667,43.5 42.5,43.5C 40.5,43.5 38.5,43.5 36.5,43.5C 35.8333,43.5 35.1667,43.5 34.5,43.5C 33.8333,43.5 33.1667,43.5 32.5,43.5C 31.1411,44.0065 30.1411,45.0065 29.5,46.5C 28.5712,45.4502 27.9046,45.4502 27.5,46.5C 26.8333,46.5 26.5,46.8333 26.5,47.5C 26.1667,47.5 25.8333,47.5 25.5,47.5C 25.5,46.8333 25.5,46.1667 25.5,45.5C 26.2674,44.828 26.9341,43.9947 27.5,43C 36.0104,42.1768 44.3437,42.3434 52.5,43.5 Z"/></g>
<g><path style="opacity:0.288" fill="#9f9f9f" d="M 68.5,39.5 C 68.8333,40.8333 69.1667,40.8333 69.5,39.5C 69.8333,39.5 70.1667,39.5 70.5,39.5C 69.9396,41.8008 69.4396,44.1341 69,46.5C 68.6174,47.056 68.1174,47.3893 67.5,47.5C 66.9033,47.2648 66.5699,46.7648 66.5,46C 66.9902,43.6539 67.6568,41.4872 68.5,39.5 Z"/></g>
<g><path style="opacity:1" fill="#088f94" d="M 179.5,33.5 C 177.919,35.1417 177.253,37.1417 177.5,39.5C 169.733,41.0254 162.066,43.0254 154.5,45.5C 153.893,45.3764 153.56,45.0431 153.5,44.5C 161.616,39.6789 170.282,36.0123 179.5,33.5 Z"/></g>
<g><path style="opacity:1" fill="#b2c730" d="M 334.5,44.5 C 336.966,43.3659 339.633,43.1993 342.5,44C 339.954,45.8116 337.288,45.9783 334.5,44.5 Z"/></g>
<g><path style="opacity:1" fill="#1d1d1d" d="M 20.5,45.5 C 21.5,45.5 22.5,45.5 23.5,45.5C 23.2578,50.4961 23.9245,55.3294 25.5,60C 32.9912,61.5201 40.3245,63.3534 47.5,65.5C 46.0886,68.9861 44.7553,72.4861 43.5,76C 36.2081,74.9518 28.8748,73.7851 21.5,72.5C 21.5989,63.4789 21.2655,54.4789 20.5,45.5 Z"/></g>
<g><path style="opacity:1" fill="#c48287" d="M 253.5,44.5 C 255.111,46.8334 254.611,48.5001 252,49.5C 249.495,49.0057 247.661,47.6723 246.5,45.5C 248.717,44.6314 251.05,44.298 253.5,44.5 Z"/></g>
<g><path style="opacity:1" fill="#09595c" d="M 293.5,36.5 C 293.5,37.1667 293.833,37.5 294.5,37.5C 294.804,38.1499 295.137,38.8165 295.5,39.5C 294.271,40.2811 292.938,40.7811 291.5,41C 290.919,41.8926 290.585,42.8926 290.5,44C 292.015,47.5295 294.348,50.5295 297.5,53C 266.268,57.1609 235.268,55.9942 204.5,49.5C 211.655,48.6712 218.989,48.1712 226.5,48C 227.333,47.1667 228.167,46.3333 229,45.5C 234.692,46.1731 240.525,46.1731 246.5,45.5C 247.661,47.6723 249.495,49.0057 252,49.5C 254.611,48.5001 255.111,46.8334 253.5,44.5C 254.791,44.7373 255.791,44.404 256.5,43.5C 257.239,43.369 257.906,43.5357 258.5,44C 257.04,44.8113 256.707,45.6446 257.5,46.5C 259.4,44.3841 261.733,43.0507 264.5,42.5C 264.238,43.9778 264.571,45.3112 265.5,46.5C 268.288,44.9337 270.955,44.767 273.5,46C 272.663,47.0113 272.33,48.1779 272.5,49.5C 274.451,49.7733 275.951,49.1066 277,47.5C 277.689,48.3567 278.522,49.0233 279.5,49.5C 281.941,48.6734 284.107,48.6734 286,49.5C 288.195,46.8168 287.862,44.4834 285,42.5C 283.209,44.5127 281.875,44.5127 281,42.5C 275.851,42.6491 270.684,42.6491 265.5,42.5C 265.5,42.1667 265.5,41.8333 265.5,41.5C 274.836,39.8324 284.169,38.1658 293.5,36.5 Z"/></g>
<g><path style="opacity:1" fill="#9dbcbd" d="M 264.5,42.5 C 264.833,42.5 265.167,42.5 265.5,42.5C 270.684,42.6491 275.851,42.6491 281,42.5C 281.875,44.5127 283.209,44.5127 285,42.5C 287.862,44.4834 288.195,46.8168 286,49.5C 284.107,48.6734 281.941,48.6734 279.5,49.5C 278.522,49.0233 277.689,48.3567 277,47.5C 275.951,49.1066 274.451,49.7733 272.5,49.5C 272.33,48.1779 272.663,47.0113 273.5,46C 270.955,44.767 268.288,44.9337 265.5,46.5C 264.571,45.3112 264.238,43.9778 264.5,42.5 Z"/></g>
<g><path style="opacity:1" fill="#979797" d="M 348.5,46.5 C 353.691,46.0585 358.691,46.5585 363.5,48C 359.24,49.3543 354.906,49.8543 350.5,49.5C 349.081,48.9953 348.415,47.9953 348.5,46.5 Z"/></g>
<g><path style="opacity:1" fill="#362c1f" d="M 32.5,43.5 C 32.7852,45.288 32.4519,46.9547 31.5,48.5C 30.549,47.6744 29.549,47.5078 28.5,48C 30.2495,49.3186 32.2495,49.8186 34.5,49.5C 34.5,47.5 34.5,45.5 34.5,43.5C 35.1667,43.5 35.8333,43.5 36.5,43.5C 34.4761,47.4383 35.6428,49.4383 40,49.5C 41.1667,49.1667 42.3333,48.8333 43.5,48.5C 35.5762,47.0377 35.5762,45.8711 43.5,45C 42.944,44.6174 42.6107,44.1174 42.5,43.5C 43.1667,43.5 43.8333,43.5 44.5,43.5C 44.5,45.5 44.5,47.5 44.5,49.5C 47.1667,49.5 49.8333,49.5 52.5,49.5C 52.5,47.5 52.5,45.5 52.5,43.5C 53.4682,45.6074 53.8016,47.9407 53.5,50.5C 44.8333,50.5 36.1667,50.5 27.5,50.5C 27.5,49.1667 27.5,47.8333 27.5,46.5C 27.9046,45.4502 28.5712,45.4502 29.5,46.5C 30.1411,45.0065 31.1411,44.0065 32.5,43.5 Z"/></g>
<g><path style="opacity:1" fill="#b0b2b6" d="M 44.5,43.5 C 47.1667,43.5 49.8333,43.5 52.5,43.5C 52.5,45.5 52.5,47.5 52.5,49.5C 49.8333,49.5 47.1667,49.5 44.5,49.5C 44.5,47.5 44.5,45.5 44.5,43.5 Z"/></g>
<g><path style="opacity:1" fill="#c5c6c9" d="M 32.5,43.5 C 33.1667,43.5 33.8333,43.5 34.5,43.5C 34.5,45.5 34.5,47.5 34.5,49.5C 32.2495,49.8186 30.2495,49.3186 28.5,48C 29.549,47.5078 30.549,47.6744 31.5,48.5C 32.4519,46.9547 32.7852,45.288 32.5,43.5 Z"/></g>
<g><path style="opacity:1" fill="#bcbdbf" d="M 36.5,43.5 C 38.5,43.5 40.5,43.5 42.5,43.5C 42.6107,44.1174 42.944,44.6174 43.5,45C 35.5762,45.8711 35.5762,47.0377 43.5,48.5C 42.3333,48.8333 41.1667,49.1667 40,49.5C 35.6428,49.4383 34.4761,47.4383 36.5,43.5 Z"/></g>
<g><path style="opacity:1" fill="#d39932" d="M 55.5,47.5 C 55.5,48.8333 55.5,50.1667 55.5,51.5C 45.8333,51.5 36.1667,51.5 26.5,51.5C 26.5,50.1667 26.5,48.8333 26.5,47.5C 26.5,46.8333 26.8333,46.5 27.5,46.5C 27.5,47.8333 27.5,49.1667 27.5,50.5C 36.1667,50.5 44.8333,50.5 53.5,50.5C 53.8016,47.9407 53.4682,45.6074 52.5,43.5C 44.3437,42.3434 36.0104,42.1768 27.5,43C 26.9341,43.9947 26.2674,44.828 25.5,45.5C 25.5,44.1667 25.5,42.8333 25.5,41.5C 35.1667,41.5 44.8333,41.5 54.5,41.5C 54.3253,43.6208 54.6586,45.6208 55.5,47.5 Z"/></g>
<g><path style="opacity:1" fill="#464541" d="M 111.5,59.5 C 112.11,60.391 112.443,61.391 112.5,62.5C 111.662,62.8417 111.328,63.5084 111.5,64.5C 108.134,59.9703 103.968,56.3036 99,53.5C 97.9701,53.8361 97.4701,54.5028 97.5,55.5C 95.6541,53.5454 93.3208,52.5454 90.5,52.5C 85.6042,50.5539 80.2709,49.8872 74.5,50.5C 74.5,51.8333 74.5,53.1667 74.5,54.5C 73.71,53.3915 73.21,52.0581 73,50.5C 70.7052,52.0812 68.5385,53.7479 66.5,55.5C 67.6143,53.6469 66.9476,53.1469 64.5,54C 61.0003,56.6686 57.667,59.502 54.5,62.5C 54.5654,62.0618 54.3988,61.7284 54,61.5C 53,62.8333 52,64.1667 51,65.5C 50.6012,65.2716 50.4346,64.9382 50.5,64.5C 53.8333,59.1667 58.1667,54.8333 63.5,51.5C 81.384,42.9438 97.384,45.6105 111.5,59.5 Z"/></g>
<g><path style="opacity:1" fill="#9e8e17" d="M 90.5,52.5 C 85.6042,54.4461 80.2709,55.1128 74.5,54.5C 74.5,53.1667 74.5,51.8333 74.5,50.5C 80.2709,49.8872 85.6042,50.5539 90.5,52.5 Z"/></g>
<g><path style="opacity:1" fill="#444340" d="M 477.5,63.5 C 476.662,63.8417 476.328,64.5084 476.5,65.5C 472.803,60.6387 468.303,56.6387 463,53.5C 461.316,53.6834 461.15,54.3501 462.5,55.5C 460.718,54.2804 458.718,53.6138 456.5,53.5C 456.649,52.448 456.483,51.448 456,50.5C 455.79,52.0581 455.29,53.3915 454.5,54.5C 454.5,53.1667 454.5,51.8333 454.5,50.5C 448.974,50.1786 443.64,50.5119 438.5,51.5C 435.325,50.9093 432.991,51.9093 431.5,54.5C 431.44,53.9569 431.107,53.6236 430.5,53.5C 428.64,54.2599 426.973,55.2599 425.5,56.5C 424.833,55.8333 424.167,55.1667 423.5,54.5C 427.915,50.959 432.915,48.459 438.5,47C 455.151,44.3357 468.151,49.8357 477.5,63.5 Z"/></g>
<g><path style="opacity:1" fill="#a39215" d="M 454.5,54.5 C 449.167,54.5 443.833,54.5 438.5,54.5C 438.5,53.5 438.5,52.5 438.5,51.5C 443.64,50.5119 448.974,50.1786 454.5,50.5C 454.5,51.8333 454.5,53.1667 454.5,54.5 Z"/></g>
<g><path style="opacity:1" fill="#1a1919" d="M 74.5,54.5 C 80.2709,55.1128 85.6042,54.4461 90.5,52.5C 93.3208,52.5454 95.6541,53.5454 97.5,55.5C 105.607,59.4482 111.107,65.7815 114,74.5C 116.114,85.4014 114.114,95.4014 108,104.5C 106.961,105.71 105.794,106.71 104.5,107.5C 104.062,107.565 103.728,107.399 103.5,107C 105.394,105.899 106.061,104.566 105.5,103C 109.196,98.7913 111.029,93.9579 111,88.5C 110.197,91.2442 109.197,93.9109 108,96.5C 107.833,96 107.667,95.5 107.5,95C 112.817,77.9249 107.483,65.5916 91.5,58C 74.8079,54.034 62.9745,59.8673 56,75.5C 53.683,84.9156 55.3497,93.5823 61,101.5C 62.451,103.464 64.2843,104.797 66.5,105.5C 69.2982,106.65 71.9648,107.983 74.5,109.5C 75.2625,110.268 76.2625,110.768 77.5,111C 75.6226,111.576 73.7892,111.409 72,110.5C 70.2382,110.944 70.4049,111.444 72.5,112C 72.2716,112.399 71.9382,112.565 71.5,112.5C 69.8828,111.962 68.2161,111.629 66.5,111.5C 66.8844,115.444 68.8844,116.444 72.5,114.5C 72.5774,115.75 73.244,116.583 74.5,117C 77.9236,117.747 81.2569,117.58 84.5,116.5C 87.6977,117.953 90.031,116.953 91.5,113.5C 92.1667,113.5 92.5,113.833 92.5,114.5C 92.3691,115.376 92.7025,116.043 93.5,116.5C 95.7855,115.867 97.4522,114.534 98.5,112.5C 99.2216,112.082 99.7216,111.416 100,110.5C 100.308,111.308 100.808,111.975 101.5,112.5C 103.396,111.725 105.063,110.725 106.5,109.5C 118.908,95.6747 120.575,80.6747 111.5,64.5C 111.328,63.5084 111.662,62.8417 112.5,62.5C 114.81,65.1019 116.643,68.1019 118,71.5C 122.566,90.8193 116.733,105.986 100.5,117C 80.6938,125.642 64.1938,121.475 51,104.5C 42.5121,91.1541 42.3455,77.8208 50.5,64.5C 50.4346,64.9382 50.6012,65.2716 51,65.5C 52,64.1667 53,62.8333 54,61.5C 54.3988,61.7284 54.5654,62.0618 54.5,62.5C 45.3493,76.324 45.1826,90.324 54,104.5C 55.6837,106.351 57.5171,108.018 59.5,109.5C 59.8333,109.167 60.1667,108.833 60.5,108.5C 47.7161,94.9948 46.2161,80.3281 56,64.5C 59.0781,60.9155 62.5781,57.9155 66.5,55.5C 68.5385,53.7479 70.7052,52.0812 73,50.5C 73.21,52.0581 73.71,53.3915 74.5,54.5 Z"/></g>
<g><path style="opacity:1" fill="#04595d" d="M 414.5,61.5 C 411.51,65.8221 409.51,70.4888 408.5,75.5C 405.402,74.179 401.902,73.5123 398,73.5C 376.985,75.0381 356.152,77.7048 335.5,81.5C 335.167,81.5 334.833,81.5 334.5,81.5C 333.737,80.7321 332.737,80.2321 331.5,80C 331.833,79.6667 332.167,79.3333 332.5,79C 338.349,76.8197 343.516,73.653 348,69.5C 349.423,63.6125 350.257,57.6125 350.5,51.5C 353.772,50.3242 359.772,50.1575 368.5,51C 385.321,51.7151 401.987,53.5484 418.5,56.5C 417.143,58.1856 415.81,59.8523 414.5,61.5 Z"/></g>
<g><path style="opacity:1" fill="#1b1a19" d="M 462.5,55.5 C 479.924,67.1903 483.924,82.5236 474.5,101.5C 473.691,99.7078 473.191,97.7078 473,95.5C 472.581,96.6721 471.915,97.6721 471,98.5C 474.897,87.9458 474.23,77.6125 469,67.5C 453.67,52.5325 438.67,52.8658 424,68.5C 418.175,78.4003 418.009,88.4003 423.5,98.5C 422.833,98.8333 422.167,99.1667 421.5,99.5C 424.223,104.556 428.223,108.223 433.5,110.5C 433.833,109.833 434.167,109.167 434.5,108.5C 436.795,109.432 439.129,110.265 441.5,111C 439.765,111.651 438.098,111.485 436.5,110.5C 435.537,110.97 435.537,111.637 436.5,112.5C 435.07,112.579 433.736,112.246 432.5,111.5C 431.5,111.833 430.833,112.5 430.5,113.5C 431.85,114.95 433.516,115.617 435.5,115.5C 436.167,115.833 436.833,116.167 437.5,116.5C 439.167,117.833 440.833,117.833 442.5,116.5C 443.919,117.451 445.585,117.784 447.5,117.5C 448.167,117.5 448.833,117.5 449.5,117.5C 452.522,117.658 454.522,116.325 455.5,113.5C 461.317,110.865 466.483,107.199 471,102.5C 471.765,102.57 472.265,102.903 472.5,103.5C 471.416,105.319 470.082,106.985 468.5,108.5C 468.833,108.833 469.167,109.167 469.5,109.5C 475.87,104.769 479.704,98.4358 481,90.5C 482.605,81.5485 481.105,73.2152 476.5,65.5C 476.328,64.5084 476.662,63.8417 477.5,63.5C 480.7,67.5613 482.867,72.228 484,77.5C 484.483,76.552 484.649,75.552 484.5,74.5C 485.434,75.5676 485.768,76.901 485.5,78.5C 485.496,92.6595 480.162,104.493 469.5,114C 451.525,125.002 434.691,123.502 419,109.5C 407.395,94.0353 406.562,78.0353 416.5,61.5C 418.471,59.1918 420.471,56.8585 422.5,54.5C 422.833,54.5 423.167,54.5 423.5,54.5C 424.167,55.1667 424.833,55.8333 425.5,56.5C 411.981,67.9098 408.481,81.9098 415,98.5C 417.29,102.619 420.124,106.286 423.5,109.5C 423.833,109.167 424.167,108.833 424.5,108.5C 415.539,99.2249 412.372,88.2249 415,75.5C 417.76,66.2514 423.26,59.2514 431.5,54.5C 432.991,51.9093 435.325,50.9093 438.5,51.5C 438.5,52.5 438.5,53.5 438.5,54.5C 443.833,54.5 449.167,54.5 454.5,54.5C 455.29,53.3915 455.79,52.0581 456,50.5C 456.483,51.448 456.649,52.448 456.5,53.5C 458.718,53.6138 460.718,54.2804 462.5,55.5 Z"/></g>
<g><path style="opacity:1" fill="#b8b8b8" d="M 331.5,54.5 C 333.337,54.6395 333.67,55.3061 332.5,56.5C 331.702,56.0431 331.369,55.3764 331.5,54.5 Z"/></g>
<g><path style="opacity:1" fill="#68a139" d="M 358.5,56.5 C 370.535,56.9796 382.535,56.9796 394.5,56.5C 398.349,56.3677 402.016,56.8677 405.5,58C 404.167,59.3333 402.833,60.6667 401.5,62C 397.885,62.7318 394.552,64.0651 391.5,66C 386.999,67.4026 382.499,67.9026 378,67.5C 372.831,65.84 367.665,64.0067 362.5,62C 360.536,60.549 359.203,58.7157 358.5,56.5 Z"/></g>
<g><path style="opacity:1" fill="#b5cfd1" d="M 197.5,58.5 C 197.307,62.449 196.807,62.449 196,58.5C 195,62.5 194,62.5 193,58.5C 192.193,62.449 191.693,62.449 191.5,58.5C 193.5,57.1667 195.5,57.1667 197.5,58.5 Z"/></g>
<g><path style="opacity:1" fill="#0b0b0c" d="M 74.5,109.5 C 71.9648,107.983 69.2982,106.65 66.5,105.5C 55.8643,95.453 53.6976,83.7864 60,70.5C 68.2101,59.2084 79.0435,55.7084 92.5,60C 109.047,70.0203 112.547,83.5203 103,100.5C 95.1994,108.599 85.6994,111.599 74.5,109.5 Z"/></g>
<g><path style="opacity:1" fill="#9fc4c5" d="M 190.5,58.5 C 190.5,59.5 190.5,60.5 190.5,61.5C 188.4,61.5228 186.567,60.8561 185,59.5C 184.5,59.6667 184,59.8333 183.5,60C 185.271,60.5354 185.604,61.3687 184.5,62.5C 182.5,61.1667 180.5,61.1667 178.5,62.5C 175.586,60.0268 172.752,60.0268 170,62.5C 169.667,61.5 169.333,60.5 169,59.5C 167.307,63.3223 165.973,62.989 165,58.5C 162.953,61.7655 160.787,62.0989 158.5,59.5C 158.435,59.0618 158.601,58.7284 159,58.5C 159.71,59.9733 160.876,60.6399 162.5,60.5C 162.5,59.5 162.5,58.5 162.5,57.5C 164.451,57.2267 165.951,57.8934 167,59.5C 169.434,57.9767 172.101,56.9767 175,56.5C 175.333,57.8333 175.667,59.1667 176,60.5C 177.819,56.7098 179.819,56.7098 182,60.5C 182.347,58.8198 183.347,57.8198 185,57.5C 186.811,57.7078 188.644,58.0411 190.5,58.5 Z"/></g>
<g><path style="opacity:1" fill="#a7c5c6" d="M 156.5,61.5 C 155.292,62.2341 153.959,62.5674 152.5,62.5C 150.353,61.0679 150.02,59.2345 151.5,57C 155.492,55.8228 157.158,57.3228 156.5,61.5 Z"/></g>
<g><path style="opacity:1" fill="#d9bf0e" d="M 476.5,65.5 C 481.105,73.2152 482.605,81.5485 481,90.5C 479.704,98.4358 475.87,104.769 469.5,109.5C 469.167,109.167 468.833,108.833 468.5,108.5C 470.082,106.985 471.416,105.319 472.5,103.5C 473.5,103.167 474.167,102.5 474.5,101.5C 483.924,82.5236 479.924,67.1903 462.5,55.5C 461.15,54.3501 461.316,53.6834 463,53.5C 468.303,56.6387 472.803,60.6387 476.5,65.5 Z"/></g>
<g><path style="opacity:1" fill="#068186" d="M 190.5,58.5 C 190.833,58.5 191.167,58.5 191.5,58.5C 191.693,62.449 192.193,62.449 193,58.5C 194,62.5 195,62.5 196,58.5C 196.807,62.449 197.307,62.449 197.5,58.5C 198.167,59.1667 198.833,59.8333 199.5,60.5C 199.5,63.1667 199.5,65.8333 199.5,68.5C 199.5,68.8333 199.5,69.1667 199.5,69.5C 184.379,72.6968 169.379,76.3635 154.5,80.5C 153.37,75.7756 152.036,71.1089 150.5,66.5C 150.527,64.8007 151.194,63.4674 152.5,62.5C 153.959,62.5674 155.292,62.2341 156.5,61.5C 157.167,60.8333 157.833,60.1667 158.5,59.5C 160.787,62.0989 162.953,61.7655 165,58.5C 165.973,62.989 167.307,63.3223 169,59.5C 169.333,60.5 169.667,61.5 170,62.5C 172.752,60.0268 175.586,60.0268 178.5,62.5C 180.5,61.1667 182.5,61.1667 184.5,62.5C 185.604,61.3687 185.271,60.5354 183.5,60C 184,59.8333 184.5,59.6667 185,59.5C 186.567,60.8561 188.4,61.5228 190.5,61.5C 190.5,60.5 190.5,59.5 190.5,58.5 Z"/></g>
<g><path style="opacity:1" fill="#007f83" d="M 225.5,60.5 C 229.182,60.3347 232.848,60.5014 236.5,61C 224.486,63.5041 212.486,66.0041 200.5,68.5C 200.5,66.1667 200.5,63.8333 200.5,61.5C 208.875,61.7404 217.208,61.4071 225.5,60.5 Z"/></g>
<g><path style="opacity:1" fill="#5f9597" d="M 316.5,69.5 C 314.051,71.661 311.385,72.3277 308.5,71.5C 307.549,70.0813 307.216,68.4147 307.5,66.5C 307.938,66.5654 308.272,66.3988 308.5,66C 307.328,65.5814 306.328,64.9147 305.5,64C 306.92,62.47 307.92,60.6367 308.5,58.5C 309.096,59.7161 309.263,61.0494 309,62.5C 309.718,63.4506 310.551,63.6172 311.5,63C 310.594,61.3005 310.261,59.4672 310.5,57.5C 309.167,57.5 307.833,57.5 306.5,57.5C 306.5,59.1667 306.5,60.8333 306.5,62.5C 305.448,62.6495 304.448,62.4828 303.5,62C 304.641,61.2588 304.641,60.4255 303.5,59.5C 304.243,58.8182 304.909,58.1515 305.5,57.5C 312.289,56.1246 319.289,55.4579 326.5,55.5C 326.216,58.2538 325.549,60.9205 324.5,63.5C 323.702,61.9223 323.202,60.2556 323,58.5C 322.798,60.2556 322.298,61.9223 321.5,63.5C 320.033,63.277 318.533,62.9437 317,62.5C 316.5,63 316,63.5 315.5,64C 317.219,65.0569 319.053,65.8903 321,66.5C 322.494,65.2528 323.994,65.2528 325.5,66.5C 322.061,66.9065 319.061,67.9065 316.5,69.5 Z"/></g>
<g><path style="opacity:1" fill="#d0b70f" d="M 431.5,54.5 C 423.26,59.2514 417.76,66.2514 415,75.5C 412.372,88.2249 415.539,99.2249 424.5,108.5C 424.167,108.833 423.833,109.167 423.5,109.5C 420.124,106.286 417.29,102.619 415,98.5C 408.481,81.9098 411.981,67.9098 425.5,56.5C 426.973,55.2599 428.64,54.2599 430.5,53.5C 431.107,53.6236 431.44,53.9569 431.5,54.5 Z"/></g>
<g><path style="opacity:1" fill="#00a2a7" d="M 257.5,59.5 C 258.873,59.3433 260.207,59.51 261.5,60C 260.833,60.3333 260.167,60.6667 259.5,61C 231.518,65.8275 203.851,71.8275 176.5,79C 172.17,81.6362 167.503,83.4695 162.5,84.5C 160.623,83.171 160.456,81.8377 162,80.5C 174.611,76.7278 187.111,73.0612 199.5,69.5C 218.719,65.529 238.052,62.1957 257.5,59.5 Z"/></g>
<g><path style="opacity:1" fill="#041e1f" d="M 316.5,69.5 C 319.668,70.4435 323.001,70.4435 326.5,69.5C 326.808,71.924 326.474,74.2573 325.5,76.5C 315.528,80.5979 305.528,84.2646 295.5,87.5C 286.229,88.9181 276.895,89.5848 267.5,89.5C 265.075,89.316 265.075,88.6493 267.5,87.5C 270.971,87.1006 273.971,85.7672 276.5,83.5C 277.086,83.7093 277.586,84.0426 278,84.5C 280.277,83.8828 282.444,83.2161 284.5,82.5C 285.167,82.1667 285.833,81.8333 286.5,81.5C 286.5,82.1667 286.833,82.5 287.5,82.5C 288.209,83.404 289.209,83.7373 290.5,83.5C 290.5,82.5 290.5,81.5 290.5,80.5C 297.029,78.4903 303.363,75.9903 309.5,73C 308.944,72.6174 308.611,72.1174 308.5,71.5C 311.385,72.3277 314.051,71.661 316.5,69.5 Z"/></g>
<g><path style="opacity:1" fill="#055c5f" d="M 493.5,80.5 C 490.833,80.1667 488.167,79.8333 485.5,79.5C 485.5,79.1667 485.5,78.8333 485.5,78.5C 485.768,76.901 485.434,75.5676 484.5,74.5C 484.185,72.7741 484.019,71.1075 484,69.5C 487.122,70.6448 490.289,71.6448 493.5,72.5C 493.5,75.1667 493.5,77.8333 493.5,80.5 Z"/></g>
<g><path style="opacity:1" fill="#d1b80f" d="M 111.5,64.5 C 120.575,80.6747 118.908,95.6747 106.5,109.5C 105.167,109.5 104.5,108.833 104.5,107.5C 105.794,106.71 106.961,105.71 108,104.5C 114.114,95.4014 116.114,85.4014 114,74.5C 111.107,65.7815 105.607,59.4482 97.5,55.5C 97.4701,54.5028 97.9701,53.8361 99,53.5C 103.968,56.3036 108.134,59.9703 111.5,64.5 Z"/></g>
<g><path style="opacity:1" fill="#0c5a5d" d="M 326.5,69.5 C 323.001,70.4435 319.668,70.4435 316.5,69.5C 319.061,67.9065 322.061,66.9065 325.5,66.5C 323.994,65.2528 322.494,65.2528 321,66.5C 319.053,65.8903 317.219,65.0569 315.5,64C 316,63.5 316.5,63 317,62.5C 318.533,62.9437 320.033,63.277 321.5,63.5C 322.298,61.9223 322.798,60.2556 323,58.5C 323.202,60.2556 323.702,61.9223 324.5,63.5C 325.549,60.9205 326.216,58.2538 326.5,55.5C 319.289,55.4579 312.289,56.1246 305.5,57.5C 302.455,57.4921 299.455,57.1587 296.5,56.5C 280.493,58.5071 265.159,62.8404 250.5,69.5C 248.181,69.9925 246.181,70.9925 244.5,72.5C 243.292,73.2341 241.959,73.5674 240.5,73.5C 240.18,76.8984 240.513,80.2317 241.5,83.5C 242.318,80.8929 242.818,78.2263 243,75.5C 244.333,74.1667 245.667,74.1667 247,75.5C 247.182,78.2263 247.682,80.8929 248.5,83.5C 249.741,80.463 249.741,77.463 248.5,74.5C 248.842,73.6618 249.508,73.3284 250.5,73.5C 249.931,77.3293 250.598,80.6627 252.5,83.5C 253.873,83.3433 255.207,83.51 256.5,84C 250.105,85.7982 243.772,87.7982 237.5,90C 238.333,90.1667 239.167,90.3333 240,90.5C 248.687,87.6198 257.521,85.2865 266.5,83.5C 268.861,83.3259 271.194,82.9926 273.5,82.5C 273.5,79.5 273.5,76.5 273.5,73.5C 265.981,71.3579 262.981,74.0245 264.5,81.5C 264.158,82.3382 263.492,82.6716 262.5,82.5C 260.708,81.6909 258.708,81.1909 256.5,81C 259.118,78.8943 261.118,76.3943 262.5,73.5C 260.031,72.6829 257.365,72.1829 254.5,72C 260.036,70.0565 265.369,67.8899 270.5,65.5C 278.802,62.5979 287.469,60.9313 296.5,60.5C 296.351,61.552 296.517,62.552 297,63.5C 297.43,57.282 298.93,56.9487 301.5,62.5C 301.392,63.4419 301.059,64.2753 300.5,65C 299.167,65.3333 297.833,65.6667 296.5,66C 300.152,66.4986 303.818,66.6653 307.5,66.5C 307.216,68.4147 307.549,70.0813 308.5,71.5C 308.611,72.1174 308.944,72.6174 309.5,73C 303.363,75.9903 297.029,78.4903 290.5,80.5C 290.5,81.5 290.5,82.5 290.5,83.5C 289.209,83.7373 288.209,83.404 287.5,82.5C 288.239,82.631 288.906,82.4643 289.5,82C 286.93,79.282 286.93,76.6153 289.5,74C 288.23,73.1004 287.23,71.9337 286.5,70.5C 285.242,74.2103 285.242,77.877 286.5,81.5C 285.833,81.8333 285.167,82.1667 284.5,82.5C 282.444,83.2161 280.277,83.8828 278,84.5C 277.586,84.0426 277.086,83.7093 276.5,83.5C 273.971,85.7672 270.971,87.1006 267.5,87.5C 265.075,88.6493 265.075,89.316 267.5,89.5C 260.833,90.1667 254.167,90.8333 247.5,91.5C 242.305,91.1795 237.305,91.5128 232.5,92.5C 216.167,92.5 199.833,92.5 183.5,92.5C 183.5,92.1667 183.5,91.8333 183.5,91.5C 186.187,91.6641 188.854,91.4974 191.5,91C 183.782,90.8123 176.115,90.1456 168.5,89C 166.253,87.7225 164.253,86.2225 162.5,84.5C 167.503,83.4695 172.17,81.6362 176.5,79C 203.851,71.8275 231.518,65.8275 259.5,61C 260.167,60.6667 260.833,60.3333 261.5,60C 260.207,59.51 258.873,59.3433 257.5,59.5C 280.562,56.0799 303.895,54.4132 327.5,54.5C 327.779,59.5947 327.445,64.5947 326.5,69.5 Z"/></g>
<g><path style="opacity:1" fill="#91bbbd" d="M 296.5,56.5 C 299.455,57.1587 302.455,57.4921 305.5,57.5C 304.909,58.1515 304.243,58.8182 303.5,59.5C 304.641,60.4255 304.641,61.2588 303.5,62C 304.448,62.4828 305.448,62.6495 306.5,62.5C 306.5,60.8333 306.5,59.1667 306.5,57.5C 307.833,57.5 309.167,57.5 310.5,57.5C 310.261,59.4672 310.594,61.3005 311.5,63C 310.551,63.6172 309.718,63.4506 309,62.5C 309.263,61.0494 309.096,59.7161 308.5,58.5C 307.92,60.6367 306.92,62.47 305.5,64C 306.328,64.9147 307.328,65.5814 308.5,66C 308.272,66.3988 307.938,66.5654 307.5,66.5C 303.818,66.6653 300.152,66.4986 296.5,66C 297.833,65.6667 299.167,65.3333 300.5,65C 301.059,64.2753 301.392,63.4419 301.5,62.5C 298.93,56.9487 297.43,57.282 297,63.5C 296.517,62.552 296.351,61.552 296.5,60.5C 296.5,59.1667 296.5,57.8333 296.5,56.5 Z"/></g>
<g><path style="opacity:1" fill="#11b1b5" d="M 296.5,56.5 C 296.5,57.8333 296.5,59.1667 296.5,60.5C 287.469,60.9313 278.802,62.5979 270.5,65.5C 264.057,66.5919 257.891,68.5919 252,71.5C 250.97,71.1639 250.47,70.4972 250.5,69.5C 265.159,62.8404 280.493,58.5071 296.5,56.5 Z"/></g>
<g><path style="opacity:1" fill="#b4c3c4" d="M 287.5,82.5 C 286.833,82.5 286.5,82.1667 286.5,81.5C 285.242,77.877 285.242,74.2103 286.5,70.5C 287.23,71.9337 288.23,73.1004 289.5,74C 286.93,76.6153 286.93,79.282 289.5,82C 288.906,82.4643 288.239,82.631 287.5,82.5 Z"/></g>
<g><path style="opacity:1" fill="#1c1d1d" d="M 505.5,72.5 C 502.813,72.3359 500.146,72.5026 497.5,73C 501.145,73.7189 504.812,74.2189 508.5,74.5C 519.786,74.7286 527.619,80.062 532,90.5C 532.725,91.0585 533.558,91.3918 534.5,91.5C 535.932,91.2668 536.432,90.6001 536,89.5C 532.833,85.6667 529.667,81.8333 526.5,78C 522.67,76.0017 518.67,74.5017 514.5,73.5C 518.601,72.6515 522.601,73.4849 526.5,76C 531.083,79.9123 534.917,84.4123 538,89.5C 538.308,88.6919 538.808,88.0253 539.5,87.5C 543.859,89.3475 548.192,91.3475 552.5,93.5C 549.361,94.6028 546.194,94.6028 543,93.5C 541.301,93.3866 540.134,94.0532 539.5,95.5C 539.167,95.5 538.833,95.5 538.5,95.5C 538.5,94.1667 537.833,93.5 536.5,93.5C 522.46,92.2403 508.794,89.2403 495.5,84.5C 494.507,79.8804 494.173,75.2137 494.5,70.5C 498.649,69.9197 502.316,70.5864 505.5,72.5 Z"/></g>
<g><path style="opacity:1" fill="#7d8913" d="M 505.5,72.5 C 508.385,72.1936 511.052,72.5269 513.5,73.5C 511.585,73.2155 509.919,73.5489 508.5,74.5C 504.812,74.2189 501.145,73.7189 497.5,73C 500.146,72.5026 502.813,72.3359 505.5,72.5 Z"/></g>
<g><path style="opacity:1" fill="#d8e3e4" d="M 284.5,82.5 C 282.803,80.6948 281.97,78.3615 282,75.5C 280.667,74.1667 279.333,74.1667 278,75.5C 277.814,77.9005 277.314,80.2338 276.5,82.5C 275.516,79.5719 275.183,76.5719 275.5,73.5C 282.966,71.6303 285.966,74.6303 284.5,82.5 Z"/></g>
<g><path style="opacity:1" fill="#d7e5e5" d="M 244.5,72.5 C 246.062,72.7329 247.395,73.3995 248.5,74.5C 249.741,77.463 249.741,80.463 248.5,83.5C 247.682,80.8929 247.182,78.2263 247,75.5C 245.667,74.1667 244.333,74.1667 243,75.5C 242.818,78.2263 242.318,80.8929 241.5,83.5C 240.513,80.2317 240.18,76.8984 240.5,73.5C 241.959,73.5674 243.292,73.2341 244.5,72.5 Z"/></g>
<g><path style="opacity:1" fill="#2d7d81" d="M 270.5,65.5 C 265.369,67.8899 260.036,70.0565 254.5,72C 257.365,72.1829 260.031,72.6829 262.5,73.5C 259.813,73.3359 257.146,73.5026 254.5,74C 256.256,74.2022 257.922,74.7022 259.5,75.5C 257.833,77.5 256.167,79.5 254.5,81.5C 257.086,82.48 259.753,82.8134 262.5,82.5C 263.492,82.6716 264.158,82.3382 264.5,81.5C 265.5,81.8333 266.167,82.5 266.5,83.5C 257.521,85.2865 248.687,87.6198 240,90.5C 239.167,90.3333 238.333,90.1667 237.5,90C 243.772,87.7982 250.105,85.7982 256.5,84C 255.207,83.51 253.873,83.3433 252.5,83.5C 253.069,79.6707 252.402,76.3373 250.5,73.5C 249.508,73.3284 248.842,73.6618 248.5,74.5C 247.395,73.3995 246.062,72.7329 244.5,72.5C 246.181,70.9925 248.181,69.9925 250.5,69.5C 250.47,70.4972 250.97,71.1639 252,71.5C 257.891,68.5919 264.057,66.5919 270.5,65.5 Z"/></g>
<g><path style="opacity:1" fill="#aecaca" d="M 250.5,73.5 C 252.402,76.3373 253.069,79.6707 252.5,83.5C 250.598,80.6627 249.931,77.3293 250.5,73.5 Z"/></g>
<g><path style="opacity:1" fill="#d3eb0f" d="M 408.5,75.5 C 407.432,76.4345 406.099,76.7678 404.5,76.5C 393.823,77.1341 383.156,77.9674 372.5,79C 358.555,81.5677 344.555,83.7344 330.5,85.5C 330.062,85.5654 329.728,85.3988 329.5,85C 331.706,84.0232 333.706,82.8565 335.5,81.5C 356.152,77.7048 376.985,75.0381 398,73.5C 401.902,73.5123 405.402,74.179 408.5,75.5 Z"/></g>
<g><path style="opacity:1" fill="#f1f6f6" d="M 262.5,73.5 C 261.118,76.3943 259.118,78.8943 256.5,81C 258.708,81.1909 260.708,81.6909 262.5,82.5C 259.753,82.8134 257.086,82.48 254.5,81.5C 256.167,79.5 257.833,77.5 259.5,75.5C 257.922,74.7022 256.256,74.2022 254.5,74C 257.146,73.5026 259.813,73.3359 262.5,73.5 Z"/></g>
<g><path style="opacity:1" fill="#e2ebec" d="M 209.5,72.5 C 212.599,72.0923 214.933,73.259 216.5,76C 214.822,75.8877 213.155,75.3877 211.5,74.5C 210.558,74.6082 209.725,74.9415 209,75.5C 208.257,77.4406 208.424,79.2739 209.5,81C 212.073,81.4277 214.406,81.0943 216.5,80C 213.491,84.384 210.325,84.5507 207,80.5C 206.018,77.2253 206.851,74.5586 209.5,72.5 Z"/></g>
<g><path style="opacity:1" fill="#292929" d="M 28.5,75.5 C 33.4616,76.6567 38.4616,77.6567 43.5,78.5C 43.5,81.8333 43.5,85.1667 43.5,88.5C 39.1539,88.6657 34.8206,88.499 30.5,88C 28.6876,84.078 28.021,79.9113 28.5,75.5 Z"/></g>
<g><path style="opacity:1" fill="#e3edee" d="M 266.5,83.5 C 266.167,82.5 265.5,81.8333 264.5,81.5C 262.981,74.0245 265.981,71.3579 273.5,73.5C 273.5,76.5 273.5,79.5 273.5,82.5C 271.194,82.9926 268.861,83.3259 266.5,83.5 Z"/></g>
<g><path style="opacity:1" fill="#1a6265" d="M 266.5,74.5 C 272.016,74.4734 273.349,76.64 270.5,81C 265.57,81.427 264.237,79.2604 266.5,74.5 Z"/></g>
<g><path style="opacity:1" fill="#a8b911" d="M 485.5,79.5 C 488.167,79.8333 490.833,80.1667 493.5,80.5C 492.378,81.1558 491.045,81.4892 489.5,81.5C 487.667,81.4146 486.334,80.7479 485.5,79.5 Z"/></g>
<g><path style="opacity:1" fill="#e2ecec" d="M 220.5,72.5 C 227.968,73.6744 229.301,77.1744 224.5,83C 219.178,83.3403 217.011,80.8403 218,75.5C 219.045,74.6266 219.878,73.6266 220.5,72.5 Z"/></g>
<g><path style="opacity:1" fill="#236163" d="M 220.5,74.5 C 225.328,74.3852 226.661,76.5519 224.5,81C 218.738,81.4178 217.404,79.2511 220.5,74.5 Z"/></g>
<g><path style="opacity:1" fill="#dae6e7" d="M 231.5,72.5 C 233.861,72.6741 236.194,73.0074 238.5,73.5C 238.666,77.5138 238.499,81.5138 238,85.5C 234.693,88.2554 231.526,88.0887 228.5,85C 230.179,84.6053 231.845,84.772 233.5,85.5C 235,85.5472 236,84.8805 236.5,83.5C 228.274,83.2099 226.607,79.5432 231.5,72.5 Z"/></g>
<g><path style="opacity:1" fill="#17595c" d="M 231.5,74.5 C 236.328,74.3852 237.661,76.5519 235.5,81C 230.57,81.427 229.237,79.2604 231.5,74.5 Z"/></g>
<g><path style="opacity:1" fill="#d3b90c" d="M 66.5,55.5 C 62.5781,57.9155 59.0781,60.9155 56,64.5C 46.2161,80.3281 47.7161,94.9948 60.5,108.5C 60.1667,108.833 59.8333,109.167 59.5,109.5C 57.5171,108.018 55.6837,106.351 54,104.5C 45.1826,90.324 45.3493,76.324 54.5,62.5C 57.667,59.502 61.0003,56.6686 64.5,54C 66.9476,53.1469 67.6143,53.6469 66.5,55.5 Z"/></g>
<g><path style="opacity:1" fill="#d2e307" d="M 508.5,74.5 C 509.919,73.5489 511.585,73.2155 513.5,73.5C 513.833,73.5 514.167,73.5 514.5,73.5C 518.67,74.5017 522.67,76.0017 526.5,78C 529.667,81.8333 532.833,85.6667 536,89.5C 536.432,90.6001 535.932,91.2668 534.5,91.5C 533.558,91.3918 532.725,91.0585 532,90.5C 527.619,80.062 519.786,74.7286 508.5,74.5 Z"/></g>
<g><path style="opacity:1" fill="#7c9007" d="M 334.5,81.5 C 334.833,81.5 335.167,81.5 335.5,81.5C 333.706,82.8565 331.706,84.0232 329.5,85C 329.728,85.3988 330.062,85.5654 330.5,85.5C 326.057,86.8015 321.391,87.4681 316.5,87.5C 315.448,87.6495 314.448,87.4828 313.5,87C 314.942,86.6232 315.942,85.7899 316.5,84.5C 322.438,83.1741 328.438,82.1741 334.5,81.5 Z"/></g>
<g><path style="opacity:1" fill="#333333" d="M 391.5,83.5 C 390.4,84.6049 389.733,85.9382 389.5,87.5C 388.761,87.631 388.094,87.4643 387.5,87C 388.696,86.3457 388.696,85.8457 387.5,85.5C 383.62,85.749 379.62,85.749 375.5,85.5C 375.5,86.8333 375.5,88.1667 375.5,89.5C 374.732,88.7375 374.232,87.7375 374,86.5C 366.75,88.0288 359.417,89.3621 352,90.5C 349.125,90.0013 348.958,89.3346 351.5,88.5C 364.236,85.7531 376.903,82.7531 389.5,79.5C 391.111,80.3202 391.778,81.6536 391.5,83.5 Z"/></g>
<g><path style="opacity:1" fill="#1a1a1a" d="M 404.5,76.5 C 405.209,77.404 406.209,77.7373 407.5,77.5C 407.5,80.5 407.5,83.5 407.5,86.5C 402.456,86.8275 397.456,86.4941 392.5,85.5C 393.485,83.9017 393.651,82.235 393,80.5C 392.768,81.7375 392.268,82.7375 391.5,83.5C 391.778,81.6536 391.111,80.3202 389.5,79.5C 376.903,82.7531 364.236,85.7531 351.5,88.5C 348.958,89.3346 349.125,90.0013 352,90.5C 359.417,89.3621 366.75,88.0288 374,86.5C 374.232,87.7375 374.732,88.7375 375.5,89.5C 377.264,90.7122 378.93,90.3788 380.5,88.5C 382.393,90.367 384.393,91.0336 386.5,90.5C 386.923,91.2646 387.257,92.0979 387.5,93C 384.893,98.3482 383.06,103.848 382,109.5C 383,108.167 384,106.833 385,105.5C 387.724,106.892 390.557,108.058 393.5,109C 395.439,109.908 396.439,111.408 396.5,113.5C 378.5,113.5 360.5,113.5 342.5,113.5C 341.737,112.732 340.737,112.232 339.5,112C 348.5,111.667 357.5,111.333 366.5,111C 367.598,110.23 367.598,109.397 366.5,108.5C 366.578,107.345 366.912,106.012 367.5,104.5C 368.281,105.729 368.781,107.062 369,108.5C 370,103.167 371,103.167 372,108.5C 372.494,106.866 372.66,105.199 372.5,103.5C 369.751,103.726 367.084,103.393 364.5,102.5C 363.201,103.09 362.368,104.09 362,105.5C 359.74,103.003 358.407,103.67 358,107.5C 357.77,103.787 356.603,103.12 354.5,105.5C 353.833,104.833 353.167,104.167 352.5,103.5C 351.212,105.299 351.212,106.965 352.5,108.5C 350.833,111.167 349.167,111.167 347.5,108.5C 348.649,108.209 349.316,107.376 349.5,106C 349.065,102.937 348.232,102.77 347,105.5C 344.703,103.22 342.203,102.554 339.5,103.5C 336.5,103.5 333.5,103.5 330.5,103.5C 330.36,105.124 331.027,106.29 332.5,107C 329.862,107.509 328.528,106.342 328.5,103.5C 328.389,102.883 328.056,102.383 327.5,102C 332.716,96.5537 339.049,92.8871 346.5,91C 329.901,94.2193 313.234,97.3859 296.5,100.5C 295.737,99.7321 294.737,99.2321 293.5,99C 301.637,96.7322 309.637,94.0656 317.5,91C 320.332,89.0924 319.999,88.259 316.5,88.5C 316.5,88.1667 316.5,87.8333 316.5,87.5C 321.391,87.4681 326.057,86.8015 330.5,85.5C 344.555,83.7344 358.555,81.5677 372.5,79C 383.156,77.9674 393.823,77.1341 404.5,76.5 Z"/></g>
<g><path style="opacity:1" fill="#818181" d="M 389.5,87.5 C 389.5,89.5 388.5,90.5 386.5,90.5C 384.393,91.0336 382.393,90.367 380.5,88.5C 378.93,90.3788 377.264,90.7122 375.5,89.5C 375.5,88.1667 375.5,86.8333 375.5,85.5C 379.62,85.749 383.62,85.749 387.5,85.5C 388.696,85.8457 388.696,86.3457 387.5,87C 388.094,87.4643 388.761,87.631 389.5,87.5 Z"/></g>
<g><path style="opacity:1" fill="#566404" d="M 316.5,84.5 C 315.942,85.7899 314.942,86.6232 313.5,87C 314.448,87.4828 315.448,87.6495 316.5,87.5C 316.5,87.8333 316.5,88.1667 316.5,88.5C 309.166,89.3347 301.833,89.8347 294.5,90C 295.416,89.7216 296.082,89.2216 296.5,88.5C 302.966,86.2735 309.633,84.9402 316.5,84.5 Z"/></g>
<g><path style="opacity:1" fill="#171718" d="M 147.5,60.5 C 148.5,62.5 149.5,64.5 150.5,66.5C 152.036,71.1089 153.37,75.7756 154.5,80.5C 169.379,76.3635 184.379,72.6968 199.5,69.5C 187.111,73.0612 174.611,76.7278 162,80.5C 160.456,81.8377 160.623,83.171 162.5,84.5C 164.253,86.2225 166.253,87.7225 168.5,89C 176.115,90.1456 183.782,90.8123 191.5,91C 188.854,91.4974 186.187,91.6641 183.5,91.5C 172.776,91.645 162.11,90.9784 151.5,89.5C 150.833,89.8333 150.167,90.1667 149.5,90.5C 159.07,92.3255 168.737,93.3255 178.5,93.5C 200.466,95.5085 222.466,95.8418 244.5,94.5C 246.5,94.5 248.5,94.5 250.5,94.5C 261.156,93.6012 271.822,92.7679 282.5,92C 287.42,91.6981 292.087,90.5315 296.5,88.5C 296.082,89.2216 295.416,89.7216 294.5,90C 301.833,89.8347 309.166,89.3347 316.5,88.5C 319.999,88.259 320.332,89.0924 317.5,91C 309.637,94.0656 301.637,96.7322 293.5,99C 294.737,99.2321 295.737,99.7321 296.5,100.5C 267.886,107.039 238.886,109.206 209.5,107C 204.104,106.277 198.771,105.277 193.5,104C 179.167,103.667 164.833,103.333 150.5,103C 140.176,100.39 129.842,97.8904 119.5,95.5C 119.856,94.1301 120.69,93.1301 122,92.5C 133.44,88.7978 144.94,85.2978 156.5,82C 154.833,81.3333 153.167,81.3333 151.5,82C 141.57,85.1485 131.57,87.9819 121.5,90.5C 121.334,85.1563 121.501,79.8229 122,74.5C 130.037,69.5558 138.037,63.8891 146,57.5C 146.232,58.7375 146.732,59.7375 147.5,60.5 Z"/></g>
<g><path style="opacity:1" fill="#b5c30c" d="M 183.5,91.5 C 183.5,91.8333 183.5,92.1667 183.5,92.5C 181.585,92.2155 179.919,92.5489 178.5,93.5C 168.737,93.3255 159.07,92.3255 149.5,90.5C 150.167,90.1667 150.833,89.8333 151.5,89.5C 162.11,90.9784 172.776,91.645 183.5,91.5 Z"/></g>
<g><path style="opacity:1" fill="#99b711" d="M 232.5,92.5 C 237.305,91.5128 242.305,91.1795 247.5,91.5C 251.182,91.3347 254.848,91.5014 258.5,92C 255.834,93.0605 253.167,93.8939 250.5,94.5C 248.5,94.5 246.5,94.5 244.5,94.5C 240.971,92.5772 236.971,91.9106 232.5,92.5 Z"/></g>
<g><path style="opacity:1" fill="#414d09" d="M 295.5,87.5 C 296.167,87.5 296.5,87.8333 296.5,88.5C 292.087,90.5315 287.42,91.6981 282.5,92C 271.822,92.7679 261.156,93.6012 250.5,94.5C 253.167,93.8939 255.834,93.0605 258.5,92C 254.848,91.5014 251.182,91.3347 247.5,91.5C 254.167,90.8333 260.833,90.1667 267.5,89.5C 276.895,89.5848 286.229,88.9181 295.5,87.5 Z"/></g>
<g><path style="opacity:1" fill="#cede09" d="M 178.5,93.5 C 179.919,92.5489 181.585,92.2155 183.5,92.5C 199.833,92.5 216.167,92.5 232.5,92.5C 236.971,91.9106 240.971,92.5772 244.5,94.5C 222.466,95.8418 200.466,95.5085 178.5,93.5 Z"/></g>
<g><path style="opacity:1" fill="#71820b" d="M 536.5,93.5 C 537.833,93.5 538.5,94.1667 538.5,95.5C 537.609,96.1098 536.609,96.4431 535.5,96.5C 534.957,96.44 534.624,96.1067 534.5,95.5C 535.243,94.8182 535.909,94.1515 536.5,93.5 Z"/></g>
<g><path style="opacity:1" fill="#323132" d="M 554.5,95.5 C 558.555,95.1758 562.555,95.5091 566.5,96.5C 561.936,102.258 555.936,105.591 548.5,106.5C 547.041,104.417 545.708,102.25 544.5,100C 547.859,98.3878 551.192,96.8878 554.5,95.5 Z"/></g>
<g><path style="opacity:1" fill="#393939" d="M 39.5,94.5 C 44.6393,95.0207 47.306,98.0207 47.5,103.5C 44.5,103.5 41.5,103.5 38.5,103.5C 38.2641,100.391 38.5975,97.3915 39.5,94.5 Z"/></g>
<g><path style="opacity:1" fill="#1a1a1a" d="M 326.5,103.5 C 325.782,105.137 325.616,106.803 326,108.5C 328.369,108.273 330.869,108.107 333.5,108C 334.458,106.853 334.125,105.853 332.5,105C 333.448,104.517 334.448,104.351 335.5,104.5C 335.682,109.794 336.182,109.794 337,104.5C 337.2,106.32 338.034,107.653 339.5,108.5C 339.56,109.043 339.893,109.376 340.5,109.5C 342.733,109.136 344.566,108.136 346,106.5C 346.717,107.044 347.217,107.711 347.5,108.5C 349.167,111.167 350.833,111.167 352.5,108.5C 352.721,105.903 353.221,105.903 354,108.5C 354.667,107.833 355.333,107.167 356,106.5C 356.388,107.428 357.055,108.095 358,108.5C 360.955,108.248 363.789,108.248 366.5,108.5C 367.598,109.397 367.598,110.23 366.5,111C 357.5,111.333 348.5,111.667 339.5,112C 340.737,112.232 341.737,112.732 342.5,113.5C 307.173,112.794 271.839,112.294 236.5,112C 241.774,111.187 241.774,110.687 236.5,110.5C 229.655,112.559 222.655,113.559 215.5,113.5C 182.507,112.467 149.507,111.801 116.5,111.5C 116.5,109.167 116.5,106.833 116.5,104.5C 125.919,105.075 135.252,106.242 144.5,108C 155.842,108.514 167.176,108.347 178.5,107.5C 182.157,106.838 185.824,106.171 189.5,105.5C 196.129,106.859 202.796,108.026 209.5,109C 225.167,109.667 240.833,109.667 256.5,109C 276.533,105.831 296.533,102.831 316.5,100C 288.141,107.671 288.807,111.004 318.5,110C 320.174,106.481 322.841,104.315 326.5,103.5 Z"/></g>
<g><path style="opacity:1" fill="#242424" d="M 535.5,98.5 C 537.126,100.243 539.126,100.743 541.5,100C 540.695,98.8873 540.028,97.7206 539.5,96.5C 540.117,96.3893 540.617,96.056 541,95.5C 542.636,98.6061 544.136,101.773 545.5,105C 545.095,105.945 544.428,106.612 543.5,107C 536.833,107.667 530.167,107.667 523.5,107C 522.726,104.595 522.226,102.095 522,99.5C 512.946,99.6402 503.779,99.6402 494.5,99.5C 494.351,96.3926 494.851,93.3926 496,90.5C 508.208,94.0738 520.708,96.2405 533.5,97C 534.044,97.7172 534.711,98.2172 535.5,98.5 Z"/></g>
<g><path style="opacity:1" fill="#daeb22" d="M 538.5,95.5 C 538.833,95.5 539.167,95.5 539.5,95.5C 539.5,95.8333 539.5,96.1667 539.5,96.5C 540.028,97.7206 540.695,98.8873 541.5,100C 539.126,100.743 537.126,100.243 535.5,98.5C 535.5,97.8333 535.5,97.1667 535.5,96.5C 536.609,96.4431 537.609,96.1098 538.5,95.5 Z"/></g>
<g><path style="opacity:1" fill="#302e2e" d="M 474.5,101.5 C 474.167,102.5 473.5,103.167 472.5,103.5C 472.265,102.903 471.765,102.57 471,102.5C 466.483,107.199 461.317,110.865 455.5,113.5C 452.634,113.633 450.634,114.966 449.5,117.5C 448.833,117.5 448.167,117.5 447.5,117.5C 449.078,115.682 448.578,114.682 446,114.5C 444.566,114.862 443.399,115.528 442.5,116.5C 441.816,114.815 440.483,113.815 438.5,113.5C 437.614,114.325 437.281,115.325 437.5,116.5C 436.833,116.167 436.167,115.833 435.5,115.5C 436.11,114.609 436.443,113.609 436.5,112.5C 435.537,111.637 435.537,110.97 436.5,110.5C 438.098,111.485 439.765,111.651 441.5,111C 439.129,110.265 436.795,109.432 434.5,108.5C 434.167,109.167 433.833,109.833 433.5,110.5C 428.223,108.223 424.223,104.556 421.5,99.5C 422.167,99.1667 422.833,98.8333 423.5,98.5C 418.009,88.4003 418.175,78.4003 424,68.5C 438.67,52.8658 453.67,52.5325 469,67.5C 474.23,77.6125 474.897,87.9458 471,98.5C 471.915,97.6721 472.581,96.6721 473,95.5C 473.191,97.7078 473.691,99.7078 474.5,101.5 Z"/></g>
<g><path style="opacity:1" fill="#080709" d="M 439.5,58.5 C 464.31,57.4708 474.81,69.1375 471,93.5C 463.659,107.845 452.159,112.678 436.5,108C 423.391,100.944 418.558,90.1105 422,75.5C 425.77,67.5613 431.603,61.8946 439.5,58.5 Z"/></g>
<g><path style="opacity:1" fill="#c1d00d" d="M 463.5,95.5 C 465.031,96.9245 464.698,97.5912 462.5,97.5C 460.396,95.9013 458.396,94.068 456.5,92C 457.5,91.3333 458.5,91.3333 459.5,92C 460.705,93.3756 462.038,94.5423 463.5,95.5 Z"/></g>
<g><path style="opacity:1" fill="#2f2d32" d="M 468.5,78.5 C 465.017,77.9159 462.017,78.7492 459.5,81C 461.197,81.3845 462.863,81.2178 464.5,80.5C 465.531,83.6028 465.531,86.4362 464.5,89C 465.167,89.3333 465.833,89.6667 466.5,90C 465.777,92.0183 464.777,93.8516 463.5,95.5C 462.038,94.5423 460.705,93.3756 459.5,92C 458.5,91.3333 457.5,91.3333 456.5,92C 458.396,94.068 460.396,95.9013 462.5,97.5C 458.815,102.412 453.815,105.078 447.5,105.5C 448.987,102.087 448.82,98.7533 447,95.5C 446.502,98.8168 446.335,102.15 446.5,105.5C 441.807,105.102 437.474,103.602 433.5,101C 432.177,100.184 431.511,99.0174 431.5,97.5C 435.099,96.416 436.932,94.0827 437,90.5C 434.914,93.0939 432.414,95.0939 429.5,96.5C 426.016,91.3895 424.683,85.7229 425.5,79.5C 428.694,81.3665 432.027,81.6998 435.5,80.5C 432.294,79.1921 428.96,78.5254 425.5,78.5C 427.918,66.9276 435.085,61.5943 447,62.5C 458.483,62.148 465.65,67.4813 468.5,78.5 Z"/></g>
<g><path style="opacity:1" fill="#bed20e" d="M 447.5,105.5 C 447.167,105.5 446.833,105.5 446.5,105.5C 446.335,102.15 446.502,98.8168 447,95.5C 448.82,98.7533 448.987,102.087 447.5,105.5 Z"/></g>
<g><path style="opacity:1" fill="#bac613" d="M 431.5,97.5 C 430.508,97.6716 429.842,97.3382 429.5,96.5C 432.414,95.0939 434.914,93.0939 437,90.5C 436.932,94.0827 435.099,96.416 431.5,97.5 Z"/></g>
<g><path style="opacity:1" fill="#d3da15" d="M 444.5,76.5 C 451.632,76.8021 454.465,80.4688 453,87.5C 446.653,93.4549 442.153,92.2883 439.5,84C 439.831,80.5199 441.498,78.0199 444.5,76.5 Z"/></g>
<g><path style="opacity:1" fill="#641618" d="M 444.5,78.5 C 451.632,78.7891 453.298,81.9558 449.5,88C 441.03,88.531 439.364,85.3643 444.5,78.5 Z"/></g>
<g><path style="opacity:1" fill="#9c9c9c" d="M 445.5,81.5 C 449.161,81.3501 450.161,82.8501 448.5,86C 444.707,86.4866 443.707,84.9866 445.5,81.5 Z"/></g>
<g><path style="opacity:1" fill="#abb819" d="M 425.5,79.5 C 425.5,79.1667 425.5,78.8333 425.5,78.5C 428.96,78.5254 432.294,79.1921 435.5,80.5C 432.027,81.6998 428.694,81.3665 425.5,79.5 Z"/></g>
<g><path style="opacity:1" fill="#a0b010" d="M 468.5,78.5 C 467.486,79.6737 466.153,80.3404 464.5,80.5C 462.863,81.2178 461.197,81.3845 459.5,81C 462.017,78.7492 465.017,77.9159 468.5,78.5 Z"/></g>
<g><path style="opacity:1" fill="#bacb15" d="M 455.5,64.5 C 456.097,64.7352 456.43,65.2352 456.5,66C 455.47,68.5602 454.303,71.0602 453,73.5C 452.131,70.0072 452.964,67.0072 455.5,64.5 Z"/></g>
<g><path style="opacity:1" fill="#c6d212" d="M 437.5,64.5 C 440.082,66.9968 441.582,69.9968 442,73.5C 439.074,71.2256 437.574,68.2256 437.5,64.5 Z"/></g>
<g><path style="opacity:1" fill="#09091b" d="M 340.5,104.5 C 341.833,105.5 341.833,106.5 340.5,107.5C 339.167,106.5 339.167,105.5 340.5,104.5 Z"/></g>
<g><path style="opacity:1" fill="#454545" d="M 119.5,98.5 C 129.066,101.142 138.732,103.642 148.5,106C 158.675,106.17 168.675,106.67 178.5,107.5C 167.176,108.347 155.842,108.514 144.5,108C 135.252,106.242 125.919,105.075 116.5,104.5C 116.992,102.181 117.992,100.181 119.5,98.5 Z"/></g>
<g><path style="opacity:1" fill="#a4b20f" d="M 366.5,108.5 C 363.789,108.248 360.955,108.248 358,108.5C 357.055,108.095 356.388,107.428 356,106.5C 355.333,107.167 354.667,107.833 354,108.5C 353.221,105.903 352.721,105.903 352.5,108.5C 351.212,106.965 351.212,105.299 352.5,103.5C 353.167,104.167 353.833,104.833 354.5,105.5C 356.603,103.12 357.77,103.787 358,107.5C 358.407,103.67 359.74,103.003 362,105.5C 362.368,104.09 363.201,103.09 364.5,102.5C 367.084,103.393 369.751,103.726 372.5,103.5C 372.66,105.199 372.494,106.866 372,108.5C 371,103.167 370,103.167 369,108.5C 368.781,107.062 368.281,105.729 367.5,104.5C 366.912,106.012 366.578,107.345 366.5,108.5 Z"/></g>
<g><path style="opacity:1" fill="#b2bd0b" d="M 373.5,103.5 C 374.735,103.721 375.735,104.388 376.5,105.5C 377.192,104.975 377.692,104.308 378,103.5C 378.798,105.259 378.631,106.926 377.5,108.5C 376.184,105.972 375.017,105.972 374,108.5C 373.506,106.866 373.34,105.199 373.5,103.5 Z"/></g>
<g><path style="opacity:1" fill="#2b2a2b" d="M 104.5,107.5 C 104.5,108.833 105.167,109.5 106.5,109.5C 105.063,110.725 103.396,111.725 101.5,112.5C 100.808,111.975 100.308,111.308 100,110.5C 99.7216,111.416 99.2216,112.082 98.5,112.5C 98.5654,112.062 98.3988,111.728 98,111.5C 96.4167,112.971 94.5834,113.971 92.5,114.5C 92.5,113.833 92.1667,113.5 91.5,113.5C 89.5,113.5 87.5,113.5 85.5,113.5C 85.7373,114.791 85.404,115.791 84.5,116.5C 84.2089,115.351 83.3756,114.684 82,114.5C 78.521,114.978 75.3543,114.978 72.5,114.5C 72.1667,113.833 71.8333,113.167 71.5,112.5C 71.9382,112.565 72.2716,112.399 72.5,112C 70.4049,111.444 70.2382,110.944 72,110.5C 73.7892,111.409 75.6226,111.576 77.5,111C 76.2625,110.768 75.2625,110.268 74.5,109.5C 85.6994,111.599 95.1994,108.599 103,100.5C 112.547,83.5203 109.047,70.0203 92.5,60C 79.0435,55.7084 68.2101,59.2084 60,70.5C 53.6976,83.7864 55.8643,95.453 66.5,105.5C 64.2843,104.797 62.451,103.464 61,101.5C 55.3497,93.5823 53.683,84.9156 56,75.5C 62.9745,59.8673 74.8079,54.034 91.5,58C 107.483,65.5916 112.817,77.9249 107.5,95C 107.667,95.5 107.833,96 108,96.5C 109.197,93.9109 110.197,91.2442 111,88.5C 111.029,93.9579 109.196,98.7913 105.5,103C 106.061,104.566 105.394,105.899 103.5,107C 103.728,107.399 104.062,107.565 104.5,107.5 Z"/></g>
<g><path style="opacity:1" fill="#ccdb08" d="M 98.5,94.5 C 99.5063,95.3957 99.5063,96.0623 98.5,96.5C 96.1969,94.6753 93.8636,92.8419 91.5,91C 94.3001,91.0665 96.6334,92.2332 98.5,94.5 Z"/></g>
<g><path style="opacity:1" fill="#272528" d="M 72.5,63.5 C 72.5737,67.2256 74.0737,70.2256 77,72.5C 76.7642,69.3538 75.9309,66.3538 74.5,63.5C 79.8333,64.8333 85.1667,64.8333 90.5,63.5C 90.3146,65.1958 89.4813,66.5291 88,67.5C 87.3333,69.1667 87.3333,70.8333 88,72.5C 89.2617,70.2156 90.4283,67.8823 91.5,65.5C 93.34,67.168 95.34,68.668 97.5,70C 97.1667,70.3333 96.8333,70.6667 96.5,71C 97.376,72.586 98.376,74.086 99.5,75.5C 98.3984,76.1757 97.3984,76.8423 96.5,77.5C 96.0472,78.4584 95.3805,79.2917 94.5,80C 95.448,80.4828 96.448,80.6495 97.5,80.5C 98.209,81.404 99.209,81.7373 100.5,81.5C 100.574,85.9836 99.9075,90.317 98.5,94.5C 96.6334,92.2332 94.3001,91.0665 91.5,91C 93.8636,92.8419 96.1969,94.6753 98.5,96.5C 94.7979,102.179 89.7979,104.846 83.5,104.5C 82.3656,91.3632 81.699,91.3632 81.5,104.5C 78.0901,104.543 74.7568,104.043 71.5,103C 67.8176,99.5968 64.3176,96.0968 61,92.5C 57.1187,79.6396 60.952,69.973 72.5,63.5 Z"/></g>
<g><path style="opacity:1" fill="#b9cb11" d="M 83.5,104.5 C 82.8333,104.5 82.1667,104.5 81.5,104.5C 81.699,91.3632 82.3656,91.3632 83.5,104.5 Z"/></g>
<g><path style="opacity:1" fill="#cbd610" d="M 71.5,90.5 C 72.0431,90.56 72.3764,90.8933 72.5,91.5C 71.0043,94.5269 68.671,96.0269 65.5,96C 67.3962,93.932 69.3962,92.0987 71.5,90.5 Z"/></g>
<g><path style="opacity:1" fill="#a4ba0c" d="M 84.5,78.5 C 86.288,78.2148 87.9547,78.5481 89.5,79.5C 88.1353,81.7508 88.4686,83.7508 90.5,85.5C 88.1018,86.8975 86.4351,88.8975 85.5,91.5C 84.8165,91.1373 84.1499,90.8039 83.5,90.5C 88.3116,86.8016 88.6449,82.8016 84.5,78.5 Z"/></g>
<g><path style="opacity:1" fill="#a7b90f" d="M 84.5,78.5 C 78.4452,78.0522 76.2786,80.7189 78,86.5C 79.0319,88.0267 80.1986,89.36 81.5,90.5C 80.2921,91.2341 78.9587,91.5674 77.5,91.5C 77.9783,88.7224 76.9783,86.7224 74.5,85.5C 76.5314,83.7508 76.8647,81.7508 75.5,79.5C 78.2633,78.8956 80.5966,77.5623 82.5,75.5C 83.4252,76.3569 84.0919,77.3569 84.5,78.5 Z"/></g>
<g><path style="opacity:1" fill="#671917" d="M 84.5,78.5 C 88.6449,82.8016 88.3116,86.8016 83.5,90.5C 82.8333,90.5 82.1667,90.5 81.5,90.5C 80.1986,89.36 79.0319,88.0267 78,86.5C 76.2786,80.7189 78.4452,78.0522 84.5,78.5 Z"/></g>
<g><path style="opacity:1" fill="#989494" d="M 80.5,81.5 C 81.8333,81.5 83.1667,81.5 84.5,81.5C 84.9899,83.9484 84.1566,85.615 82,86.5C 79.3894,85.5001 78.8894,83.8334 80.5,81.5 Z"/></g>
<g><path style="opacity:1" fill="#b4c115" d="M 96.5,77.5 C 105.298,77.1012 105.632,78.1012 97.5,80.5C 96.448,80.6495 95.448,80.4828 94.5,80C 95.3805,79.2917 96.0472,78.4584 96.5,77.5 Z"/></g>
<g><path style="opacity:1" fill="#b2c412" d="M 61.5,77.5 C 64.6249,77.8647 67.6249,78.698 70.5,80C 68.5,80.6667 66.5,80.6667 64.5,80C 62.8807,79.7645 61.8807,78.9311 61.5,77.5 Z"/></g>
<g><path style="opacity:1" fill="#aeb919" d="M 72.5,63.5 C 73.1667,63.5 73.8333,63.5 74.5,63.5C 75.9309,66.3538 76.7642,69.3538 77,72.5C 74.0737,70.2256 72.5737,67.2256 72.5,63.5 Z"/></g>
<g><path style="opacity:1" fill="#b0c20f" d="M 90.5,63.5 C 92.6977,63.4088 93.0311,64.0755 91.5,65.5C 90.4283,67.8823 89.2617,70.2156 88,72.5C 87.3333,70.8333 87.3333,69.1667 88,67.5C 89.4813,66.5291 90.3146,65.1958 90.5,63.5 Z"/></g>
<g><path style="opacity:1" fill="#282828" d="M 328.5,103.5 C 327.833,103.5 327.167,103.5 326.5,103.5C 322.841,104.315 320.174,106.481 318.5,110C 288.807,111.004 288.141,107.671 316.5,100C 296.533,102.831 276.533,105.831 256.5,109C 240.833,109.667 225.167,109.667 209.5,109C 202.796,108.026 196.129,106.859 189.5,105.5C 185.824,106.171 182.157,106.838 178.5,107.5C 168.675,106.67 158.675,106.17 148.5,106C 138.732,103.642 129.066,101.142 119.5,98.5C 119.5,97.5 119.5,96.5 119.5,95.5C 129.842,97.8904 140.176,100.39 150.5,103C 164.833,103.333 179.167,103.667 193.5,104C 198.771,105.277 204.104,106.277 209.5,107C 238.886,109.206 267.886,107.039 296.5,100.5C 313.234,97.3859 329.901,94.2193 346.5,91C 339.049,92.8871 332.716,96.5537 327.5,102C 328.056,102.383 328.389,102.883 328.5,103.5 Z"/></g>
<g><path style="opacity:1" fill="#6d6d6c" d="M 224.5,96.5 C 230.537,96.1707 236.537,96.5041 242.5,97.5C 239.5,97.8333 236.5,98.1667 233.5,98.5C 230.087,98.483 227.087,97.8164 224.5,96.5 Z"/></g>
<g><path style="opacity:1" fill="#b8c70c" d="M 326.5,103.5 C 327.167,103.5 327.833,103.5 328.5,103.5C 328.528,106.342 329.862,107.509 332.5,107C 331.027,106.29 330.36,105.124 330.5,103.5C 333.5,103.5 336.5,103.5 339.5,103.5C 340.167,103.5 340.5,103.833 340.5,104.5C 339.167,105.5 339.167,106.5 340.5,107.5C 340.5,108.167 340.167,108.5 339.5,108.5C 338.034,107.653 337.2,106.32 337,104.5C 336.182,109.794 335.682,109.794 335.5,104.5C 334.448,104.351 333.448,104.517 332.5,105C 334.125,105.853 334.458,106.853 333.5,108C 330.869,108.107 328.369,108.273 326,108.5C 325.616,106.803 325.782,105.137 326.5,103.5 Z"/></g>
<g><path style="opacity:1" fill="#858f12" d="M 339.5,103.5 C 342.203,102.554 344.703,103.22 347,105.5C 348.232,102.77 349.065,102.937 349.5,106C 349.316,107.376 348.649,108.209 347.5,108.5C 347.217,107.711 346.717,107.044 346,106.5C 344.566,108.136 342.733,109.136 340.5,109.5C 339.893,109.376 339.56,109.043 339.5,108.5C 340.167,108.5 340.5,108.167 340.5,107.5C 341.833,106.5 341.833,105.5 340.5,104.5C 340.5,103.833 340.167,103.5 339.5,103.5 Z"/></g>
<g><path style="opacity:1" fill="#a49711" d="M 436.5,112.5 C 436.443,113.609 436.11,114.609 435.5,115.5C 433.516,115.617 431.85,114.95 430.5,113.5C 430.833,112.5 431.5,111.833 432.5,111.5C 433.736,112.246 435.07,112.579 436.5,112.5 Z"/></g>
<g><path style="opacity:1" fill="#9a8e12" d="M 71.5,112.5 C 71.8333,113.167 72.1667,113.833 72.5,114.5C 68.8844,116.444 66.8844,115.444 66.5,111.5C 68.2161,111.629 69.8828,111.962 71.5,112.5 Z"/></g>
<g><path style="opacity:1" fill="#ad9f0d" d="M 462.5,110.5 C 463.428,114.358 461.761,115.858 457.5,115C 459.618,113.951 461.284,112.451 462.5,110.5 Z"/></g>
<g><path style="opacity:1" fill="#ab9d0d" d="M 98.5,112.5 C 97.4522,114.534 95.7855,115.867 93.5,116.5C 92.7025,116.043 92.3691,115.376 92.5,114.5C 94.5834,113.971 96.4167,112.971 98,111.5C 98.3988,111.728 98.5654,112.062 98.5,112.5 Z"/></g>
<g><path style="opacity:1" fill="#ae9b09" d="M 447.5,117.5 C 445.585,117.784 443.919,117.451 442.5,116.5C 443.399,115.528 444.566,114.862 446,114.5C 448.578,114.682 449.078,115.682 447.5,117.5 Z"/></g>
<g><path style="opacity:1" fill="#a4940e" d="M 84.5,116.5 C 81.2569,117.58 77.9236,117.747 74.5,117C 73.244,116.583 72.5774,115.75 72.5,114.5C 75.3543,114.978 78.521,114.978 82,114.5C 83.3756,114.684 84.2089,115.351 84.5,116.5 Z"/></g>
<g><path style="opacity:1" fill="#ad9e0c" d="M 442.5,116.5 C 440.833,117.833 439.167,117.833 437.5,116.5C 437.281,115.325 437.614,114.325 438.5,113.5C 440.483,113.815 441.816,114.815 442.5,116.5 Z"/></g>
<g><path style="opacity:1" fill="#a09313" d="M 91.5,113.5 C 90.031,116.953 87.6977,117.953 84.5,116.5C 85.404,115.791 85.7373,114.791 85.5,113.5C 87.5,113.5 89.5,113.5 91.5,113.5 Z"/></g>
<g><path style="opacity:0.004" fill="#000000" d="M 108.5,116.5 C 109.525,116.897 109.692,117.563 109,118.5C 108.536,117.906 108.369,117.239 108.5,116.5 Z"/></g>
<g><path style="opacity:1" fill="#c4b607" d="M 455.5,113.5 C 454.522,116.325 452.522,117.658 449.5,117.5C 450.634,114.966 452.634,113.633 455.5,113.5 Z"/></g>
</svg>
