<?xml version="1.0" encoding="UTF-8"?>
<!DOCTYPE svg PUBLIC "-//W3C//DTD SVG 1.1//EN" "http://www.w3.org/Graphics/SVG/1.1/DTD/svg11.dtd">
<svg xmlns="http://www.w3.org/2000/svg" version="1.1" width="450px" height="113px" style="shape-rendering:geometricPrecision; text-rendering:geometricPrecision; image-rendering:optimizeQuality; fill-rule:evenodd; clip-rule:evenodd" xmlns:xlink="http://www.w3.org/1999/xlink">
<g><path style="opacity:0.793" fill="#292625" d="M 203.5,25.5 C 199.167,25.5 194.833,25.5 190.5,25.5C 189.711,24.085 189.044,22.585 188.5,21C 189.971,20.888 191.138,19.7213 192,17.5C 193,18.1667 194,18.8333 195,19.5C 197.222,16.9557 199.389,16.9557 201.5,19.5C 202.295,21.4951 202.961,23.4951 203.5,25.5 Z"/></g>
<g><path style="opacity:1" fill="#ce9b94" d="M 190.5,25.5 C 194.833,25.5 199.167,25.5 203.5,25.5C 204.167,25.5 204.5,25.8333 204.5,26.5C 200.03,27.4861 195.363,27.8195 190.5,27.5C 190.5,26.8333 190.5,26.1667 190.5,25.5 Z"/></g>
<g><path style="opacity:0.888" fill="#941b1a" d="M 175.5,28.5 C 176.239,28.369 176.906,28.5357 177.5,29C 168.692,32.233 160.692,36.733 153.5,42.5C 149.631,44.2645 145.631,45.7645 141.5,47C 142.167,47.3333 142.833,47.6667 143.5,48C 143.272,48.3988 142.938,48.5654 142.5,48.5C 141.833,48.5 141.167,48.5 140.5,48.5C 139.551,47.8476 138.385,47.5143 137,47.5C 131.579,47.8977 126.412,48.8977 121.5,50.5C 119.473,50.6621 117.473,50.4955 115.5,50C 123.392,47.0265 131.392,44.3599 139.5,42C 141.002,41.4169 142.335,40.5836 143.5,39.5C 143,39.1667 142.5,38.8333 142,38.5C 128.82,43.5029 115.32,47.3362 101.5,50C 100.309,50.6979 99.3094,51.5313 98.5,52.5C 96.9731,52.427 95.9731,53.0937 95.5,54.5C 94.209,54.2627 93.209,54.596 92.5,55.5C 91.5416,55.0472 90.7083,54.3805 90,53.5C 89.6012,53.7284 89.4346,54.0618 89.5,54.5C 87.2181,55.3897 84.8848,55.5564 82.5,55C 83.056,54.6174 83.3893,54.1174 83.5,53.5C 84.9009,50.3661 86.5675,47.3661 88.5,44.5C 117.546,39.4242 146.546,34.0908 175.5,28.5 Z"/></g>
<g><path style="opacity:0.537" fill="#131414" d="M 19.5,34.5 C 19.8417,35.3382 20.5084,35.6716 21.5,35.5C 22.5511,36.2223 23.2178,37.2223 23.5,38.5C 22.1667,38.5 20.8333,38.5 19.5,38.5C 16.5211,36.1877 13.8544,33.5211 11.5,30.5C 11.8333,30.1667 12.1667,29.8333 12.5,29.5C 14.5916,31.6049 16.9249,33.2716 19.5,34.5 Z"/></g>
<g><path style="opacity:1" fill="#ab201d" d="M 204.5,26.5 C 205.492,26.3284 206.158,26.6618 206.5,27.5C 205.909,33.2106 205.409,38.8772 205,44.5C 205.399,44.2716 205.565,43.9382 205.5,43.5C 206.167,43.5 206.5,43.1667 206.5,42.5C 207.833,42.5 209.167,42.5 210.5,42.5C 209.791,43.404 208.791,43.7373 207.5,43.5C 207.205,45.7354 207.539,47.7354 208.5,49.5C 213.259,51.557 218.259,52.557 223.5,52.5C 225.104,53.287 225.771,54.6203 225.5,56.5C 223.143,56.3367 220.81,56.5034 218.5,57C 219.527,57.5133 220.527,58.0133 221.5,58.5C 228.004,62.5084 232.337,68.175 234.5,75.5C 230.5,77.5 226.5,79.5 222.5,81.5C 222.5,81.1667 222.5,80.8333 222.5,80.5C 222.343,79.1266 222.51,77.7932 223,76.5C 228.29,73.0911 228.956,68.7577 225,63.5C 219.925,57.8648 213.758,56.1981 206.5,58.5C 206.624,57.8032 206.624,56.9699 206.5,56C 191.306,55.2454 176.306,55.7454 161.5,57.5C 154.833,57.5 148.167,57.5 141.5,57.5C 141.264,54.3915 141.597,51.3915 142.5,48.5C 142.938,48.5654 143.272,48.3988 143.5,48C 142.833,47.6667 142.167,47.3333 141.5,47C 145.631,45.7645 149.631,44.2645 153.5,42.5C 153.389,43.1174 153.056,43.6174 152.5,44C 153.833,44.6667 155.167,44.6667 156.5,44C 163.833,40 171.167,36 178.5,32C 182.541,31.8265 186.541,31.3265 190.5,30.5C 188.922,29.7022 187.256,29.2022 185.5,29C 187.058,28.79 188.391,28.29 189.5,27.5C 189.833,27.5 190.167,27.5 190.5,27.5C 195.363,27.8195 200.03,27.4861 204.5,26.5 Z M 200.5,42.5 C 200.5,43.5 200.5,44.5 200.5,45.5C 193.833,44.5 193.833,43.5 200.5,42.5 Z"/></g>
<g><path style="opacity:1" fill="#b24c45" d="M 200.5,32.5 C 198.139,32.6741 195.806,33.0074 193.5,33.5C 190.915,30.3481 191.915,28.6814 196.5,28.5C 200.451,27.7761 201.784,29.1094 200.5,32.5 Z"/></g>
<g><path style="opacity:1" fill="#454342" d="M 55.5,50.5 C 51.7379,50.2714 48.0713,50.2714 44.5,50.5C 44.5,46.5 44.5,42.5 44.5,38.5C 42.8333,38.5 41.1667,38.5 39.5,38.5C 38.6993,36.9582 38.366,35.2915 38.5,33.5C 33.9662,34.3445 29.4662,34.3445 25,33.5C 23.6974,33.9783 22.5307,34.645 21.5,35.5C 20.5084,35.6716 19.8417,35.3382 19.5,34.5C 22.5183,32.3275 25.5183,30.1608 28.5,28C 32.1667,27.3333 35.8333,27.3333 39.5,28C 40.4533,29.9552 41.7866,31.6218 43.5,33C 47.2784,35.112 50.7784,37.612 54,40.5C 55.1989,43.7256 55.6989,47.059 55.5,50.5 Z"/></g>
<g><path style="opacity:1" fill="#210d0a" d="M 200.5,32.5 C 202.722,32.9748 203.389,33.9748 202.5,35.5C 198.192,36.6501 193.859,36.6501 189.5,35.5C 190.183,33.8235 191.517,33.1568 193.5,33.5C 195.806,33.0074 198.139,32.6741 200.5,32.5 Z"/></g>
<g><path style="opacity:1" fill="#b34131" d="M 189.5,27.5 C 188.391,28.29 187.058,28.79 185.5,29C 187.256,29.2022 188.922,29.7022 190.5,30.5C 186.541,31.3265 182.541,31.8265 178.5,32C 171.167,36 163.833,40 156.5,44C 155.167,44.6667 153.833,44.6667 152.5,44C 153.056,43.6174 153.389,43.1174 153.5,42.5C 160.692,36.733 168.692,32.233 177.5,29C 176.906,28.5357 176.239,28.369 175.5,28.5C 179.929,26.3603 184.596,26.027 189.5,27.5 Z"/></g>
<g><path style="opacity:0.549" fill="#180503" d="M 206.5,27.5 C 207.129,32.3181 207.129,37.3181 206.5,42.5C 205.833,42.5 205.5,42.8333 205.5,43.5C 205.565,43.9382 205.399,44.2716 205,44.5C 205.409,38.8772 205.909,33.2106 206.5,27.5 Z"/></g>
<g><path style="opacity:0.802" fill="#ad2e24" d="M 19.5,38.5 C 20.8333,38.5 22.1667,38.5 23.5,38.5C 28.8408,39.7402 34.1741,39.7402 39.5,38.5C 41.1667,38.5 42.8333,38.5 44.5,38.5C 44.5,42.5 44.5,46.5 44.5,50.5C 36.1667,50.5 27.8333,50.5 19.5,50.5C 18.8333,50.5 18.1667,50.5 17.5,50.5C 14.1667,50.5 10.8333,50.5 7.5,50.5C 7.00745,48.1944 6.67412,45.861 6.5,43.5C 5.5,43.5 4.5,43.5 3.5,43.5C 3.16667,43.5 2.83333,43.5 2.5,43.5C 2.61998,42.4138 3.28665,41.7472 4.5,41.5C 9.75962,41.0877 14.7596,40.0877 19.5,38.5 Z"/></g>
<g><path style="opacity:1" fill="#472e2e" d="M 255.5,35.5 C 251.076,37.4157 246.41,38.749 241.5,39.5C 239.883,40.038 238.216,40.3713 236.5,40.5C 233.672,41.4967 231.005,41.4967 228.5,40.5C 237.35,38.0377 246.35,36.3711 255.5,35.5 Z"/></g>
<g><path style="opacity:1" fill="#865c58" d="M 241.5,39.5 C 242.552,41.256 244.219,41.9227 246.5,41.5C 247.5,41.5 248.5,41.5 249.5,41.5C 244.744,43.1179 239.744,44.1179 234.5,44.5C 235.806,43.5326 236.473,42.1993 236.5,40.5C 238.216,40.3713 239.883,40.038 241.5,39.5 Z"/></g>
<g><path style="opacity:0.406" fill="#999999" d="M 310.5,51.5 C 309.833,51.5 309.167,51.5 308.5,51.5C 309.167,31.5 309.833,31.5 310.5,51.5 Z"/></g>
<g><path style="opacity:1" fill="#f0c05b" d="M 10.5,44.5 C 11.8333,44.5 13.1667,44.5 14.5,44.5C 14.5,45.8333 14.5,47.1667 14.5,48.5C 11.5,48.8333 10.1667,47.5 10.5,44.5 Z"/></g>
<g><path style="opacity:0.965" fill="#35201e" d="M 200.5,42.5 C 193.833,43.5 193.833,44.5 200.5,45.5C 199.054,46.6129 197.387,46.7796 195.5,46C 194.167,44.6667 194.167,43.3333 195.5,42C 197.387,41.2204 199.054,41.3871 200.5,42.5 Z"/></g>
<g><path style="opacity:1" fill="#d4bab9" d="M 15.5,44.5 C 16.4584,44.9528 17.2917,45.6195 18,46.5C 18.3333,46.1667 18.6667,45.8333 19,45.5C 19.7494,46.635 19.5827,47.635 18.5,48.5C 16.7118,47.7174 15.7118,46.3841 15.5,44.5 Z"/></g>
<g><path style="opacity:1" fill="#cfa7a4" d="M 22.5,44.5 C 24.0174,44.5106 25.1841,45.1772 26,46.5C 26.414,46.0426 26.914,45.7093 27.5,45.5C 31.7793,46.274 36.1126,46.774 40.5,47C 37.1076,48.7826 33.6076,48.9493 30,47.5C 28.3333,50.1667 26.6667,50.1667 25,47.5C 24.586,47.9574 24.086,48.2907 23.5,48.5C 22.5713,47.3112 22.238,45.9778 22.5,44.5 Z"/></g>
<g><path style="opacity:0.802" fill="#93241f" d="M 255.5,35.5 C 262.581,34.8053 268.914,36.6386 274.5,41C 278.821,46.2113 284.154,49.378 290.5,50.5C 290.833,51.8333 291.167,51.8333 291.5,50.5C 295.534,50.5045 299.534,50.8379 303.5,51.5C 303.833,52.1667 304.167,52.8333 304.5,53.5C 292.296,53.1968 279.963,53.5301 267.5,54.5C 264.598,55.7837 261.598,56.7837 258.5,57.5C 258.5,58.8333 258.5,60.1667 258.5,61.5C 257.732,60.7375 257.232,59.7375 257,58.5C 256.683,60.3008 256.016,60.6341 255,59.5C 254.583,60.756 253.75,61.4226 252.5,61.5C 253.463,60.6365 253.463,59.9698 252.5,59.5C 251.378,60.6302 250.044,61.2969 248.5,61.5C 247.542,61.0472 246.708,60.3805 246,59.5C 243.281,60.4438 240.448,60.7771 237.5,60.5C 234.007,57.7801 230.007,56.4468 225.5,56.5C 225.771,54.6203 225.104,53.287 223.5,52.5C 223.586,51.5041 223.252,50.6708 222.5,50C 220.618,49.8019 218.952,49.3019 217.5,48.5C 216.989,46.8053 216.322,45.1386 215.5,43.5C 213.253,44.3742 210.92,44.7076 208.5,44.5C 208.351,45.552 208.517,46.552 209,47.5C 211,46.8333 213,46.1667 215,45.5C 215.483,46.448 215.649,47.448 215.5,48.5C 212.941,48.1984 210.607,48.5318 208.5,49.5C 207.539,47.7354 207.205,45.7354 207.5,43.5C 208.791,43.7373 209.791,43.404 210.5,42.5C 216.44,41.6826 222.44,41.016 228.5,40.5C 231.005,41.4967 233.672,41.4967 236.5,40.5C 236.473,42.1993 235.806,43.5326 234.5,44.5C 233.469,45.2485 232.302,45.9152 231,46.5C 230.316,47.7839 230.483,48.9505 231.5,50C 240.887,51.1467 250.053,50.3133 259,47.5C 262.079,47.9426 264.912,48.9426 267.5,50.5C 268.176,49.3984 268.842,48.3984 269.5,47.5C 269.833,47.5 270.167,47.5 270.5,47.5C 271.117,47.3893 271.617,47.056 272,46.5C 273.049,48.1066 274.549,48.7733 276.5,48.5C 276.67,47.1779 276.337,46.0113 275.5,45C 271.812,42.6552 267.812,41.1552 263.5,40.5C 257.611,38.9781 251.944,39.3114 246.5,41.5C 244.219,41.9227 242.552,41.256 241.5,39.5C 246.41,38.749 251.076,37.4157 255.5,35.5 Z M 249.5,41.5 C 253.29,40.8992 256.456,41.8992 259,44.5C 263.337,42.6921 266.837,43.6921 269.5,47.5C 268.842,48.3984 268.176,49.3984 267.5,50.5C 264.912,48.9426 262.079,47.9426 259,47.5C 250.053,50.3133 240.887,51.1467 231.5,50C 230.483,48.9505 230.316,47.7839 231,46.5C 232.302,45.9152 233.469,45.2485 234.5,44.5C 239.744,44.1179 244.744,43.1179 249.5,41.5 Z"/></g>
<g><path style="opacity:1" fill="#ba9b98" d="M 217.5,48.5 C 216.833,48.5 216.167,48.5 215.5,48.5C 215.649,47.448 215.483,46.448 215,45.5C 213,46.1667 211,46.8333 209,47.5C 208.517,46.552 208.351,45.552 208.5,44.5C 210.92,44.7076 213.253,44.3742 215.5,43.5C 216.322,45.1386 216.989,46.8053 217.5,48.5 Z"/></g>
<g><path style="opacity:1" fill="#59201d" d="M 263.5,40.5 C 267.812,41.1552 271.812,42.6552 275.5,45C 276.337,46.0113 276.67,47.1779 276.5,48.5C 274.549,48.7733 273.049,48.1066 272,46.5C 271.617,47.056 271.117,47.3893 270.5,47.5C 269.16,44.1603 266.827,41.827 263.5,40.5 Z"/></g>
<g><path style="opacity:0.847" fill="#200c0d" d="M 263.5,40.5 C 266.827,41.827 269.16,44.1603 270.5,47.5C 270.167,47.5 269.833,47.5 269.5,47.5C 266.837,43.6921 263.337,42.6921 259,44.5C 256.456,41.8992 253.29,40.8992 249.5,41.5C 248.5,41.5 247.5,41.5 246.5,41.5C 251.944,39.3114 257.611,38.9781 263.5,40.5 Z"/></g>
<g><path style="opacity:0.624" fill="#8b8d8c" d="M 291.5,50.5 C 291.167,51.8333 290.833,51.8333 290.5,50.5C 289.223,48.0139 289.889,47.3472 292.5,48.5C 292.137,49.1835 291.804,49.8501 291.5,50.5 Z"/></g>
<g><path style="opacity:1" fill="#181715" d="M 364.5,52.5 C 363.833,52.5 363.167,52.5 362.5,52.5C 357.167,52.5 351.833,52.5 346.5,52.5C 344.883,53.038 343.216,53.3713 341.5,53.5C 343.211,47.9596 347.044,45.6263 353,46.5C 354.833,46.6667 356.667,46.8333 358.5,47C 360.396,49.068 362.396,50.9013 364.5,52.5 Z"/></g>
<g><path style="opacity:1" fill="#b46756" d="M 208.5,49.5 C 210.607,48.5318 212.941,48.1984 215.5,48.5C 216.167,48.5 216.833,48.5 217.5,48.5C 218.952,49.3019 220.618,49.8019 222.5,50C 223.252,50.6708 223.586,51.5041 223.5,52.5C 218.259,52.557 213.259,51.557 208.5,49.5 Z"/></g>
<g><path style="opacity:0.498" fill="#777778" d="M 2.5,43.5 C 2.83333,43.5 3.16667,43.5 3.5,43.5C 4.88279,46.8605 5.88279,50.3605 6.5,54C 6.47196,55.0698 6.13863,55.9032 5.5,56.5C 4.02895,52.282 3.02895,47.9487 2.5,43.5 Z"/></g>
<g><path style="opacity:0.004" fill="#e9eeee" d="M 81.5,51.5 C 82.8333,52.1667 82.8333,52.1667 81.5,51.5 Z"/></g>
<g><path style="opacity:1" fill="#b14c3b" d="M 121.5,50.5 C 127.161,50.0932 132.828,49.7599 138.5,49.5C 138.729,56.3035 136.063,57.9701 130.5,54.5C 131.463,53.6365 131.463,52.9698 130.5,52.5C 129.402,53.6155 128.235,53.6155 127,52.5C 126.055,52.9054 125.388,53.572 125,54.5C 124.113,51.2915 122.447,51.2915 120,54.5C 116.333,53.8333 112.667,53.1667 109,52.5C 108.667,53.1667 108.333,53.8333 108,54.5C 105.599,53.3977 103.099,53.231 100.5,54C 99.8742,54.7504 99.3742,55.5838 99,56.5C 98.2496,55.8742 97.4162,55.3742 96.5,55C 97.756,54.5831 98.4226,53.7498 98.5,52.5C 99.3094,51.5313 100.309,50.6979 101.5,50C 115.32,47.3362 128.82,43.5029 142,38.5C 142.5,38.8333 143,39.1667 143.5,39.5C 142.335,40.5836 141.002,41.4169 139.5,42C 131.392,44.3599 123.392,47.0265 115.5,50C 117.473,50.4955 119.473,50.6621 121.5,50.5 Z"/></g>
<g><path style="opacity:0.008" fill="#dce6e8" d="M 77.5,53.5 C 78.2506,52.4265 79.2506,52.2599 80.5,53C 79.552,53.4828 78.552,53.6495 77.5,53.5 Z"/></g>
<g><path style="opacity:1" fill="#4a221f" d="M 146.5,47.5 C 147.376,47.3691 148.043,47.7025 148.5,48.5C 147.607,51.0841 147.274,53.7508 147.5,56.5C 146.448,56.6495 145.448,56.4828 144.5,56C 145.713,53.3135 146.38,50.4802 146.5,47.5 Z"/></g>
<g><path style="opacity:1" fill="#b14334" d="M 189.5,35.5 C 193.859,36.6501 198.192,36.6501 202.5,35.5C 203.234,36.7079 203.567,38.0413 203.5,39.5C 200.552,39.7771 197.719,39.4438 195,38.5C 191.626,45.9155 193.792,49.2489 201.5,48.5C 201.023,49.4776 200.357,50.3109 199.5,51C 182.885,52.402 166.218,53.2353 149.5,53.5C 149.5,51.8333 149.5,50.1667 149.5,48.5C 160.838,48.3067 172.172,47.9734 183.5,47.5C 183.232,45.901 183.566,44.5676 184.5,43.5C 186.127,42.0093 187.793,40.5093 189.5,39C 188.342,37.7393 188.342,36.5726 189.5,35.5 Z"/></g>
<g><path style="opacity:1" fill="#f5cd66" d="M 184.5,43.5 C 185.5,43.5 186.5,43.5 187.5,43.5C 186.754,47.31 185.754,47.31 184.5,43.5 Z"/></g>
<g><path style="opacity:1" fill="#bbb9a3" d="M 45.5,52.5 C 50.8333,52.5 56.1667,52.5 61.5,52.5C 61.5,53.8333 61.5,55.1667 61.5,56.5C 56.1667,56.5 50.8333,56.5 45.5,56.5C 45.5,55.1667 45.5,53.8333 45.5,52.5 Z"/></g>
<g><path style="opacity:0.004" fill="#edfbfc" d="M 70.5,53.5 C 71.8333,54.1667 71.8333,54.1667 70.5,53.5 Z"/></g>
<g><path style="opacity:0.004" fill="#dee7ea" d="M 72.5,54.5 C 72.8966,53.475 73.5632,53.3083 74.5,54C 73.9056,54.4643 73.2389,54.631 72.5,54.5 Z"/></g>
<g><path style="opacity:1" fill="#4f2524" d="M 140.5,48.5 C 141.167,48.5 141.833,48.5 142.5,48.5C 141.597,51.3915 141.264,54.3915 141.5,57.5C 140.325,57.719 139.325,57.3857 138.5,56.5C 140.055,54.057 140.722,51.3903 140.5,48.5 Z"/></g>
<g><path style="opacity:1" fill="#9d5843" d="M 267.5,54.5 C 279.963,53.5301 292.296,53.1968 304.5,53.5C 305.338,53.8417 305.672,54.5084 305.5,55.5C 298.167,55.5 290.833,55.5 283.5,55.5C 281.164,54.5375 279.83,55.5375 279.5,58.5C 278.624,58.6309 277.957,58.2975 277.5,57.5C 278.59,56.3914 278.59,55.3914 277.5,54.5C 276.548,56.0453 276.215,57.712 276.5,59.5C 275.549,58.0813 275.216,56.4147 275.5,54.5C 272.833,54.5 270.167,54.5 267.5,54.5 Z"/></g>
<g><path style="opacity:1" fill="#b9b7a3" d="M 346.5,52.5 C 351.833,52.5 357.167,52.5 362.5,52.5C 362.5,53.8333 362.5,55.1667 362.5,56.5C 357.5,56.5 352.5,56.5 347.5,56.5C 346.566,55.4324 346.232,54.099 346.5,52.5 Z"/></g>
<g><path style="opacity:1" fill="#8e8a3c" d="M 39.5,54.5 C 38.2921,55.2341 36.9587,55.5674 35.5,55.5C 33.6119,56.2751 31.6119,56.2751 29.5,55.5C 29.3505,54.448 29.5172,53.448 30,52.5C 32.8845,54.6046 35.8845,54.6046 39,52.5C 39.4643,53.0944 39.631,53.7611 39.5,54.5 Z"/></g>
<g><path style="opacity:1" fill="#e5db85" d="M 306.5,51.5 C 307.167,51.5 307.833,51.5 308.5,51.5C 309.167,52.8333 310.167,53.8333 311.5,54.5C 311.833,55.5 312.5,56.1667 313.5,56.5C 314.66,58.2027 313.993,58.8693 311.5,58.5C 310.189,55.8646 308.522,53.5313 306.5,51.5 Z"/></g>
<g><path style="opacity:1" fill="#bb5f4d" d="M 83.5,53.5 C 83.3893,54.1174 83.056,54.6174 82.5,55C 84.8848,55.5564 87.2181,55.3897 89.5,54.5C 90.5009,55.7887 90.3342,57.1221 89,58.5C 87.1339,55.8409 85.9672,56.1742 85.5,59.5C 82.5,60.1667 79.5,60.8333 76.5,61.5C 74.1667,59.8333 72.1667,57.8333 70.5,55.5C 74.924,55.348 79.2574,54.6813 83.5,53.5 Z"/></g>
<g><path style="opacity:1" fill="#831915" d="M 283.5,55.5 C 290.833,55.5 298.167,55.5 305.5,55.5C 306.812,56.1451 307.812,57.1451 308.5,58.5C 306.659,59.2304 304.825,59.8971 303,60.5C 301.719,59.3533 301.386,59.6866 302,61.5C 304.381,62.435 306.881,62.7683 309.5,62.5C 309.285,60.8212 309.952,59.8212 311.5,59.5C 311.366,61.2915 311.699,62.9582 312.5,64.5C 303.833,64.5 295.167,64.5 286.5,64.5C 284.735,63.5386 282.735,63.2053 280.5,63.5C 282.606,61.2812 283.606,58.6145 283.5,55.5 Z"/></g>
<g><path style="opacity:0.624" fill="#a92f28" d="M 308.5,51.5 C 309.167,51.5 309.833,51.5 310.5,51.5C 319.408,53.2014 328.408,54.5347 337.5,55.5C 337.167,56.5 336.5,57.1667 335.5,57.5C 327.602,55.99 319.602,54.99 311.5,54.5C 310.167,53.8333 309.167,52.8333 308.5,51.5 Z"/></g>
<g><path style="opacity:1" fill="#0f0e0e" d="M 45.5,56.5 C 50.8333,56.5 56.1667,56.5 61.5,56.5C 64.7959,58.8208 68.1292,61.1542 71.5,63.5C 79.8032,71.4343 81.6365,80.7677 77,91.5C 75.3112,94.6667 73.4779,97.6667 71.5,100.5C 70.5768,99.6971 69.5768,99.5304 68.5,100C 68.3809,101.145 68.0476,102.312 67.5,103.5C 65.7826,105.517 63.7826,105.85 61.5,104.5C 54.0478,107.269 46.7145,106.935 39.5,103.5C 39.0825,102.778 38.4158,102.278 37.5,102C 39.9011,101.195 39.7344,100.362 37,99.5C 36.6667,99.8333 36.3333,100.167 36,100.5C 35.7216,99.5842 35.2216,98.9175 34.5,98.5C 27.5839,90.6711 25.7505,81.6711 29,71.5C 30.3063,68.3793 32.1397,65.7126 34.5,63.5C 38.0338,60.9031 41.7004,58.5698 45.5,56.5 Z"/></g>
<g><path style="opacity:1" fill="#b13628" d="M 140.5,48.5 C 140.722,51.3903 140.055,54.057 138.5,56.5C 139.325,57.3857 140.325,57.719 141.5,57.5C 120.241,58.8505 98.908,60.5171 77.5,62.5C 76.8333,62.5 76.5,62.1667 76.5,61.5C 79.5,60.8333 82.5,60.1667 85.5,59.5C 87.8568,59.6633 90.1902,59.4966 92.5,59C 93.6843,57.8545 93.6843,56.6879 92.5,55.5C 93.209,54.596 94.209,54.2627 95.5,54.5C 96.0819,55.9311 96.9152,57.2644 98,58.5C 100.288,58.2625 102.788,58.2625 105.5,58.5C 105.833,54.5 106.167,54.5 106.5,58.5C 110.215,58.577 113.881,58.2436 117.5,57.5C 117.693,53.551 118.193,53.551 119,57.5C 122.717,56.7298 126.551,56.7298 130.5,57.5C 130.5,56.5 130.5,55.5 130.5,54.5C 136.063,57.9701 138.729,56.3035 138.5,49.5C 132.828,49.7599 127.161,50.0932 121.5,50.5C 126.412,48.8977 131.579,47.8977 137,47.5C 138.385,47.5143 139.551,47.8476 140.5,48.5 Z"/></g>
<g><path style="opacity:1" fill="#b66353" d="M 311.5,54.5 C 319.602,54.99 327.602,55.99 335.5,57.5C 335.167,58.5 334.5,59.1667 333.5,59.5C 327.106,58.1207 320.606,56.7873 314,55.5C 313.601,55.7284 313.435,56.0618 313.5,56.5C 312.5,56.1667 311.833,55.5 311.5,54.5 Z"/></g>
<g><path style="opacity:1" fill="#3d3e3e" d="M 346.5,52.5 C 346.232,54.099 346.566,55.4324 347.5,56.5C 343.54,58.8164 339.54,61.1497 335.5,63.5C 335.591,61.3023 334.925,60.9689 333.5,62.5C 333.5,61.8333 333.167,61.5 332.5,61.5C 332.833,60.8333 333.167,60.1667 333.5,59.5C 334.5,59.1667 335.167,58.5 335.5,57.5C 336.5,57.1667 337.167,56.5 337.5,55.5C 338.605,54.3995 339.938,53.7329 341.5,53.5C 343.216,53.3713 344.883,53.038 346.5,52.5 Z"/></g>
<g><path style="opacity:1" fill="#141314" d="M 347.5,56.5 C 352.5,56.5 357.5,56.5 362.5,56.5C 366.376,59.2271 370.042,61.5605 373.5,63.5C 379.998,70.1823 382.165,78.1823 380,87.5C 378.18,92.1273 376.18,96.4607 374,100.5C 384.664,88.2091 385.164,75.5425 375.5,62.5C 375.611,61.8826 375.944,61.3826 376.5,61C 375.29,59.9609 374.29,58.7942 373.5,57.5C 375.017,57.5106 376.184,58.1772 377,59.5C 378.421,61.4048 379.588,63.4048 380.5,65.5C 382.025,67.2163 383.025,69.2163 383.5,71.5C 383.33,72.8221 383.663,73.9887 384.5,75C 388.086,76.1076 391.753,76.6076 395.5,76.5C 396.11,77.391 396.443,78.391 396.5,79.5C 394.695,81.1969 392.361,82.0302 389.5,82C 391.473,82.4955 393.473,82.6621 395.5,82.5C 395.5,83.8333 395.5,85.1667 395.5,86.5C 391.833,86.5 388.167,86.5 384.5,86.5C 379.597,105.53 367.264,113.697 347.5,111C 332.61,106.275 324.61,96.1082 323.5,80.5C 324.131,76.4408 325.131,72.4408 326.5,68.5C 326.291,67.914 325.957,67.414 325.5,67C 327.437,66.8784 328.77,66.045 329.5,64.5C 330.167,63.1667 331.167,62.1667 332.5,61.5C 333.167,61.5 333.5,61.8333 333.5,62.5C 327.314,71.3202 325.814,80.9868 329,91.5C 330.439,94.6026 332.273,97.4359 334.5,100C 335.332,100.688 335.998,100.521 336.5,99.5C 326.193,87.7375 325.86,75.7375 335.5,63.5C 339.54,61.1497 343.54,58.8164 347.5,56.5 Z"/></g>
<g><path style="opacity:1" fill="#be9b93" d="M 130.5,54.5 C 130.5,55.5 130.5,56.5 130.5,57.5C 126.551,56.7298 122.717,56.7298 119,57.5C 118.193,53.551 117.693,53.551 117.5,57.5C 113.881,58.2436 110.215,58.577 106.5,58.5C 106.167,54.5 105.833,54.5 105.5,58.5C 102.788,58.2625 100.288,58.2625 98,58.5C 96.9152,57.2644 96.0819,55.9311 95.5,54.5C 95.9731,53.0937 96.9731,52.427 98.5,52.5C 98.4226,53.7498 97.756,54.5831 96.5,55C 97.4162,55.3742 98.2496,55.8742 99,56.5C 99.3742,55.5838 99.8742,54.7504 100.5,54C 103.099,53.231 105.599,53.3977 108,54.5C 108.333,53.8333 108.667,53.1667 109,52.5C 112.667,53.1667 116.333,53.8333 120,54.5C 122.447,51.2915 124.113,51.2915 125,54.5C 125.388,53.572 126.055,52.9054 127,52.5C 128.235,53.6155 129.402,53.6155 130.5,52.5C 131.463,52.9698 131.463,53.6365 130.5,54.5 Z"/></g>
<g><path style="opacity:1" fill="#414041" d="M 45.5,52.5 C 45.5,53.8333 45.5,55.1667 45.5,56.5C 41.7004,58.5698 38.0338,60.9031 34.5,63.5C 34.631,62.7611 34.4643,62.0944 34,61.5C 33.2917,62.3805 32.4584,63.0472 31.5,63.5C 32.3822,60.615 33.7155,57.9483 35.5,55.5C 36.9587,55.5674 38.2921,55.2341 39.5,54.5C 41.2972,53.2702 43.2972,52.6036 45.5,52.5 Z"/></g>
<g><path style="opacity:1" fill="#c9cccb" d="M 92.5,55.5 C 93.6843,56.6879 93.6843,57.8545 92.5,59C 90.1902,59.4966 87.8568,59.6633 85.5,59.5C 85.9672,56.1742 87.1339,55.8409 89,58.5C 90.3342,57.1221 90.5009,55.7887 89.5,54.5C 89.4346,54.0618 89.6012,53.7284 90,53.5C 90.7083,54.3805 91.5416,55.0472 92.5,55.5 Z"/></g>
<g><path style="opacity:1" fill="#561a19" d="M 267.5,54.5 C 270.167,54.5 272.833,54.5 275.5,54.5C 275.216,56.4147 275.549,58.0813 276.5,59.5C 277.167,60.8333 277.833,62.1667 278.5,63.5C 277.041,63.4326 275.708,63.7659 274.5,64.5C 269.41,62.8563 264.077,61.8563 258.5,61.5C 258.5,60.1667 258.5,58.8333 258.5,57.5C 261.598,56.7837 264.598,55.7837 267.5,54.5 Z"/></g>
<g><path style="opacity:1" fill="#ab6862" d="M 290.5,58.5 C 293.881,58.4595 297.214,58.7929 300.5,59.5C 300.5,60.5 300.5,61.5 300.5,62.5C 296.833,62.5 293.167,62.5 289.5,62.5C 289.433,61.0413 289.766,59.7079 290.5,58.5 Z"/></g>
<g><path style="opacity:1" fill="#ba908e" d="M 303.5,51.5 C 304.5,51.5 305.5,51.5 306.5,51.5C 308.522,53.5313 310.189,55.8646 311.5,58.5C 311.5,58.8333 311.5,59.1667 311.5,59.5C 309.952,59.8212 309.285,60.8212 309.5,62.5C 306.881,62.7683 304.381,62.435 302,61.5C 301.386,59.6866 301.719,59.3533 303,60.5C 304.825,59.8971 306.659,59.2304 308.5,58.5C 307.812,57.1451 306.812,56.1451 305.5,55.5C 305.672,54.5084 305.338,53.8417 304.5,53.5C 304.167,52.8333 303.833,52.1667 303.5,51.5 Z"/></g>
<g><path style="opacity:1" fill="#ac372e" d="M 333.5,59.5 C 333.167,60.1667 332.833,60.8333 332.5,61.5C 331.167,62.1667 330.167,63.1667 329.5,64.5C 326.272,65.4137 322.939,65.7471 319.5,65.5C 318.85,63.5648 318.517,61.5648 318.5,59.5C 315.959,59.8499 313.626,59.8499 311.5,59.5C 311.5,59.1667 311.5,58.8333 311.5,58.5C 313.993,58.8693 314.66,58.2027 313.5,56.5C 313.435,56.0618 313.601,55.7284 314,55.5C 320.606,56.7873 327.106,58.1207 333.5,59.5 Z"/></g>
<g><path style="opacity:1" fill="#3d3c3c" d="M 362.5,52.5 C 363.167,52.5 363.833,52.5 364.5,52.5C 368.272,52.8838 371.272,54.5505 373.5,57.5C 374.29,58.7942 375.29,59.9609 376.5,61C 375.944,61.3826 375.611,61.8826 375.5,62.5C 374.075,60.9689 373.409,61.3023 373.5,63.5C 370.042,61.5605 366.376,59.2271 362.5,56.5C 362.5,55.1667 362.5,53.8333 362.5,52.5 Z"/></g>
<g><path style="opacity:1" fill="#b37739" d="M 141.5,57.5 C 148.167,57.5 154.833,57.5 161.5,57.5C 169.507,57.3336 177.507,57.5003 185.5,58C 186.167,58.3333 186.833,58.6667 187.5,59C 186.207,59.49 184.873,59.6567 183.5,59.5C 148.475,58.945 113.475,60.2783 78.5,63.5C 77.8333,63.5 77.5,63.1667 77.5,62.5C 98.908,60.5171 120.241,58.8505 141.5,57.5 Z"/></g>
<g><path style="opacity:1" fill="#ba8080" d="M 183.5,59.5 C 179.366,60.4849 175.032,60.8182 170.5,60.5C 156.648,60.5404 142.981,61.207 129.5,62.5C 115.017,63.2392 100.517,63.9059 86,64.5C 83.3097,64.4971 80.8097,64.1638 78.5,63.5C 113.475,60.2783 148.475,58.945 183.5,59.5 Z"/></g>
<g><path style="opacity:1" fill="#621b18" d="M 170.5,60.5 C 168.898,62.0739 166.898,62.7406 164.5,62.5C 153.017,62.2186 141.351,62.2186 129.5,62.5C 142.981,61.207 156.648,60.5404 170.5,60.5 Z"/></g>
<g><path style="opacity:1" fill="#dcd8d7" d="M 222.5,80.5 C 216.336,82.2516 210.003,82.9183 203.5,82.5C 204.269,78.2754 202.602,75.6087 198.5,74.5C 198.116,67.5735 200.783,62.2401 206.5,58.5C 213.758,56.1981 219.925,57.8648 225,63.5C 228.956,68.7577 228.29,73.0911 223,76.5C 222.51,77.7932 222.343,79.1266 222.5,80.5 Z"/></g>
<g><path style="opacity:1" fill="#b8c0c1" d="M 221.5,58.5 C 223.688,57.3773 226.021,57.3773 228.5,58.5C 233.084,62.6685 236.417,67.6685 238.5,73.5C 237.167,74.1667 235.833,74.8333 234.5,75.5C 232.337,68.175 228.004,62.5084 221.5,58.5 Z"/></g>
<g><path style="opacity:1" fill="#a49f2c" d="M 279.5,58.5 C 279.83,55.5375 281.164,54.5375 283.5,55.5C 283.606,58.6145 282.606,61.2812 280.5,63.5C 279.833,63.5 279.167,63.5 278.5,63.5C 277.833,62.1667 277.167,60.8333 276.5,59.5C 276.215,57.712 276.548,56.0453 277.5,54.5C 278.59,55.3914 278.59,56.3914 277.5,57.5C 277.957,58.2975 278.624,58.6309 279.5,58.5 Z"/></g>
<g><path style="opacity:1" fill="#232014" d="M 279.5,58.5 C 281.337,58.6395 281.67,59.3061 280.5,60.5C 279.702,60.0431 279.369,59.3764 279.5,58.5 Z"/></g>
<g><path style="opacity:1" fill="#ad7667" d="M 311.5,59.5 C 313.626,59.8499 315.959,59.8499 318.5,59.5C 318.517,61.5648 318.85,63.5648 319.5,65.5C 317.236,64.7814 314.903,64.448 312.5,64.5C 311.699,62.9582 311.366,61.2915 311.5,59.5 Z"/></g>
<g><path style="opacity:0.961" fill="#353535" d="M 7.5,62.5 C 14.5079,62.3337 21.5079,62.5004 28.5,63C 25.6227,67.4641 23.6227,72.2974 22.5,77.5C 20.3577,75.0955 17.691,73.7622 14.5,73.5C 14.1583,72.6618 13.4916,72.3284 12.5,72.5C 11.2825,71.8386 9.94916,71.1719 8.5,70.5C 7.60724,67.9159 7.27391,65.2492 7.5,62.5 Z"/></g>
<g><path style="opacity:1" fill="#a52f24" d="M 206.5,58.5 C 200.783,62.2401 198.116,67.5735 198.5,74.5C 196.588,73.2008 194.588,72.2008 192.5,71.5C 193.247,68.9827 192.247,66.9827 189.5,65.5C 188.893,65.6236 188.56,65.9569 188.5,66.5C 186.305,65.7814 184.805,66.7814 184,69.5C 183.044,68.4214 182.211,67.2547 181.5,66C 177.857,65.8804 174.357,65.7137 171,65.5C 167.997,65.743 166.83,67.4096 167.5,70.5C 164.759,70.0234 162.426,71.0234 160.5,73.5C 160.631,72.6236 160.298,71.9569 159.5,71.5C 157.566,71.9005 156.066,72.9005 155,74.5C 154.692,73.6919 154.192,73.0253 153.5,72.5C 150.868,75.1809 148.534,75.0142 146.5,72C 148.79,70.2228 150.457,68.0562 151.5,65.5C 152.167,64.8333 152.833,64.1667 153.5,63.5C 157.119,62.7564 160.785,62.423 164.5,62.5C 166.898,62.7406 168.898,62.0739 170.5,60.5C 175.032,60.8182 179.366,60.4849 183.5,59.5C 184.873,59.6567 186.207,59.49 187.5,59C 186.833,58.6667 186.167,58.3333 185.5,58C 177.507,57.5003 169.507,57.3336 161.5,57.5C 176.306,55.7454 191.306,55.2454 206.5,56C 206.624,56.9699 206.624,57.8032 206.5,58.5 Z"/></g>
<g><path style="opacity:1" fill="#21211f" d="M 278.5,63.5 C 279.167,63.5 279.833,63.5 280.5,63.5C 282.735,63.2053 284.735,63.5386 286.5,64.5C 284.801,64.3398 283.134,64.5065 281.5,65C 284.146,65.4974 286.813,65.6641 289.5,65.5C 289.371,67.2161 289.038,68.8828 288.5,70.5C 287.903,70.7352 287.57,71.2352 287.5,72C 289.013,73.8792 289.679,76.0459 289.5,78.5C 285.556,80.9637 281.223,82.6303 276.5,83.5C 275.054,82.3871 273.387,82.2204 271.5,83C 261.561,86.3012 252.894,91.6346 245.5,99C 244.207,99.49 242.873,99.6567 241.5,99.5C 241.5,101.167 241.5,102.833 241.5,104.5C 233.167,104.5 224.833,104.5 216.5,104.5C 216.5,103.5 216.5,102.5 216.5,101.5C 220.514,101.666 224.514,101.499 228.5,101C 227.179,99.4555 227.512,98.2888 229.5,97.5C 230.696,97.8457 230.696,98.3457 229.5,99C 234.097,100.37 236.763,98.7035 237.5,94C 235.699,93.6827 235.366,93.016 236.5,92C 244.499,89.1668 252.499,86.3335 260.5,83.5C 260.214,78.4531 260.214,73.4531 260.5,68.5C 258.668,67.9432 257.335,66.9432 256.5,65.5C 262.31,64.5104 268.31,64.1771 274.5,64.5C 275.708,63.7659 277.041,63.4326 278.5,63.5 Z"/></g>
<g><path style="opacity:1" fill="#2c2a29" d="M 61.5,52.5 C 62.1667,52.5 62.8333,52.5 63.5,52.5C 66.2061,52.6878 68.5395,53.6878 70.5,55.5C 72.1667,57.8333 74.1667,59.8333 76.5,61.5C 76.5,62.1667 76.8333,62.5 77.5,62.5C 77.5,63.1667 77.8333,63.5 78.5,63.5C 80.8097,64.1638 83.3097,64.4971 86,64.5C 100.517,63.9059 115.017,63.2392 129.5,62.5C 141.351,62.2186 153.017,62.2186 164.5,62.5C 160.785,62.423 157.119,62.7564 153.5,63.5C 150.311,63.8583 147.311,64.525 144.5,65.5C 139.835,66.0777 135.501,67.4111 131.5,69.5C 126.512,70.1617 122.179,72.1617 118.5,75.5C 114.5,77.1667 110.5,78.8333 106.5,80.5C 102.542,81.3186 98.8751,82.8186 95.5,85C 98.1667,85.6667 98.1667,86.3333 95.5,87C 99.7004,87.4592 103.534,88.6259 107,90.5C 108.167,90.3333 109.333,90.1667 110.5,90C 102.526,88.8488 102.526,88.0155 110.5,87.5C 115.518,87.6133 120.518,87.9466 125.5,88.5C 129.452,89.2721 133.452,89.6054 137.5,89.5C 133.833,90.1667 130.167,90.8333 126.5,91.5C 128.635,93.369 131.302,94.0356 134.5,93.5C 135.263,94.2679 136.263,94.7679 137.5,95C 131.565,97.125 125.731,96.9583 120,94.5C 119.781,93.062 119.281,91.7287 118.5,90.5C 117.808,91.0253 117.308,91.6919 117,92.5C 115.934,90.9005 114.434,89.9005 112.5,89.5C 111.429,91.3255 112.096,92.4921 114.5,93C 103.976,92.1631 93.8098,89.6631 84,85.5C 83.51,86.7932 83.3433,88.1266 83.5,89.5C 81.8639,90.7489 80.6972,92.4156 80,94.5C 79.7216,93.5842 79.2216,92.9175 78.5,92.5C 82.0532,82.2159 80.8866,72.5493 75,63.5C 73.4455,61.0728 72.2789,61.0728 71.5,63.5C 68.1292,61.1542 64.7959,58.8208 61.5,56.5C 61.5,55.1667 61.5,53.8333 61.5,52.5 Z"/></g>
<g><path style="opacity:0.949" fill="#1c1c1b" d="M 286.5,64.5 C 295.167,64.5 303.833,64.5 312.5,64.5C 314.903,64.448 317.236,64.7814 319.5,65.5C 322.939,65.7471 326.272,65.4137 329.5,64.5C 328.77,66.045 327.437,66.8784 325.5,67C 325.957,67.414 326.291,67.914 326.5,68.5C 325.131,72.4408 324.131,76.4408 323.5,80.5C 317.708,80.2756 312.041,80.2756 306.5,80.5C 306.877,78.742 307.544,77.0754 308.5,75.5C 308,75.1667 307.5,74.8333 307,74.5C 301.325,76.559 295.492,77.8923 289.5,78.5C 289.679,76.0459 289.013,73.8792 287.5,72C 287.57,71.2352 287.903,70.7352 288.5,70.5C 289.038,68.8828 289.371,67.2161 289.5,65.5C 286.813,65.6641 284.146,65.4974 281.5,65C 283.134,64.5065 284.801,64.3398 286.5,64.5 Z"/></g>
<g><path style="opacity:1" fill="#927f7b" d="M 153.5,63.5 C 152.833,64.1667 152.167,64.8333 151.5,65.5C 150.222,65.7822 149.222,66.4489 148.5,67.5C 146.183,66.4655 145.183,67.4655 145.5,70.5C 144.493,70.5476 144.16,69.5476 144.5,67.5C 145.506,66.6043 145.506,65.9377 144.5,65.5C 147.311,64.525 150.311,63.8583 153.5,63.5 Z"/></g>
<g><path style="opacity:1" fill="#aa1a11" d="M 148.5,67.5 C 147.833,68.8333 146.833,69.8333 145.5,70.5C 145.183,67.4655 146.183,66.4655 148.5,67.5 Z"/></g>
<g><path style="opacity:1" fill="#a9a657" d="M 225.5,56.5 C 230.007,56.4468 234.007,57.7801 237.5,60.5C 240.052,63.3866 241.718,66.72 242.5,70.5C 242.5,70.8333 242.5,71.1667 242.5,71.5C 241.609,72.1098 240.609,72.4431 239.5,72.5C 237.728,66.2622 234.061,61.5955 228.5,58.5C 226.021,57.3773 223.688,57.3773 221.5,58.5C 220.527,58.0133 219.527,57.5133 218.5,57C 220.81,56.5034 223.143,56.3367 225.5,56.5 Z"/></g>
<g><path style="opacity:1" fill="#a61b1b" d="M 258.5,61.5 C 264.077,61.8563 269.41,62.8563 274.5,64.5C 268.31,64.1771 262.31,64.5104 256.5,65.5C 251.823,67.1736 247.156,68.8402 242.5,70.5C 241.718,66.72 240.052,63.3866 237.5,60.5C 240.448,60.7771 243.281,60.4438 246,59.5C 246.708,60.3805 247.542,61.0472 248.5,61.5C 248.351,62.552 248.517,63.552 249,64.5C 250.039,63.2899 251.206,62.2899 252.5,61.5C 253.75,61.4226 254.583,60.756 255,59.5C 256.016,60.6341 256.683,60.3008 257,58.5C 257.232,59.7375 257.732,60.7375 258.5,61.5 Z"/></g>
<g><path style="opacity:1" fill="#d0b2b0" d="M 252.5,61.5 C 251.206,62.2899 250.039,63.2899 249,64.5C 248.517,63.552 248.351,62.552 248.5,61.5C 250.044,61.2969 251.378,60.6302 252.5,59.5C 253.463,59.9698 253.463,60.6365 252.5,61.5 Z"/></g>
<g><path style="opacity:1" fill="#dad55b" d="M 34.5,63.5 C 32.1397,65.7126 30.3063,68.3793 29,71.5C 25.7505,81.6711 27.5839,90.6711 34.5,98.5C 34.631,99.2389 34.4643,99.9056 34,100.5C 23.763,88.7979 22.9297,76.4646 31.5,63.5C 32.4584,63.0472 33.2917,62.3805 34,61.5C 34.4643,62.0944 34.631,62.7611 34.5,63.5 Z"/></g>
<g><path style="opacity:1" fill="#b69492" d="M 188.5,66.5 C 187.972,67.7206 187.305,68.8873 186.5,70C 187.793,70.49 189.127,70.6567 190.5,70.5C 188.197,71.2307 185.864,71.564 183.5,71.5C 182.52,70.0186 181.353,68.6853 180,67.5C 178.312,68.3247 178.145,69.3247 179.5,70.5C 178.833,70.8333 178.167,71.1667 177.5,71.5C 174.19,71.4756 170.856,71.1423 167.5,70.5C 166.83,67.4096 167.997,65.743 171,65.5C 174.357,65.7137 177.857,65.8804 181.5,66C 182.211,67.2547 183.044,68.4214 184,69.5C 184.805,66.7814 186.305,65.7814 188.5,66.5 Z"/></g>
<g><path style="opacity:1" fill="#850000" d="M 169.5,67.5 C 170.978,67.238 172.311,67.5713 173.5,68.5C 172.833,68.8333 172.167,69.1667 171.5,69.5C 170.287,69.2528 169.62,68.5862 169.5,67.5 Z"/></g>
<g><path style="opacity:1" fill="#a2301c" d="M 208.5,59.5 C 219.726,57.8212 225.226,62.4879 225,73.5C 221.651,74.6765 220.151,77.0098 220.5,80.5C 215.167,81.8333 209.833,81.8333 204.5,80.5C 204.978,77.7224 203.978,75.7224 201.5,74.5C 200.353,72.2351 200.186,69.9018 201,67.5C 203.028,64.3078 205.528,61.6411 208.5,59.5 Z"/></g>
<g><path style="opacity:1" fill="#fbec74" d="M 209.5,65.5 C 209.5,67.1667 209.5,68.8333 209.5,70.5C 208.31,68.6455 206.977,66.8121 205.5,65C 207.077,63.07 208.41,63.2367 209.5,65.5 Z"/></g>
<g><path style="opacity:1" fill="#ae391f" d="M 228.5,58.5 C 234.061,61.5955 237.728,66.2622 239.5,72.5C 239.5,73.1667 239.167,73.5 238.5,73.5C 236.417,67.6685 233.084,62.6685 228.5,58.5 Z"/></g>
<g><path style="opacity:1" fill="#801209" d="M 366.5,69.5 C 363.85,71.7692 364.35,73.4359 368,74.5C 368.277,78.4728 368.444,82.3062 368.5,86C 366.701,89.9828 363.701,92.1494 359.5,92.5C 367.063,87.3846 368.396,81.0513 363.5,73.5C 358.968,68.0229 353.635,67.1896 347.5,71C 345.859,72.129 344.859,73.629 344.5,75.5C 341.142,82.4927 342.808,88.1594 349.5,92.5C 345.299,92.1494 342.299,89.9828 340.5,86C 341.022,85.4387 341.355,84.772 341.5,84C 339.808,81.0647 339.142,77.8981 339.5,74.5C 344.601,64.045 352.601,61.2116 363.5,66C 364.71,67.0391 365.71,68.2058 366.5,69.5 Z"/></g>
<g><path style="opacity:1" fill="#bdbfbe" d="M 192.5,71.5 C 191.928,70.0267 191.095,68.6934 190,67.5C 189.53,68.5768 189.697,69.5768 190.5,70.5C 189.127,70.6567 187.793,70.49 186.5,70C 187.305,68.8873 187.972,67.7206 188.5,66.5C 188.56,65.9569 188.893,65.6236 189.5,65.5C 192.247,66.9827 193.247,68.9827 192.5,71.5 Z"/></g>
<g><path style="opacity:1" fill="#aaaaa9" d="M 288.5,70.5 C 289.482,69.8592 290.482,69.1925 291.5,68.5C 294.167,69.8333 296.833,69.8333 299.5,68.5C 300.5,68.8333 301.167,69.5 301.5,70.5C 300.289,71.7202 300.289,72.8869 301.5,74C 300.004,74.5074 298.837,74.0074 298,72.5C 297.612,73.428 296.945,74.0946 296,74.5C 294.467,73.3047 292.967,73.3047 291.5,74.5C 289.712,73.7174 288.712,72.3841 288.5,70.5 Z"/></g>
<g><path style="opacity:1" fill="#e69e60" d="M 363.5,73.5 C 363.833,74.8333 364.167,76.1667 364.5,77.5C 364.167,77.5 363.833,77.5 363.5,77.5C 361.014,71.9555 356.68,69.9555 350.5,71.5C 348.246,72.4151 346.246,73.7484 344.5,75.5C 344.859,73.629 345.859,72.129 347.5,71C 353.635,67.1896 358.968,68.0229 363.5,73.5 Z"/></g>
<g><path style="opacity:0.22" fill="#1f0a06" d="M 407.5,70.5 C 403.629,70.815 399.962,70.4816 396.5,69.5C 397.117,69.3893 397.617,69.056 398,68.5C 401.27,69.132 404.437,69.7986 407.5,70.5 Z"/></g>
<g><path style="opacity:1" fill="#f1ca64" d="M 209.5,70.5 C 209.5,68.8333 209.5,67.1667 209.5,65.5C 209.5,64.1667 209.5,62.8333 209.5,61.5C 210.5,61.5 211.5,61.5 212.5,61.5C 212.833,69.5 213.167,69.5 213.5,61.5C 214.675,61.281 215.675,61.6143 216.5,62.5C 215.48,64.4325 215.313,66.4325 216,68.5C 216.36,66.5789 217.194,64.9122 218.5,63.5C 218.833,64 219.167,64.5 219.5,65C 216.957,72.0696 217.457,72.2362 221,65.5C 222.617,66.5358 222.784,67.7025 221.5,69C 222.428,69.3879 223.095,70.0546 223.5,71C 220.786,72.867 219.119,75.367 218.5,78.5C 214.5,79.8333 210.5,79.8333 206.5,78.5C 206.148,75.4858 204.815,72.9858 202.5,71C 202.667,70.5 202.833,70 203,69.5C 204,70.5 205,71.5 206,72.5C 205.973,70.5826 205.139,68.916 203.5,67.5C 204.002,66.479 204.668,66.3123 205.5,67C 206.542,68.918 207.708,70.7513 209,72.5C 209.464,71.9056 209.631,71.2389 209.5,70.5 Z"/></g>
<g><path style="opacity:0.885" fill="#171616" d="M 3.5,43.5 C 4.5,43.5 5.5,43.5 6.5,43.5C 6.67412,45.861 7.00745,48.1944 7.5,50.5C 10.8333,50.5 14.1667,50.5 17.5,50.5C 17.1667,51.5 16.5,52.1667 15.5,52.5C 16.2867,56.3695 17.9534,57.0362 20.5,54.5C 19.3966,54.0024 18.3966,53.6691 17.5,53.5C 18.6119,52.7348 19.2786,51.7348 19.5,50.5C 27.8333,50.5 36.1667,50.5 44.5,50.5C 48.0713,50.2714 51.7379,50.2714 55.5,50.5C 58.4951,50.2938 61.1617,50.9605 63.5,52.5C 62.8333,52.5 62.1667,52.5 61.5,52.5C 56.1667,52.5 50.8333,52.5 45.5,52.5C 43.2972,52.6036 41.2972,53.2702 39.5,54.5C 39.631,53.7611 39.4643,53.0944 39,52.5C 35.8845,54.6046 32.8845,54.6046 30,52.5C 29.5172,53.448 29.3505,54.448 29.5,55.5C 31.6119,56.2751 33.6119,56.2751 35.5,55.5C 33.7155,57.9483 32.3822,60.615 31.5,63.5C 22.9297,76.4646 23.763,88.7979 34,100.5C 34.4643,99.9056 34.631,99.2389 34.5,98.5C 35.2216,98.9175 35.7216,99.5842 36,100.5C 36.3333,100.167 36.6667,99.8333 37,99.5C 39.7344,100.362 39.9011,101.195 37.5,102C 38.4158,102.278 39.0825,102.778 39.5,103.5C 39.0618,103.435 38.7284,103.601 38.5,104C 43.8042,107.604 49.4708,109.437 55.5,109.5C 57.4134,108.627 59.2467,107.627 61,106.5C 62.0812,108.767 63.5812,108.934 65.5,107C 66.8228,106.184 67.4894,105.017 67.5,103.5C 68.0476,102.312 68.3809,101.145 68.5,100C 69.5768,99.5304 70.5768,99.6971 71.5,100.5C 74.7372,98.7378 77.0706,96.0712 78.5,92.5C 79.2216,92.9175 79.7216,93.5842 80,94.5C 80.6972,92.4156 81.8639,90.7489 83.5,89.5C 88.3102,90.0359 92.9769,91.2025 97.5,93C 94.2076,93.7559 93.2076,95.5893 94.5,98.5C 96.326,98.0798 98.326,98.0798 100.5,98.5C 100.193,96.5542 100.193,94.8875 100.5,93.5C 107.831,95.6306 115.164,97.6306 122.5,99.5C 107.135,101.125 91.4683,101.958 75.5,102C 80.9724,102.867 86.3057,103.7 91.5,104.5C 85.1579,104.334 78.8246,104.5 72.5,105C 63.3918,111.547 53.3918,113.214 42.5,110C 38.3253,108.416 34.6587,106.082 31.5,103C 28.1832,102.502 24.8499,102.335 21.5,102.5C 21.5,96.8333 21.5,91.1667 21.5,85.5C 10.0138,88.329 4.68043,83.9956 5.5,72.5C 7.83333,72.5 10.1667,72.5 12.5,72.5C 12.8417,73.3382 13.5084,73.6716 14.5,73.5C 17.691,73.7622 20.3577,75.0955 22.5,77.5C 23.6227,72.2974 25.6227,67.4641 28.5,63C 21.5079,62.5004 14.5079,62.3337 7.5,62.5C 6.5418,60.6976 5.87513,58.6976 5.5,56.5C 6.13863,55.9032 6.47196,55.0698 6.5,54C 5.88279,50.3605 4.88279,46.8605 3.5,43.5 Z"/></g>
<g><path style="opacity:1" fill="#a3a4a4" d="M 17.5,50.5 C 18.1667,50.5 18.8333,50.5 19.5,50.5C 19.2786,51.7348 18.6119,52.7348 17.5,53.5C 18.3966,53.6691 19.3966,54.0024 20.5,54.5C 17.9534,57.0362 16.2867,56.3695 15.5,52.5C 16.5,52.1667 17.1667,51.5 17.5,50.5 Z"/></g>
<g><path style="opacity:1" fill="#d4d4d5" d="M 25.5,53.5 C 26.1515,52.9094 26.8182,52.2427 27.5,51.5C 28.4709,52.9621 28.1376,54.2954 26.5,55.5C 25.7025,55.0431 25.3691,54.3764 25.5,53.5 Z"/></g>
<g><path style="opacity:1" fill="#b9babb" d="M 25.5,53.5 C 23.318,56.1113 21.6513,55.6113 20.5,52C 21.7441,51.5439 22.5774,52.0439 23,53.5C 24.0712,50.8875 24.9045,50.8875 25.5,53.5 Z"/></g>
<g><path style="opacity:1" fill="#c1c1c2" d="M 15.5,52.5 C 14.596,53.209 14.2627,54.209 14.5,55.5C 12.4099,55.5499 11.0766,54.5499 10.5,52.5C 12.2006,53.7119 13.8673,53.7119 15.5,52.5 Z"/></g>
<g><path style="opacity:1" fill="#918a89" d="M 131.5,69.5 C 132.72,71.2837 132.72,72.9504 131.5,74.5C 131.672,73.5084 131.338,72.8417 130.5,72.5C 130.611,70.3523 129.944,70.019 128.5,71.5C 127.534,73.396 127.201,75.396 127.5,77.5C 126.684,76.8429 126.017,75.5095 125.5,73.5C 122.805,73.933 120.638,75.2663 119,77.5C 118.536,76.9056 118.369,76.2389 118.5,75.5C 122.179,72.1617 126.512,70.1617 131.5,69.5 Z"/></g>
<g><path style="opacity:1" fill="#a5211d" d="M 380.5,65.5 C 385.833,66.8331 391.166,68.1665 396.5,69.5C 399.962,70.4816 403.629,70.815 407.5,70.5C 416.109,70.9705 422.775,74.8038 427.5,82C 432.5,84.3333 437.5,86.6667 442.5,89C 443.381,89.7083 444.047,90.5416 444.5,91.5C 440.399,92.7908 436.399,92.7908 432.5,91.5C 433.263,90.7321 434.263,90.2321 435.5,90C 434.5,89.5 433.5,89 432.5,88.5C 429.193,89.7496 425.693,90.4162 422,90.5C 418.833,90.3333 415.667,90.1667 412.5,90C 416.167,89.6667 419.833,89.3333 423.5,89C 423.957,88.586 424.291,88.086 424.5,87.5C 422.257,86.5258 419.924,86.1924 417.5,86.5C 417.374,83.5322 415.874,81.5322 413,80.5C 411.92,78.0038 410.586,75.6705 409,73.5C 408.333,74.8333 408.333,76.1667 409,77.5C 411.294,79.6475 411.794,81.9809 410.5,84.5C 409.872,81.91 408.705,79.5766 407,77.5C 406.36,79.265 406.527,80.9317 407.5,82.5C 407.158,83.3382 406.492,83.6716 405.5,83.5C 405.719,82.325 405.386,81.325 404.5,80.5C 402.468,81.819 400.468,81.819 398.5,80.5C 398.158,79.6618 397.492,79.3284 396.5,79.5C 396.443,78.391 396.11,77.391 395.5,76.5C 396.953,75.1751 396.619,74.3418 394.5,74C 391.905,73.7744 389.405,73.2744 387,72.5C 385.16,73.8331 384.66,73.6665 385.5,72C 384.906,71.5357 384.239,71.369 383.5,71.5C 383.025,69.2163 382.025,67.2163 380.5,65.5 Z"/></g>
<g><path style="opacity:1" fill="#ae2c1e" d="M 130.5,72.5 C 130.25,74.674 129.25,76.3406 127.5,77.5C 127.201,75.396 127.534,73.396 128.5,71.5C 129.944,70.019 130.611,70.3523 130.5,72.5 Z"/></g>
<g><path style="opacity:1" fill="#ae2820" d="M 144.5,65.5 C 145.506,65.9377 145.506,66.6043 144.5,67.5C 143.662,67.8417 143.328,68.5084 143.5,69.5C 142.938,72.4974 141.605,75.1641 139.5,77.5C 141.022,78.562 142.688,79.2287 144.5,79.5C 144.5,80.1667 144.5,80.8333 144.5,81.5C 142.424,82.4268 141.257,84.0935 141,86.5C 140.722,85.5842 140.222,84.9175 139.5,84.5C 139.579,81.7294 139.079,79.0627 138,76.5C 137.676,78.5689 136.842,78.9023 135.5,77.5C 134.749,78.376 134.249,79.376 134,80.5C 132.451,77.9974 130.784,77.9974 129,80.5C 128.601,80.2716 128.435,79.9382 128.5,79.5C 129.752,77.9991 130.752,76.3325 131.5,74.5C 132.72,72.9504 132.72,71.2837 131.5,69.5C 135.501,67.4111 139.835,66.0777 144.5,65.5 Z"/></g>
<g><path style="opacity:1" fill="#87160c" d="M 65.5,69.5 C 62.6618,71.3059 62.9952,72.3059 66.5,72.5C 66.81,75.7131 66.4767,78.7131 65.5,81.5C 65.7406,79.1016 65.0739,77.1016 63.5,75.5C 60.8474,70.1735 56.5141,68.0068 50.5,69C 49.5842,69.2784 48.9175,69.7784 48.5,70.5C 43.6173,72.2289 41.284,75.7289 41.5,81C 41.5858,86.2425 43.9191,90.0758 48.5,92.5C 44.8527,92.3784 42.0194,90.7118 40,87.5C 39.3162,86.2161 39.4829,85.0495 40.5,84C 37.9629,81.8055 36.9629,78.9721 37.5,75.5C 41.6015,65.2829 48.9348,61.7829 59.5,65C 62.1064,65.7918 64.1064,67.2918 65.5,69.5 Z"/></g>
<g><path style="opacity:1" fill="#efaf55" d="M 63.5,75.5 C 62.1667,74.5 60.8333,73.5 59.5,72.5C 58.8333,72.1667 58.1667,71.8333 57.5,71.5C 54.7131,70.5233 51.7131,70.19 48.5,70.5C 48.9175,69.7784 49.5842,69.2784 50.5,69C 56.5141,68.0068 60.8474,70.1735 63.5,75.5 Z"/></g>
<g><path style="opacity:1" fill="#9c554e" d="M 143.5,69.5 C 143.335,72.5184 143.502,75.5184 144,78.5C 144.333,76.5 144.667,74.5 145,72.5C 148.103,74.9924 147.937,77.3257 144.5,79.5C 142.688,79.2287 141.022,78.562 139.5,77.5C 141.605,75.1641 142.938,72.4974 143.5,69.5 Z"/></g>
<g><path style="opacity:1" fill="#a8afaf" d="M 151.5,65.5 C 150.457,68.0562 148.79,70.2228 146.5,72C 148.534,75.0142 150.868,75.1809 153.5,72.5C 154.192,73.0253 154.692,73.6919 155,74.5C 156.066,72.9005 157.566,71.9005 159.5,71.5C 160.298,71.9569 160.631,72.6236 160.5,73.5C 161.869,76.1312 161.202,76.7978 158.5,75.5C 156.974,75.9943 155.641,76.661 154.5,77.5C 152.854,77.458 151.188,77.458 149.5,77.5C 148.395,79.6114 146.729,80.9447 144.5,81.5C 144.5,80.8333 144.5,80.1667 144.5,79.5C 147.937,77.3257 148.103,74.9924 145,72.5C 144.667,74.5 144.333,76.5 144,78.5C 143.502,75.5184 143.335,72.5184 143.5,69.5C 143.328,68.5084 143.662,67.8417 144.5,67.5C 144.16,69.5476 144.493,70.5476 145.5,70.5C 146.833,69.8333 147.833,68.8333 148.5,67.5C 149.222,66.4489 150.222,65.7822 151.5,65.5 Z"/></g>
<g><path style="opacity:1" fill="#a16d6b" d="M 383.5,71.5 C 384.239,71.369 384.906,71.5357 385.5,72C 384.66,73.6665 385.16,73.8331 387,72.5C 389.405,73.2744 391.905,73.7744 394.5,74C 396.619,74.3418 396.953,75.1751 395.5,76.5C 391.753,76.6076 388.086,76.1076 384.5,75C 383.663,73.9887 383.33,72.8221 383.5,71.5 Z"/></g>
<g><path style="opacity:1" fill="#e4e261" d="M 78.5,92.5 C 77.0706,96.0712 74.7372,98.7378 71.5,100.5C 73.4779,97.6667 75.3112,94.6667 77,91.5C 81.6365,80.7677 79.8032,71.4343 71.5,63.5C 72.2789,61.0728 73.4455,61.0728 75,63.5C 80.8866,72.5493 82.0532,82.2159 78.5,92.5 Z"/></g>
<g><path style="opacity:1" fill="#281619" d="M 242.5,73.5 C 243.487,78.3054 243.821,83.3054 243.5,88.5C 237.428,89.1291 231.428,90.1291 225.5,91.5C 224.137,88.786 224.304,86.1194 226,83.5C 231.647,80.2666 237.147,76.9333 242.5,73.5 Z"/></g>
<g><path style="opacity:1" fill="#212221" d="M 350.5,71.5 C 356.68,69.9555 361.014,71.9555 363.5,77.5C 363.54,80.8806 363.207,84.2139 362.5,87.5C 362.5,88.1667 362.167,88.5 361.5,88.5C 349.969,92.4568 344.803,88.4568 346,76.5C 347.707,74.9625 349.207,73.2959 350.5,71.5 Z"/></g>
<g><path style="opacity:1" fill="#c5d0d1" d="M 130.5,72.5 C 131.338,72.8417 131.672,73.5084 131.5,74.5C 130.752,76.3325 129.752,77.9991 128.5,79.5C 126.073,80.2789 126.073,81.4455 128.5,83C 127.423,83.4696 126.423,83.3029 125.5,82.5C 124.624,82.6309 123.957,82.2975 123.5,81.5C 124.169,78.8035 124.836,76.1368 125.5,73.5C 126.017,75.5095 126.684,76.8429 127.5,77.5C 129.25,76.3406 130.25,74.674 130.5,72.5 Z"/></g>
<g><path style="opacity:1" fill="#761b1a" d="M 190.5,70.5 C 189.697,69.5768 189.53,68.5768 190,67.5C 191.095,68.6934 191.928,70.0267 192.5,71.5C 194.588,72.2008 196.588,73.2008 198.5,74.5C 202.602,75.6087 204.269,78.2754 203.5,82.5C 210.003,82.9183 216.336,82.2516 222.5,80.5C 222.5,80.8333 222.5,81.1667 222.5,81.5C 220.208,83.2671 217.542,84.2671 214.5,84.5C 211.14,84.6159 207.807,84.9492 204.5,85.5C 200.56,83.0388 196.227,81.3721 191.5,80.5C 191.5,79.5 191.5,78.5 191.5,77.5C 184.57,78.6998 177.237,78.6998 169.5,77.5C 169.5,78.8333 169.5,80.1667 169.5,81.5C 162.881,83.1441 155.881,84.1441 148.5,84.5C 150.647,86.6632 153.314,87.6632 156.5,87.5C 159.706,88.0785 162.706,89.0785 165.5,90.5C 162.167,90.5 158.833,90.5 155.5,90.5C 152.287,90.81 149.287,90.4767 146.5,89.5C 147.873,89.6567 149.207,89.49 150.5,89C 148.285,88.8295 146.285,88.1628 144.5,87C 146.037,85.8904 146.703,84.3904 146.5,82.5C 148.527,82.6621 150.527,82.4955 152.5,82C 153.878,80.2866 155.545,78.9533 157.5,78C 156.552,77.5172 155.552,77.3505 154.5,77.5C 155.641,76.661 156.974,75.9943 158.5,75.5C 161.202,76.7978 161.869,76.1312 160.5,73.5C 162.426,71.0234 164.759,70.0234 167.5,70.5C 170.856,71.1423 174.19,71.4756 177.5,71.5C 178.167,71.1667 178.833,70.8333 179.5,70.5C 178.145,69.3247 178.312,68.3247 180,67.5C 181.353,68.6853 182.52,70.0186 183.5,71.5C 185.864,71.564 188.197,71.2307 190.5,70.5 Z"/></g>
<g><path style="opacity:1" fill="#d5d8d7" d="M 410.5,84.5 C 409.222,84.2178 408.222,83.5511 407.5,82.5C 406.527,80.9317 406.36,79.265 407,77.5C 408.705,79.5766 409.872,81.91 410.5,84.5 Z"/></g>
<g><path style="opacity:1" fill="#2e2e2e" d="M 48.5,59.5 C 66.809,59.3077 75.309,68.3077 74,86.5C 73.5272,88.779 72.5272,90.779 71,92.5C 76.9624,75.4268 71.1291,64.7602 53.5,60.5C 48.1064,60.865 43.4397,62.865 39.5,66.5C 39.1667,66.3333 38.8333,66.1667 38.5,66C 41.4207,63.0495 44.7541,60.8828 48.5,59.5 Z"/></g>
<g><path style="opacity:1" fill="#908f8e" d="M 139.5,84.5 C 139.631,85.3764 139.298,86.0431 138.5,86.5C 137.548,84.9547 137.215,83.288 137.5,81.5C 135.436,81.687 133.436,82.187 131.5,83C 133.927,84.5545 133.927,85.7211 131.5,86.5C 129.797,84.1391 128.13,84.1391 126.5,86.5C 125.571,85.3112 125.238,83.9778 125.5,82.5C 126.423,83.3029 127.423,83.4696 128.5,83C 126.073,81.4455 126.073,80.2789 128.5,79.5C 128.435,79.9382 128.601,80.2716 129,80.5C 130.784,77.9974 132.451,77.9974 134,80.5C 134.249,79.376 134.749,78.376 135.5,77.5C 136.842,78.9023 137.676,78.5689 138,76.5C 139.079,79.0627 139.579,81.7294 139.5,84.5 Z"/></g>
<g><path style="opacity:1" fill="#5f1d18" d="M 125.5,73.5 C 124.836,76.1368 124.169,78.8035 123.5,81.5C 123.957,82.2975 124.624,82.6309 125.5,82.5C 125.238,83.9778 125.571,85.3112 126.5,86.5C 128.13,84.1391 129.797,84.1391 131.5,86.5C 129.374,87.0482 127.374,87.7148 125.5,88.5C 120.518,87.9466 115.518,87.6133 110.5,87.5C 106.531,86.5551 105.198,84.2218 106.5,80.5C 110.5,78.8333 114.5,77.1667 118.5,75.5C 118.369,76.2389 118.536,76.9056 119,77.5C 120.638,75.2663 122.805,73.933 125.5,73.5 Z"/></g>
<g><path style="opacity:1" fill="#121213" d="M 306.5,80.5 C 306.334,87.175 306.5,93.8417 307,100.5C 307.5,101.5 308,102.5 308.5,103.5C 295.851,104.499 283.184,104.832 270.5,104.5C 270.5,103.5 270.5,102.5 270.5,101.5C 269.209,101.737 268.209,101.404 267.5,100.5C 270.5,100.833 271.833,99.5 271.5,96.5C 270.448,96.3505 269.448,96.5172 268.5,97C 269.696,97.6543 269.696,98.1543 268.5,98.5C 268.167,98 267.833,97.5 267.5,97C 268.071,95.4009 269.071,94.2342 270.5,93.5C 269.47,92.1797 268.47,90.6797 267.5,89C 266.5,88.6667 265.5,88.3333 264.5,88C 268.153,85.6151 272.153,84.1151 276.5,83.5C 281.223,82.6303 285.556,80.9637 289.5,78.5C 295.492,77.8923 301.325,76.559 307,74.5C 307.5,74.8333 308,75.1667 308.5,75.5C 307.544,77.0754 306.877,78.742 306.5,80.5 Z"/></g>
<g><path style="opacity:1" fill="#a66e75" d="M 350.5,71.5 C 349.207,73.2959 347.707,74.9625 346,76.5C 344.803,88.4568 349.969,92.4568 361.5,88.5C 359.969,90.6801 357.802,91.6801 355,91.5C 345.816,90.1712 342.316,84.8378 344.5,75.5C 346.246,73.7484 348.246,72.4151 350.5,71.5 Z"/></g>
<g><path style="opacity:1" fill="#212222" d="M 57.5,71.5 C 58.1667,71.8333 58.8333,72.1667 59.5,72.5C 64.2103,79.4941 63.2103,85.4941 56.5,90.5C 54.1667,90.5 51.8333,90.5 49.5,90.5C 42.9425,84.2567 42.9425,78.09 49.5,72C 52.146,71.5026 54.8127,71.3359 57.5,71.5 Z"/></g>
<g><path style="opacity:1" fill="#ded95c" d="M 375.5,62.5 C 385.164,75.5425 384.664,88.2091 374,100.5C 376.18,96.4607 378.18,92.1273 380,87.5C 382.165,78.1823 379.998,70.1823 373.5,63.5C 373.409,61.3023 374.075,60.9689 375.5,62.5 Z"/></g>
<g><path style="opacity:1" fill="#737775" d="M 398.5,80.5 C 400.468,81.819 402.468,81.819 404.5,80.5C 405.386,81.325 405.719,82.325 405.5,83.5C 403.139,83.3259 400.806,82.9926 398.5,82.5C 397.494,81.6043 397.494,80.9377 398.5,80.5 Z"/></g>
<g><path style="opacity:1" fill="#8b1b18" d="M 154.5,77.5 C 155.552,77.3505 156.552,77.5172 157.5,78C 155.545,78.9533 153.878,80.2866 152.5,82C 150.527,82.4955 148.527,82.6621 146.5,82.5C 146.703,84.3904 146.037,85.8904 144.5,87C 146.285,88.1628 148.285,88.8295 150.5,89C 149.207,89.49 147.873,89.6567 146.5,89.5C 143.5,89.5 140.5,89.5 137.5,89.5C 133.452,89.6054 129.452,89.2721 125.5,88.5C 127.374,87.7148 129.374,87.0482 131.5,86.5C 133.927,85.7211 133.927,84.5545 131.5,83C 133.436,82.187 135.436,81.687 137.5,81.5C 137.215,83.288 137.548,84.9547 138.5,86.5C 139.298,86.0431 139.631,85.3764 139.5,84.5C 140.222,84.9175 140.722,85.5842 141,86.5C 141.257,84.0935 142.424,82.4268 144.5,81.5C 146.729,80.9447 148.395,79.6114 149.5,77.5C 151.188,77.458 152.854,77.458 154.5,77.5 Z"/></g>
<g><path style="opacity:1" fill="#5e1e1d" d="M 191.5,80.5 C 196.227,81.3721 200.56,83.0388 204.5,85.5C 198.021,86.4907 191.354,86.824 184.5,86.5C 184.611,85.8826 184.944,85.3826 185.5,85C 183.343,84.9219 181.343,84.7552 179.5,84.5C 180.376,83.7492 181.376,83.2492 182.5,83C 181.062,82.7811 179.729,82.2811 178.5,81.5C 178.846,80.3044 179.346,80.3044 180,81.5C 181,80.5 182,79.5 183,78.5C 185.226,81.426 187.56,81.7593 190,79.5C 190.333,80.1667 190.667,80.8333 191,81.5C 191.399,81.2716 191.565,80.9382 191.5,80.5 Z"/></g>
<g><path style="opacity:1" fill="#e8b154" d="M 363.5,73.5 C 368.396,81.0513 367.063,87.3846 359.5,92.5C 356.148,93.7074 352.814,93.7074 349.5,92.5C 342.808,88.1594 341.142,82.4927 344.5,75.5C 342.316,84.8378 345.816,90.1712 355,91.5C 357.802,91.6801 359.969,90.6801 361.5,88.5C 362.167,88.5 362.5,88.1667 362.5,87.5C 363.966,86.653 364.8,85.3197 365,83.5C 365.789,81.2884 365.622,79.2884 364.5,77.5C 364.167,76.1667 363.833,74.8333 363.5,73.5 Z"/></g>
<g><path style="opacity:1" fill="#4f4f51" d="M 106.5,80.5 C 105.198,84.2218 106.531,86.5551 110.5,87.5C 102.526,88.0155 102.526,88.8488 110.5,90C 109.333,90.1667 108.167,90.3333 107,90.5C 103.534,88.6259 99.7004,87.4592 95.5,87C 98.1667,86.3333 98.1667,85.6667 95.5,85C 98.8751,82.8186 102.542,81.3186 106.5,80.5 Z"/></g>
<g><path style="opacity:1" fill="#591c1b" d="M 176.5,85.5 C 167.849,84.5798 159.183,84.4132 150.5,85C 152.723,85.5662 154.723,86.3995 156.5,87.5C 153.314,87.6632 150.647,86.6632 148.5,84.5C 155.881,84.1441 162.881,83.1441 169.5,81.5C 171.017,81.4894 172.184,80.8228 173,79.5C 174.234,81.7342 176.067,83.2342 178.5,84C 177.956,84.7172 177.289,85.2172 176.5,85.5 Z"/></g>
<g><path style="opacity:1" fill="#80615f" d="M 191.5,80.5 C 191.565,80.9382 191.399,81.2716 191,81.5C 190.667,80.8333 190.333,80.1667 190,79.5C 187.56,81.7593 185.226,81.426 183,78.5C 182,79.5 181,80.5 180,81.5C 179.346,80.3044 178.846,80.3044 178.5,81.5C 179.729,82.2811 181.062,82.7811 182.5,83C 181.376,83.2492 180.376,83.7492 179.5,84.5C 181.343,84.7552 183.343,84.9219 185.5,85C 184.944,85.3826 184.611,85.8826 184.5,86.5C 182.529,86.8638 180.529,87.1972 178.5,87.5C 177.478,87.1445 176.811,86.4778 176.5,85.5C 177.289,85.2172 177.956,84.7172 178.5,84C 176.067,83.2342 174.234,81.7342 173,79.5C 172.184,80.8228 171.017,81.4894 169.5,81.5C 169.5,80.1667 169.5,78.8333 169.5,77.5C 177.237,78.6998 184.57,78.6998 191.5,77.5C 191.5,78.5 191.5,79.5 191.5,80.5 Z"/></g>
<g><path style="opacity:1" fill="#d6dddd" d="M 417.5,86.5 C 414.99,86.0733 412.657,85.4067 410.5,84.5C 411.794,81.9809 411.294,79.6475 409,77.5C 408.333,76.1667 408.333,74.8333 409,73.5C 410.586,75.6705 411.92,78.0038 413,80.5C 415.874,81.5322 417.374,83.5322 417.5,86.5 Z"/></g>
<g><path style="opacity:1" fill="#a2737c" d="M 48.5,70.5 C 51.7131,70.19 54.7131,70.5233 57.5,71.5C 54.8127,71.3359 52.146,71.5026 49.5,72C 42.9425,78.09 42.9425,84.2567 49.5,90.5C 43.0442,87.3068 41.2108,82.3068 44,75.5C 45.7073,73.9625 47.2073,72.2959 48.5,70.5 Z"/></g>
<g><path style="opacity:1" fill="#b5737e" d="M 59.5,72.5 C 60.8333,73.5 62.1667,74.5 63.5,75.5C 63.665,78.8499 63.4983,82.1832 63,85.5C 61.8088,88.5341 59.6421,90.2007 56.5,90.5C 63.2103,85.4941 64.2103,79.4941 59.5,72.5 Z"/></g>
<g><path style="opacity:1" fill="#6b0f05" d="M 65.5,69.5 C 67.2503,70.6594 68.2503,72.326 68.5,74.5C 68.8938,81.2005 66.8938,87.0338 62.5,92C 61.2068,92.49 59.8734,92.6567 58.5,92.5C 62.5797,90.0207 64.913,86.354 65.5,81.5C 66.4767,78.7131 66.81,75.7131 66.5,72.5C 62.9952,72.3059 62.6618,71.3059 65.5,69.5 Z"/></g>
<g><path style="opacity:1" fill="#bac0c0" d="M 400.5,84.5 C 404.292,85.7081 407.959,87.2081 411.5,89C 409.527,89.4955 407.527,89.6621 405.5,89.5C 402.167,89.5 400.5,87.8333 400.5,84.5 Z"/></g>
<g><path style="opacity:1" fill="#372524" d="M 398.5,83.5 C 398.5,83.1667 398.5,82.8333 398.5,82.5C 400.806,82.9926 403.139,83.3259 405.5,83.5C 406.492,83.6716 407.158,83.3382 407.5,82.5C 408.222,83.5511 409.222,84.2178 410.5,84.5C 412.657,85.4067 414.99,86.0733 417.5,86.5C 419.924,86.1924 422.257,86.5258 424.5,87.5C 424.291,88.086 423.957,88.586 423.5,89C 419.833,89.3333 416.167,89.6667 412.5,90C 415.667,90.1667 418.833,90.3333 422,90.5C 425.693,90.4162 429.193,89.7496 432.5,88.5C 433.5,89 434.5,89.5 435.5,90C 434.263,90.2321 433.263,90.7321 432.5,91.5C 420.322,91.8284 408.322,91.4951 396.5,90.5C 399.713,90.81 402.713,90.4767 405.5,89.5C 407.527,89.6621 409.527,89.4955 411.5,89C 407.959,87.2081 404.292,85.7081 400.5,84.5C 399.833,84.1667 399.167,83.8333 398.5,83.5 Z"/></g>
<g><path style="opacity:1" fill="#e6b155" d="M 48.5,70.5 C 47.2073,72.2959 45.7073,73.9625 44,75.5C 41.2108,82.3068 43.0442,87.3068 49.5,90.5C 51.8333,90.5 54.1667,90.5 56.5,90.5C 59.6421,90.2007 61.8088,88.5341 63,85.5C 63.4983,82.1832 63.665,78.8499 63.5,75.5C 65.0739,77.1016 65.7406,79.1016 65.5,81.5C 64.913,86.354 62.5797,90.0207 58.5,92.5C 55.1475,93.7074 51.8142,93.7074 48.5,92.5C 43.9191,90.0758 41.5858,86.2425 41.5,81C 41.284,75.7289 43.6173,72.2289 48.5,70.5 Z"/></g>
<g><path style="opacity:1" fill="#2d1111" d="M 176.5,85.5 C 176.811,86.4778 177.478,87.1445 178.5,87.5C 180.529,87.1972 182.529,86.8638 184.5,86.5C 191.354,86.824 198.021,86.4907 204.5,85.5C 207.807,84.9492 211.14,84.6159 214.5,84.5C 211.051,85.9695 207.384,87.1362 203.5,88C 195.475,88.7445 187.475,89.5778 179.5,90.5C 174.833,90.5 170.167,90.5 165.5,90.5C 162.706,89.0785 159.706,88.0785 156.5,87.5C 154.723,86.3995 152.723,85.5662 150.5,85C 159.183,84.4132 167.849,84.5798 176.5,85.5 Z"/></g>
<g><path style="opacity:0.961" fill="#661e19" d="M 396.5,79.5 C 397.492,79.3284 398.158,79.6618 398.5,80.5C 397.494,80.9377 397.494,81.6043 398.5,82.5C 398.5,82.8333 398.5,83.1667 398.5,83.5C 397.883,83.3893 397.383,83.056 397,82.5C 396.503,85.146 396.336,87.8127 396.5,90.5C 395.596,89.791 395.263,88.791 395.5,87.5C 395.5,87.1667 395.5,86.8333 395.5,86.5C 395.5,85.1667 395.5,83.8333 395.5,82.5C 393.473,82.6621 391.473,82.4955 389.5,82C 392.361,82.0302 394.695,81.1969 396.5,79.5 Z"/></g>
<g><path style="opacity:1" fill="#171617" d="M 242.5,71.5 C 243.506,71.9377 243.506,72.6043 242.5,73.5C 237.147,76.9333 231.647,80.2666 226,83.5C 224.304,86.1194 224.137,88.786 225.5,91.5C 207.875,96.4771 189.875,98.6438 171.5,98C 172.252,97.3292 172.586,96.4959 172.5,95.5C 175.279,94.7551 178.279,94.7551 181.5,95.5C 182.647,95.1822 183.481,94.5156 184,93.5C 184.654,94.6956 185.154,94.6956 185.5,93.5C 183.589,92.5233 181.589,91.8567 179.5,91.5C 179.5,91.1667 179.5,90.8333 179.5,90.5C 187.475,89.5778 195.475,88.7445 203.5,88C 207.384,87.1362 211.051,85.9695 214.5,84.5C 217.542,84.2671 220.208,83.2671 222.5,81.5C 226.5,79.5 230.5,77.5 234.5,75.5C 235.833,74.8333 237.167,74.1667 238.5,73.5C 239.167,73.5 239.5,73.1667 239.5,72.5C 240.609,72.4431 241.609,72.1098 242.5,71.5 Z"/></g>
<g><path style="opacity:1" fill="#b11c19" d="M 398.5,83.5 C 399.167,83.8333 399.833,84.1667 400.5,84.5C 400.5,87.8333 402.167,89.5 405.5,89.5C 402.713,90.4767 399.713,90.81 396.5,90.5C 396.336,87.8127 396.503,85.146 397,82.5C 397.383,83.056 397.883,83.3893 398.5,83.5 Z"/></g>
<g><path style="opacity:0.955" fill="#292827" d="M 256.5,65.5 C 257.335,66.9432 258.668,67.9432 260.5,68.5C 260.214,73.4531 260.214,78.4531 260.5,83.5C 252.499,86.3335 244.499,89.1668 236.5,92C 235.366,93.016 235.699,93.6827 237.5,94C 236.763,98.7035 234.097,100.37 229.5,99C 230.696,98.3457 230.696,97.8457 229.5,97.5C 227.512,98.2888 227.179,99.4555 228.5,101C 224.514,101.499 220.514,101.666 216.5,101.5C 216.5,102.5 216.5,103.5 216.5,104.5C 208.833,104.5 201.167,104.5 193.5,104.5C 190.79,99.5507 186.79,98.2173 181.5,100.5C 171.945,99.3726 162.279,98.0393 152.5,96.5C 152.167,95.8333 151.833,95.1667 151.5,94.5C 152.718,94.891 153.552,94.2244 154,92.5C 155.18,93.6841 156.68,94.3507 158.5,94.5C 160.808,94.6353 162.808,93.9686 164.5,92.5C 161.358,91.8326 158.358,91.166 155.5,90.5C 158.833,90.5 162.167,90.5 165.5,90.5C 170.167,90.5 174.833,90.5 179.5,90.5C 179.5,90.8333 179.5,91.1667 179.5,91.5C 176.103,92.1982 172.603,92.8648 169,93.5C 166.967,92.9836 166.967,93.6503 169,95.5C 170.292,94.2089 171.458,94.2089 172.5,95.5C 172.586,96.4959 172.252,97.3292 171.5,98C 189.875,98.6438 207.875,96.4771 225.5,91.5C 231.428,90.1291 237.428,89.1291 243.5,88.5C 243.821,83.3054 243.487,78.3054 242.5,73.5C 243.506,72.6043 243.506,71.9377 242.5,71.5C 242.5,71.1667 242.5,70.8333 242.5,70.5C 247.156,68.8402 251.823,67.1736 256.5,65.5 Z"/></g>
<g><path style="opacity:1" fill="#383736" d="M 303.5,86.5 C 304.147,87.2739 304.48,88.2739 304.5,89.5C 303.825,93.2011 302.991,96.8677 302,100.5C 300,101.167 298,101.833 296,102.5C 297.65,96.8615 300.15,91.5281 303.5,86.5 Z"/></g>
<g><path style="opacity:1" fill="#dcd95e" d="M 335.5,63.5 C 325.86,75.7375 326.193,87.7375 336.5,99.5C 335.998,100.521 335.332,100.688 334.5,100C 332.273,97.4359 330.439,94.6026 329,91.5C 325.814,80.9868 327.314,71.3202 333.5,62.5C 334.925,60.9689 335.591,61.3023 335.5,63.5 Z"/></g>
<g><path style="opacity:1" fill="#3d0602" d="M 366.5,69.5 C 368.708,70.8936 370.208,72.8936 371,75.5C 373.274,87.1249 368.774,94.6249 357.5,98C 345.65,98.4866 338.984,92.82 337.5,81C 337.336,78.4563 338.003,76.2897 339.5,74.5C 339.142,77.8981 339.808,81.0647 341.5,84C 341.355,84.772 341.022,85.4387 340.5,86C 342.299,89.9828 345.299,92.1494 349.5,92.5C 352.814,93.7074 356.148,93.7074 359.5,92.5C 363.701,92.1494 366.701,89.9828 368.5,86C 368.444,82.3062 368.277,78.4728 368,74.5C 364.35,73.4359 363.85,71.7692 366.5,69.5 Z"/></g>
<g><path style="opacity:1" fill="#a87276" d="M 363.5,77.5 C 363.833,77.5 364.167,77.5 364.5,77.5C 365.622,79.2884 365.789,81.2884 365,83.5C 364.8,85.3197 363.966,86.653 362.5,87.5C 363.207,84.2139 363.54,80.8806 363.5,77.5 Z"/></g>
<g><path style="opacity:1" fill="#f5ca4d" d="M 352.5,79.5 C 353.833,79.5 355.167,79.5 356.5,79.5C 356.5,80.5 356.5,81.5 356.5,82.5C 355.167,82.5 353.833,82.5 352.5,82.5C 352.5,81.5 352.5,80.5 352.5,79.5 Z"/></g>
<g><path style="opacity:0.946" fill="#222423" d="M 395.5,87.5 C 395.263,88.791 395.596,89.791 396.5,90.5C 408.322,91.4951 420.322,91.8284 432.5,91.5C 436.399,92.7908 440.399,92.7908 444.5,91.5C 446.104,92.287 446.771,93.6203 446.5,95.5C 439.991,97.4088 433.325,98.7421 426.5,99.5C 418.919,99.1181 411.419,98.4514 404,97.5C 401.539,98.2181 399.039,98.8847 396.5,99.5C 395.289,98.7261 395.289,97.8928 396.5,97C 394.19,96.5034 391.857,96.3367 389.5,96.5C 389.277,91.9308 391.277,88.9308 395.5,87.5 Z"/></g>
<g><path style="opacity:1" fill="#3b0501" d="M 68.5,74.5 C 72.2452,87.6412 67.2452,95.6412 53.5,98.5C 40.1498,96.1811 34.8165,88.5144 37.5,75.5C 36.9629,78.9721 37.9629,81.8055 40.5,84C 39.4829,85.0495 39.3162,86.2161 40,87.5C 42.0194,90.7118 44.8527,92.3784 48.5,92.5C 51.8142,93.7074 55.1475,93.7074 58.5,92.5C 59.8734,92.6567 61.2068,92.49 62.5,92C 66.8938,87.0338 68.8938,81.2005 68.5,74.5 Z"/></g>
<g><path style="opacity:1" fill="#f4c153" d="M 51.5,79.5 C 52.8333,79.5 54.1667,79.5 55.5,79.5C 55.5,80.5 55.5,81.5 55.5,82.5C 54.1667,82.5 52.8333,82.5 51.5,82.5C 51.5,81.5 51.5,80.5 51.5,79.5 Z"/></g>
<g><path style="opacity:1" fill="#4f4a4a" d="M 134.5,93.5 C 135.675,93.719 136.675,93.3857 137.5,92.5C 134.168,91.8013 130.501,91.4679 126.5,91.5C 130.167,90.8333 133.833,90.1667 137.5,89.5C 140.5,89.5 143.5,89.5 146.5,89.5C 149.287,90.4767 152.287,90.81 155.5,90.5C 158.358,91.166 161.358,91.8326 164.5,92.5C 162.808,93.9686 160.808,94.6353 158.5,94.5C 156.68,94.3507 155.18,93.6841 154,92.5C 153.552,94.2244 152.718,94.891 151.5,94.5C 151.833,95.1667 152.167,95.8333 152.5,96.5C 162.279,98.0393 171.945,99.3726 181.5,100.5C 174.468,100.17 167.468,100.503 160.5,101.5C 163.107,102.318 165.774,102.818 168.5,103C 167.584,103.278 166.918,103.778 166.5,104.5C 141.5,104.5 116.5,104.5 91.5,104.5C 86.3057,103.7 80.9724,102.867 75.5,102C 91.4683,101.958 107.135,101.125 122.5,99.5C 115.164,97.6306 107.831,95.6306 100.5,93.5C 100.193,94.8875 100.193,96.5542 100.5,98.5C 98.326,98.0798 96.326,98.0798 94.5,98.5C 93.2076,95.5893 94.2076,93.7559 97.5,93C 92.9769,91.2025 88.3102,90.0359 83.5,89.5C 83.3433,88.1266 83.51,86.7932 84,85.5C 93.8098,89.6631 103.976,92.1631 114.5,93C 112.096,92.4921 111.429,91.3255 112.5,89.5C 114.434,89.9005 115.934,90.9005 117,92.5C 117.308,91.6919 117.808,91.0253 118.5,90.5C 119.281,91.7287 119.781,93.062 120,94.5C 125.731,96.9583 131.565,97.125 137.5,95C 136.263,94.7679 135.263,94.2679 134.5,93.5 Z"/></g>
<g><path style="opacity:1" fill="#bbb9b8" d="M 126.5,91.5 C 130.501,91.4679 134.168,91.8013 137.5,92.5C 136.675,93.3857 135.675,93.719 134.5,93.5C 131.302,94.0356 128.635,93.369 126.5,91.5 Z"/></g>
<g><path style="opacity:1" fill="#757373" d="M 179.5,91.5 C 181.589,91.8567 183.589,92.5233 185.5,93.5C 185.154,94.6956 184.654,94.6956 184,93.5C 183.481,94.5156 182.647,95.1822 181.5,95.5C 178.279,94.7551 175.279,94.7551 172.5,95.5C 171.458,94.2089 170.292,94.2089 169,95.5C 166.967,93.6503 166.967,92.9836 169,93.5C 172.603,92.8648 176.103,92.1982 179.5,91.5 Z"/></g>
<g><path style="opacity:1" fill="#b9b9ba" d="M 272.5,93.5 C 273.762,96.0708 275.095,96.0708 276.5,93.5C 277.192,94.0253 277.692,94.6919 278,95.5C 278.423,94.0439 279.256,93.5439 280.5,94C 279.458,95.918 278.292,97.7513 277,99.5C 275.983,96.972 274.816,96.972 273.5,99.5C 272.534,97.604 272.201,95.604 272.5,93.5 Z"/></g>
<g><path style="opacity:0.916" fill="#6b6a6b" d="M 276.5,83.5 C 272.153,84.1151 268.153,85.6151 264.5,88C 265.5,88.3333 266.5,88.6667 267.5,89C 268.47,90.6797 269.47,92.1797 270.5,93.5C 266.452,94.2622 265.452,96.5955 267.5,100.5C 268.209,101.404 269.209,101.737 270.5,101.5C 270.5,102.5 270.5,103.5 270.5,104.5C 260.833,104.5 251.167,104.5 241.5,104.5C 241.5,102.833 241.5,101.167 241.5,99.5C 242.873,99.6567 244.207,99.49 245.5,99C 252.894,91.6346 261.561,86.3012 271.5,83C 273.387,82.2204 275.054,82.3871 276.5,83.5 Z"/></g>
<g><path style="opacity:1" fill="#d6d5d5" d="M 260.5,93.5 C 261.931,93.8807 262.764,94.8807 263,96.5C 263.419,95.3279 264.085,94.3279 265,93.5C 263.369,101.307 261.869,101.307 260.5,93.5 Z"/></g>
<g><path style="opacity:1" fill="#c6c6c7" d="M 270.5,93.5 C 269.071,94.2342 268.071,95.4009 267.5,97C 267.833,97.5 268.167,98 268.5,98.5C 269.696,98.1543 269.696,97.6543 268.5,97C 269.448,96.5172 270.448,96.3505 271.5,96.5C 271.833,99.5 270.5,100.833 267.5,100.5C 265.452,96.5955 266.452,94.2622 270.5,93.5 Z"/></g>
<g><path style="opacity:1" fill="#87833a" d="M 280.5,96.5 C 282.143,96.4802 283.476,97.1468 284.5,98.5C 286.881,96.6075 289.547,96.1075 292.5,97C 290.694,97.8096 289.194,98.9762 288,100.5C 286.667,99.1667 285.333,99.1667 284,100.5C 283.055,100.095 282.388,99.428 282,98.5C 281.282,99.4506 280.449,99.6172 279.5,99C 280.252,98.3292 280.586,97.4959 280.5,96.5 Z"/></g>
<g><path style="opacity:0.664" fill="#0f0e10" d="M 193.5,104.5 C 184.5,104.5 175.5,104.5 166.5,104.5C 166.918,103.778 167.584,103.278 168.5,103C 165.774,102.818 163.107,102.318 160.5,101.5C 167.468,100.503 174.468,100.17 181.5,100.5C 186.79,98.2173 190.79,99.5507 193.5,104.5 Z"/></g>
<g><path style="opacity:1" fill="#7d7a31" d="M 339.5,104.5 C 342.422,103.25 345.089,103.917 347.5,106.5C 347.167,106.833 346.833,107.167 346.5,107.5C 344.261,106.212 341.928,105.212 339.5,104.5 Z"/></g>
<g><path style="opacity:1" fill="#706d38" d="M 367.5,103.5 C 369.648,103.389 369.981,104.056 368.5,105.5C 366.966,106.736 365.3,107.236 363.5,107C 365.319,106.26 366.652,105.093 367.5,103.5 Z"/></g>
<g><path style="opacity:1" fill="#585631" d="M 349.5,105.5 C 353.713,106.457 357.713,106.791 361.5,106.5C 359.293,108.029 356.793,108.695 354,108.5C 352.167,108.167 350.333,107.833 348.5,107.5C 348.863,106.817 349.196,106.15 349.5,105.5 Z"/></g>
<g><path style="opacity:1" fill="#4e4c2e" d="M 39.5,103.5 C 46.7145,106.935 54.0478,107.269 61.5,104.5C 63.7826,105.85 65.7826,105.517 67.5,103.5C 67.4894,105.017 66.8228,106.184 65.5,107C 63.5812,108.934 62.0812,108.767 61,106.5C 59.2467,107.627 57.4134,108.627 55.5,109.5C 49.4708,109.437 43.8042,107.604 38.5,104C 38.7284,103.601 39.0618,103.435 39.5,103.5 Z"/></g>
</svg>
