<?xml version="1.0" encoding="UTF-8"?>
<!DOCTYPE svg PUBLIC "-//W3C//DTD SVG 1.1//EN" "http://www.w3.org/Graphics/SVG/1.1/DTD/svg11.dtd">
<svg xmlns="http://www.w3.org/2000/svg" version="1.1" width="450px" height="113px" style="shape-rendering:geometricPrecision; text-rendering:geometricPrecision; image-rendering:optimizeQuality; fill-rule:evenodd; clip-rule:evenodd" xmlns:xlink="http://www.w3.org/1999/xlink">
<g><path style="opacity:0.006" fill="#121111" d="M 181.5,21.5 C 181.611,22.1174 181.944,22.6174 182.5,23C 174.833,23.3333 167.167,23.6667 159.5,24C 150.113,25.3473 140.779,26.6806 131.5,28C 147.831,22.7976 164.497,20.631 181.5,21.5 Z"/></g>
<g><path style="opacity:1" fill="#bab9b7" d="M 160.5,25.5 C 168.316,24.5076 176.316,24.1743 184.5,24.5C 187.287,25.4767 190.287,25.81 193.5,25.5C 193.5,26.5 193.5,27.5 193.5,28.5C 185.268,26.8192 176.934,26.1526 168.5,26.5C 165.833,26.1667 163.167,25.8333 160.5,25.5 Z"/></g>
<g><path style="opacity:0.974" fill="#222323" d="M 155.5,25.5 C 151.895,27.4719 148.895,30.1385 146.5,33.5C 146.565,33.0618 146.399,32.7284 146,32.5C 145.683,34.3008 145.016,34.6341 144,33.5C 140.829,34.5364 137.829,35.8697 135,37.5C 132.821,36.1602 132.321,36.4935 133.5,38.5C 131.896,39.287 131.229,40.6203 131.5,42.5C 130.662,42.1583 130.328,41.4916 130.5,40.5C 130.611,38.3523 129.944,38.019 128.5,39.5C 127.548,41.0453 127.215,42.712 127.5,44.5C 126.779,46.3818 125.779,46.7152 124.5,45.5C 127.27,36.2383 125.104,35.2383 118,42.5C 117.692,41.6919 117.192,41.0253 116.5,40.5C 115.575,41.6405 114.741,41.6405 114,40.5C 112.667,41.1667 111.667,42.1667 111,43.5C 110.107,42.9186 109.107,42.5852 108,42.5C 105.409,43.3784 102.743,44.3784 100,45.5C 99.6924,44.6919 99.1924,44.0253 98.5,43.5C 97.332,46.4689 95.9987,46.8022 94.5,44.5C 91.9372,46.3354 91.9372,48.0021 94.5,49.5C 94.9528,50.4584 95.6195,51.2917 96.5,52C 99.8333,52.3333 103.167,52.6667 106.5,53C 95.6288,54.2392 84.7955,55.4058 74,56.5C 72.4815,55.8366 71.3149,54.8366 70.5,53.5C 74.8133,52.0101 78.8133,50.0101 82.5,47.5C 84.5739,46.4861 86.5739,45.4861 88.5,44.5C 109.842,35.2427 132.176,28.9094 155.5,25.5 Z"/></g>
<g><path style="opacity:0.008" fill="#1a1918" d="M 128.5,29.5 C 128.897,28.475 129.563,28.3083 130.5,29C 129.906,29.4643 129.239,29.631 128.5,29.5 Z"/></g>
<g><path style="opacity:0.004" fill="#302f30" d="M 123.5,30.5 C 124.601,29.4017 125.934,29.235 127.5,30C 126.207,30.49 124.873,30.6567 123.5,30.5 Z"/></g>
<g><path style="opacity:0.004" fill="#222021" d="M 123.5,30.5 C 122.749,31.5735 121.749,31.7401 120.5,31C 121.448,30.5172 122.448,30.3505 123.5,30.5 Z"/></g>
<g><path style="opacity:0.004" fill="#1f1f20" d="M 117.5,32.5 C 117.897,31.475 118.563,31.3083 119.5,32C 118.906,32.4643 118.239,32.631 117.5,32.5 Z"/></g>
<g><path style="opacity:0.008" fill="#1a1a1a" d="M 114.5,33.5 C 114.897,32.475 115.563,32.3083 116.5,33C 115.906,33.4643 115.239,33.631 114.5,33.5 Z"/></g>
<g><path style="opacity:0.004" fill="#2b2a2b" d="M 109.5,34.5 C 110.601,33.4017 111.934,33.235 113.5,34C 112.207,34.49 110.873,34.6567 109.5,34.5 Z"/></g>
<g><path style="opacity:0.004" fill="#454647" d="M 107.5,34.5 C 108.833,35.1667 108.833,35.1667 107.5,34.5 Z"/></g>
<g><path style="opacity:0.004" fill="#1d1c1c" d="M 104.5,36.5 C 105.209,35.596 106.209,35.2627 107.5,35.5C 106.791,36.404 105.791,36.7373 104.5,36.5 Z"/></g>
<g><path style="opacity:1" fill="#e2dad9" d="M 155.5,25.5 C 156.167,25.5 156.833,25.5 157.5,25.5C 155.229,27.2659 153.063,29.2659 151,31.5C 150.056,34.3471 150.556,36.8471 152.5,39C 156.053,39.5976 159.386,38.9309 162.5,37C 161.062,36.7811 159.729,36.2811 158.5,35.5C 158.709,34.914 159.043,34.414 159.5,34C 162.146,33.5026 164.813,33.3359 167.5,33.5C 167.663,35.8568 167.497,38.1902 167,40.5C 165.284,41.5523 164.284,40.8856 164,38.5C 158.005,42.3481 152.171,42.3481 146.5,38.5C 146.5,36.8333 146.5,35.1667 146.5,33.5C 148.895,30.1385 151.895,27.4719 155.5,25.5 Z"/></g>
<g><path style="opacity:0.004" fill="#181817" d="M 101.5,37.5 C 102.209,36.596 103.209,36.2627 104.5,36.5C 103.791,37.404 102.791,37.7373 101.5,37.5 Z"/></g>
<g><path style="opacity:1" fill="#a61c17" d="M 157.5,25.5 C 158.5,25.5 159.5,25.5 160.5,25.5C 163.167,25.8333 165.833,26.1667 168.5,26.5C 174.08,29.9698 175.913,34.9698 174,41.5C 172.506,44.3135 170.34,46.3135 167.5,47.5C 159.47,50.1681 152.636,48.5015 147,42.5C 146.51,41.2068 146.343,39.8734 146.5,38.5C 152.171,42.3481 158.005,42.3481 164,38.5C 164.284,40.8856 165.284,41.5523 167,40.5C 167.497,38.1902 167.663,35.8568 167.5,33.5C 164.813,33.3359 162.146,33.5026 159.5,34C 159.043,34.414 158.709,34.914 158.5,35.5C 159.729,36.2811 161.062,36.7811 162.5,37C 159.386,38.9309 156.053,39.5976 152.5,39C 150.556,36.8471 150.056,34.3471 151,31.5C 153.063,29.2659 155.229,27.2659 157.5,25.5 Z"/></g>
<g><path style="opacity:1" fill="#888888" d="M 133.5,38.5 C 134.5,38.5 135.5,38.5 136.5,38.5C 136.923,41.2882 135.923,43.2882 133.5,44.5C 132.478,44.1445 131.811,43.4778 131.5,42.5C 131.229,40.6203 131.896,39.287 133.5,38.5 Z"/></g>
<g><path style="opacity:1" fill="#a3a3a3" d="M 130.5,40.5 C 129.978,42.2191 128.978,43.5525 127.5,44.5C 127.215,42.712 127.548,41.0453 128.5,39.5C 129.944,38.019 130.611,38.3523 130.5,40.5 Z"/></g>
<g><path style="opacity:0.287" fill="#979796" d="M 306.5,52.5 C 305.508,52.6716 304.842,52.3382 304.5,51.5C 304.172,46.1254 304.505,40.7921 305.5,35.5C 306.495,41.1278 306.829,46.7945 306.5,52.5 Z"/></g>
<g><path style="opacity:0.004" fill="#131110" d="M 101.5,37.5 C 97.1444,39.6851 92.811,42.0184 88.5,44.5C 86.4352,44.5172 84.4352,44.8505 82.5,45.5C 87.9227,40.9631 94.2561,38.2964 101.5,37.5 Z"/></g>
<g><path style="opacity:0.888" fill="#e4e1df" d="M 288.5,50.5 C 281.5,51.8333 274.5,51.8333 267.5,50.5C 269.857,50.6633 272.19,50.4966 274.5,50C 273.001,47.6721 271.334,45.5054 269.5,43.5C 268.284,41.5491 266.618,40.0491 264.5,39C 261.023,38.3371 257.523,37.8371 254,37.5C 244.556,39.4551 235.056,41.2885 225.5,43C 223.579,43.3603 221.912,44.1936 220.5,45.5C 221.325,46.3857 222.325,46.719 223.5,46.5C 224.861,48.8505 226.194,51.1838 227.5,53.5C 225.33,52.1618 223.664,50.3284 222.5,48C 221.207,47.51 219.873,47.3433 218.5,47.5C 210.648,47.8254 202.982,47.492 195.5,46.5C 196.833,46.5 198.167,46.5 199.5,46.5C 199.077,44.2188 199.744,42.5521 201.5,41.5C 219.519,41.2641 237.185,38.5974 254.5,33.5C 265.326,35.9173 274.326,41.4173 281.5,50C 283.134,50.4935 284.801,50.6602 286.5,50.5C 287.167,45.1667 287.833,45.1667 288.5,50.5 Z"/></g>
<g><path style="opacity:0.906" fill="#0e0e0f" d="M 21.5,40.5 C 22.209,41.404 23.209,41.7373 24.5,41.5C 26.3237,43.0234 28.4904,44.0234 31,44.5C 33.4979,44.0828 35.9979,43.7495 38.5,43.5C 38.56,44.0431 38.8933,44.3764 39.5,44.5C 42.7152,43.0269 46.0486,42.5269 49.5,43C 48.5842,43.2784 47.9175,43.7784 47.5,44.5C 47.5,44.8333 47.5,45.1667 47.5,45.5C 47.2388,49.0442 48.9055,50.8775 52.5,51C 51.944,51.3826 51.6107,51.8826 51.5,52.5C 50.1667,52.5 48.8333,52.5 47.5,52.5C 32.6728,50.7695 17.6728,48.4362 2.5,45.5C 7.09994,43.8688 12.0999,42.8688 17.5,42.5C 15.8509,40.3501 14.0176,38.3501 12,36.5C 11.2195,35.0563 11.3861,33.723 12.5,32.5C 15.2619,35.3896 18.2619,38.0563 21.5,40.5 Z"/></g>
<g><path style="opacity:1" fill="#232323" d="M 64.5,52.5 C 60.1667,52.5 55.8333,52.5 51.5,52.5C 51.6107,51.8826 51.944,51.3826 52.5,51C 48.9055,50.8775 47.2388,49.0442 47.5,45.5C 48.8333,45.1667 48.8333,44.8333 47.5,44.5C 47.9175,43.7784 48.5842,43.2784 49.5,43C 46.0486,42.5269 42.7152,43.0269 39.5,44.5C 38.8933,44.3764 38.56,44.0431 38.5,43.5C 35.7268,42.2022 32.8935,40.8689 30,39.5C 28.0517,40.1094 26.2184,40.776 24.5,41.5C 23.209,41.7373 22.209,41.404 21.5,40.5C 23.9218,38.8748 26.5885,37.5415 29.5,36.5C 33.0839,31.4715 37.7506,29.9715 43.5,32C 45.0368,33.1096 45.7035,34.6096 45.5,36.5C 54.6309,36.6328 58.9643,41.2995 58.5,50.5C 60.6568,51.0505 62.6568,51.7171 64.5,52.5 Z"/></g>
<g><path style="opacity:1" fill="#abaaab" d="M 124.5,45.5 C 122.629,45.1412 121.129,44.1412 120,42.5C 119.64,44.4211 118.806,46.0878 117.5,47.5C 117.167,46.1667 116.833,44.8333 116.5,43.5C 115.614,44.325 115.281,45.325 115.5,46.5C 113.61,46.7035 112.11,46.0368 111,44.5C 109.582,47.001 108.582,46.6677 108,43.5C 107.71,45.0441 107.044,46.3774 106,47.5C 105.667,47.1667 105.333,46.8333 105,46.5C 103.333,49.1667 101.667,49.1667 100,46.5C 99.6924,47.3081 99.1924,47.9747 98.5,48.5C 97.2836,47.9984 96.1169,47.6651 95,47.5C 94.5357,48.0944 94.369,48.7611 94.5,49.5C 91.9372,48.0021 91.9372,46.3354 94.5,44.5C 95.9987,46.8022 97.332,46.4689 98.5,43.5C 99.1924,44.0253 99.6924,44.6919 100,45.5C 102.743,44.3784 105.409,43.3784 108,42.5C 109.107,42.5852 110.107,42.9186 111,43.5C 111.667,42.1667 112.667,41.1667 114,40.5C 114.741,41.6405 115.575,41.6405 116.5,40.5C 117.192,41.0253 117.692,41.6919 118,42.5C 125.104,35.2383 127.27,36.2383 124.5,45.5 Z"/></g>
<g><path style="opacity:1" fill="#171717" d="M 122.5,39.5 C 125.797,39.3287 126.131,39.9954 123.5,41.5C 125.762,43.5076 125.262,43.841 122,42.5C 121.53,41.4232 121.697,40.4232 122.5,39.5 Z"/></g>
<g><path style="opacity:0.412" fill="#b5a7aa" d="M 269.5,43.5 C 267.22,42.3599 264.886,41.1932 262.5,40C 260.333,39.8333 258.167,39.6667 256,39.5C 245.234,42.066 234.401,44.3993 223.5,46.5C 222.325,46.719 221.325,46.3857 220.5,45.5C 221.912,44.1936 223.579,43.3603 225.5,43C 235.056,41.2885 244.556,39.4551 254,37.5C 257.523,37.8371 261.023,38.3371 264.5,39C 266.618,40.0491 268.284,41.5491 269.5,43.5 Z"/></g>
<g><path style="opacity:1" fill="#1f1f1f" d="M 201.5,41.5 C 199.744,42.5521 199.077,44.2188 199.5,46.5C 198.167,46.5 196.833,46.5 195.5,46.5C 189.79,46.471 184.123,46.971 178.5,48C 192.006,48.827 205.34,48.6604 218.5,47.5C 219.873,47.3433 221.207,47.51 222.5,48C 223.664,50.3284 225.33,52.1618 227.5,53.5C 227.5,53.8333 227.5,54.1667 227.5,54.5C 224.927,55.5552 222.261,55.7218 219.5,55C 220.738,54.31 220.738,53.81 219.5,53.5C 219.5,52.5 219.5,51.5 219.5,50.5C 214.493,50.2491 209.493,49.9157 204.5,49.5C 204.5,50.8333 204.5,52.1667 204.5,53.5C 200.742,54.3958 196.909,55.0624 193,55.5C 190.698,55.3996 188.698,54.733 187,53.5C 186.517,54.448 186.351,55.448 186.5,56.5C 184.833,56.5 183.167,56.5 181.5,56.5C 181.649,55.448 181.483,54.448 181,53.5C 178.952,56.8064 176.618,57.1398 174,54.5C 170.964,55.76 167.964,56.76 165,57.5C 164.5,57.1667 164,56.8333 163.5,56.5C 164.248,54.5841 164.248,52.5841 163.5,50.5C 165.766,50.1412 167.599,50.8078 169,52.5C 169.368,51.09 170.201,50.09 171.5,49.5C 173.198,50.6808 174.865,50.6808 176.5,49.5C 173.473,48.7508 170.473,48.0841 167.5,47.5C 170.34,46.3135 172.506,44.3135 174,41.5C 175.913,34.9698 174.08,29.9698 168.5,26.5C 176.934,26.1526 185.268,26.8192 193.5,28.5C 193.5,27.5 193.5,26.5 193.5,25.5C 190.287,25.81 187.287,25.4767 184.5,24.5C 184.144,22.8102 183.144,21.8102 181.5,21.5C 181.5,20.5 181.5,19.5 181.5,18.5C 182.873,18.6567 184.207,18.49 185.5,18C 184.396,16.8687 184.729,16.0354 186.5,15.5C 188.674,18.0596 190.841,18.0596 193,15.5C 194.338,16.5061 195.671,17.5061 197,18.5C 197.133,21.4138 198.3,23.7471 200.5,25.5C 201.495,30.7921 201.828,36.1254 201.5,41.5 Z"/></g>
<g><path style="opacity:1" fill="#6c4c4a" d="M 181.5,36.5 C 187.803,36.9239 189.469,39.7572 186.5,45C 178.208,45.89 176.542,43.0567 181.5,36.5 Z"/></g>
<g><path style="opacity:1" fill="#711611" d="M 181.5,38.5 C 182.873,38.3433 184.207,38.51 185.5,39C 182.833,39.6667 182.833,40.3333 185.5,41C 182.833,42 182.833,43 185.5,44C 184.216,44.6838 183.049,44.5171 182,43.5C 181.506,41.8659 181.34,40.1992 181.5,38.5 Z"/></g>
<g><path style="opacity:0.004" fill="#3e3f40" d="M 82.5,45.5 C 82.5,46.1667 82.5,46.8333 82.5,47.5C 80.0673,47.2144 80.0673,46.5477 82.5,45.5 Z"/></g>
<g><path style="opacity:1" fill="#1a1a1a" d="M 2.5,47.5 C 4.12377,47.3601 5.29044,48.0267 6,49.5C 6.71894,53.1454 7.21894,56.8121 7.5,60.5C 6.5,60.5 5.5,60.5 4.5,60.5C 3.94119,56.1474 3.27453,51.814 2.5,47.5 Z"/></g>
<g><path style="opacity:1" fill="#dddcd7" d="M 2.5,45.5 C 17.6728,48.4362 32.6728,50.7695 47.5,52.5C 43.4023,53.2719 40.069,55.2719 37.5,58.5C 33.48,61.2002 30.48,64.8669 28.5,69.5C 20.9139,67.208 13.2473,65.208 5.5,63.5C 4.89022,62.609 4.55688,61.609 4.5,60.5C 5.5,60.5 6.5,60.5 7.5,60.5C 7.21894,56.8121 6.71894,53.1454 6,49.5C 5.29044,48.0267 4.12377,47.3601 2.5,47.5C 2.5,46.8333 2.5,46.1667 2.5,45.5 Z"/></g>
<g><path style="opacity:1" fill="#5e5b59" d="M 195.5,46.5 C 202.982,47.492 210.648,47.8254 218.5,47.5C 205.34,48.6604 192.006,48.827 178.5,48C 184.123,46.971 189.79,46.471 195.5,46.5 Z"/></g>
<g><path style="opacity:1" fill="#5b5b5c" d="M 266.5,48.5 C 261.928,46.5699 260.928,47.4033 263.5,51C 263.167,51.5 262.833,52 262.5,52.5C 260.54,51.277 258.707,49.9436 257,48.5C 256.768,49.7375 256.268,50.7375 255.5,51.5C 255.227,49.549 255.893,48.049 257.5,47C 260.167,46.3333 262.833,46.3333 265.5,47C 266.056,47.3826 266.389,47.8826 266.5,48.5 Z"/></g>
<g><path style="opacity:0.933" fill="#f5f4f0" d="M 358.5,48.5 C 354.167,48.5 349.833,48.5 345.5,48.5C 349.881,46.0112 354.214,46.0112 358.5,48.5 Z"/></g>
<g><path style="opacity:1" fill="#070603" d="M 344.5,48.5 C 348.982,49.3255 353.649,49.8255 358.5,50C 359.167,50.6667 359.833,51.3333 360.5,52C 354.103,51.1352 347.77,51.6352 341.5,53.5C 342.263,51.6316 343.263,49.9649 344.5,48.5 Z"/></g>
<g><path style="opacity:1" fill="#de5150" d="M 219.5,53.5 C 214.5,53.5 209.5,53.5 204.5,53.5C 204.5,52.1667 204.5,50.8333 204.5,49.5C 209.493,49.9157 214.493,50.2491 219.5,50.5C 219.5,51.5 219.5,52.5 219.5,53.5 Z"/></g>
<g><path style="opacity:1" fill="#181718" d="M 146.5,33.5 C 146.5,35.1667 146.5,36.8333 146.5,38.5C 146.343,39.8734 146.51,41.2068 147,42.5C 152.636,48.5015 159.47,50.1681 167.5,47.5C 170.473,48.0841 173.473,48.7508 176.5,49.5C 174.865,50.6808 173.198,50.6808 171.5,49.5C 170.201,50.09 169.368,51.09 169,52.5C 167.599,50.8078 165.766,50.1412 163.5,50.5C 164.248,52.5841 164.248,54.5841 163.5,56.5C 164,56.8333 164.5,57.1667 165,57.5C 167.964,56.76 170.964,55.76 174,54.5C 176.618,57.1398 178.952,56.8064 181,53.5C 181.483,54.448 181.649,55.448 181.5,56.5C 183.167,56.5 184.833,56.5 186.5,56.5C 190.437,56.2065 194.27,56.5399 198,57.5C 199.667,56.8333 201.333,56.1667 203,55.5C 212.265,56.1545 221.432,56.8212 230.5,57.5C 221.161,57.3335 211.827,57.5002 202.5,58C 201.29,59.0391 200.29,60.2058 199.5,61.5C 196.625,64.5056 195.625,67.8389 196.5,71.5C 200.647,72.3247 204.981,72.8247 209.5,73C 208.415,75.172 207.081,77.172 205.5,79C 201.179,79.499 196.846,79.6657 192.5,79.5C 192.813,75.9581 192.479,72.6248 191.5,69.5C 191.823,65.774 191.489,62.1073 190.5,58.5C 186.076,61.6832 184.076,66.0165 184.5,71.5C 180.915,72.2657 178.915,74.5991 178.5,78.5C 178.167,78.5 177.833,78.5 177.5,78.5C 177.5,77.8333 177.167,77.5 176.5,77.5C 178.167,74.1667 179.833,70.8333 181.5,67.5C 183.109,64.4704 185.109,61.6371 187.5,59C 180.651,57.3368 175.984,59.8368 173.5,66.5C 171.425,69.6456 169.592,72.9789 168,76.5C 167.501,71.5111 167.334,66.5111 167.5,61.5C 161.636,63.2062 159.302,67.2062 160.5,73.5C 159.448,73.3505 158.448,73.5172 157.5,74C 156.373,75.7533 155.373,77.5866 154.5,79.5C 155.689,80.4287 157.022,80.762 158.5,80.5C 159.5,80.5 160.5,80.5 161.5,80.5C 161.5,82.8333 161.5,85.1667 161.5,87.5C 160.549,86.0813 160.216,84.4147 160.5,82.5C 156.917,82.2319 153.584,82.8986 150.5,84.5C 151.441,82.9505 152.107,81.2838 152.5,79.5C 154.869,73.6373 157.869,68.1373 161.5,63C 156.907,62.298 153.241,63.798 150.5,67.5C 149.833,67.5 149.167,67.5 148.5,67.5C 148.953,66.5416 149.619,65.7083 150.5,65C 150.272,64.6012 149.938,64.4346 149.5,64.5C 147.095,63.2318 144.428,62.5651 141.5,62.5C 143.291,61.6087 145.124,60.6087 147,59.5C 147.667,57.1667 147.667,54.8333 147,52.5C 143.273,52.0412 139.439,52.0412 135.5,52.5C 135.662,54.5273 135.495,56.5273 135,58.5C 134.107,59.0814 133.107,59.4148 132,59.5C 119.481,58.3708 106.981,58.7042 94.5,60.5C 88.8514,59.5396 83.1847,59.3729 77.5,60C 84.6583,61.4622 91.9916,61.9622 99.5,61.5C 92.5702,61.8761 85.7369,62.8761 79,64.5C 77.9702,62.6536 76.8036,60.9869 75.5,59.5C 72.795,57.4884 70.1283,55.4884 67.5,53.5C 68.5,53.5 69.5,53.5 70.5,53.5C 71.3149,54.8366 72.4815,55.8366 74,56.5C 84.7955,55.4058 95.6288,54.2392 106.5,53C 103.167,52.6667 99.8333,52.3333 96.5,52C 95.6195,51.2917 94.9528,50.4584 94.5,49.5C 94.369,48.7611 94.5357,48.0944 95,47.5C 96.1169,47.6651 97.2836,47.9984 98.5,48.5C 99.1924,47.9747 99.6924,47.3081 100,46.5C 101.667,49.1667 103.333,49.1667 105,46.5C 105.333,46.8333 105.667,47.1667 106,47.5C 107.044,46.3774 107.71,45.0441 108,43.5C 108.582,46.6677 109.582,47.001 111,44.5C 112.11,46.0368 113.61,46.7035 115.5,46.5C 115.281,45.325 115.614,44.325 116.5,43.5C 116.833,44.8333 117.167,46.1667 117.5,47.5C 118.806,46.0878 119.64,44.4211 120,42.5C 121.129,44.1412 122.629,45.1412 124.5,45.5C 125.779,46.7152 126.779,46.3818 127.5,44.5C 128.978,43.5525 129.978,42.2191 130.5,40.5C 130.328,41.4916 130.662,42.1583 131.5,42.5C 131.811,43.4778 132.478,44.1445 133.5,44.5C 135.923,43.2882 136.923,41.2882 136.5,38.5C 135.5,38.5 134.5,38.5 133.5,38.5C 132.321,36.4935 132.821,36.1602 135,37.5C 137.829,35.8697 140.829,34.5364 144,33.5C 145.016,34.6341 145.683,34.3008 146,32.5C 146.399,32.7284 146.565,33.0618 146.5,33.5 Z"/></g>
<g><path style="opacity:1" fill="#949594" d="M 142.5,37.5 C 143.496,37.4142 144.329,37.7476 145,38.5C 145.798,40.2588 145.631,41.9255 144.5,43.5C 143.518,38.2979 142.352,38.2979 141,43.5C 140,38.1667 139,38.1667 138,43.5C 137.506,41.8659 137.34,40.1992 137.5,38.5C 139.415,38.7845 141.081,38.4511 142.5,37.5 Z"/></g>
<g><path style="opacity:0.719" fill="#131314" d="M 266.5,48.5 C 267.338,48.8417 267.672,49.5084 267.5,50.5C 274.5,51.8333 281.5,51.8333 288.5,50.5C 293.787,51.3424 299.12,51.6757 304.5,51.5C 304.842,52.3382 305.508,52.6716 306.5,52.5C 316.809,53.747 327.142,54.747 337.5,55.5C 336.713,57.1042 335.38,57.7709 333.5,57.5C 318.581,55.2801 303.581,54.1134 288.5,54C 296.455,55.3278 304.455,56.1611 312.5,56.5C 292.668,56.1956 272.668,56.5289 252.5,57.5C 252.5,58.5 252.5,59.5 252.5,60.5C 248.846,60.9422 245.179,61.2756 241.5,61.5C 237.971,59.5772 233.971,58.9106 229.5,59.5C 229.833,58.8333 230.167,58.1667 230.5,57.5C 221.432,56.8212 212.265,56.1545 203,55.5C 201.333,56.1667 199.667,56.8333 198,57.5C 194.27,56.5399 190.437,56.2065 186.5,56.5C 186.351,55.448 186.517,54.448 187,53.5C 188.698,54.733 190.698,55.3996 193,55.5C 196.909,55.0624 200.742,54.3958 204.5,53.5C 209.5,53.5 214.5,53.5 219.5,53.5C 220.738,53.81 220.738,54.31 219.5,55C 222.261,55.7218 224.927,55.5552 227.5,54.5C 230.08,55.1156 232.747,55.4489 235.5,55.5C 238.269,55.4714 240.603,54.8048 242.5,53.5C 247.179,53.6658 251.845,53.4992 256.5,53C 255.944,52.6174 255.611,52.1174 255.5,51.5C 256.268,50.7375 256.768,49.7375 257,48.5C 258.707,49.9436 260.54,51.277 262.5,52.5C 262.833,52 263.167,51.5 263.5,51C 260.928,47.4033 261.928,46.5699 266.5,48.5 Z"/></g>
<g><path style="opacity:1" fill="#bfbfbc" d="M 333.5,57.5 C 333.5,58.1667 333.5,58.8333 333.5,59.5C 327.521,58.6693 321.521,58.0027 315.5,57.5C 314.791,56.596 313.791,56.2627 312.5,56.5C 304.455,56.1611 296.455,55.3278 288.5,54C 303.581,54.1134 318.581,55.2801 333.5,57.5 Z"/></g>
<g><path style="opacity:0.988" fill="#a7a6a6" d="M 227.5,54.5 C 227.5,54.1667 227.5,53.8333 227.5,53.5C 232.5,53.5 237.5,53.5 242.5,53.5C 240.603,54.8048 238.269,55.4714 235.5,55.5C 232.747,55.4489 230.08,55.1156 227.5,54.5 Z"/></g>
<g><path style="opacity:1" fill="#484745" d="M 344.5,48.5 C 344.833,48.5 345.167,48.5 345.5,48.5C 349.833,48.5 354.167,48.5 358.5,48.5C 362.696,51.7593 367.03,54.7593 371.5,57.5C 371.365,59.5542 372.032,61.2209 373.5,62.5C 372.508,62.3284 371.842,62.6618 371.5,63.5C 367.577,60.7064 363.243,58.7064 358.5,57.5C 359.795,56.9694 360.462,55.6361 360.5,53.5C 355.5,53.5 350.5,53.5 345.5,53.5C 345.5,54.5 345.5,55.5 345.5,56.5C 349.702,56.1832 353.702,56.5166 357.5,57.5C 353.154,57.3343 348.821,57.501 344.5,58C 340.952,59.604 337.618,61.4374 334.5,63.5C 334.5,62.8333 334.167,62.5 333.5,62.5C 334.833,61.5 334.833,60.5 333.5,59.5C 333.5,58.8333 333.5,58.1667 333.5,57.5C 335.38,57.7709 336.713,57.1042 337.5,55.5C 338.514,54.3263 339.847,53.6596 341.5,53.5C 347.77,51.6352 354.103,51.1352 360.5,52C 359.833,51.3333 359.167,50.6667 358.5,50C 353.649,49.8255 348.982,49.3255 344.5,48.5 Z"/></g>
<g><path style="opacity:1" fill="#bfbb9d" d="M 358.5,57.5 C 358.167,57.5 357.833,57.5 357.5,57.5C 353.702,56.5166 349.702,56.1832 345.5,56.5C 345.5,55.5 345.5,54.5 345.5,53.5C 350.5,53.5 355.5,53.5 360.5,53.5C 360.462,55.6361 359.795,56.9694 358.5,57.5 Z"/></g>
<g><path style="opacity:1" fill="#464543" d="M 47.5,52.5 C 48.8333,52.5 50.1667,52.5 51.5,52.5C 55.8333,52.5 60.1667,52.5 64.5,52.5C 65.791,52.2627 66.791,52.596 67.5,53.5C 70.1283,55.4884 72.795,57.4884 75.5,59.5C 75.1667,60.1667 74.8333,60.8333 74.5,61.5C 74.5,62.1667 74.5,62.8333 74.5,63.5C 66.3859,57.8339 57.3859,56.0005 47.5,58C 43.1296,59.5486 39.4629,62.0486 36.5,65.5C 36.8333,64.1667 37.1667,62.8333 37.5,61.5C 36.1667,60.5 36.1667,59.5 37.5,58.5C 40.069,55.2719 43.4023,53.2719 47.5,52.5 Z"/></g>
<g><path style="opacity:1" fill="#c4c09f" d="M 48.5,53.5 C 53.5,53.5 58.5,53.5 63.5,53.5C 63.6495,54.552 63.4828,55.552 63,56.5C 61.9335,54.7174 60.4335,54.2174 58.5,55C 59.5,55.3333 60.5,55.6667 61.5,56C 57.1794,56.499 52.8461,56.6657 48.5,56.5C 48.5,55.5 48.5,54.5 48.5,53.5 Z"/></g>
<g><path style="opacity:1" fill="#242425" d="M 141.5,62.5 C 134.059,63.7472 126.559,63.7472 119,62.5C 111.785,63.5958 104.618,64.9291 97.5,66.5C 101.452,67.4938 105.452,68.1604 109.5,68.5C 109.5,69.5 109.5,70.5 109.5,71.5C 112.084,71.4312 114.084,70.2645 115.5,68C 116.833,67.3333 118.167,67.3333 119.5,68C 112.743,74.7502 104.909,79.9169 96,83.5C 95.5,83.3333 95,83.1667 94.5,83C 95.2061,79.8688 95.8728,76.7021 96.5,73.5C 96.1667,72.8333 95.8333,72.1667 95.5,71.5C 97.4233,70.6922 99.4233,70.1922 101.5,70C 99.3225,68.7978 96.9892,68.2978 94.5,68.5C 94.5,67.1667 94.5,65.8333 94.5,64.5C 103.175,63.475 111.842,62.3084 120.5,61C 113.491,60.5774 106.491,60.7441 99.5,61.5C 91.9916,61.9622 84.6583,61.4622 77.5,60C 83.1847,59.3729 88.8514,59.5396 94.5,60.5C 106.981,58.7042 119.481,58.3708 132,59.5C 133.107,59.4148 134.107,59.0814 135,58.5C 135.495,56.5273 135.662,54.5273 135.5,52.5C 139.439,52.0412 143.273,52.0412 147,52.5C 147.667,54.8333 147.667,57.1667 147,59.5C 145.124,60.6087 143.291,61.6087 141.5,62.5 Z"/></g>
<g><path style="opacity:1" fill="#0d0d0e" d="M 315.5,57.5 C 321.521,58.0027 327.521,58.6693 333.5,59.5C 334.833,60.5 334.833,61.5 333.5,62.5C 331.5,64.8333 329.5,67.1667 327.5,69.5C 326.778,69.9175 326.278,70.5842 326,71.5C 325.617,70.944 325.117,70.6107 324.5,70.5C 315.651,70.1736 306.984,70.507 298.5,71.5C 292.31,71.1771 286.31,71.5104 280.5,72.5C 267.793,73.0189 255.126,74.0189 242.5,75.5C 247.848,73.6692 253.181,71.5026 258.5,69C 263.42,67.7497 268.42,67.2497 273.5,67.5C 273.5,66.1667 273.5,64.8333 273.5,63.5C 272.5,63.5 271.5,63.5 270.5,63.5C 271.091,62.8485 271.757,62.1818 272.5,61.5C 271.395,60.1076 270.061,58.941 268.5,58C 283.184,57.7113 297.851,58.2113 312.5,59.5C 314.5,59.3333 316.5,59.1667 318.5,59C 316.833,58.6667 315.167,58.3333 313.5,58C 314.094,57.5357 314.761,57.369 315.5,57.5 Z"/></g>
<g><path style="opacity:1" fill="#c6c3c0" d="M 230.5,57.5 C 230.167,58.1667 229.833,58.8333 229.5,59.5C 222.825,59.3337 216.158,59.5004 209.5,60C 208.707,61.0852 208.04,62.2519 207.5,63.5C 211.313,64.1671 214.979,64.8337 218.5,65.5C 214.5,65.5 210.5,65.5 206.5,65.5C 206.5,64.5 206.5,63.5 206.5,62.5C 204.05,62.702 201.717,62.3686 199.5,61.5C 200.29,60.2058 201.29,59.0391 202.5,58C 211.827,57.5002 221.161,57.3335 230.5,57.5 Z"/></g>
<g><path style="opacity:1" fill="#272729" d="M 312.5,56.5 C 313.791,56.2627 314.791,56.596 315.5,57.5C 314.761,57.369 314.094,57.5357 313.5,58C 315.167,58.3333 316.833,58.6667 318.5,59C 316.5,59.1667 314.5,59.3333 312.5,59.5C 297.851,58.2113 283.184,57.7113 268.5,58C 270.061,58.941 271.395,60.1076 272.5,61.5C 271.757,62.1818 271.091,62.8485 270.5,63.5C 264.06,64.4224 257.726,65.9224 251.5,68C 243.325,72.9418 234.658,76.2751 225.5,78C 235.617,73.853 245.617,69.5197 255.5,65C 253.656,63.8179 251.823,62.6512 250,61.5C 248.941,61.6301 248.108,62.1301 247.5,63C 234.82,63.8326 222.154,63.666 209.5,62.5C 220.146,61.5013 230.813,61.168 241.5,61.5C 245.179,61.2756 248.846,60.9422 252.5,60.5C 252.5,59.5 252.5,58.5 252.5,57.5C 272.668,56.5289 292.668,56.1956 312.5,56.5 Z"/></g>
<g><path style="opacity:1" fill="#140d0f" d="M 74.5,63.5 C 83.7551,75.2326 83.7551,86.8992 74.5,98.5C 73.7784,98.9175 73.2784,99.5842 73,100.5C 71.927,99.7203 70.7604,99.887 69.5,101C 70.0606,102.566 69.3939,103.899 67.5,105C 66.8333,105.667 66.1667,105.667 65.5,105C 66.6956,104.346 66.6956,103.846 65.5,103.5C 64.4822,104.193 63.4822,104.859 62.5,105.5C 57.2904,106.532 52.2904,106.532 47.5,105.5C 47.1667,105.5 46.8333,105.5 46.5,105.5C 44.8185,103.992 42.8185,102.992 40.5,102.5C 40.9175,101.778 41.5842,101.278 42.5,101C 41.2396,99.887 40.073,99.7203 39,100.5C 38.7216,99.5842 38.2216,98.9175 37.5,98.5C 30.4869,90.7104 28.6536,81.7104 32,71.5C 32.7918,68.8936 34.2918,66.8936 36.5,65.5C 39.4629,62.0486 43.1296,59.5486 47.5,58C 57.3859,56.0005 66.3859,57.8339 74.5,63.5 Z"/></g>
<g><path style="opacity:1" fill="#141415" d="M 75.5,59.5 C 76.8036,60.9869 77.9702,62.6536 79,64.5C 85.7369,62.8761 92.5702,61.8761 99.5,61.5C 106.491,60.7441 113.491,60.5774 120.5,61C 111.842,62.3084 103.175,63.475 94.5,64.5C 94.5,65.8333 94.5,67.1667 94.5,68.5C 96.9892,68.2978 99.3225,68.7978 101.5,70C 99.4233,70.1922 97.4233,70.6922 95.5,71.5C 95.8333,72.1667 96.1667,72.8333 96.5,73.5C 95.8728,76.7021 95.2061,79.8688 94.5,83C 95,83.1667 95.5,83.3333 96,83.5C 104.909,79.9169 112.743,74.7502 119.5,68C 118.167,67.3333 116.833,67.3333 115.5,68C 114.084,70.2645 112.084,71.4312 109.5,71.5C 109.5,70.5 109.5,69.5 109.5,68.5C 105.452,68.1604 101.452,67.4938 97.5,66.5C 104.618,64.9291 111.785,63.5958 119,62.5C 126.559,63.7472 134.059,63.7472 141.5,62.5C 144.428,62.5651 147.095,63.2318 149.5,64.5C 145.067,65.2145 141.4,67.2145 138.5,70.5C 137.114,74.376 134.281,76.376 130,76.5C 128.446,78.8962 127.946,81.2295 128.5,83.5C 129.873,83.3433 131.207,83.51 132.5,84C 131.139,85.5843 130.472,87.4176 130.5,89.5C 132.5,89.5 134.5,89.5 136.5,89.5C 132.702,90.4834 128.702,90.8168 124.5,90.5C 124.737,89.209 124.404,88.209 123.5,87.5C 123.893,85.7162 124.559,84.0495 125.5,82.5C 126.441,80.9505 127.107,79.2838 127.5,77.5C 128.879,74.6141 130.879,72.1141 133.5,70C 128.562,70.3045 124.562,72.4712 121.5,76.5C 112.514,77.6653 104.514,80.9987 97.5,86.5C 95.6612,87.7525 93.8278,87.7525 92,86.5C 93.3,82.7232 93.6333,78.7232 93,74.5C 92,75.8333 91,75.8333 90,74.5C 89.0853,75.3279 88.4186,76.3279 88,77.5C 87.9153,74.639 88.7486,71.9724 90.5,69.5C 88.6226,69.1369 86.4559,68.4703 84,67.5C 84.779,71.7579 85.6124,76.0913 86.5,80.5C 85.9588,82.5352 85.2922,84.5352 84.5,86.5C 83.7025,86.0431 83.3691,85.3764 83.5,84.5C 84.0809,75.3433 81.0809,67.6767 74.5,61.5C 74.8333,60.8333 75.1667,60.1667 75.5,59.5 Z"/></g>
<g><path style="opacity:1" fill="#120809" d="M 357.5,57.5 C 357.833,57.5 358.167,57.5 358.5,57.5C 363.243,58.7064 367.577,60.7064 371.5,63.5C 380.355,74.6692 380.688,86.0025 372.5,97.5C 372.565,97.0618 372.399,96.7284 372,96.5C 363.866,104.954 354.366,106.788 343.5,102C 344,101.833 344.5,101.667 345,101.5C 349.458,102.579 353.958,102.746 358.5,102C 348.558,103.133 340.724,99.6334 335,91.5C 335.333,93.1667 335.667,94.8333 336,96.5C 331.368,90.6407 328.868,83.9741 328.5,76.5C 329.153,71.5285 331.153,67.1951 334.5,63.5C 337.618,61.4374 340.952,59.604 344.5,58C 348.821,57.501 353.154,57.3343 357.5,57.5 Z"/></g>
<g><path style="opacity:1" fill="#aaa6a2" d="M 181.5,67.5 C 179.036,67.7243 176.369,67.391 173.5,66.5C 175.984,59.8368 180.651,57.3368 187.5,59C 185.109,61.6371 183.109,64.4704 181.5,67.5 Z"/></g>
<g><path style="opacity:1" fill="#ecebe9" d="M 191.5,69.5 C 191.664,72.1873 191.497,74.854 191,77.5C 187.591,76.3781 184.091,76.2114 180.5,77C 182.167,77.3333 183.833,77.6667 185.5,78C 183.19,78.4966 180.857,78.6633 178.5,78.5C 178.915,74.5991 180.915,72.2657 184.5,71.5C 184.076,66.0165 186.076,61.6832 190.5,58.5C 191.489,62.1073 191.823,65.774 191.5,69.5 Z"/></g>
<g><path style="opacity:1" fill="#f6f6f5" d="M 199.5,61.5 C 201.717,62.3686 204.05,62.702 206.5,62.5C 206.5,63.5 206.5,64.5 206.5,65.5C 210.5,65.5 214.5,65.5 218.5,65.5C 219.695,65.8656 220.361,66.699 220.5,68C 219.368,69.7645 218.368,71.5979 217.5,73.5C 216.226,72.8106 216.226,71.9772 217.5,71C 210.518,71.0873 203.518,71.2539 196.5,71.5C 195.625,67.8389 196.625,64.5056 199.5,61.5 Z"/></g>
<g><path style="opacity:0.931" fill="#141415" d="M 37.5,58.5 C 36.1667,59.5 36.1667,60.5 37.5,61.5C 28.1768,70.0987 26.0101,80.432 31,92.5C 32.2477,95.579 34.0811,98.2457 36.5,100.5C 37.2975,100.043 37.6309,99.3764 37.5,98.5C 38.2216,98.9175 38.7216,99.5842 39,100.5C 40.073,99.7203 41.2396,99.887 42.5,101C 41.5842,101.278 40.9175,101.778 40.5,102.5C 41.3479,104.093 42.6813,105.26 44.5,106C 45.4368,106.692 46.1034,106.525 46.5,105.5C 46.8333,105.5 47.1667,105.5 47.5,105.5C 48.4364,108.138 50.1031,108.805 52.5,107.5C 54.4594,107.875 56.2927,108.541 58,109.5C 60.1184,108.717 61.6184,107.384 62.5,105.5C 63.4822,104.859 64.4822,104.193 65.5,103.5C 66.6956,103.846 66.6956,104.346 65.5,105C 66.1667,105.667 66.8333,105.667 67.5,105C 69.3939,103.899 70.0606,102.566 69.5,101C 70.7604,99.887 71.927,99.7203 73,100.5C 73.2784,99.5842 73.7784,98.9175 74.5,98.5C 74.4088,100.698 75.0755,101.031 76.5,99.5C 76.6107,100.117 76.944,100.617 77.5,101C 76.2899,102.039 75.2899,103.206 74.5,104.5C 69.3775,109.268 63.2108,111.601 56,111.5C 49.0341,111.512 42.8674,109.345 37.5,105C 32.1771,104.501 26.8437,104.334 21.5,104.5C 21.5,99.5 21.5,94.5 21.5,89.5C 15.8508,89.7045 10.6842,88.3711 6,85.5C 5.33333,81.8333 5.33333,78.1667 6,74.5C 6.5,74 7,73.5 7.5,73C 6.64532,70.5644 5.97866,68.0644 5.5,65.5C 12.8407,66.7941 20.0074,68.7941 27,71.5C 28.0299,71.1639 28.5299,70.4972 28.5,69.5C 30.48,64.8669 33.48,61.2002 37.5,58.5 Z"/></g>
<g><path style="opacity:1" fill="#4e4947" d="M 63.5,71.5 C 62.4062,70.4183 61.0729,69.7517 59.5,69.5C 58.2867,69.7472 57.62,70.4138 57.5,71.5C 56.609,70.8902 55.609,70.5569 54.5,70.5C 54.6309,69.6236 54.2975,68.9569 53.5,68.5C 49.9547,69.7663 46.9547,71.7663 44.5,74.5C 44.2965,72.6096 44.9632,71.1096 46.5,70C 50.1521,66.2481 54.1521,65.7481 58.5,68.5C 60.9448,67.0346 62.9448,67.5346 64.5,70C 63.944,70.3826 63.6107,70.8826 63.5,71.5 Z"/></g>
<g><path style="opacity:1" fill="#6a6865" d="M 149.5,64.5 C 149.938,64.4346 150.272,64.6012 150.5,65C 149.619,65.7083 148.953,66.5416 148.5,67.5C 146.926,68.9842 145.593,70.6508 144.5,72.5C 142.698,71.5418 140.698,70.8751 138.5,70.5C 141.4,67.2145 145.067,65.2145 149.5,64.5 Z"/></g>
<g><path style="opacity:1" fill="#b32119" d="M 5.5,63.5 C 13.2473,65.208 20.9139,67.208 28.5,69.5C 28.5299,70.4972 28.0299,71.1639 27,71.5C 20.0074,68.7941 12.8407,66.7941 5.5,65.5C 5.5,64.8333 5.5,64.1667 5.5,63.5 Z"/></g>
<g><path style="opacity:1" fill="#d6d4d2" d="M 173.5,66.5 C 176.369,67.391 179.036,67.7243 181.5,67.5C 179.833,70.8333 178.167,74.1667 176.5,77.5C 175.833,78.8333 175.167,80.1667 174.5,81.5C 173.347,80.6868 173.347,79.6868 174.5,78.5C 174,78.1667 173.5,77.8333 173,77.5C 168.108,78.859 163.275,79.859 158.5,80.5C 157.022,80.762 155.689,80.4287 154.5,79.5C 155.373,77.5866 156.373,75.7533 157.5,74C 158.448,73.5172 159.448,73.3505 160.5,73.5C 159.302,67.2062 161.636,63.2062 167.5,61.5C 167.334,66.5111 167.501,71.5111 168,76.5C 169.592,72.9789 171.425,69.6456 173.5,66.5 Z"/></g>
<g><path style="opacity:1" fill="#848686" d="M 280.5,72.5 C 286.31,71.5104 292.31,71.1771 298.5,71.5C 302.514,71.3345 306.514,71.5012 310.5,72C 307.834,73.0605 305.167,73.8939 302.5,74.5C 299.5,74.5 296.5,74.5 293.5,74.5C 295.631,73.6862 297.964,73.1862 300.5,73C 293.842,72.5004 287.175,72.3337 280.5,72.5 Z"/></g>
<g><path style="opacity:1" fill="#393939" d="M 298.5,71.5 C 306.984,70.507 315.651,70.1736 324.5,70.5C 324.5,71.5 324.5,72.5 324.5,73.5C 319.637,73.1805 314.97,73.5139 310.5,74.5C 307.833,74.5 305.167,74.5 302.5,74.5C 305.167,73.8939 307.834,73.0605 310.5,72C 306.514,71.5012 302.514,71.3345 298.5,71.5 Z"/></g>
<g><path style="opacity:1" fill="#d8d7d6" d="M 152.5,79.5 C 150.661,78.2475 148.828,78.2475 147,79.5C 146.536,78.9056 146.369,78.2389 146.5,77.5C 147.282,73.9368 148.616,70.6035 150.5,67.5C 153.241,63.798 156.907,62.298 161.5,63C 157.869,68.1373 154.869,73.6373 152.5,79.5 Z"/></g>
<g><path style="opacity:0.978" fill="#0b0b0c" d="M 327.5,69.5 C 325.959,74.3638 325.292,79.3638 325.5,84.5C 324.543,82.9498 324.043,79.9498 324,75.5C 323.501,79.1516 323.335,82.8183 323.5,86.5C 321.167,86.5 318.833,86.5 316.5,86.5C 315.81,90.9252 316.81,94.7585 319.5,98C 318.672,98.9147 317.672,99.5814 316.5,100C 316.13,101.61 316.797,103.11 318.5,104.5C 309.859,105.498 301.192,105.831 292.5,105.5C 291.2,104.173 289.867,102.84 288.5,101.5C 289.689,100.571 291.022,100.238 292.5,100.5C 292.55,98.4099 291.55,97.0766 289.5,96.5C 285.007,97.2981 280.674,97.6314 276.5,97.5C 275.167,97.5 273.833,97.5 272.5,97.5C 272.918,96.7784 273.584,96.2784 274.5,96C 273.919,95.1074 273.585,94.1074 273.5,93C 274.709,90.6808 275.542,88.1808 276,85.5C 278.609,86.9085 280.442,86.2418 281.5,83.5C 287.352,82.7162 293.019,81.2162 298.5,79C 298.272,78.6012 297.938,78.4346 297.5,78.5C 297.082,77.7784 296.416,77.2784 295.5,77C 295.833,76.6667 296.167,76.3333 296.5,76C 303.242,75.958 307.909,75.458 310.5,74.5C 314.97,73.5139 319.637,73.1805 324.5,73.5C 324.5,72.5 324.5,71.5 324.5,70.5C 325.117,70.6107 325.617,70.944 326,71.5C 326.278,70.5842 326.778,69.9175 327.5,69.5 Z"/></g>
<g><path style="opacity:1" fill="#171618" d="M 371.5,57.5 C 374.335,60.1653 377.335,62.6653 380.5,65C 387.545,66.8445 394.545,68.8445 401.5,71C 405.89,71.7722 410.223,71.6055 414.5,70.5C 416.026,70.9943 417.359,71.661 418.5,72.5C 411.492,72.6663 404.492,72.4996 397.5,72C 391.639,70.0346 385.639,68.7013 379.5,68C 380.257,69.5122 381.257,70.8455 382.5,72C 386.378,73.4698 390.378,74.3031 394.5,74.5C 394.829,77.2282 394.163,79.5615 392.5,81.5C 392.167,80.8333 391.833,80.1667 391.5,79.5C 390.179,77.8053 387.845,76.8053 384.5,76.5C 382.279,76.4387 381.946,77.1054 383.5,78.5C 382.527,80.9479 382.194,83.6146 382.5,86.5C 377.597,105.53 365.264,113.697 345.5,111C 333.016,107.354 325.683,99.1877 323.5,86.5C 323.335,82.8183 323.501,79.1516 324,75.5C 324.043,79.9498 324.543,82.9498 325.5,84.5C 326.449,90.7275 329.283,96.0608 334,100.5C 334.167,100.167 334.333,99.8333 334.5,99.5C 328.756,92.6335 326.756,84.9669 328.5,76.5C 328.868,83.9741 331.368,90.6407 336,96.5C 335.667,94.8333 335.333,93.1667 335,91.5C 340.724,99.6334 348.558,103.133 358.5,102C 353.958,102.746 349.458,102.579 345,101.5C 344.5,101.667 344,101.833 343.5,102C 354.366,106.788 363.866,104.954 372,96.5C 372.399,96.7284 372.565,97.0618 372.5,97.5C 371.438,98.5754 371.438,99.5754 372.5,100.5C 382.753,88.0672 383.086,75.4006 373.5,62.5C 372.032,61.2209 371.365,59.5542 371.5,57.5 Z"/></g>
<g><path style="opacity:1" fill="#4b4a4a" d="M 418.5,72.5 C 420.587,73.5846 421.92,75.2512 422.5,77.5C 420.413,76.4154 419.08,74.7488 418.5,72.5 Z"/></g>
<g><path style="opacity:1" fill="#dcd612" d="M 37.5,61.5 C 37.1667,62.8333 36.8333,64.1667 36.5,65.5C 34.2918,66.8936 32.7918,68.8936 32,71.5C 28.6536,81.7104 30.4869,90.7104 37.5,98.5C 37.6309,99.3764 37.2975,100.043 36.5,100.5C 34.0811,98.2457 32.2477,95.579 31,92.5C 26.0101,80.432 28.1768,70.0987 37.5,61.5 Z"/></g>
<g><path style="opacity:1" fill="#d1cfce" d="M 138.5,70.5 C 140.698,70.8751 142.698,71.5418 144.5,72.5C 142.833,76.5 141.167,80.5 139.5,84.5C 138.596,83.791 138.263,82.791 138.5,81.5C 134.878,81.322 131.544,81.9886 128.5,83.5C 127.946,81.2295 128.446,78.8962 130,76.5C 134.281,76.376 137.114,74.376 138.5,70.5 Z"/></g>
<g><path style="opacity:1" fill="#b9b5b0" d="M 127.5,77.5 C 119.461,79.4472 111.128,81.9472 102.5,85C 103.448,85.4828 104.448,85.6495 105.5,85.5C 102.997,86.3705 100.33,87.0372 97.5,87.5C 97.5,87.1667 97.5,86.8333 97.5,86.5C 104.514,80.9987 112.514,77.6653 121.5,76.5C 124.562,72.4712 128.562,70.3045 133.5,70C 130.879,72.1141 128.879,74.6141 127.5,77.5 Z"/></g>
<g><path style="opacity:1" fill="#0f0c0c" d="M 229.5,59.5 C 233.971,58.9106 237.971,59.5772 241.5,61.5C 230.813,61.168 220.146,61.5013 209.5,62.5C 222.154,63.666 234.82,63.8326 247.5,63C 248.108,62.1301 248.941,61.6301 250,61.5C 251.823,62.6512 253.656,63.8179 255.5,65C 245.617,69.5197 235.617,73.853 225.5,78C 234.658,76.2751 243.325,72.9418 251.5,68C 257.726,65.9224 264.06,64.4224 270.5,63.5C 271.5,63.5 272.5,63.5 273.5,63.5C 273.5,64.8333 273.5,66.1667 273.5,67.5C 268.42,67.2497 263.42,67.7497 258.5,69C 253.181,71.5026 247.848,73.6692 242.5,75.5C 230.309,78.9664 217.976,82.2997 205.5,85.5C 204.448,85.6495 203.448,85.4828 202.5,85C 204.058,84.79 205.391,84.29 206.5,83.5C 212.037,82.2998 215.703,78.9664 217.5,73.5C 218.368,71.5979 219.368,69.7645 220.5,68C 220.361,66.699 219.695,65.8656 218.5,65.5C 214.979,64.8337 211.313,64.1671 207.5,63.5C 208.04,62.2519 208.707,61.0852 209.5,60C 216.158,59.5004 222.825,59.3337 229.5,59.5 Z"/></g>
<g><path style="opacity:1" fill="#bebebe" d="M 391.5,79.5 C 388.873,78.9084 386.206,78.5751 383.5,78.5C 381.946,77.1054 382.279,76.4387 384.5,76.5C 387.845,76.8053 390.179,77.8053 391.5,79.5 Z"/></g>
<g><path style="opacity:1" fill="#efeeed" d="M 127.5,77.5 C 127.107,79.2838 126.441,80.9505 125.5,82.5C 122.626,82.6234 120.126,83.6234 118,85.5C 117.617,84.944 117.117,84.6107 116.5,84.5C 112.785,84.423 109.119,84.7564 105.5,85.5C 104.448,85.6495 103.448,85.4828 102.5,85C 111.128,81.9472 119.461,79.4472 127.5,77.5 Z"/></g>
<g><path style="opacity:0.753" fill="#2d2e2d" d="M 422.5,77.5 C 423.906,77.9731 424.573,78.9731 424.5,80.5C 423.094,80.0269 422.427,79.0269 422.5,77.5 Z"/></g>
<g><path style="opacity:1" fill="#d6d6d6" d="M 280.5,72.5 C 287.175,72.3337 293.842,72.5004 300.5,73C 297.964,73.1862 295.631,73.6862 293.5,74.5C 271.261,73.6552 249.594,76.3218 228.5,82.5C 216.2,85.8249 203.867,88.9916 191.5,92C 183.875,93.1417 176.208,93.6417 168.5,93.5C 164.629,93.815 160.962,93.4816 157.5,92.5C 174.054,92.977 190.054,90.6437 205.5,85.5C 217.976,82.2997 230.309,78.9664 242.5,75.5C 255.126,74.0189 267.793,73.0189 280.5,72.5 Z"/></g>
<g><path style="opacity:0.939" fill="#120d0c" d="M 383.5,78.5 C 386.206,78.5751 388.873,78.9084 391.5,79.5C 391.833,80.1667 392.167,80.8333 392.5,81.5C 392.953,82.4584 393.619,83.2917 394.5,84C 399.784,85.6451 404.784,87.8118 409.5,90.5C 416.264,94.6881 423.598,96.0214 431.5,94.5C 432.773,93.7435 432.773,93.0768 431.5,92.5C 428.336,88.9987 426.003,84.9987 424.5,80.5C 429.575,81.6023 433.909,83.9356 437.5,87.5C 434.234,87.3706 431.234,86.3706 428.5,84.5C 428.167,84.6667 427.833,84.8333 427.5,85C 431.688,89.0082 436.688,91.1749 442.5,91.5C 444.042,92.1408 445.376,93.1408 446.5,94.5C 441.946,95.7759 437.613,97.6092 433.5,100C 420.458,100.152 407.458,99.6516 394.5,98.5C 392.929,99.3094 391.262,99.6427 389.5,99.5C 389.203,95.2325 389.536,91.0659 390.5,87C 387.854,86.5026 385.187,86.3359 382.5,86.5C 382.194,83.6146 382.527,80.9479 383.5,78.5 Z"/></g>
<g><path style="opacity:1" fill="#e0dc10" d="M 74.5,61.5 C 81.0809,67.6767 84.0809,75.3433 83.5,84.5C 82.5418,86.3024 81.8751,88.3024 81.5,90.5C 80.2625,93.7378 78.5958,96.7378 76.5,99.5C 75.0755,101.031 74.4088,100.698 74.5,98.5C 83.7551,86.8992 83.7551,75.2326 74.5,63.5C 74.5,62.8333 74.5,62.1667 74.5,61.5 Z"/></g>
<g><path style="opacity:1" fill="#545353" d="M 297.5,78.5 C 297.938,78.4346 298.272,78.6012 298.5,79C 293.019,81.2162 287.352,82.7162 281.5,83.5C 280.209,83.7373 279.209,83.404 278.5,82.5C 284.84,81.1655 291.173,79.8321 297.5,78.5 Z"/></g>
<g><path style="opacity:1" fill="#dedbd6" d="M 418.5,72.5 C 419.08,74.7488 420.413,76.4154 422.5,77.5C 422.427,79.0269 423.094,80.0269 424.5,80.5C 426.003,84.9987 428.336,88.9987 431.5,92.5C 424.032,93.9423 416.698,93.2756 409.5,90.5C 404.784,87.8118 399.784,85.6451 394.5,84C 393.619,83.2917 392.953,82.4584 392.5,81.5C 394.163,79.5615 394.829,77.2282 394.5,74.5C 390.378,74.3031 386.378,73.4698 382.5,72C 381.257,70.8455 380.257,69.5122 379.5,68C 385.639,68.7013 391.639,70.0346 397.5,72C 404.492,72.4996 411.492,72.6663 418.5,72.5 Z"/></g>
<g><path style="opacity:1" fill="#c77067" d="M 402.5,76.5 C 408.348,76.6808 414.014,77.5142 419.5,79C 418.333,80.1667 417.167,81.3333 416,82.5C 411.879,81.8612 407.713,81.1945 403.5,80.5C 402.754,79.2638 402.421,77.9305 402.5,76.5 Z"/></g>
<g><path style="opacity:1" fill="#ba1f1a" d="M 396.5,76.5 C 397.833,76.5 399.167,76.5 400.5,76.5C 400.5,77.5 400.5,78.5 400.5,79.5C 398.801,79.6602 397.134,79.4935 395.5,79C 396.252,78.3292 396.586,77.4959 396.5,76.5 Z"/></g>
<g><path style="opacity:1" fill="#848381" d="M 139.5,84.5 C 138.737,86.3684 137.737,88.0351 136.5,89.5C 134.5,89.5 132.5,89.5 130.5,89.5C 130.472,87.4176 131.139,85.5843 132.5,84C 131.207,83.51 129.873,83.3433 128.5,83.5C 131.544,81.9886 134.878,81.322 138.5,81.5C 138.263,82.791 138.596,83.791 139.5,84.5 Z"/></g>
<g><path style="opacity:1" fill="#b6b2af" d="M 191.5,69.5 C 192.479,72.6248 192.813,75.9581 192.5,79.5C 196.846,79.6657 201.179,79.499 205.5,79C 207.081,77.172 208.415,75.172 209.5,73C 204.981,72.8247 200.647,72.3247 196.5,71.5C 203.518,71.2539 210.518,71.0873 217.5,71C 216.226,71.9772 216.226,72.8106 217.5,73.5C 215.703,78.9664 212.037,82.2998 206.5,83.5C 199.557,84.7124 192.557,85.3791 185.5,85.5C 185.5,83.5 185.5,81.5 185.5,79.5C 182.615,79.8064 179.948,79.4731 177.5,78.5C 177.833,78.5 178.167,78.5 178.5,78.5C 180.857,78.6633 183.19,78.4966 185.5,78C 183.833,77.6667 182.167,77.3333 180.5,77C 184.091,76.2114 187.591,76.3781 191,77.5C 191.497,74.854 191.664,72.1873 191.5,69.5 Z"/></g>
<g><path style="opacity:0.939" fill="#0f1010" d="M 293.5,74.5 C 296.5,74.5 299.5,74.5 302.5,74.5C 305.167,74.5 307.833,74.5 310.5,74.5C 307.909,75.458 303.242,75.958 296.5,76C 296.167,76.3333 295.833,76.6667 295.5,77C 296.416,77.2784 297.082,77.7784 297.5,78.5C 291.173,79.8321 284.84,81.1655 278.5,82.5C 275.937,82.7313 274.27,84.0646 273.5,86.5C 270.642,86.5954 268.309,87.7621 266.5,90C 266.833,90.3333 267.167,90.6667 267.5,91C 265.866,91.4935 264.199,91.6602 262.5,91.5C 251.988,92.9842 243.322,97.6509 236.5,105.5C 182.504,104.677 128.504,104.344 74.5,104.5C 75.2899,103.206 76.2899,102.039 77.5,101C 76.944,100.617 76.6107,100.117 76.5,99.5C 78.5958,96.7378 80.2625,93.7378 81.5,90.5C 82.2216,90.9175 82.7216,91.5842 83,92.5C 83.414,92.0426 83.914,91.7093 84.5,91.5C 95.5006,95.4172 106.834,97.4172 118.5,97.5C 129.511,96.5539 140.345,96.2205 151,96.5C 168.654,101.24 186.154,101.074 203.5,96C 211.692,92.6027 220.025,89.6027 228.5,87C 247.077,83.8446 265.744,81.5112 284.5,80C 268.5,78.9632 252.666,80.1298 237,83.5C 233.979,83.4978 231.146,83.1644 228.5,82.5C 249.594,76.3218 271.261,73.6552 293.5,74.5 Z"/></g>
<g><path style="opacity:1" fill="#22211e" d="M 54.5,70.5 C 55.609,70.5569 56.609,70.8902 57.5,71.5C 65.4409,73.8824 67.6075,78.8824 64,86.5C 62.0478,88.8936 59.5478,90.3936 56.5,91C 56.9981,92.1581 57.8315,92.9915 59,93.5C 67.5067,89.473 70.0067,83.1396 66.5,74.5C 71.4664,73.3035 73.4664,75.4702 72.5,81C 72.4771,83.9254 71.9771,86.7587 71,89.5C 65.2686,97.4049 57.7686,99.5716 48.5,96C 46.0243,94.6912 44.0243,92.8579 42.5,90.5C 43.6119,89.7348 44.2786,88.7348 44.5,87.5C 46.2959,88.7927 47.9625,90.2927 49.5,92C 51.0249,93.0086 52.6916,93.5086 54.5,93.5C 54.5,92.5 54.5,91.5 54.5,90.5C 49.1584,89.677 46.4917,86.5103 46.5,81C 47.0895,75.9113 49.7562,72.4113 54.5,70.5 Z"/></g>
<g><path style="opacity:1" fill="#999998" d="M 58.5,79.5 C 61.1239,81.1978 61.1239,83.0312 58.5,85C 55.0636,85.9666 52.3969,84.9666 50.5,82C 52.3684,81.9962 54.2017,82.4962 56,83.5C 58.0197,82.9681 58.853,81.6348 58.5,79.5 Z"/></g>
<g><path style="opacity:1" fill="#b1b1b1" d="M 63.5,71.5 C 64.8333,72.1667 65.8333,73.1667 66.5,74.5C 70.0067,83.1396 67.5067,89.473 59,93.5C 57.8315,92.9915 56.9981,92.1581 56.5,91C 59.5478,90.3936 62.0478,88.8936 64,86.5C 67.6075,78.8824 65.4409,73.8824 57.5,71.5C 57.62,70.4138 58.2867,69.7472 59.5,69.5C 61.0729,69.7517 62.4062,70.4183 63.5,71.5 Z"/></g>
<g><path style="opacity:1" fill="#dcd714" d="M 333.5,62.5 C 334.167,62.5 334.5,62.8333 334.5,63.5C 331.153,67.1951 329.153,71.5285 328.5,76.5C 326.756,84.9669 328.756,92.6335 334.5,99.5C 334.333,99.8333 334.167,100.167 334,100.5C 329.283,96.0608 326.449,90.7275 325.5,84.5C 325.292,79.3638 325.959,74.3638 327.5,69.5C 329.5,67.1667 331.5,64.8333 333.5,62.5 Z"/></g>
<g><path style="opacity:1" fill="#5d5c5b" d="M 125.5,82.5 C 124.559,84.0495 123.893,85.7162 123.5,87.5C 121.614,90.0994 118.948,91.0994 115.5,90.5C 115.517,88.4352 115.85,86.4352 116.5,84.5C 117.117,84.6107 117.617,84.944 118,85.5C 120.126,83.6234 122.626,82.6234 125.5,82.5 Z"/></g>
<g><path style="opacity:1" fill="#d7d014" d="M 373.5,62.5 C 383.086,75.4006 382.753,88.0672 372.5,100.5C 371.438,99.5754 371.438,98.5754 372.5,97.5C 380.688,86.0025 380.355,74.6692 371.5,63.5C 371.842,62.6618 372.508,62.3284 373.5,62.5 Z"/></g>
<g><path style="opacity:1" fill="#e7deda" d="M 437.5,87.5 C 439.749,88.0798 441.415,89.4131 442.5,91.5C 436.688,91.1749 431.688,89.0082 427.5,85C 427.833,84.8333 428.167,84.6667 428.5,84.5C 431.234,86.3706 434.234,87.3706 437.5,87.5 Z"/></g>
<g><path style="opacity:1" fill="#0f0f0f" d="M 148.5,67.5 C 149.167,67.5 149.833,67.5 150.5,67.5C 148.616,70.6035 147.282,73.9368 146.5,77.5C 144.315,81.2132 142.648,85.2132 141.5,89.5C 146.082,90.3611 149.082,88.6945 150.5,84.5C 153.584,82.8986 156.917,82.2319 160.5,82.5C 160.216,84.4147 160.549,86.0813 161.5,87.5C 164.85,87.665 168.183,87.4983 171.5,87C 172.639,85.2196 173.639,83.3863 174.5,81.5C 175.167,80.1667 175.833,78.8333 176.5,77.5C 177.167,77.5 177.5,77.8333 177.5,78.5C 179.948,79.4731 182.615,79.8064 185.5,79.5C 185.5,81.5 185.5,83.5 185.5,85.5C 192.557,85.3791 199.557,84.7124 206.5,83.5C 205.391,84.29 204.058,84.79 202.5,85C 203.448,85.4828 204.448,85.6495 205.5,85.5C 190.054,90.6437 174.054,92.977 157.5,92.5C 151.5,92.5 145.5,92.5 139.5,92.5C 136.854,91.8356 134.021,91.5022 131,91.5C 125.1,91.9342 119.267,92.6009 113.5,93.5C 105.831,94.1825 98.4977,93.0159 91.5,90C 93.9739,89.9633 95.9739,89.13 97.5,87.5C 100.33,87.0372 102.997,86.3705 105.5,85.5C 109.119,84.7564 112.785,84.423 116.5,84.5C 115.85,86.4352 115.517,88.4352 115.5,90.5C 118.948,91.0994 121.614,90.0994 123.5,87.5C 124.404,88.209 124.737,89.209 124.5,90.5C 128.702,90.8168 132.702,90.4834 136.5,89.5C 137.737,88.0351 138.737,86.3684 139.5,84.5C 141.167,80.5 142.833,76.5 144.5,72.5C 145.593,70.6508 146.926,68.9842 148.5,67.5 Z"/></g>
<g><path style="opacity:1" fill="#a5a5a4" d="M 146.5,77.5 C 146.369,78.2389 146.536,78.9056 147,79.5C 148.828,78.2475 150.661,78.2475 152.5,79.5C 152.107,81.2838 151.441,82.9505 150.5,84.5C 149.082,88.6945 146.082,90.3611 141.5,89.5C 142.648,85.2132 144.315,81.2132 146.5,77.5 Z"/></g>
<g><path style="opacity:1" fill="#9c9a98" d="M 174.5,81.5 C 173.639,83.3863 172.639,85.2196 171.5,87C 168.183,87.4983 164.85,87.665 161.5,87.5C 161.5,85.1667 161.5,82.8333 161.5,80.5C 160.5,80.5 159.5,80.5 158.5,80.5C 163.275,79.859 168.108,78.859 173,77.5C 173.5,77.8333 174,78.1667 174.5,78.5C 173.347,79.6868 173.347,80.6868 174.5,81.5 Z"/></g>
<g><path style="opacity:1" fill="#b2b3b2" d="M 54.5,70.5 C 49.7562,72.4113 47.0895,75.9113 46.5,81C 46.4917,86.5103 49.1584,89.677 54.5,90.5C 54.5,91.5 54.5,92.5 54.5,93.5C 52.6916,93.5086 51.0249,93.0086 49.5,92C 47.9625,90.2927 46.2959,88.7927 44.5,87.5C 43.2463,83.1516 43.2463,78.8183 44.5,74.5C 46.9547,71.7663 49.9547,69.7663 53.5,68.5C 54.2975,68.9569 54.6309,69.6236 54.5,70.5 Z"/></g>
<g><path style="opacity:1" fill="#888888" d="M 273.5,86.5 C 274.738,86.81 274.738,87.31 273.5,88C 272.207,88.49 270.873,88.6567 269.5,88.5C 269.5,89.8333 269.5,91.1667 269.5,92.5C 266.941,92.8016 264.607,92.4682 262.5,91.5C 264.199,91.6602 265.866,91.4935 267.5,91C 267.167,90.6667 266.833,90.3333 266.5,90C 268.309,87.7621 270.642,86.5954 273.5,86.5 Z"/></g>
<g><path style="opacity:1" fill="#131415" d="M 118.5,97.5 C 116.031,96.6829 113.365,96.1829 110.5,96C 111.942,95.6232 112.942,94.7899 113.5,93.5C 119.267,92.6009 125.1,91.9342 131,91.5C 134.021,91.5022 136.854,91.8356 139.5,92.5C 137.143,92.3367 134.81,92.5034 132.5,93C 144.643,94.5865 156.643,94.7531 168.5,93.5C 176.208,93.6417 183.875,93.1417 191.5,92C 203.867,88.9916 216.2,85.8249 228.5,82.5C 231.146,83.1644 233.979,83.4978 237,83.5C 252.666,80.1298 268.5,78.9632 284.5,80C 265.744,81.5112 247.077,83.8446 228.5,87C 220.025,89.6027 211.692,92.6027 203.5,96C 186.154,101.074 168.654,101.24 151,96.5C 140.345,96.2205 129.511,96.5539 118.5,97.5 Z"/></g>
<g><path style="opacity:1" fill="#535252" d="M 139.5,92.5 C 145.5,92.5 151.5,92.5 157.5,92.5C 160.962,93.4816 164.629,93.815 168.5,93.5C 156.643,94.7531 144.643,94.5865 132.5,93C 134.81,92.5034 137.143,92.3367 139.5,92.5 Z"/></g>
<g><path style="opacity:1" fill="#23211f" d="M 353.5,65.5 C 354.946,64.3871 356.613,64.2204 358.5,65C 369.222,70.9318 372.056,79.4318 367,90.5C 356.928,100.148 347.261,99.8146 338,89.5C 336.607,84.9053 336.274,80.2387 337,75.5C 337.928,73.6652 339.094,73.3318 340.5,74.5C 341.629,71.5372 343.629,69.3706 346.5,68C 349.538,67.1718 351.871,66.3384 353.5,65.5 Z"/></g>
<g><path style="opacity:1" fill="#b3b3b3" d="M 349.5,68.5 C 351.048,68.8212 351.715,69.8212 351.5,71.5C 343.309,74.3413 341.309,79.6746 345.5,87.5C 347.071,89.415 349.071,90.415 351.5,90.5C 351.5,91.5 351.5,92.5 351.5,93.5C 340.986,90.1302 338.153,83.4635 343,73.5C 344.965,71.4497 347.132,69.783 349.5,68.5 Z"/></g>
<g><path style="opacity:1" fill="#9f9f9e" d="M 364.5,76.5 C 366.869,82.8106 365.202,87.9772 359.5,92C 357.975,93.0086 356.308,93.5086 354.5,93.5C 354.5,92.5 354.5,91.5 354.5,90.5C 360.605,88.99 363.272,84.99 362.5,78.5C 363.302,79.9516 363.802,81.6183 364,83.5C 364.497,81.1902 364.663,78.8568 364.5,76.5 Z"/></g>
<g><path style="opacity:1" fill="#e1e1e1" d="M 364.5,76.5 C 364.663,78.8568 364.497,81.1902 364,83.5C 363.802,81.6183 363.302,79.9516 362.5,78.5C 360.877,74.8767 358.21,72.21 354.5,70.5C 359.478,69.4366 362.812,71.4366 364.5,76.5 Z"/></g>
<g><path style="opacity:0.992" fill="#cf241a" d="M 409.5,90.5 C 416.698,93.2756 424.032,93.9423 431.5,92.5C 432.773,93.0768 432.773,93.7435 431.5,94.5C 423.598,96.0214 416.264,94.6881 409.5,90.5 Z"/></g>
<g><path style="opacity:1" fill="#2c2c2d" d="M 97.5,86.5 C 97.5,86.8333 97.5,87.1667 97.5,87.5C 95.9739,89.13 93.9739,89.9633 91.5,90C 98.4977,93.0159 105.831,94.1825 113.5,93.5C 112.942,94.7899 111.942,95.6232 110.5,96C 113.365,96.1829 116.031,96.6829 118.5,97.5C 106.834,97.4172 95.5006,95.4172 84.5,91.5C 83.914,91.7093 83.414,92.0426 83,92.5C 82.7216,91.5842 82.2216,90.9175 81.5,90.5C 81.8751,88.3024 82.5418,86.3024 83.5,84.5C 83.3691,85.3764 83.7025,86.0431 84.5,86.5C 85.2922,84.5352 85.9588,82.5352 86.5,80.5C 85.6124,76.0913 84.779,71.7579 84,67.5C 86.4559,68.4703 88.6226,69.1369 90.5,69.5C 88.7486,71.9724 87.9153,74.639 88,77.5C 88.4186,76.3279 89.0853,75.3279 90,74.5C 91,75.8333 92,75.8333 93,74.5C 93.6333,78.7232 93.3,82.7232 92,86.5C 93.8278,87.7525 95.6612,87.7525 97.5,86.5 Z"/></g>
<g><path style="opacity:0.709" fill="#262625" d="M 278.5,82.5 C 279.209,83.404 280.209,83.7373 281.5,83.5C 280.442,86.2418 278.609,86.9085 276,85.5C 275.542,88.1808 274.709,90.6808 273.5,93C 273.585,94.1074 273.919,95.1074 274.5,96C 273.584,96.2784 272.918,96.7784 272.5,97.5C 269.991,97.71 267.324,97.3767 264.5,96.5C 264.215,98.288 264.548,99.9547 265.5,101.5C 269.094,100.574 272.76,100.241 276.5,100.5C 276.5,99.5 276.5,98.5 276.5,97.5C 280.674,97.6314 285.007,97.2981 289.5,96.5C 291.55,97.0766 292.55,98.4099 292.5,100.5C 291.022,100.238 289.689,100.571 288.5,101.5C 289.867,102.84 291.2,104.173 292.5,105.5C 273.833,105.5 255.167,105.5 236.5,105.5C 243.322,97.6509 251.988,92.9842 262.5,91.5C 264.607,92.4682 266.941,92.8016 269.5,92.5C 269.5,91.1667 269.5,89.8333 269.5,88.5C 270.873,88.6567 272.207,88.49 273.5,88C 274.738,87.31 274.738,86.81 273.5,86.5C 274.27,84.0646 275.937,82.7313 278.5,82.5 Z"/></g>
<g><path style="opacity:1" fill="#8c8c8c" d="M 272.5,97.5 C 273.833,97.5 275.167,97.5 276.5,97.5C 276.5,98.5 276.5,99.5 276.5,100.5C 272.76,100.241 269.094,100.574 265.5,101.5C 264.548,99.9547 264.215,98.288 264.5,96.5C 267.324,97.3767 269.991,97.71 272.5,97.5 Z"/></g>
<g><path style="opacity:1" fill="#9b9029" d="M 40.5,102.5 C 42.8185,102.992 44.8185,103.992 46.5,105.5C 46.1034,106.525 45.4368,106.692 44.5,106C 42.6813,105.26 41.3479,104.093 40.5,102.5 Z"/></g>
<g><path style="opacity:1" fill="#968d2a" d="M 338.5,104.5 C 340.264,103.288 341.93,103.621 343.5,105.5C 343.167,105.833 342.833,106.167 342.5,106.5C 341.378,105.37 340.044,104.703 338.5,104.5 Z"/></g>
<g><path style="opacity:1" fill="#655c2e" d="M 47.5,105.5 C 52.2904,106.532 57.2904,106.532 62.5,105.5C 61.6184,107.384 60.1184,108.717 58,109.5C 56.2927,108.541 54.4594,107.875 52.5,107.5C 50.1031,108.805 48.4364,108.138 47.5,105.5 Z"/></g>
<g><path style="opacity:1" fill="#474127" d="M 365.5,103.5 C 367.648,103.389 367.981,104.056 366.5,105.5C 361.031,111.139 355.031,111.806 348.5,107.5C 347.038,108.471 345.705,108.138 344.5,106.5C 349.246,106.724 354.079,106.39 359,105.5C 358.667,106.833 358.333,108.167 358,109.5C 360.738,107.574 363.238,105.574 365.5,103.5 Z"/></g>
</svg>
