<?xml version="1.0" encoding="UTF-8"?>
<!DOCTYPE svg PUBLIC "-//W3C//DTD SVG 1.1//EN" "http://www.w3.org/Graphics/SVG/1.1/DTD/svg11.dtd">
<svg xmlns="http://www.w3.org/2000/svg" version="1.1" width="450px" height="113px" style="shape-rendering:geometricPrecision; text-rendering:geometricPrecision; image-rendering:optimizeQuality; fill-rule:evenodd; clip-rule:evenodd" xmlns:xlink="http://www.w3.org/1999/xlink">
<g><path style="opacity:1" fill="#1e1e20" d="M 206.5,28.5 C 205.596,29.209 205.263,30.209 205.5,31.5C 203.901,31.2322 202.568,31.5655 201.5,32.5C 198.272,31.5863 194.939,31.2529 191.5,31.5C 184.833,31.5 178.167,31.5 171.5,31.5C 165.69,30.5104 159.69,30.1771 153.5,30.5C 155.292,29.6909 157.292,29.1909 159.5,29C 169.833,28.6667 180.167,28.3333 190.5,28C 190.833,27.6667 191.167,27.3333 191.5,27C 189.912,25.013 189.079,22.8463 189,20.5C 193.299,20.4584 197.799,20.6251 202.5,21C 203.027,24.005 204.36,26.505 206.5,28.5 Z"/></g>
<g><path style="opacity:0.846" fill="#9c272f" d="M 206.5,28.5 C 207.833,31.8333 207.833,35.1667 206.5,38.5C 205.883,38.6107 205.383,38.944 205,39.5C 202.774,37.7153 201.608,35.3819 201.5,32.5C 202.568,31.5655 203.901,31.2322 205.5,31.5C 205.263,30.209 205.596,29.209 206.5,28.5 Z"/></g>
<g><path style="opacity:1" fill="#663031" d="M 152.5,30.5 C 152.833,30.5 153.167,30.5 153.5,30.5C 159.69,30.1771 165.69,30.5104 171.5,31.5C 167.154,31.3343 162.821,31.501 158.5,32C 161.208,36.7252 160.708,37.2252 157,33.5C 156.833,33.8333 156.667,34.1667 156.5,34.5C 157.785,37.0205 158.452,39.6872 158.5,42.5C 156.856,42.7135 155.356,42.3802 154,41.5C 153.005,42.0659 152.172,42.7326 151.5,43.5C 150.127,43.6567 148.793,43.49 147.5,43C 149.377,39.5065 150.044,35.6732 149.5,31.5C 150.791,31.7373 151.791,31.404 152.5,30.5 Z"/></g>
<g><path style="opacity:0.994" fill="#2e2e2d" d="M 65.5,54.5 C 68.407,56.0593 71.0736,58.0593 73.5,60.5C 72.7573,61.1818 72.0906,61.8485 71.5,62.5C 71.5,63.1667 71.5,63.8333 71.5,64.5C 67.9662,61.9031 64.2996,59.5698 60.5,57.5C 60.5,56.1667 60.5,54.8333 60.5,53.5C 56.1667,53.5 51.8333,53.5 47.5,53.5C 47.9175,52.7784 48.5842,52.2784 49.5,52C 47.8659,51.5065 46.1992,51.3398 44.5,51.5C 44.8226,47.774 44.4892,44.1073 43.5,40.5C 41.2244,39.7985 38.8911,39.9651 36.5,41C 38.5767,41.1922 40.5767,41.6922 42.5,42.5C 41.7573,43.1818 41.0906,43.8485 40.5,44.5C 36.7115,44.9562 32.7115,44.9562 28.5,44.5C 26.5018,43.8525 24.5018,43.0192 22.5,42C 22.6526,40.7913 22.9859,39.6246 23.5,38.5C 28.2734,40.6029 33.2734,40.9362 38.5,39.5C 38.756,37.0876 37.756,35.4209 35.5,34.5C 30.6987,35.9882 26.032,36.6549 21.5,36.5C 20.5084,36.6716 19.8417,36.3382 19.5,35.5C 24.009,29.6911 30.009,27.5244 37.5,29C 43,33.1667 48.5,37.3333 54,41.5C 55.0429,44.7568 55.5429,48.0901 55.5,51.5C 59.2856,51.32 62.619,52.32 65.5,54.5 Z"/></g>
<g><path style="opacity:1" fill="#9a3737" d="M 171.5,31.5 C 178.167,31.5 184.833,31.5 191.5,31.5C 194.167,32.1667 196.833,32.8333 199.5,33.5C 199.813,37.0419 199.479,40.3752 198.5,43.5C 182.833,43.5 167.167,43.5 151.5,43.5C 152.172,42.7326 153.005,42.0659 154,41.5C 155.356,42.3802 156.856,42.7135 158.5,42.5C 158.452,39.6872 157.785,37.0205 156.5,34.5C 156.667,34.1667 156.833,33.8333 157,33.5C 160.708,37.2252 161.208,36.7252 158.5,32C 162.821,31.501 167.154,31.3343 171.5,31.5 Z"/></g>
<g><path style="opacity:0.919" fill="#101315" d="M 145.5,31.5 C 142.523,33.0635 141.856,35.3968 143.5,38.5C 140.4,39.7576 137.4,41.2576 134.5,43C 135.5,43.3333 136.5,43.6667 137.5,44C 157.497,44.5 177.497,44.6666 197.5,44.5C 197.833,45.8333 198.167,45.8333 198.5,44.5C 198.5,44.1667 198.5,43.8333 198.5,43.5C 199.479,40.3752 199.813,37.0419 199.5,33.5C 200.479,36.6248 200.813,39.9581 200.5,43.5C 202.167,43.5 203.833,43.5 205.5,43.5C 205.5,44.1667 205.5,44.8333 205.5,45.5C 197.455,48.9284 189.122,50.9284 180.5,51.5C 179.833,51.5 179.167,51.5 178.5,51.5C 170.493,51.3336 162.493,51.5003 154.5,52C 153.167,53 153.167,54 154.5,55C 157.171,55.8332 159.504,55.3332 161.5,53.5C 163.265,54.4614 165.265,54.7947 167.5,54.5C 169.969,55.3171 172.635,55.8171 175.5,56C 174.5,56.3333 173.5,56.6667 172.5,57C 173.891,58.02 175.391,58.8534 177,59.5C 177.483,60.448 177.649,61.448 177.5,62.5C 164.903,65.8538 152.07,68.5205 139,70.5C 137.167,70.3333 135.333,70.1667 133.5,70C 134.03,68.7438 134.03,67.2438 133.5,65.5C 137.642,61.7317 142.309,60.3984 147.5,61.5C 147.5,59.1667 147.5,56.8333 147.5,54.5C 149.911,54.1367 151.411,55.1367 152,57.5C 152.651,55.765 152.485,54.0983 151.5,52.5C 152.77,51.7124 153.77,50.7124 154.5,49.5C 166.159,49.7057 177.493,49.3723 188.5,48.5C 170.821,47.2523 153.321,47.2523 136,48.5C 133.94,46.9375 132.44,44.9375 131.5,42.5C 130.772,44.1932 129.772,45.6932 128.5,47C 124.748,47.2401 121.081,47.7401 117.5,48.5C 116.833,47.1667 116.167,47.1667 115.5,48.5C 114.258,47.9566 112.925,47.6233 111.5,47.5C 106.247,50.959 100.58,53.6256 94.5,55.5C 93.8076,54.9747 93.3076,54.3081 93,53.5C 92.0701,55.5524 90.5701,57.0524 88.5,58C 83.857,58.8304 79.1903,59.4971 74.5,60C 76.5938,61.3515 78.9272,61.8515 81.5,61.5C 79.9581,62.1635 78.2914,62.8302 76.5,63.5C 79.3945,66.5326 80.3945,69.866 79.5,73.5C 78.2826,68.6387 75.6159,64.972 71.5,62.5C 72.0906,61.8485 72.7573,61.1818 73.5,60.5C 71.0736,58.0593 68.407,56.0593 65.5,54.5C 69.0221,53.9961 72.5221,53.3294 76,52.5C 78.6116,49.4557 81.1116,46.289 83.5,43C 104.2,39.2725 124.866,35.4392 145.5,31.5 Z"/></g>
<g><path style="opacity:1" fill="#dcdbdd" d="M 184.5,36.5 C 185.167,37.1667 185.833,37.8333 186.5,38.5C 185.837,41.423 184.17,42.0897 181.5,40.5C 185.465,39.4841 185.465,38.4841 181.5,37.5C 181.5,36.8333 181.5,36.1667 181.5,35.5C 182.882,33.102 184.549,32.9353 186.5,35C 184.657,35.1587 183.991,35.6587 184.5,36.5 Z"/></g>
<g><path style="opacity:1" fill="#c79ea1" d="M 181.5,35.5 C 181.5,36.1667 181.5,36.8333 181.5,37.5C 178.567,41.8136 174.901,42.4802 170.5,39.5C 172.135,33.4274 175.301,32.4274 180,36.5C 180.383,35.944 180.883,35.6107 181.5,35.5 Z"/></g>
<g><path style="opacity:1" fill="#0f0808" d="M 186.5,38.5 C 185.833,37.8333 185.167,37.1667 184.5,36.5C 188.518,35.329 192.518,35.329 196.5,36.5C 196.833,36.8333 197.167,37.1667 197.5,37.5C 193.893,38.4892 190.226,38.8226 186.5,38.5 Z"/></g>
<g><path style="opacity:1" fill="#9b1d20" d="M 174.5,35.5 C 177.179,35.5246 178.512,36.858 178.5,39.5C 176.5,39.5 174.5,39.5 172.5,39.5C 172.527,37.8007 173.194,36.4674 174.5,35.5 Z"/></g>
<g><path style="opacity:1" fill="#d9d6d9" d="M 170.5,39.5 C 169.082,41.3079 167.082,41.9746 164.5,41.5C 164.5,39.1667 164.5,36.8333 164.5,34.5C 166.199,34.3398 167.866,34.5065 169.5,35C 165.639,35.5691 165.639,36.4024 169.5,37.5C 165.626,39.0025 165.959,39.6691 170.5,39.5 Z"/></g>
<g><path style="opacity:1" fill="#3d2426" d="M 152.5,30.5 C 151.791,31.404 150.791,31.7373 149.5,31.5C 150.044,35.6732 149.377,39.5065 147.5,43C 148.793,43.49 150.127,43.6567 151.5,43.5C 167.167,43.5 182.833,43.5 198.5,43.5C 198.5,43.8333 198.5,44.1667 198.5,44.5C 198.167,44.5 197.833,44.5 197.5,44.5C 177.497,44.6666 157.497,44.5 137.5,44C 136.5,43.6667 135.5,43.3333 134.5,43C 137.4,41.2576 140.4,39.7576 143.5,38.5C 141.856,35.3968 142.523,33.0635 145.5,31.5C 147.806,31.0074 150.139,30.6741 152.5,30.5 Z"/></g>
<g><path style="opacity:1" fill="#552326" d="M 191.5,31.5 C 194.939,31.2529 198.272,31.5863 201.5,32.5C 201.608,35.3819 202.774,37.7153 205,39.5C 205.383,38.944 205.883,38.6107 206.5,38.5C 206.784,40.4147 206.451,42.0813 205.5,43.5C 203.833,43.5 202.167,43.5 200.5,43.5C 200.813,39.9581 200.479,36.6248 199.5,33.5C 196.833,32.8333 194.167,32.1667 191.5,31.5 Z"/></g>
<g><path style="opacity:1" fill="#646465" d="M 253.5,36.5 C 252.737,37.2679 251.737,37.7679 250.5,38C 252.995,38.1575 255.328,38.3241 257.5,38.5C 253.553,39.7556 249.553,40.7556 245.5,41.5C 242.859,40.7369 240.192,40.5702 237.5,41C 235.581,43.7937 232.914,45.2937 229.5,45.5C 227.46,46.5192 225.46,46.5192 223.5,45.5C 225.659,44.5667 227.993,43.2334 230.5,41.5C 237.884,39.0742 245.551,37.4075 253.5,36.5 Z"/></g>
<g><path style="opacity:0.004" fill="#000000" d="M 216.5,42.5 C 216.897,41.475 217.563,41.3083 218.5,42C 217.906,42.4643 217.239,42.631 216.5,42.5 Z"/></g>
<g><path style="opacity:0.004" fill="#020102" d="M 210.5,43.5 C 211.251,42.4265 212.251,42.2599 213.5,43C 212.552,43.4828 211.552,43.6495 210.5,43.5 Z"/></g>
<g><path style="opacity:0.972" fill="#0d0e0f" d="M 19.5,35.5 C 19.8417,36.3382 20.5084,36.6716 21.5,36.5C 22.1667,37.1667 22.8333,37.8333 23.5,38.5C 22.9859,39.6246 22.6526,40.7913 22.5,42C 24.5018,43.0192 26.5018,43.8525 28.5,44.5C 25.5937,45.0952 22.5937,45.4285 19.5,45.5C 15.0922,42.7414 13.9256,43.7414 16,48.5C 18,45.8333 20,45.8333 22,48.5C 26.3143,47.8694 30.8143,47.8694 35.5,48.5C 37.3817,47.9067 39.2151,47.2401 41,46.5C 41.8893,47.8882 42.3893,47.7215 42.5,46C 42.1639,44.9701 41.4972,44.4701 40.5,44.5C 41.0906,43.8485 41.7573,43.1818 42.5,42.5C 40.5767,41.6922 38.5767,41.1922 36.5,41C 38.8911,39.9651 41.2244,39.7985 43.5,40.5C 44.4892,44.1073 44.8226,47.774 44.5,51.5C 46.1992,51.3398 47.8659,51.5065 49.5,52C 48.5842,52.2784 47.9175,52.7784 47.5,53.5C 46.8333,53.5 46.1667,53.5 45.5,53.5C 40.1351,54.6826 35.4685,57.1826 31.5,61C 29.7253,63.6843 28.392,66.5176 27.5,69.5C 27.6716,70.4916 27.3382,71.1583 26.5,71.5C 20.8846,72.5735 15.2179,72.7401 9.5,72C 10.056,71.6174 10.3893,71.1174 10.5,70.5C 15.294,71.0969 19.6273,70.4302 23.5,68.5C 24.404,67.791 24.7373,66.791 24.5,65.5C 19.7863,65.1734 15.1196,65.5067 10.5,66.5C 13.8909,66.5077 17.2242,67.1744 20.5,68.5C 16.351,67.9197 12.6843,68.5864 9.5,70.5C 8.83333,70.1667 8.16667,69.8333 7.5,69.5C 5.4068,59.9404 4.07347,50.2738 3.5,40.5C 8.84372,40.666 14.1771,40.4994 19.5,40C 16.7198,38.1877 14.2198,36.021 12,33.5C 11.2506,32.365 11.4173,31.365 12.5,30.5C 14.0119,33.3491 16.3452,35.0158 19.5,35.5 Z"/></g>
<g><path style="opacity:1" fill="#6c767d" d="M 28.5,44.5 C 32.7115,44.9562 36.7115,44.9562 40.5,44.5C 41.4972,44.4701 42.1639,44.9701 42.5,46C 42.3893,47.7215 41.8893,47.8882 41,46.5C 39.2151,47.2401 37.3817,47.9067 35.5,48.5C 30.8143,47.8694 26.3143,47.8694 22,48.5C 20,45.8333 18,45.8333 16,48.5C 13.9256,43.7414 15.0922,42.7414 19.5,45.5C 22.5937,45.4285 25.5937,45.0952 28.5,44.5 Z"/></g>
<g><path style="opacity:1" fill="#c0d0d7" d="M 6.5,43.5 C 8.95713,44.7349 10.2905,46.7349 10.5,49.5C 5.73978,49.7993 4.40645,47.7993 6.5,43.5 Z"/></g>
<g><path style="opacity:1" fill="#28292c" d="M 115.5,48.5 C 114.34,50.2027 115.007,50.8693 117.5,50.5C 118.251,51.5735 119.251,51.7401 120.5,51C 120.167,50.6667 119.833,50.3333 119.5,50C 121.902,49.1859 124.235,49.3526 126.5,50.5C 126.167,50.8333 125.833,51.1667 125.5,51.5C 121.4,53.441 117.233,54.1077 113,53.5C 109.684,57.6913 105.851,58.3579 101.5,55.5C 100.571,56.6888 100.238,58.0222 100.5,59.5C 98.9336,59.9763 98.6002,60.643 99.5,61.5C 101.304,61.0143 102.971,60.681 104.5,60.5C 105.5,60.8333 106.167,61.5 106.5,62.5C 103.455,62.5079 100.455,62.8413 97.5,63.5C 97.5,62.5 97.5,61.5 97.5,60.5C 96.1667,60.5 94.8333,60.5 93.5,60.5C 93.2865,62.1439 93.6198,63.6439 94.5,65C 93.1667,65.6667 91.8333,65.6667 90.5,65C 91.3366,63.9887 91.67,62.8221 91.5,61.5C 88.1667,61.5 84.8333,61.5 81.5,61.5C 78.9272,61.8515 76.5938,61.3515 74.5,60C 79.1903,59.4971 83.857,58.8304 88.5,58C 90.5701,57.0524 92.0701,55.5524 93,53.5C 93.3076,54.3081 93.8076,54.9747 94.5,55.5C 100.58,53.6256 106.247,50.959 111.5,47.5C 112.925,47.6233 114.258,47.9566 115.5,48.5 Z"/></g>
<g><path style="opacity:1" fill="#090b0d" d="M 230.5,41.5 C 227.993,43.2334 225.659,44.5667 223.5,45.5C 225.46,46.5192 227.46,46.5192 229.5,45.5C 229.389,46.1174 229.056,46.6174 228.5,47C 225.576,47.9876 222.576,48.6543 219.5,49C 218.429,49.8518 217.429,50.6851 216.5,51.5C 212.179,51.5567 207.846,51.8901 203.5,52.5C 202.449,51.7777 201.782,50.7777 201.5,49.5C 208.417,47.5201 215.417,45.6868 222.5,44C 223.056,43.6174 223.389,43.1174 223.5,42.5C 225.717,41.6314 228.05,41.298 230.5,41.5 Z"/></g>
<g><path style="opacity:1" fill="#bbbfc2" d="M 117.5,48.5 C 118.506,49.3957 118.506,50.0623 117.5,50.5C 115.007,50.8693 114.34,50.2027 115.5,48.5C 116.167,47.1667 116.833,47.1667 117.5,48.5 Z"/></g>
<g><path style="opacity:0.965" fill="#0e1011" d="M 253.5,36.5 C 266.662,35.6645 276.996,40.6645 284.5,51.5C 280.196,52.1306 275.863,52.6306 271.5,53C 268.987,55.2114 265.987,56.3781 262.5,56.5C 258.566,57.3597 254.566,57.693 250.5,57.5C 248.365,55.631 245.698,54.9644 242.5,55.5C 242.5,54.5 242.5,53.5 242.5,52.5C 239.941,52.8016 237.607,52.4682 235.5,51.5C 240.833,51.5 246.167,51.5 251.5,51.5C 254.704,53.3 258.37,54.3 262.5,54.5C 264.569,54.1758 264.902,53.3425 263.5,52C 261.866,51.5065 260.199,51.3398 258.5,51.5C 258.433,50.0413 258.766,48.7079 259.5,47.5C 262.994,45.9969 266.328,46.3302 269.5,48.5C 269.833,48.3333 270.167,48.1667 270.5,48C 267.424,44.5981 263.757,43.7647 259.5,45.5C 257.219,42.7717 254.219,41.7717 250.5,42.5C 248.585,42.7845 246.919,42.4511 245.5,41.5C 249.553,40.7556 253.553,39.7556 257.5,38.5C 255.328,38.3241 252.995,38.1575 250.5,38C 251.737,37.7679 252.737,37.2679 253.5,36.5 Z"/></g>
<g><path style="opacity:1" fill="#6d7073" d="M 274.5,46.5 C 281.129,48.3401 281.129,49.8401 274.5,51C 272.069,49.5682 272.069,48.0682 274.5,46.5 Z"/></g>
<g><path style="opacity:1" fill="#5c5c60" d="M 223.5,42.5 C 223.389,43.1174 223.056,43.6174 222.5,44C 215.417,45.6868 208.417,47.5201 201.5,49.5C 198.432,50.0218 195.432,50.8551 192.5,52C 193.167,52.3333 193.833,52.6667 194.5,53C 194.272,53.3988 193.938,53.5654 193.5,53.5C 191.186,52.1786 188.853,52.1786 186.5,53.5C 184.283,53.1217 182.283,52.455 180.5,51.5C 189.122,50.9284 197.455,48.9284 205.5,45.5C 211.5,44.5 217.5,43.5 223.5,42.5 Z"/></g>
<g><path style="opacity:1" fill="#578691" d="M 259.5,47.5 C 258.766,48.7079 258.433,50.0413 258.5,51.5C 260.199,51.3398 261.866,51.5065 263.5,52C 264.902,53.3425 264.569,54.1758 262.5,54.5C 258.37,54.3 254.704,53.3 251.5,51.5C 254.167,50.1667 256.833,48.8333 259.5,47.5 Z"/></g>
<g><path style="opacity:1" fill="#aeb1b5" d="M 178.5,51.5 C 179.167,51.5 179.833,51.5 180.5,51.5C 182.283,52.455 184.283,53.1217 186.5,53.5C 188.853,52.1786 191.186,52.1786 193.5,53.5C 193.5,53.8333 193.5,54.1667 193.5,54.5C 192.167,54.5 190.833,54.5 189.5,54.5C 182.094,53.9055 174.761,53.9055 167.5,54.5C 165.265,54.7947 163.265,54.4614 161.5,53.5C 167.167,52.8333 172.833,52.1667 178.5,51.5 Z"/></g>
<g><path style="opacity:1" fill="#414246" d="M 154.5,49.5 C 146.699,50.0337 139.199,50.0337 132,49.5C 130.5,49.8333 129,50.1667 127.5,50.5C 127.709,51.086 128.043,51.586 128.5,52C 131.553,52.1786 134.553,52.6786 137.5,53.5C 133.251,54.7261 128.917,55.3927 124.5,55.5C 124.5,56.5 124.5,57.5 124.5,58.5C 123.833,58.8333 123.167,59.1667 122.5,59.5C 121.666,58.2521 120.333,57.5854 118.5,57.5C 113.322,57.9343 108.322,58.6009 103.5,59.5C 102.5,58.1667 101.5,58.1667 100.5,59.5C 100.238,58.0222 100.571,56.6888 101.5,55.5C 105.851,58.3579 109.684,57.6913 113,53.5C 117.233,54.1077 121.4,53.441 125.5,51.5C 125.833,51.1667 126.167,50.8333 126.5,50.5C 124.235,49.3526 121.902,49.1859 119.5,50C 119.833,50.3333 120.167,50.6667 120.5,51C 119.251,51.7401 118.251,51.5735 117.5,50.5C 118.506,50.0623 118.506,49.3957 117.5,48.5C 121.081,47.7401 124.748,47.2401 128.5,47C 129.772,45.6932 130.772,44.1932 131.5,42.5C 132.44,44.9375 133.94,46.9375 136,48.5C 153.321,47.2523 170.821,47.2523 188.5,48.5C 177.493,49.3723 166.159,49.7057 154.5,49.5 Z"/></g>
<g><path style="opacity:1" fill="#707276" d="M 178.5,51.5 C 172.833,52.1667 167.167,52.8333 161.5,53.5C 159.504,55.3332 157.171,55.8332 154.5,55C 153.167,54 153.167,53 154.5,52C 162.493,51.5003 170.493,51.3336 178.5,51.5 Z"/></g>
<g><path style="opacity:1" fill="#5b8e99" d="M 284.5,51.5 C 284.833,51.5 285.167,51.5 285.5,51.5C 302.841,53.1684 320.174,55.5017 337.5,58.5C 337.5,58.8333 337.5,59.1667 337.5,59.5C 322.379,57.7143 307.213,56.381 292,55.5C 285.608,55.4227 279.441,56.0893 273.5,57.5C 271.5,57.5 269.5,57.5 267.5,57.5C 265.585,57.7845 263.919,57.4511 262.5,56.5C 265.987,56.3781 268.987,55.2114 271.5,53C 275.863,52.6306 280.196,52.1306 284.5,51.5 Z"/></g>
<g><path style="opacity:1" fill="#c0bea7" d="M 45.5,53.5 C 46.1667,53.5 46.8333,53.5 47.5,53.5C 51.8333,53.5 56.1667,53.5 60.5,53.5C 60.5,54.8333 60.5,56.1667 60.5,57.5C 55.5,57.5 50.5,57.5 45.5,57.5C 45.5,56.1667 45.5,54.8333 45.5,53.5 Z"/></g>
<g><path style="opacity:1" fill="#272527" d="M 245.5,41.5 C 246.919,42.4511 248.585,42.7845 250.5,42.5C 244.278,43.9156 237.945,45.4156 231.5,47C 230.356,50.3194 231.689,51.8194 235.5,51.5C 237.607,52.4682 239.941,52.8016 242.5,52.5C 242.5,53.5 242.5,54.5 242.5,55.5C 232.167,55.5 221.833,55.5 211.5,55.5C 205.31,55.8229 199.31,55.4896 193.5,54.5C 193.5,54.1667 193.5,53.8333 193.5,53.5C 193.938,53.5654 194.272,53.3988 194.5,53C 193.833,52.6667 193.167,52.3333 192.5,52C 195.432,50.8551 198.432,50.0218 201.5,49.5C 201.782,50.7777 202.449,51.7777 203.5,52.5C 200.999,52.5109 200.832,53.1776 203,54.5C 205.522,53.9887 208.188,53.9887 211,54.5C 214.869,54.2719 218.702,53.7719 222.5,53C 222,52.5 221.5,52 221,51.5C 219.586,52.4132 218.086,52.4132 216.5,51.5C 217.429,50.6851 218.429,49.8518 219.5,49C 222.576,48.6543 225.576,47.9876 228.5,47C 229.056,46.6174 229.389,46.1174 229.5,45.5C 232.914,45.2937 235.581,43.7937 237.5,41C 240.192,40.5702 242.859,40.7369 245.5,41.5 Z"/></g>
<g><path style="opacity:1" fill="#8a8a8d" d="M 216.5,51.5 C 218.086,52.4132 219.586,52.4132 221,51.5C 221.5,52 222,52.5 222.5,53C 218.702,53.7719 214.869,54.2719 211,54.5C 208.188,53.9887 205.522,53.9887 203,54.5C 200.832,53.1776 200.999,52.5109 203.5,52.5C 207.846,51.8901 212.179,51.5567 216.5,51.5 Z"/></g>
<g><path style="opacity:1" fill="#9ebcc2" d="M 338.5,57.5 C 338.5,58.1667 338.167,58.5 337.5,58.5C 320.174,55.5017 302.841,53.1684 285.5,51.5C 289.5,51.5 293.5,51.5 297.5,51.5C 297.5,50.5 297.5,49.5 297.5,48.5C 299.942,48.3537 300.609,49.187 299.5,51C 307.422,52.4936 315.422,53.6602 323.5,54.5C 323.5,49.5 323.5,44.5 323.5,39.5C 324.5,39.5 325.5,39.5 326.5,39.5C 325.334,44.497 325.334,49.497 326.5,54.5C 330.623,55.5106 334.623,56.5106 338.5,57.5 Z"/></g>
<g><path style="opacity:1" fill="#3f3e40" d="M 45.5,53.5 C 45.5,54.8333 45.5,56.1667 45.5,57.5C 41.7004,59.5698 38.0338,61.9031 34.5,64.5C 34.4827,62.9719 33.816,62.4719 32.5,63C 30.9697,65.352 29.3031,67.5187 27.5,69.5C 28.392,66.5176 29.7253,63.6843 31.5,61C 35.4685,57.1826 40.1351,54.6826 45.5,53.5 Z"/></g>
<g><path style="opacity:1" fill="#131315" d="M 45.5,57.5 C 50.5,57.5 55.5,57.5 60.5,57.5C 64.2996,59.5698 67.9662,61.9031 71.5,64.5C 76.7379,68.8603 79.0712,74.527 78.5,81.5C 79.0593,88.9482 76.726,95.2815 71.5,100.5C 72.0016,101.521 72.6683,101.688 73.5,101C 77.2654,96.8769 79.5988,92.0436 80.5,86.5C 81.404,87.209 81.7373,88.209 81.5,89.5C 85.8967,89.4246 90.23,89.9246 94.5,91C 103.47,94.5935 112.803,96.2602 122.5,96C 122.833,96.3333 123.167,96.6667 123.5,97C 117.02,98.9125 110.353,100.079 103.5,100.5C 102.051,101.172 100.718,101.839 99.5,102.5C 91.4931,102.334 83.4931,102.5 75.5,103C 71.3525,107.673 66.3525,110.84 60.5,112.5C 55.5,112.5 50.5,112.5 45.5,112.5C 31.7504,107.738 23.7504,98.0712 21.5,83.5C 17.9284,82.319 14.2617,81.6524 10.5,81.5C 10.7413,77.1316 9.74128,73.1316 7.5,69.5C 8.16667,69.8333 8.83333,70.1667 9.5,70.5C 9.83333,70.5 10.1667,70.5 10.5,70.5C 10.3893,71.1174 10.056,71.6174 9.5,72C 15.2179,72.7401 20.8846,72.5735 26.5,71.5C 23.5077,82.8584 25.8411,92.8584 33.5,101.5C 33.8333,101.167 34.1667,100.833 34.5,100.5C 27.4176,91.944 25.5842,82.2773 29,71.5C 30.371,68.7339 32.2043,66.4006 34.5,64.5C 38.0338,61.9031 41.7004,59.5698 45.5,57.5 Z"/></g>
<g><path style="opacity:1" fill="#7a939f" d="M 211.5,55.5 C 221.833,55.5 232.167,55.5 242.5,55.5C 245.698,54.9644 248.365,55.631 250.5,57.5C 249.432,58.4345 248.099,58.7678 246.5,58.5C 240.509,58.9657 234.509,59.299 228.5,59.5C 227.602,58.8423 226.602,58.1757 225.5,57.5C 220.683,56.8331 216.017,56.1665 211.5,55.5 Z"/></g>
<g><path style="opacity:1" fill="#141415" d="M 349.5,57.5 C 353.833,57.5 358.167,57.5 362.5,57.5C 367.202,59.0198 371.536,61.3532 375.5,64.5C 383.654,72.4698 385.488,81.8032 381,92.5C 379.311,95.6667 377.478,98.6667 375.5,101.5C 374.211,100.499 372.878,100.666 371.5,102C 370.167,102.667 370.167,103.333 371.5,104C 369.34,107.084 368.006,107.25 367.5,104.5C 365.604,105.275 363.937,106.275 362.5,107.5C 358.4,107.237 354.4,107.57 350.5,108.5C 350.179,106.952 349.179,106.285 347.5,106.5C 346.486,105.326 345.153,104.66 343.5,104.5C 342.065,103.491 341.231,102.157 341,100.5C 337.64,102.202 337.14,104.202 339.5,106.5C 332.785,102.428 328.785,96.4276 327.5,88.5C 327.334,84.1539 327.501,79.8206 328,75.5C 328.333,80.1667 328.667,84.8333 329,89.5C 329.29,91.9192 330.124,93.2525 331.5,93.5C 332.899,95.9424 334.566,98.2757 336.5,100.5C 337.167,101.833 337.833,101.833 338.5,100.5C 331.635,92.2015 329.802,82.8682 333,72.5C 334.116,69.2444 335.949,66.5777 338.5,64.5C 342.034,61.9031 345.7,59.5698 349.5,57.5 Z"/></g>
<g><path style="opacity:1" fill="#daddde" d="M 103.5,59.5 C 103.5,60.1667 103.833,60.5 104.5,60.5C 102.971,60.681 101.304,61.0143 99.5,61.5C 98.6002,60.643 98.9336,59.9763 100.5,59.5C 101.5,58.1667 102.5,58.1667 103.5,59.5 Z"/></g>
<g><path style="opacity:1" fill="#792b2f" d="M 334.5,62.5 C 332.621,63.3414 330.621,63.6747 328.5,63.5C 327.761,63.631 327.094,63.4643 326.5,63C 327.833,62.3333 327.833,61.6667 326.5,61C 327.833,60.8333 329.167,60.6667 330.5,60.5C 332.333,60.5854 333.666,61.2521 334.5,62.5 Z"/></g>
<g><path style="opacity:1" fill="#060708" d="M 267.5,57.5 C 269.5,57.5 271.5,57.5 273.5,57.5C 279.324,57.3466 279.657,58.0133 274.5,59.5C 275.025,60.1924 275.692,60.6924 276.5,61C 274.413,60.7821 272.413,60.9488 270.5,61.5C 281.364,64.1777 283.364,69.8443 276.5,78.5C 252.384,83.8024 228.05,87.8024 203.5,90.5C 172.848,91.4363 142.181,91.7697 111.5,91.5C 106.823,91.1655 102.156,90.6655 97.5,90C 92.2858,88.0576 86.9525,86.5576 81.5,85.5C 81.8016,82.9407 81.4682,80.6074 80.5,78.5C 80.634,76.7085 80.3007,75.0418 79.5,73.5C 80.3945,69.866 79.3945,66.5326 76.5,63.5C 78.2914,62.8302 79.9581,62.1635 81.5,61.5C 84.8333,61.5 88.1667,61.5 91.5,61.5C 91.67,62.8221 91.3366,63.9887 90.5,65C 91.8333,65.6667 93.1667,65.6667 94.5,65C 93.6198,63.6439 93.2865,62.1439 93.5,60.5C 94.8333,60.5 96.1667,60.5 97.5,60.5C 97.5,61.5 97.5,62.5 97.5,63.5C 100.455,62.8413 103.455,62.5079 106.5,62.5C 105.488,65.6883 105.488,68.6883 106.5,71.5C 104.827,70.657 103.66,69.3237 103,67.5C 102.07,69.5524 100.57,71.0524 98.5,72C 100.903,71.5769 103.237,71.7436 105.5,72.5C 107.931,73.7409 107.931,74.9076 105.5,76C 106.167,76.3333 106.833,76.6667 107.5,77C 104.216,78.1245 100.883,79.1245 97.5,80C 103.216,80.2818 108.883,80.9484 114.5,82C 121.167,82.6667 127.833,82.6667 134.5,82C 136.022,80.4782 137.522,78.9782 139,77.5C 140.762,77.9444 140.595,78.4444 138.5,79C 139.667,79.1667 140.833,79.3333 142,79.5C 146.39,80.1271 150.723,79.4604 155,77.5C 157.072,77.3389 159.239,77.6722 161.5,78.5C 161.898,82.7589 159.898,84.5922 155.5,84C 159.551,84.5177 163.551,84.1843 167.5,83C 167.043,82.586 166.709,82.086 166.5,81.5C 167.602,80.8243 168.602,80.1577 169.5,79.5C 170.167,79.5 170.5,79.1667 170.5,78.5C 171.451,79.9187 171.784,81.5853 171.5,83.5C 174.167,83.5 176.833,83.5 179.5,83.5C 181.735,83.7947 183.735,83.4614 185.5,82.5C 186.165,80.6309 186.831,78.6309 187.5,76.5C 188.169,78.6309 188.835,80.6309 189.5,82.5C 191.124,82.6399 192.29,81.9733 193,80.5C 193.708,81.3805 194.542,82.0472 195.5,82.5C 195.735,83.0967 196.235,83.4301 197,83.5C 198.011,82.9444 198.844,82.2778 199.5,81.5C 203.326,84.4599 206.326,83.7932 208.5,79.5C 209.167,80.5 209.833,81.5 210.5,82.5C 211.943,81.6649 212.943,80.3316 213.5,78.5C 214.728,81.0715 216.728,82.4048 219.5,82.5C 219.5,79.5 219.5,76.5 219.5,73.5C 220.779,72.2848 221.779,72.6182 222.5,74.5C 221.833,77.1667 221.167,79.8333 220.5,82.5C 223.587,81.008 226.421,81.3413 229,83.5C 231.795,82.8148 234.628,82.3148 237.5,82C 238.517,80.9505 238.684,79.7839 238,78.5C 236.581,77.5399 235.081,76.7065 233.5,76C 234.938,75.7811 236.271,75.2811 237.5,74.5C 237.376,73.8933 237.043,73.56 236.5,73.5C 235.391,72.71 234.058,72.21 232.5,72C 235.275,71.2217 237.775,71.7217 240,73.5C 243.383,72.186 246.883,71.3527 250.5,71C 252.749,68.7063 254.749,66.2063 256.5,63.5C 259,62.6411 261.333,61.6411 263.5,60.5C 265.179,60.1077 266.846,59.6077 268.5,59C 267.944,58.6174 267.611,58.1174 267.5,57.5 Z"/></g>
<g><path style="opacity:0.991" fill="#101013" d="M 337.5,59.5 C 336.833,60.8333 335.833,61.8333 334.5,62.5C 333.666,61.2521 332.333,60.5854 330.5,60.5C 329.167,60.6667 327.833,60.8333 326.5,61C 327.833,61.6667 327.833,62.3333 326.5,63C 327.094,63.4643 327.761,63.631 328.5,63.5C 330.5,64.1667 332.5,64.8333 334.5,65.5C 329.127,74.3505 328.127,83.6838 331.5,93.5C 330.124,93.2525 329.29,91.9192 329,89.5C 328.667,84.8333 328.333,80.1667 328,75.5C 327.501,79.8206 327.334,84.1539 327.5,88.5C 326.523,85.7131 326.19,82.7131 326.5,79.5C 322.821,79.2756 319.154,78.9422 315.5,78.5C 315.213,76.8793 314.213,75.8793 312.5,75.5C 306.563,77.0061 300.563,78.0061 294.5,78.5C 294.389,77.8826 294.056,77.3826 293.5,77C 287.725,76.3109 282.058,76.8109 276.5,78.5C 283.364,69.8443 281.364,64.1777 270.5,61.5C 272.413,60.9488 274.413,60.7821 276.5,61C 275.692,60.6924 275.025,60.1924 274.5,59.5C 279.657,58.0133 279.324,57.3466 273.5,57.5C 279.441,56.0893 285.608,55.4227 292,55.5C 307.213,56.381 322.379,57.7143 337.5,59.5 Z"/></g>
<g><path style="opacity:1" fill="#93959b" d="M 282.5,58.5 C 287.162,59.7583 291.829,59.7583 296.5,58.5C 298.915,58.7189 299.915,60.0523 299.5,62.5C 293.158,62.6662 286.825,62.4995 280.5,62C 281.305,60.8873 281.972,59.7206 282.5,58.5 Z"/></g>
<g><path style="opacity:1" fill="#7b7c81" d="M 306.5,58.5 C 309.833,58.5 313.167,58.5 316.5,58.5C 317.245,61.9304 315.911,63.597 312.5,63.5C 310.05,63.2389 307.717,62.5723 305.5,61.5C 304.033,61.723 302.533,62.0563 301,62.5C 300.423,59.5403 301.423,58.8737 304,60.5C 305.301,60.3613 306.134,59.6946 306.5,58.5 Z"/></g>
<g><path style="opacity:1" fill="#3d4148" d="M 189.5,54.5 C 190.833,54.5 192.167,54.5 193.5,54.5C 199.31,55.4896 205.31,55.8229 211.5,55.5C 216.017,56.1665 220.683,56.8331 225.5,57.5C 226.602,58.1757 227.602,58.8423 228.5,59.5C 218.716,59.6797 209.05,60.8463 199.5,63C 215.382,62.481 231.048,60.981 246.5,58.5C 248.099,58.7678 249.432,58.4345 250.5,57.5C 254.566,57.693 258.566,57.3597 262.5,56.5C 263.919,57.4511 265.585,57.7845 267.5,57.5C 267.611,58.1174 267.944,58.6174 268.5,59C 266.846,59.6077 265.179,60.1077 263.5,60.5C 244.989,63.7511 226.322,65.2511 207.5,65C 193.4,66.418 179.4,68.418 165.5,71C 170.294,71.9021 174.961,72.7355 179.5,73.5C 177.167,73.5 174.833,73.5 172.5,73.5C 172.5,76.5 172.5,79.5 172.5,82.5C 174.833,82.5 177.167,82.5 179.5,82.5C 179.5,82.8333 179.5,83.1667 179.5,83.5C 176.833,83.5 174.167,83.5 171.5,83.5C 171.784,81.5853 171.451,79.9187 170.5,78.5C 170.5,76.8333 170.5,75.1667 170.5,73.5C 168.167,73.5 165.833,73.5 163.5,73.5C 163.183,76.5719 163.516,79.5719 164.5,82.5C 165.386,81.675 165.719,80.675 165.5,79.5C 166.833,79.5 168.167,79.5 169.5,79.5C 168.602,80.1577 167.602,80.8243 166.5,81.5C 166.709,82.086 167.043,82.586 167.5,83C 163.551,84.1843 159.551,84.5177 155.5,84C 159.898,84.5922 161.898,82.7589 161.5,78.5C 161.5,76.5 161.5,74.5 161.5,72.5C 149.304,75.3561 136.971,77.5228 124.5,79C 118.833,79.6667 113.167,79.6667 107.5,79C 108.833,78.3333 110.167,77.6667 111.5,77C 126.483,74.2609 141.483,71.5942 156.5,69C 169.387,68.0742 182.053,66.0742 194.5,63C 191.833,62.3333 191.833,61.6667 194.5,61C 191.146,60.5448 187.813,60.0448 184.5,59.5C 184.5,58.5 184.5,57.5 184.5,56.5C 186.857,56.6633 189.19,56.4966 191.5,56C 190.584,55.7216 189.918,55.2216 189.5,54.5 Z"/></g>
<g><path style="opacity:1" fill="#257a88" d="M 246.5,58.5 C 231.048,60.981 215.382,62.481 199.5,63C 209.05,60.8463 218.716,59.6797 228.5,59.5C 234.509,59.299 240.509,58.9657 246.5,58.5 Z"/></g>
<g><path style="opacity:1" fill="#69737a" d="M 23.5,68.5 C 22.5,68.5 21.5,68.5 20.5,68.5C 17.2242,67.1744 13.8909,66.5077 10.5,66.5C 15.1196,65.5067 19.7863,65.1734 24.5,65.5C 24.7373,66.791 24.404,67.791 23.5,68.5 Z"/></g>
<g><path style="opacity:1" fill="#131517" d="M 154.5,49.5 C 153.77,50.7124 152.77,51.7124 151.5,52.5C 152.485,54.0983 152.651,55.765 152,57.5C 151.411,55.1367 149.911,54.1367 147.5,54.5C 147.5,56.8333 147.5,59.1667 147.5,61.5C 142.309,60.3984 137.642,61.7317 133.5,65.5C 134.03,67.2438 134.03,68.7438 133.5,70C 135.333,70.1667 137.167,70.3333 139,70.5C 152.07,68.5205 164.903,65.8538 177.5,62.5C 177.649,61.448 177.483,60.448 177,59.5C 175.391,58.8534 173.891,58.02 172.5,57C 173.5,56.6667 174.5,56.3333 175.5,56C 172.635,55.8171 169.969,55.3171 167.5,54.5C 174.761,53.9055 182.094,53.9055 189.5,54.5C 189.918,55.2216 190.584,55.7216 191.5,56C 189.19,56.4966 186.857,56.6633 184.5,56.5C 184.5,57.5 184.5,58.5 184.5,59.5C 187.813,60.0448 191.146,60.5448 194.5,61C 191.833,61.6667 191.833,62.3333 194.5,63C 182.053,66.0742 169.387,68.0742 156.5,69C 141.483,71.5942 126.483,74.2609 111.5,77C 110.167,77.6667 108.833,78.3333 107.5,79C 113.167,79.6667 118.833,79.6667 124.5,79C 136.971,77.5228 149.304,75.3561 161.5,72.5C 161.5,74.5 161.5,76.5 161.5,78.5C 159.239,77.6722 157.072,77.3389 155,77.5C 150.723,79.4604 146.39,80.1271 142,79.5C 140.833,79.3333 139.667,79.1667 138.5,79C 140.595,78.4444 140.762,77.9444 139,77.5C 137.522,78.9782 136.022,80.4782 134.5,82C 127.833,82.6667 121.167,82.6667 114.5,82C 108.883,80.9484 103.216,80.2818 97.5,80C 100.883,79.1245 104.216,78.1245 107.5,77C 106.833,76.6667 106.167,76.3333 105.5,76C 107.931,74.9076 107.931,73.7409 105.5,72.5C 106.167,72.5 106.5,72.1667 106.5,71.5C 105.488,68.6883 105.488,65.6883 106.5,62.5C 106.167,61.5 105.5,60.8333 104.5,60.5C 103.833,60.5 103.5,60.1667 103.5,59.5C 108.322,58.6009 113.322,57.9343 118.5,57.5C 120.333,57.5854 121.666,58.2521 122.5,59.5C 121.571,60.3149 120.571,61.1482 119.5,62C 119.833,62.1667 120.167,62.3333 120.5,62.5C 123.14,61.6648 125.807,61.4981 128.5,62C 126.907,61.0513 125.574,59.8846 124.5,58.5C 124.5,57.5 124.5,56.5 124.5,55.5C 128.917,55.3927 133.251,54.7261 137.5,53.5C 134.553,52.6786 131.553,52.1786 128.5,52C 128.043,51.586 127.709,51.086 127.5,50.5C 129,50.1667 130.5,49.8333 132,49.5C 139.199,50.0337 146.699,50.0337 154.5,49.5 Z"/></g>
<g><path style="opacity:1" fill="#bfc1c3" d="M 112.5,61.5 C 113.198,63.6669 114.531,65.5002 116.5,67C 113.802,65.9987 111.302,66.4987 109,68.5C 110.645,66.6099 111.812,64.2766 112.5,61.5 Z"/></g>
<g><path style="opacity:1" fill="#97999a" d="M 124.5,58.5 C 125.574,59.8846 126.907,61.0513 128.5,62C 125.807,61.4981 123.14,61.6648 120.5,62.5C 120.167,62.3333 119.833,62.1667 119.5,62C 120.571,61.1482 121.571,60.3149 122.5,59.5C 123.167,59.1667 123.833,58.8333 124.5,58.5 Z"/></g>
<g><path style="opacity:1" fill="#1a1e21" d="M 263.5,60.5 C 261.333,61.6411 259,62.6411 256.5,63.5C 254.749,66.2063 252.749,68.7063 250.5,71C 246.883,71.3527 243.383,72.186 240,73.5C 237.775,71.7217 235.275,71.2217 232.5,72C 234.058,72.21 235.391,72.71 236.5,73.5C 228.95,74.3343 228.616,76.5009 235.5,80C 233.567,80.2511 231.734,80.7511 230,81.5C 229.023,78.8976 227.856,76.3976 226.5,74C 225.072,73.4209 223.738,73.5876 222.5,74.5C 221.779,72.6182 220.779,72.2848 219.5,73.5C 218.5,73.5 217.5,73.5 216.5,73.5C 216.668,78.5324 215.668,78.6991 213.5,74C 212.552,73.5172 211.552,73.3505 210.5,73.5C 210.5,76.5 210.5,79.5 210.5,82.5C 209.833,81.5 209.167,80.5 208.5,79.5C 208.496,74.0115 205.829,72.1781 200.5,74C 198.453,76.3303 198.12,78.8303 199.5,81.5C 198.844,82.2778 198.011,82.9444 197,83.5C 196.235,83.4301 195.735,83.0967 195.5,82.5C 196.376,82.6309 197.043,82.2975 197.5,81.5C 197.119,79.2593 196.952,76.926 197,74.5C 194.619,73.565 192.119,73.2317 189.5,73.5C 189.5,76.5 189.5,79.5 189.5,82.5C 188.835,80.6309 188.169,78.6309 187.5,76.5C 186.831,78.6309 186.165,80.6309 185.5,82.5C 183.735,83.4614 181.735,83.7947 179.5,83.5C 179.5,83.1667 179.5,82.8333 179.5,82.5C 178.411,80.8829 176.744,80.0496 174.5,80C 176.134,79.5065 177.801,79.3398 179.5,79.5C 179.5,78.5 179.5,77.5 179.5,76.5C 177.801,76.6602 176.134,76.4935 174.5,76C 176.744,75.9504 178.411,75.1171 179.5,73.5C 174.961,72.7355 170.294,71.9021 165.5,71C 179.4,68.418 193.4,66.418 207.5,65C 226.322,65.2511 244.989,63.7511 263.5,60.5 Z"/></g>
<g><path style="opacity:1" fill="#a4b5be" d="M 20.5,68.5 C 21.5,68.5 22.5,68.5 23.5,68.5C 19.6273,70.4302 15.294,71.0969 10.5,70.5C 10.1667,70.5 9.83333,70.5 9.5,70.5C 12.6843,68.5864 16.351,67.9197 20.5,68.5 Z"/></g>
<g><path style="opacity:1" fill="#bfc2c3" d="M 106.5,71.5 C 106.5,72.1667 106.167,72.5 105.5,72.5C 103.237,71.7436 100.903,71.5769 98.5,72C 100.57,71.0524 102.07,69.5524 103,67.5C 103.66,69.3237 104.827,70.657 106.5,71.5 Z"/></g>
<g><path style="opacity:1" fill="#648c97" d="M 383.5,66.5 C 391.805,68.5683 399.805,71.235 407.5,74.5C 399.954,74.691 392.621,73.5243 385.5,71C 384.733,69.5295 384.067,68.0295 383.5,66.5 Z"/></g>
<g><path style="opacity:1" fill="#cfe1e8" d="M 185.5,82.5 C 183.656,80.7211 182.99,78.3878 183.5,75.5C 182.325,75.719 181.325,75.3857 180.5,74.5C 183.167,73.1667 185.833,73.1667 188.5,74.5C 187.675,75.3857 186.675,75.719 185.5,75.5C 185.5,77.8333 185.5,80.1667 185.5,82.5 Z"/></g>
<g><path style="opacity:0.943" fill="#1d1d1d" d="M 383.5,66.5 C 384.067,68.0295 384.733,69.5295 385.5,71C 392.621,73.5243 399.954,74.691 407.5,74.5C 415.414,74.6315 422.081,77.4649 427.5,83C 433.287,85.3935 438.954,88.0602 444.5,91C 446.174,92.5059 447.174,94.3393 447.5,96.5C 442.405,95.714 438.738,97.5473 436.5,102C 435.167,102.333 433.833,102.667 432.5,103C 419.797,103.497 407.13,102.997 394.5,101.5C 395.702,97.9517 396.369,94.285 396.5,90.5C 393.167,90.1667 389.833,89.8333 386.5,89.5C 383.253,101.08 375.92,108.747 364.5,112.5C 359.5,112.5 354.5,112.5 349.5,112.5C 345.868,111.016 342.534,109.016 339.5,106.5C 337.14,104.202 337.64,102.202 341,100.5C 341.231,102.157 342.065,103.491 343.5,104.5C 342.761,104.369 342.094,104.536 341.5,105C 343.421,105.36 345.088,106.194 346.5,107.5C 347.107,107.376 347.44,107.043 347.5,106.5C 349.179,106.285 350.179,106.952 350.5,108.5C 353.36,109.244 356.36,109.911 359.5,110.5C 360.5,110 361.5,109.5 362.5,109C 363.738,108.31 363.738,107.81 362.5,107.5C 363.937,106.275 365.604,105.275 367.5,104.5C 368.006,107.25 369.34,107.084 371.5,104C 370.167,103.333 370.167,102.667 371.5,102C 372.878,100.666 374.211,100.499 375.5,101.5C 379.379,99.7945 381.879,96.7945 383,92.5C 386.409,81.5833 384.576,71.75 377.5,63C 376.184,62.4719 375.517,62.9719 375.5,64.5C 371.536,61.3532 367.202,59.0198 362.5,57.5C 362.721,54.9028 363.221,54.9028 364,57.5C 364.49,56.2068 364.657,54.8734 364.5,53.5C 359.5,53.5 354.5,53.5 349.5,53.5C 349.5,54.8333 349.5,56.1667 349.5,57.5C 345.7,59.5698 342.034,61.9031 338.5,64.5C 338.631,63.6236 338.298,62.9569 337.5,62.5C 336.712,63.7701 335.712,64.7701 334.5,65.5C 332.5,64.8333 330.5,64.1667 328.5,63.5C 330.621,63.6747 332.621,63.3414 334.5,62.5C 335.833,61.8333 336.833,60.8333 337.5,59.5C 337.5,59.1667 337.5,58.8333 337.5,58.5C 338.167,58.5 338.5,58.1667 338.5,57.5C 341.312,55.5919 344.312,53.9252 347.5,52.5C 348.262,51.3717 348.929,50.2051 349.5,49C 354.428,47.5822 359.428,47.2489 364.5,48C 366.405,49.8153 368.072,51.8153 369.5,54C 375.58,56.5799 380.247,60.7466 383.5,66.5 Z"/></g>
<g><path style="opacity:1" fill="#bfbda5" d="M 362.5,57.5 C 358.167,57.5 353.833,57.5 349.5,57.5C 349.5,56.1667 349.5,54.8333 349.5,53.5C 354.5,53.5 359.5,53.5 364.5,53.5C 364.657,54.8734 364.49,56.2068 364,57.5C 363.221,54.9028 362.721,54.9028 362.5,57.5 Z"/></g>
<g><path style="opacity:1" fill="#c6d7de" d="M 219.5,73.5 C 219.5,76.5 219.5,79.5 219.5,82.5C 216.728,82.4048 214.728,81.0715 213.5,78.5C 212.943,80.3316 211.943,81.6649 210.5,82.5C 210.5,79.5 210.5,76.5 210.5,73.5C 211.552,73.3505 212.552,73.5172 213.5,74C 215.668,78.6991 216.668,78.5324 216.5,73.5C 217.5,73.5 218.5,73.5 219.5,73.5 Z"/></g>
<g><path style="opacity:1" fill="#8e9097" d="M 388.5,76.5 C 400.39,78.1211 400.39,79.1211 388.5,79.5C 388.5,78.5 388.5,77.5 388.5,76.5 Z"/></g>
<g><path style="opacity:1" fill="#383a3a" d="M 46.5,67.5 C 54.3887,66.8024 61.0554,69.469 66.5,75.5C 67.2779,79.4295 67.6113,83.2628 67.5,87C 63.3933,94.93 56.7266,97.43 47.5,94.5C 44.0369,92.5353 41.0369,90.0353 38.5,87C 38.7034,83.6112 38.87,80.1112 39,76.5C 39.9803,75.0186 41.147,73.6853 42.5,72.5C 41.9747,71.8076 41.3081,71.3076 40.5,71C 43.0254,70.5762 45.0254,69.4095 46.5,67.5 Z"/></g>
<g><path style="opacity:1" fill="#555554" d="M 48.5,70.5 C 57.7535,68.2816 63.0869,71.7816 64.5,81C 64.6306,89.0348 60.6306,92.8681 52.5,92.5C 50.0741,92.5965 47.9074,91.9298 46,90.5C 39.4073,82.821 40.2407,76.1544 48.5,70.5 Z"/></g>
<g><path style="opacity:1" fill="#343536" d="M 49.5,72.5 C 59.7119,71.8811 63.5452,76.5477 61,86.5C 55.1898,92.0935 49.8564,91.7602 45,85.5C 43.243,79.8252 44.743,75.4918 49.5,72.5 Z"/></g>
<g><path style="opacity:1" fill="#dce9ed" d="M 170.5,78.5 C 170.5,79.1667 170.167,79.5 169.5,79.5C 168.167,79.5 166.833,79.5 165.5,79.5C 165.719,80.675 165.386,81.675 164.5,82.5C 163.516,79.5719 163.183,76.5719 163.5,73.5C 165.833,73.5 168.167,73.5 170.5,73.5C 170.5,75.1667 170.5,76.8333 170.5,78.5 Z"/></g>
<g><path style="opacity:1" fill="#494f53" d="M 165.5,75.5 C 166.5,75.5 167.5,75.5 168.5,75.5C 168.5,76.5 168.5,77.5 168.5,78.5C 167.5,78.5 166.5,78.5 165.5,78.5C 165.5,77.5 165.5,76.5 165.5,75.5 Z"/></g>
<g><path style="opacity:1" fill="#b9c8cd" d="M 179.5,73.5 C 178.411,75.1171 176.744,75.9504 174.5,76C 176.134,76.4935 177.801,76.6602 179.5,76.5C 179.5,77.5 179.5,78.5 179.5,79.5C 177.801,79.3398 176.134,79.5065 174.5,80C 176.744,80.0496 178.411,80.8829 179.5,82.5C 177.167,82.5 174.833,82.5 172.5,82.5C 172.5,79.5 172.5,76.5 172.5,73.5C 174.833,73.5 177.167,73.5 179.5,73.5 Z"/></g>
<g><path style="opacity:1" fill="#53a43c" d="M 52.5,76.5 C 58.3318,78.4795 59.3318,81.6461 55.5,86C 49.4438,86.7812 47.1105,84.2812 48.5,78.5C 50.3797,78.7709 51.713,78.1042 52.5,76.5 Z"/></g>
<g><path style="opacity:1" fill="#c4d4da" d="M 195.5,82.5 C 194.542,82.0472 193.708,81.3805 193,80.5C 192.29,81.9733 191.124,82.6399 189.5,82.5C 189.5,79.5 189.5,76.5 189.5,73.5C 192.119,73.2317 194.619,73.565 197,74.5C 196.952,76.926 197.119,79.2593 197.5,81.5C 197.043,82.2975 196.376,82.6309 195.5,82.5 Z"/></g>
<g><path style="opacity:1" fill="#18191a" d="M 192.5,75.5 C 193.675,75.281 194.675,75.6143 195.5,76.5C 193.948,77.7979 192.948,77.4646 192.5,75.5 Z"/></g>
<g><path style="opacity:1" fill="#c1d2d8" d="M 208.5,79.5 C 206.326,83.7932 203.326,84.4599 199.5,81.5C 198.12,78.8303 198.453,76.3303 200.5,74C 205.829,72.1781 208.496,74.0115 208.5,79.5 Z"/></g>
<g><path style="opacity:1" fill="#161719" d="M 202.5,75.5 C 206.161,75.3501 207.161,76.8501 205.5,80C 201.707,80.4866 200.707,78.9866 202.5,75.5 Z"/></g>
<g><path style="opacity:1" fill="#b8c7cd" d="M 236.5,73.5 C 237.043,73.56 237.376,73.8933 237.5,74.5C 236.271,75.2811 234.938,75.7811 233.5,76C 235.081,76.7065 236.581,77.5399 238,78.5C 238.684,79.7839 238.517,80.9505 237.5,82C 234.628,82.3148 231.795,82.8148 229,83.5C 226.421,81.3413 223.587,81.008 220.5,82.5C 221.167,79.8333 221.833,77.1667 222.5,74.5C 223.738,73.5876 225.072,73.4209 226.5,74C 227.856,76.3976 229.023,78.8976 230,81.5C 231.734,80.7511 233.567,80.2511 235.5,80C 228.616,76.5009 228.95,74.3343 236.5,73.5 Z"/></g>
<g><path style="opacity:1" fill="#618555" d="M 55.5,81.5 C 56.7736,82.1894 56.7736,83.0228 55.5,84C 53.8659,84.4935 52.1992,84.6602 50.5,84.5C 50.5,82.8333 50.5,81.1667 50.5,79.5C 52.7812,79.0773 54.4479,79.744 55.5,81.5 Z"/></g>
<g><path style="opacity:1" fill="#7a697e" d="M 55.5,81.5 C 54.713,83.1042 53.3797,83.7709 51.5,83.5C 51.5,82.5 51.5,81.5 51.5,80.5C 52.9587,80.4326 54.2921,80.7659 55.5,81.5 Z"/></g>
<g><path style="opacity:1" fill="#21252d" d="M 315.5,78.5 C 314.833,79.8333 314.167,81.1667 313.5,82.5C 311.734,84.7706 309.734,86.9373 307.5,89C 306.563,89.6917 305.897,89.525 305.5,88.5C 305.033,85.1742 303.866,84.8409 302,87.5C 300.599,85.8078 298.766,85.1412 296.5,85.5C 297.952,84.6981 299.618,84.1981 301.5,84C 300.377,82.9563 299.044,82.2896 297.5,82C 303.284,79.2155 309.284,78.0488 315.5,78.5 Z"/></g>
<g><path style="opacity:1" fill="#a7a8ac" d="M 416.5,82.5 C 418.09,82.6282 419.423,83.2949 420.5,84.5C 419.443,84.9059 418.109,84.9059 416.5,84.5C 416.5,85.8333 416.5,87.1667 416.5,88.5C 417.822,88.67 418.989,88.3366 420,87.5C 420.612,89.2373 419.946,90.2373 418,90.5C 416.013,89.8464 414.68,88.513 414,86.5C 413.149,89.6124 411.983,89.9458 410.5,87.5C 409.833,88.1667 409.167,88.8333 408.5,89.5C 407.145,87.4765 406.812,85.4765 407.5,83.5C 408.251,84.376 408.751,85.376 409,86.5C 410,82.5 411,82.5 412,86.5C 412.284,84.1144 413.284,83.4477 415,84.5C 415.717,83.9558 416.217,83.2891 416.5,82.5 Z"/></g>
<g><path style="opacity:1" fill="#0f0f12" d="M 290.5,78.5 C 289.316,79.6879 289.316,80.8545 290.5,82C 289.756,83.0386 288.756,83.5386 287.5,83.5C 287.144,82.1301 286.31,81.1301 285,80.5C 277.596,82.4142 270.096,83.7476 262.5,84.5C 262.762,85.9778 262.429,87.3112 261.5,88.5C 258.497,89.6662 255.83,91.3328 253.5,93.5C 252.707,92.6446 253.04,91.8113 254.5,91C 248.627,90.0487 242.96,90.7153 237.5,93C 241.139,92.7221 244.806,92.7221 248.5,93C 244.63,95.5166 240.63,97.8499 236.5,100C 239.31,100.782 241.977,101.616 244.5,102.5C 245.946,103.613 247.613,103.78 249.5,103C 252.528,101.156 255.528,99.3222 258.5,97.5C 258.938,97.4346 259.272,97.6012 259.5,98C 258.016,99.5737 256.349,100.907 254.5,102C 256.619,102.342 256.953,103.175 255.5,104.5C 211.212,105.66 166.879,104.994 122.5,102.5C 122.082,101.778 121.416,101.278 120.5,101C 135.001,100.533 149.501,100.033 164,99.5C 169.037,99.5379 174.037,99.8712 179,100.5C 179.5,100.167 180,99.8333 180.5,99.5C 179.624,98.7492 178.624,98.2492 177.5,98C 172.177,97.5006 166.844,97.334 161.5,97.5C 150.903,96.5932 140.237,95.9265 129.5,95.5C 127.369,94.6862 125.036,94.1862 122.5,94C 132.167,93.6667 141.833,93.3333 151.5,93C 137.994,92.831 124.66,92.331 111.5,91.5C 142.181,91.7697 172.848,91.4363 203.5,90.5C 207.981,91.6484 212.648,91.8151 217.5,91C 241.896,87.0199 266.229,82.8533 290.5,78.5 Z"/></g>
<g><path style="opacity:0.978" fill="#060608" d="M 315.5,78.5 C 309.284,78.0488 303.284,79.2155 297.5,82C 299.044,82.2896 300.377,82.9563 301.5,84C 299.618,84.1981 297.952,84.6981 296.5,85.5C 295.484,87.7351 294.151,87.7351 292.5,85.5C 289.992,85.6588 287.492,85.6588 285,85.5C 283.033,86.7312 283.199,87.7312 285.5,88.5C 291.986,88.4058 298.653,88.4058 305.5,88.5C 305.897,89.525 306.563,89.6917 307.5,89C 309.734,86.9373 311.734,84.7706 313.5,82.5C 313.11,85.4658 313.777,88.1324 315.5,90.5C 314.675,91.3857 313.675,91.719 312.5,91.5C 312.108,94.9477 312.775,98.1143 314.5,101C 314.095,101.945 313.428,102.612 312.5,103C 293.515,104.081 274.515,104.581 255.5,104.5C 256.953,103.175 256.619,102.342 254.5,102C 256.349,100.907 258.016,99.5737 259.5,98C 259.272,97.6012 258.938,97.4346 258.5,97.5C 263.286,93.8945 268.619,91.2278 274.5,89.5C 278.179,86.1617 282.512,84.1617 287.5,83.5C 288.756,83.5386 289.756,83.0386 290.5,82C 289.316,80.8545 289.316,79.6879 290.5,78.5C 291.833,78.5 293.167,78.5 294.5,78.5C 300.563,78.0061 306.563,77.0061 312.5,75.5C 314.213,75.8793 315.213,76.8793 315.5,78.5 Z"/></g>
<g><path style="opacity:1" fill="#404242" d="M 354.5,67.5 C 357.159,67.1129 359.826,67.6129 362.5,69C 364.076,71.0771 366.076,72.5771 368.5,73.5C 369.584,74.6651 370.417,75.9984 371,77.5C 371.215,80.8035 371.382,83.9701 371.5,87C 366.48,93.8355 359.814,96.1688 351.5,94C 342.859,86.9064 342.193,78.9064 349.5,70C 351.315,69.2432 352.981,68.4098 354.5,67.5 Z"/></g>
<g><path style="opacity:1" fill="#39602f" d="M 354.5,85.5 C 351.447,81.6316 352.281,78.6316 357,76.5C 361.21,77.5884 362.877,80.2551 362,84.5C 359.566,87.6305 357.066,87.9639 354.5,85.5 Z"/></g>
<g><path style="opacity:1" fill="#211d26" d="M 354.5,85.5 C 352.862,83.0445 353.195,81.0445 355.5,79.5C 358.324,77.7993 359.991,78.6327 360.5,82C 360.415,83.1074 360.081,84.1074 359.5,85C 357.866,85.4935 356.199,85.6602 354.5,85.5 Z"/></g>
<g><path style="opacity:1" fill="#777777" d="M 355.5,79.5 C 358.5,79.1667 359.833,80.5 359.5,83.5C 358.167,83.5 356.833,83.5 355.5,83.5C 355.5,82.1667 355.5,80.8333 355.5,79.5 Z"/></g>
<g><path style="opacity:1" fill="#8c8c8f" d="M 296.5,85.5 C 298.766,85.1412 300.599,85.8078 302,87.5C 303.866,84.8409 305.033,85.1742 305.5,88.5C 298.653,88.4058 291.986,88.4058 285.5,88.5C 283.199,87.7312 283.033,86.7312 285,85.5C 287.492,85.6588 289.992,85.6588 292.5,85.5C 294.151,87.7351 295.484,87.7351 296.5,85.5 Z"/></g>
<g><path style="opacity:1" fill="#2d2b2f" d="M 294.5,78.5 C 293.167,78.5 291.833,78.5 290.5,78.5C 266.229,82.8533 241.896,87.0199 217.5,91C 212.648,91.8151 207.981,91.6484 203.5,90.5C 228.05,87.8024 252.384,83.8024 276.5,78.5C 282.058,76.8109 287.725,76.3109 293.5,77C 294.056,77.3826 294.389,77.8826 294.5,78.5 Z"/></g>
<g><path style="opacity:1" fill="#939499" d="M 403.5,83.5 C 404.283,85.3432 404.95,87.3432 405.5,89.5C 404.5,90.8333 403.5,90.8333 402.5,89.5C 403.348,87.5914 403.682,85.5914 403.5,83.5 Z"/></g>
<g><path style="opacity:1" fill="#dfdd31" d="M 375.5,101.5 C 377.478,98.6667 379.311,95.6667 381,92.5C 385.488,81.8032 383.654,72.4698 375.5,64.5C 375.517,62.9719 376.184,62.4719 377.5,63C 384.576,71.75 386.409,81.5833 383,92.5C 381.879,96.7945 379.379,99.7945 375.5,101.5 Z"/></g>
<g><path style="opacity:1" fill="#ddda31" d="M 338.5,64.5 C 335.949,66.5777 334.116,69.2444 333,72.5C 329.802,82.8682 331.635,92.2015 338.5,100.5C 337.833,101.833 337.167,101.833 336.5,100.5C 334.566,98.2757 332.899,95.9424 331.5,93.5C 328.127,83.6838 329.127,74.3505 334.5,65.5C 335.712,64.7701 336.712,63.7701 337.5,62.5C 338.298,62.9569 338.631,63.6236 338.5,64.5 Z"/></g>
<g><path style="opacity:1" fill="#dcd930" d="M 34.5,64.5 C 32.2043,66.4006 30.371,68.7339 29,71.5C 25.5842,82.2773 27.4176,91.944 34.5,100.5C 34.1667,100.833 33.8333,101.167 33.5,101.5C 25.8411,92.8584 23.5077,82.8584 26.5,71.5C 27.3382,71.1583 27.6716,70.4916 27.5,69.5C 29.3031,67.5187 30.9697,65.352 32.5,63C 33.816,62.4719 34.4827,62.9719 34.5,64.5 Z"/></g>
<g><path style="opacity:1" fill="#aaa7ac" d="M 274.5,89.5 C 268.619,91.2278 263.286,93.8945 258.5,97.5C 255.528,99.3222 252.528,101.156 249.5,103C 247.613,103.78 245.946,103.613 244.5,102.5C 247.673,101.83 250.673,100.664 253.5,99C 259.539,92.9668 266.539,89.8002 274.5,89.5 Z"/></g>
<g><path style="opacity:1" fill="#58575c" d="M 129.5,95.5 C 140.237,95.9265 150.903,96.5932 161.5,97.5C 150.31,98.7326 138.976,98.566 127.5,97C 127.167,96.6667 126.833,96.3333 126.5,96C 127.448,95.5172 128.448,95.3505 129.5,95.5 Z"/></g>
<g><path style="opacity:1" fill="#35353a" d="M 80.5,78.5 C 81.4682,80.6074 81.8016,82.9407 81.5,85.5C 86.9525,86.5576 92.2858,88.0576 97.5,90C 102.156,90.6655 106.823,91.1655 111.5,91.5C 124.66,92.331 137.994,92.831 151.5,93C 141.833,93.3333 132.167,93.6667 122.5,94C 125.036,94.1862 127.369,94.6862 129.5,95.5C 128.448,95.3505 127.448,95.5172 126.5,96C 126.833,96.3333 127.167,96.6667 127.5,97C 138.976,98.566 150.31,98.7326 161.5,97.5C 166.844,97.334 172.177,97.5006 177.5,98C 178.624,98.2492 179.624,98.7492 180.5,99.5C 180,99.8333 179.5,100.167 179,100.5C 174.037,99.8712 169.037,99.5379 164,99.5C 149.501,100.033 135.001,100.533 120.5,101C 121.416,101.278 122.082,101.778 122.5,102.5C 114.833,102.5 107.167,102.5 99.5,102.5C 100.718,101.839 102.051,101.172 103.5,100.5C 110.353,100.079 117.02,98.9125 123.5,97C 123.167,96.6667 122.833,96.3333 122.5,96C 112.803,96.2602 103.47,94.5935 94.5,91C 90.23,89.9246 85.8967,89.4246 81.5,89.5C 81.7373,88.209 81.404,87.209 80.5,86.5C 80.5,83.8333 80.5,81.1667 80.5,78.5 Z"/></g>
<g><path style="opacity:1" fill="#37363b" d="M 287.5,83.5 C 282.512,84.1617 278.179,86.1617 274.5,89.5C 266.539,89.8002 259.539,92.9668 253.5,99C 250.673,100.664 247.673,101.83 244.5,102.5C 241.977,101.616 239.31,100.782 236.5,100C 240.63,97.8499 244.63,95.5166 248.5,93C 244.806,92.7221 241.139,92.7221 237.5,93C 242.96,90.7153 248.627,90.0487 254.5,91C 253.04,91.8113 252.707,92.6446 253.5,93.5C 255.83,91.3328 258.497,89.6662 261.5,88.5C 262.429,87.3112 262.762,85.9778 262.5,84.5C 270.096,83.7476 277.596,82.4142 285,80.5C 286.31,81.1301 287.144,82.1301 287.5,83.5 Z"/></g>
<g><path style="opacity:1" fill="#d9d631" d="M 71.5,62.5 C 75.6159,64.972 78.2826,68.6387 79.5,73.5C 80.3007,75.0418 80.634,76.7085 80.5,78.5C 80.5,81.1667 80.5,83.8333 80.5,86.5C 79.5988,92.0436 77.2654,96.8769 73.5,101C 72.6683,101.688 72.0016,101.521 71.5,100.5C 76.726,95.2815 79.0593,88.9482 78.5,81.5C 79.0712,74.527 76.7379,68.8603 71.5,64.5C 71.5,63.8333 71.5,63.1667 71.5,62.5 Z"/></g>
<g><path style="opacity:1" fill="#8c8934" d="M 37.5,105.5 C 39.6055,104.181 41.6055,104.514 43.5,106.5C 43.1667,106.833 42.8333,107.167 42.5,107.5C 40.9246,106.544 39.258,105.877 37.5,105.5 Z"/></g>
<g><path style="opacity:1" fill="#9a9639" d="M 343.5,104.5 C 345.153,104.66 346.486,105.326 347.5,106.5C 347.44,107.043 347.107,107.376 346.5,107.5C 345.088,106.194 343.421,105.36 341.5,105C 342.094,104.536 342.761,104.369 343.5,104.5 Z"/></g>
<g><path style="opacity:1" fill="#686537" d="M 44.5,106.5 C 49.4176,107.281 54.4176,107.781 59.5,108C 55.3537,109.595 51.0204,109.928 46.5,109C 45.244,108.583 44.5774,107.75 44.5,106.5 Z"/></g>
<g><path style="opacity:1" fill="#5d5b35" d="M 362.5,107.5 C 363.738,107.81 363.738,108.31 362.5,109C 361.5,109.5 360.5,110 359.5,110.5C 356.36,109.911 353.36,109.244 350.5,108.5C 354.4,107.57 358.4,107.237 362.5,107.5 Z"/></g>
</svg>
