<?xml version="1.0" encoding="UTF-8"?>
<!DOCTYPE svg PUBLIC "-//W3C//DTD SVG 1.1//EN" "http://www.w3.org/Graphics/SVG/1.1/DTD/svg11.dtd">
<svg xmlns="http://www.w3.org/2000/svg" version="1.1" width="450px" height="113px" style="shape-rendering:geometricPrecision; text-rendering:geometricPrecision; image-rendering:optimizeQuality; fill-rule:evenodd; clip-rule:evenodd" xmlns:xlink="http://www.w3.org/1999/xlink">
<g><path style="opacity:0.965" fill="#1d1c1b" d="M 205.5,29.5 C 200.4,30.7999 195.4,30.7999 190.5,29.5C 189.841,27.8621 189.174,26.1955 188.5,24.5C 189.791,23.1752 191.124,21.8419 192.5,20.5C 194.833,21.8333 197.167,21.8333 199.5,20.5C 201.64,23.5065 203.64,26.5065 205.5,29.5 Z"/></g>
<g><path style="opacity:0.267" fill="#828281" d="M 31.5,33.5 C 31.5,34.1667 31.5,34.8333 31.5,35.5C 27.6724,34.502 24.0057,34.502 20.5,35.5C 19.5,35.5 18.5,35.5 17.5,35.5C 15.6064,34.9524 13.9397,33.9524 12.5,32.5C 18.8173,31.9968 25.1506,32.3302 31.5,33.5 Z"/></g>
<g><path style="opacity:1" fill="#9e923a" d="M 200.5,33.5 C 199.833,34.8333 199.167,34.8333 198.5,33.5C 199.167,32.1667 199.833,32.1667 200.5,33.5 Z"/></g>
<g><path style="opacity:1" fill="#ececef" d="M 184.5,33.5 C 184.631,34.2389 184.464,34.9056 184,35.5C 181.925,34.8656 179.759,34.5323 177.5,34.5C 161.102,36.38 145.102,40.0466 129.5,45.5C 128.893,45.3764 128.56,45.0431 128.5,44.5C 144.707,33.59 162.373,29.09 181.5,31C 182.942,31.3768 183.942,32.2101 184.5,33.5 Z"/></g>
<g><path style="opacity:0.899" fill="#1c1c1a" d="M 19.5,40.5 C 20.1667,41.1667 20.8333,41.8333 21.5,42.5C 19.4727,42.3379 17.4727,42.5045 15.5,43C 15.9574,43.414 16.2907,43.914 16.5,44.5C 16.1556,47.0361 15.1556,49.2028 13.5,51C 14.1905,52.0674 14.6905,53.2341 15,54.5C 15.2784,53.5842 15.7784,52.9175 16.5,52.5C 16.6715,54.4918 16.0049,56.1585 14.5,57.5C 15.2739,58.7112 16.1072,58.7112 17,57.5C 17.4828,58.448 17.6495,59.448 17.5,60.5C 14.5926,61.8289 11.7592,63.4955 9,65.5C 7.8261,64.4558 6.65944,63.4558 5.5,62.5C 3.85538,55.2923 2.85538,47.9589 2.5,40.5C 8.16667,40.5 13.8333,40.5 19.5,40.5 Z"/></g>
<g><path style="opacity:0.998" fill="#393838" d="M 31.5,33.5 C 36.8437,33.334 42.1771,33.5006 47.5,34C 49.7871,35.4272 50.1205,37.2606 48.5,39.5C 51.1024,40.1324 53.4357,41.1324 55.5,42.5C 55.0618,42.4346 54.7284,42.6012 54.5,43C 57.0965,45.3167 57.9299,48.15 57,51.5C 55.6557,47.3027 53.1557,43.9693 49.5,41.5C 40.4396,41.2445 31.4396,41.5778 22.5,42.5C 22.1667,42.5 21.8333,42.5 21.5,42.5C 20.8333,41.8333 20.1667,41.1667 19.5,40.5C 19.9175,39.7784 20.5842,39.2784 21.5,39C 19.6763,38.34 18.343,37.1733 17.5,35.5C 18.5,35.5 19.5,35.5 20.5,35.5C 23.749,37.8786 27.4157,39.2119 31.5,39.5C 31.5,38.1667 31.5,36.8333 31.5,35.5C 31.5,34.8333 31.5,34.1667 31.5,33.5 Z"/></g>
<g><path style="opacity:1" fill="#ed8475" d="M 267.5,41.5 C 257.49,40.6323 247.49,40.9657 237.5,42.5C 243.405,40.2938 249.571,38.6271 256,37.5C 258.795,38.1852 261.628,38.6852 264.5,39C 265.942,39.3768 266.942,40.2101 267.5,41.5 Z"/></g>
<g><path style="opacity:0.977" fill="#1d1d1b" d="M 55.5,42.5 C 56.7942,43.2899 57.9609,44.2899 59,45.5C 59.7378,48.4466 60.9044,51.1133 62.5,53.5C 59.8127,53.3359 57.146,53.5026 54.5,54C 53.5842,54.2784 52.9175,54.7784 52.5,55.5C 51.8333,55.5 51.1667,55.5 50.5,55.5C 49.5,55.5 48.5,55.5 47.5,55.5C 44.402,57.4161 41.402,59.5828 38.5,62C 39.4158,62.2784 40.0825,62.7784 40.5,63.5C 37.4731,65.529 35.1398,68.1956 33.5,71.5C 33.5654,71.0618 33.3988,70.7284 33,70.5C 32.6232,71.9423 31.7899,72.9423 30.5,73.5C 30.5,72.5 30.5,71.5 30.5,70.5C 29.325,70.719 28.325,70.3857 27.5,69.5C 28.7161,68.9041 30.0494,68.7374 31.5,69C 35.9856,65.3163 35.319,63.483 29.5,63.5C 27.9549,63.5108 26.6216,63.8442 25.5,64.5C 23.0144,63.5384 23.0144,62.7051 25.5,62C 23.8659,61.5065 22.1992,61.3398 20.5,61.5C 20.3713,59.7839 20.038,58.1172 19.5,56.5C 21.9728,56.6043 22.6394,57.6043 21.5,59.5C 22,59.8333 22.5,60.1667 23,60.5C 24.3333,59.1667 25.6667,59.1667 27,60.5C 27.5,60.1667 28,59.8333 28.5,59.5C 26.9223,58.7022 25.2556,58.2022 23.5,58C 25.5767,57.8078 27.5767,57.3078 29.5,56.5C 29.3764,55.8933 29.0431,55.56 28.5,55.5C 27.8902,54.609 27.5569,53.609 27.5,52.5C 28.0431,52.44 28.3764,52.1067 28.5,51.5C 27.9724,49.6639 27.3058,47.9972 26.5,46.5C 26.0291,45.0992 25.3624,43.7658 24.5,42.5C 23.5712,43.5498 22.9046,43.5498 22.5,42.5C 31.4396,41.5778 40.4396,41.2445 49.5,41.5C 53.1557,43.9693 55.6557,47.3027 57,51.5C 57.9299,48.15 57.0965,45.3167 54.5,43C 54.7284,42.6012 55.0618,42.4346 55.5,42.5 Z M 47.5,54.5 C 47.5,52.5 47.5,50.5 47.5,48.5C 48.5,48.5 49.5,48.5 50.5,48.5C 50.5,50.5 50.5,52.5 50.5,54.5C 49.5,54.5 48.5,54.5 47.5,54.5 Z"/></g>
<g><path style="opacity:0.016" fill="#e54c45" d="M 267.5,41.5 C 269.027,41.427 270.027,42.0937 270.5,43.5C 268.973,43.573 267.973,42.9063 267.5,41.5 Z"/></g>
<g><path style="opacity:0.979" fill="#3d3f8f" d="M 182.5,29.5 C 183.429,30.3149 184.429,31.1482 185.5,32C 192.189,31.7089 198.855,31.8756 205.5,32.5C 203.989,32.3418 202.322,32.6751 200.5,33.5C 199.833,32.1667 199.167,32.1667 198.5,33.5C 194.203,33.1578 189.87,33.8245 185.5,35.5C 185.672,34.5084 185.338,33.8417 184.5,33.5C 183.942,32.2101 182.942,31.3768 181.5,31C 162.373,29.09 144.707,33.59 128.5,44.5C 126.738,44.3573 125.071,44.6906 123.5,45.5C 123.167,45.1667 122.833,44.8333 122.5,44.5C 126.773,42.1453 126.439,41.1453 121.5,41.5C 118.381,41.6571 115.381,42.3237 112.5,43.5C 113.32,45.1112 114.654,45.7778 116.5,45.5C 103.002,49.9975 89.3356,54.3309 75.5,58.5C 74.8333,58.5 74.5,58.1667 74.5,57.5C 76.2258,55.0578 77.7258,52.3911 79,49.5C 105.962,42.3016 133.129,35.8016 160.5,30C 167.826,29.5003 175.159,29.3337 182.5,29.5 Z"/></g>
<g><path style="opacity:0.345" fill="#24242a" d="M 206.5,30.5 C 207.8,32.223 208.467,34.3897 208.5,37C 208.167,39.1667 207.833,41.3333 207.5,43.5C 206.583,44.1272 205.583,44.4606 204.5,44.5C 205.981,39.9883 206.648,35.3216 206.5,30.5 Z"/></g>
<g><path style="opacity:1" fill="#bbbbbe" d="M 184.5,33.5 C 185.338,33.8417 185.672,34.5084 185.5,35.5C 186.324,41.5246 189.324,45.8579 194.5,48.5C 192.064,49.5716 189.897,48.905 188,46.5C 187.552,48.4089 188.385,49.5756 190.5,50C 190,50.1667 189.5,50.3333 189,50.5C 183.874,50.547 178.707,50.2136 173.5,49.5C 174.635,47.2011 175.968,45.0344 177.5,43C 177.167,42.8333 176.833,42.6667 176.5,42.5C 175.272,45.0715 173.272,46.4048 170.5,46.5C 170.665,43.4816 170.498,40.4816 170,37.5C 169.719,41.1791 168.552,44.5124 166.5,47.5C 167.313,48.8139 168.313,49.9805 169.5,51C 166.668,51.3264 164.001,50.8264 161.5,49.5C 160.849,48.9094 160.182,48.2427 159.5,47.5C 158.494,47.9377 158.494,48.6043 159.5,49.5C 154.348,50.8137 149.348,50.8137 144.5,49.5C 144.785,47.712 144.452,46.0453 143.5,44.5C 142.686,46.7662 142.186,49.0995 142,51.5C 139.723,52.1172 137.556,52.7839 135.5,53.5C 134.167,53.5 132.833,53.5 131.5,53.5C 131.326,51.139 130.993,48.8056 130.5,46.5C 127.193,47.0508 123.86,47.3841 120.5,47.5C 120.5,46.8333 120.167,46.5 119.5,46.5C 119.196,44.2043 118.196,43.871 116.5,45.5C 114.654,45.7778 113.32,45.1112 112.5,43.5C 115.381,42.3237 118.381,41.6571 121.5,41.5C 126.439,41.1453 126.773,42.1453 122.5,44.5C 122.833,44.8333 123.167,45.1667 123.5,45.5C 125.071,44.6906 126.738,44.3573 128.5,44.5C 128.56,45.0431 128.893,45.3764 129.5,45.5C 145.102,40.0466 161.102,36.38 177.5,34.5C 179.759,34.5323 181.925,34.8656 184,35.5C 184.464,34.9056 184.631,34.2389 184.5,33.5 Z"/></g>
<g><path style="opacity:1" fill="#3e4177" d="M 179.5,37.5 C 182.001,37.8256 183.168,39.1589 183,41.5C 181.921,39.6063 180.587,39.273 179,40.5C 178.53,39.4232 178.697,38.4232 179.5,37.5 Z"/></g>
<g><path style="opacity:0.316" fill="#969594" d="M 297.5,55.5 C 296.833,56.8333 296.167,56.8333 295.5,55.5C 295.676,50.1203 295.342,44.787 294.5,39.5C 295.5,39.5 296.5,39.5 297.5,39.5C 297.5,44.8333 297.5,50.1667 297.5,55.5 Z"/></g>
<g><path style="opacity:1" fill="#5b5b5b" d="M 21.5,42.5 C 21.8333,42.5 22.1667,42.5 22.5,42.5C 22.9046,43.5498 23.5712,43.5498 24.5,42.5C 25.3624,43.7658 26.0291,45.0992 26.5,46.5C 25.1667,46.5 23.8333,46.5 22.5,46.5C 22.3287,49.7973 22.9954,50.1306 24.5,47.5C 25.3199,49.3188 26.3199,50.9855 27.5,52.5C 23.5366,50.8242 20.2033,51.6575 17.5,55C 17.8361,56.0299 18.5028,56.5299 19.5,56.5C 20.038,58.1172 20.3713,59.7839 20.5,61.5C 22.1992,61.3398 23.8659,61.5065 25.5,62C 23.0144,62.7051 23.0144,63.5384 25.5,64.5C 26.3132,65.6527 27.3132,65.6527 28.5,64.5C 29.3857,65.325 29.719,66.325 29.5,67.5C 25.1667,67.5 20.8333,67.5 16.5,67.5C 16.67,66.1779 16.3366,65.0113 15.5,64C 17.447,64.5356 19.447,64.2022 21.5,63C 19.867,62.5204 18.5336,61.6871 17.5,60.5C 17.6495,59.448 17.4828,58.448 17,57.5C 16.1072,58.7112 15.2739,58.7112 14.5,57.5C 16.0049,56.1585 16.6715,54.4918 16.5,52.5C 15.7784,52.9175 15.2784,53.5842 15,54.5C 14.6905,53.2341 14.1905,52.0674 13.5,51C 15.1556,49.2028 16.1556,47.0361 16.5,44.5C 16.2907,43.914 15.9574,43.414 15.5,43C 17.4727,42.5045 19.4727,42.3379 21.5,42.5 Z"/></g>
<g><path style="opacity:1" fill="#b3b9ca" d="M 235.5,46.5 C 232.447,46.6815 229.447,46.8481 226.5,47C 228.03,45.8797 229.697,45.0464 231.5,44.5C 234.119,44.7683 236.619,44.435 239,43.5C 239.167,43.8333 239.333,44.1667 239.5,44.5C 238.051,45.1719 236.718,45.8386 235.5,46.5 Z"/></g>
<g><path style="opacity:1" fill="#c8c8c7" d="M 16.5,52.5 C 16.5,50.5 16.5,48.5 16.5,46.5C 21.4633,46.1024 22.4633,47.7691 19.5,51.5C 19.4464,50.3131 19.1131,48.9798 18.5,47.5C 17.8302,49.2914 17.1635,50.9581 16.5,52.5 Z"/></g>
<g><path style="opacity:1" fill="#c9c9c8" d="M 26.5,46.5 C 27.3058,47.9972 27.9724,49.6639 28.5,51.5C 28.3764,52.1067 28.0431,52.44 27.5,52.5C 26.3199,50.9855 25.3199,49.3188 24.5,47.5C 22.9954,50.1306 22.3287,49.7973 22.5,46.5C 23.8333,46.5 25.1667,46.5 26.5,46.5 Z"/></g>
<g><path style="opacity:1" fill="#2c387b" d="M 182.5,29.5 C 185.167,29.5 187.833,29.5 190.5,29.5C 195.4,30.7999 200.4,30.7999 205.5,29.5C 206.167,29.5 206.5,29.8333 206.5,30.5C 206.648,35.3216 205.981,39.9883 204.5,44.5C 203.708,45.9669 203.708,47.3002 204.5,48.5C 213.134,45.02 222.134,43.3534 231.5,43.5C 231.5,43.8333 231.5,44.1667 231.5,44.5C 229.697,45.0464 228.03,45.8797 226.5,47C 229.447,46.8481 232.447,46.6815 235.5,46.5C 236.239,46.369 236.906,46.5357 237.5,47C 234.621,47.546 231.954,48.3794 229.5,49.5C 228.167,50.5 228.167,51.5 229.5,52.5C 227.925,54.1137 227.259,56.1137 227.5,58.5C 229.288,58.2148 230.955,58.5481 232.5,59.5C 232.023,60.4776 231.357,61.3109 230.5,62C 227.779,62.6015 225.113,62.4349 222.5,61.5C 222.389,60.8826 222.056,60.3826 221.5,60C 219.527,59.5045 217.527,59.3379 215.5,59.5C 219.335,58.8997 223.001,57.5664 226.5,55.5C 223.02,54.1944 219.687,54.1944 216.5,55.5C 213.998,54.2215 211.498,54.2215 209,55.5C 208.583,54.244 207.75,53.5774 206.5,53.5C 206.082,52.7784 205.416,52.2784 204.5,52C 200.5,51.6667 196.5,51.3333 192.5,51C 193.624,50.7508 194.624,50.2508 195.5,49.5C 195.376,48.8933 195.043,48.56 194.5,48.5C 189.324,45.8579 186.324,41.5246 185.5,35.5C 189.87,33.8245 194.203,33.1578 198.5,33.5C 199.167,34.8333 199.833,34.8333 200.5,33.5C 202.322,32.6751 203.989,32.3418 205.5,32.5C 198.855,31.8756 192.189,31.7089 185.5,32C 184.429,31.1482 183.429,30.3149 182.5,29.5 Z"/></g>
<g><path style="opacity:0.666" fill="#f21119" d="M 357.5,51.5 C 353.265,50.564 348.931,50.2307 344.5,50.5C 348.294,48.6515 352.294,48.3182 356.5,49.5C 357.298,49.9569 357.631,50.6236 357.5,51.5 Z"/></g>
<g><path style="opacity:1" fill="#b8b8b8" d="M 27.5,52.5 C 27.5569,53.609 27.8902,54.609 28.5,55.5C 27.0476,56.7131 25.7143,56.3797 24.5,54.5C 22.6639,55.0276 20.9972,55.6942 19.5,56.5C 18.5028,56.5299 17.8361,56.0299 17.5,55C 20.2033,51.6575 23.5366,50.8242 27.5,52.5 Z"/></g>
<g><path style="opacity:0.986" fill="#363133" d="M 261.5,47.5 C 263.764,48.2186 266.097,48.552 268.5,48.5C 268.833,48.5 269.167,48.5 269.5,48.5C 269.5,49.1667 269.833,49.5 270.5,49.5C 270.5,50.5 270.5,51.5 270.5,52.5C 269.549,53.9187 269.216,55.5853 269.5,57.5C 268.5,57.5 267.5,57.5 266.5,57.5C 266.5,56.5 266.5,55.5 266.5,54.5C 264.833,54.5 263.167,54.5 261.5,54.5C 258.873,53.9084 256.206,53.5751 253.5,53.5C 252.272,51.9902 252.272,50.4902 253.5,49C 256.365,48.8171 259.031,48.3171 261.5,47.5 Z"/></g>
<g><path style="opacity:1" fill="#f9ada9" d="M 263.5,50.5 C 265.698,50.1201 267.365,50.7868 268.5,52.5C 266.219,52.9227 264.552,52.256 263.5,50.5 Z"/></g>
<g><path style="opacity:1" fill="#d33c2e" d="M 263.5,50.5 C 264.552,52.256 266.219,52.9227 268.5,52.5C 266.393,53.4682 264.059,53.8016 261.5,53.5C 261.285,51.8212 261.952,50.8212 263.5,50.5 Z"/></g>
<g><path style="opacity:1" fill="#5c5f98" d="M 194.5,48.5 C 195.043,48.56 195.376,48.8933 195.5,49.5C 194.624,50.2508 193.624,50.7508 192.5,51C 196.5,51.3333 200.5,51.6667 204.5,52C 205.416,52.2784 206.082,52.7784 206.5,53.5C 206.672,54.4916 206.338,55.1583 205.5,55.5C 205.167,54.1667 204.833,54.1667 204.5,55.5C 203.542,55.0472 202.708,54.3805 202,53.5C 201.511,55.6044 200.345,55.9378 198.5,54.5C 197.259,55.0372 196.092,55.7039 195,56.5C 193.189,55.5765 193.355,54.7431 195.5,54C 194.072,53.4209 192.738,53.5876 191.5,54.5C 191.167,54.5 190.833,54.5 190.5,54.5C 190.389,53.8826 190.056,53.3826 189.5,53C 187.19,52.5034 184.857,52.3367 182.5,52.5C 182.5,53.5 182.5,54.5 182.5,55.5C 157.536,55.6362 132.869,57.6362 108.5,61.5C 104.298,61.1832 100.298,61.5166 96.5,62.5C 91.518,63.0534 86.518,63.3867 81.5,63.5C 80.5,63.1667 79.8333,62.5 79.5,61.5C 99.9567,57.7748 120.623,55.2748 141.5,54C 139.527,53.5045 137.527,53.3379 135.5,53.5C 137.556,52.7839 139.723,52.1172 142,51.5C 142.186,49.0995 142.686,46.7662 143.5,44.5C 144.452,46.0453 144.785,47.712 144.5,49.5C 143.347,50.3132 143.347,51.3132 144.5,52.5C 150.914,53.3258 157.247,52.8258 163.5,51C 162.584,50.7216 161.918,50.2216 161.5,49.5C 164.001,50.8264 166.668,51.3264 169.5,51C 168.313,49.9805 167.313,48.8139 166.5,47.5C 168.552,44.5124 169.719,41.1791 170,37.5C 170.498,40.4816 170.665,43.4816 170.5,46.5C 173.272,46.4048 175.272,45.0715 176.5,42.5C 176.833,42.6667 177.167,42.8333 177.5,43C 175.968,45.0344 174.635,47.2011 173.5,49.5C 178.707,50.2136 183.874,50.547 189,50.5C 189.5,50.3333 190,50.1667 190.5,50C 188.385,49.5756 187.552,48.4089 188,46.5C 189.897,48.905 192.064,49.5716 194.5,48.5 Z"/></g>
<g><path style="opacity:1" fill="#1e3582" d="M 161.5,49.5 C 161.918,50.2216 162.584,50.7216 163.5,51C 157.247,52.8258 150.914,53.3258 144.5,52.5C 143.347,51.3132 143.347,50.3132 144.5,49.5C 149.348,50.8137 154.348,50.8137 159.5,49.5C 158.494,48.6043 158.494,47.9377 159.5,47.5C 160.182,48.2427 160.849,48.9094 161.5,49.5 Z"/></g>
<g><path style="opacity:1" fill="#d5d6df" d="M 168.5,48.5 C 170.268,47.4925 171.601,48.1592 172.5,50.5C 172.167,50.8333 171.833,51.1667 171.5,51.5C 170.712,50.2299 169.712,49.2299 168.5,48.5 Z"/></g>
<g><path style="opacity:1" fill="#1c130e" d="M 344.5,50.5 C 348.931,50.2307 353.265,50.564 357.5,51.5C 359.191,52.8637 360.858,54.197 362.5,55.5C 361.167,55.5 359.833,55.5 358.5,55.5C 358.167,55.5 357.833,55.5 357.5,55.5C 351.963,54.2383 346.297,54.2383 340.5,55.5C 340.79,52.8727 342.124,51.2061 344.5,50.5 Z"/></g>
<g><path style="opacity:1" fill="#28367e" d="M 119.5,46.5 C 111.167,49.5069 102.833,52.6736 94.5,56C 103.598,54.3942 112.265,51.5609 120.5,47.5C 123.86,47.3841 127.193,47.0508 130.5,46.5C 130.993,48.8056 131.326,51.139 131.5,53.5C 132.833,53.5 134.167,53.5 135.5,53.5C 137.527,53.3379 139.527,53.5045 141.5,54C 120.623,55.2748 99.9567,57.7748 79.5,61.5C 77.7697,60.9744 76.4363,59.9744 75.5,58.5C 89.3356,54.3309 103.002,49.9975 116.5,45.5C 118.196,43.871 119.196,44.2043 119.5,46.5 Z"/></g>
<g><path style="opacity:1" fill="#7c78a6" d="M 119.5,46.5 C 120.167,46.5 120.5,46.8333 120.5,47.5C 112.265,51.5609 103.598,54.3942 94.5,56C 102.833,52.6736 111.167,49.5069 119.5,46.5 Z"/></g>
<g><path style="opacity:1" fill="#c7c4ad" d="M 50.5,55.5 C 51.1667,55.5 51.8333,55.5 52.5,55.5C 56.8333,55.5 61.1667,55.5 65.5,55.5C 65.5875,58.5983 65.0875,58.9316 64,56.5C 63.3333,59.1667 62.6667,59.1667 62,56.5C 58.981,58.0574 55.8144,59.0574 52.5,59.5C 51.8333,59.5 51.1667,59.5 50.5,59.5C 50.5,58.1667 50.5,56.8333 50.5,55.5 Z"/></g>
<g><path style="opacity:1" fill="#9ca7c7" d="M 204.5,55.5 C 202.952,56.7943 200.952,57.4609 198.5,57.5C 196.5,57.3333 194.5,57.1667 192.5,57C 191.748,56.3292 191.414,55.4959 191.5,54.5C 192.738,53.5876 194.072,53.4209 195.5,54C 193.355,54.7431 193.189,55.5765 195,56.5C 196.092,55.7039 197.259,55.0372 198.5,54.5C 200.345,55.9378 201.511,55.6044 202,53.5C 202.708,54.3805 203.542,55.0472 204.5,55.5 Z"/></g>
<g><path style="opacity:0.943" fill="#22264d" d="M 229.5,52.5 C 235.041,55.3951 241.041,56.7284 247.5,56.5C 251.204,58.0911 255.204,58.9244 259.5,59C 248,64.0913 236.333,65.9246 224.5,64.5C 223.094,64.0269 222.427,63.0269 222.5,61.5C 225.113,62.4349 227.779,62.6015 230.5,62C 231.357,61.3109 232.023,60.4776 232.5,59.5C 230.955,58.5481 229.288,58.2148 227.5,58.5C 227.259,56.1137 227.925,54.1137 229.5,52.5 Z"/></g>
<g><path style="opacity:1" fill="#2b3371" d="M 267.5,41.5 C 267.973,42.9063 268.973,43.573 270.5,43.5C 276.246,47.9181 282.246,51.9181 288.5,55.5C 284.232,58.3095 279.898,61.1428 275.5,64C 276.094,64.4643 276.761,64.631 277.5,64.5C 276.129,65.7868 274.295,66.4535 272,66.5C 267.181,65.9089 262.348,65.5755 257.5,65.5C 258.263,64.7321 259.263,64.2321 260.5,64C 258.527,63.5045 256.527,63.3379 254.5,63.5C 254.918,62.7784 255.584,62.2784 256.5,62C 259.482,61.502 262.482,61.3354 265.5,61.5C 265.5,59.8333 265.5,58.1667 265.5,56.5C 260.489,56.6659 255.489,56.4993 250.5,56C 254.356,55.8227 258.023,55.3227 261.5,54.5C 263.167,54.5 264.833,54.5 266.5,54.5C 266.5,55.5 266.5,56.5 266.5,57.5C 267.5,57.5 268.5,57.5 269.5,57.5C 269.216,55.5853 269.549,53.9187 270.5,52.5C 275.366,52.5209 275.366,51.5209 270.5,49.5C 269.833,49.5 269.5,49.1667 269.5,48.5C 269.167,48.5 268.833,48.5 268.5,48.5C 266.287,46.6883 263.953,46.3549 261.5,47.5C 259.103,46.632 256.603,45.9653 254,45.5C 245.835,46.9001 237.668,48.2334 229.5,49.5C 231.954,48.3794 234.621,47.546 237.5,47C 236.906,46.5357 236.239,46.369 235.5,46.5C 236.718,45.8386 238.051,45.1719 239.5,44.5C 239.333,44.1667 239.167,43.8333 239,43.5C 236.619,44.435 234.119,44.7683 231.5,44.5C 231.5,44.1667 231.5,43.8333 231.5,43.5C 233.379,42.6586 235.379,42.3253 237.5,42.5C 247.49,40.9657 257.49,40.6323 267.5,41.5 Z M 261.5,47.5 C 263.953,46.3549 266.287,46.6883 268.5,48.5C 266.097,48.552 263.764,48.2186 261.5,47.5 Z"/></g>
<g><path style="opacity:1" fill="#213b86" d="M 190.5,54.5 C 190.833,54.5 191.167,54.5 191.5,54.5C 191.414,55.4959 191.748,56.3292 192.5,57C 194.5,57.1667 196.5,57.3333 198.5,57.5C 200.952,57.4609 202.952,56.7943 204.5,55.5C 204.833,54.1667 205.167,54.1667 205.5,55.5C 206.574,57.2155 208.241,58.2155 210.5,58.5C 211.5,57.1667 212.5,57.1667 213.5,58.5C 215.213,58.1207 216.213,57.1207 216.5,55.5C 219.687,54.1944 223.02,54.1944 226.5,55.5C 223.001,57.5664 219.335,58.8997 215.5,59.5C 214.504,59.4142 213.671,59.7476 213,60.5C 212.79,62.0581 212.29,63.3915 211.5,64.5C 209.533,64.2606 207.699,64.5939 206,65.5C 205.79,63.9419 205.29,62.6085 204.5,61.5C 203.5,61.5 202.5,61.5 201.5,61.5C 178.5,60.1667 155.5,60.1667 132.5,61.5C 124.5,61.5 116.5,61.5 108.5,61.5C 132.869,57.6362 157.536,55.6362 182.5,55.5C 182.155,58.488 183.488,59.8213 186.5,59.5C 189.911,59.597 191.245,57.9304 190.5,54.5 Z"/></g>
<g><path style="opacity:1" fill="#99a3c5" d="M 206.5,53.5 C 207.75,53.5774 208.583,54.244 209,55.5C 211.498,54.2215 213.998,54.2215 216.5,55.5C 216.213,57.1207 215.213,58.1207 213.5,58.5C 212.5,57.1667 211.5,57.1667 210.5,58.5C 208.241,58.2155 206.574,57.2155 205.5,55.5C 206.338,55.1583 206.672,54.4916 206.5,53.5 Z"/></g>
<g><path style="opacity:1" fill="#616160" d="M 28.5,55.5 C 29.0431,55.56 29.3764,55.8933 29.5,56.5C 27.5767,57.3078 25.5767,57.8078 23.5,58C 25.2556,58.2022 26.9223,58.7022 28.5,59.5C 28,59.8333 27.5,60.1667 27,60.5C 25.6667,59.1667 24.3333,59.1667 23,60.5C 22.5,60.1667 22,59.8333 21.5,59.5C 22.6394,57.6043 21.9728,56.6043 19.5,56.5C 20.9972,55.6942 22.6639,55.0276 24.5,54.5C 25.7143,56.3797 27.0476,56.7131 28.5,55.5 Z"/></g>
<g><path style="opacity:1" fill="#cbcaca" d="M 190.5,54.5 C 191.245,57.9304 189.911,59.597 186.5,59.5C 183.488,59.8213 182.155,58.488 182.5,55.5C 182.5,54.5 182.5,53.5 182.5,52.5C 184.857,52.3367 187.19,52.5034 189.5,53C 190.056,53.3826 190.389,53.8826 190.5,54.5 Z"/></g>
<g><path style="opacity:1" fill="#777ea8" d="M 186.5,53.5 C 189.279,55.3021 189.112,56.9688 186,58.5C 183.99,56.6037 184.157,54.937 186.5,53.5 Z"/></g>
<g><path style="opacity:1" fill="#100a0f" d="M 50.5,59.5 C 51.1667,59.5 51.8333,59.5 52.5,59.5C 61.4958,58.0276 69.4958,60.0276 76.5,65.5C 83.9997,74.0549 85.4997,83.7216 81,94.5C 79.6233,96.7538 78.1233,98.9205 76.5,101C 77.1667,101.667 77.8333,101.667 78.5,101C 79.7332,99.3333 81.0665,97.8333 82.5,96.5C 81.9296,100.231 79.9296,102.397 76.5,103C 75.8742,102.25 75.3742,101.416 75,100.5C 72.7109,102.228 70.8776,104.228 69.5,106.5C 69.1667,105.833 68.8333,105.167 68.5,104.5C 63.4154,107.391 58.082,108.391 52.5,107.5C 52.1667,107.5 51.8333,107.5 51.5,107.5C 49.5739,106.514 47.5739,105.514 45.5,104.5C 45.0825,103.778 44.4158,103.278 43.5,103C 43.8333,102.667 44.1667,102.333 44.5,102C 43.3066,100.905 41.9733,100.072 40.5,99.5C 35.7573,95.1281 33.424,89.6281 33.5,83C 33.4933,79.7421 33.9933,76.5755 35,73.5C 37.0906,70.2595 38.9239,66.9262 40.5,63.5C 41.2216,63.9175 41.7216,64.5842 42,65.5C 44.6713,63.0976 47.5046,61.0976 50.5,59.5 Z"/></g>
<g><path style="opacity:1" fill="#100b10" d="M 369.5,65.5 C 376.359,72.9597 378.193,81.6264 375,91.5C 373.998,95.1641 372.164,98.3308 369.5,101C 369.833,101.167 370.167,101.333 370.5,101.5C 377.308,94.5679 379.808,86.2346 378,76.5C 376.82,73.4788 375.654,70.4788 374.5,67.5C 375.396,68.5063 376.062,68.5063 376.5,67.5C 378.403,67.7959 380.07,68.4625 381.5,69.5C 380.325,69.281 379.325,69.6143 378.5,70.5C 379.642,73.3992 380.308,76.3992 380.5,79.5C 380.5,79.8333 380.5,80.1667 380.5,80.5C 380.5,81.5 380.5,82.5 380.5,83.5C 380.791,84.6491 381.624,85.3158 383,85.5C 385.462,86.1595 387.962,86.4928 390.5,86.5C 390.5,87.8333 390.5,89.1667 390.5,90.5C 387.193,89.9492 383.86,89.6159 380.5,89.5C 379.275,95.6255 376.275,100.626 371.5,104.5C 369.856,103.684 368.69,102.35 368,100.5C 366.745,101.211 365.579,102.044 364.5,103C 365.654,103.914 365.487,104.747 364,105.5C 363.667,104.833 363.333,104.167 363,103.5C 360.833,104.488 359,105.821 357.5,107.5C 353.32,107.762 349.32,107.762 345.5,107.5C 345.167,107.5 344.833,107.5 344.5,107.5C 342.574,106.514 340.574,105.514 338.5,104.5C 338.082,103.778 337.416,103.278 336.5,103C 336.833,102.667 337.167,102.333 337.5,102C 335.721,100.86 334.054,99.693 332.5,98.5C 328.306,93.949 326.306,88.449 326.5,82C 326.316,76.7072 327.983,72.2072 331.5,68.5C 333.5,67.1667 335.167,65.5 336.5,63.5C 344.164,59.4202 352.331,58.4202 361,60.5C 363.927,62.0454 366.76,63.7121 369.5,65.5 Z"/></g>
<g><path style="opacity:1" fill="#983251" d="M 132.5,61.5 C 155.5,60.1667 178.5,60.1667 201.5,61.5C 200.391,61.5569 199.391,61.8902 198.5,62.5C 176.673,61.5026 154.673,61.1693 132.5,61.5 Z"/></g>
<g><path style="opacity:1" fill="#3d3c3b" d="M 357.5,55.5 C 353.167,55.5 348.833,55.5 344.5,55.5C 344.5,56.5 344.5,57.5 344.5,58.5C 348.351,59.0291 351.851,58.3625 355,56.5C 355.667,59.1667 356.333,59.1667 357,56.5C 358.087,58.9316 358.587,58.5983 358.5,55.5C 359.833,55.5 361.167,55.5 362.5,55.5C 366.217,56.5274 369.55,58.3607 372.5,61C 374.085,63.0693 375.419,65.236 376.5,67.5C 376.062,68.5063 375.396,68.5063 374.5,67.5C 373.185,66.5244 371.852,65.5244 370.5,64.5C 369.893,64.6236 369.56,64.9569 369.5,65.5C 366.76,63.7121 363.927,62.0454 361,60.5C 352.331,58.4202 344.164,59.4202 336.5,63.5C 335.373,62.8783 334.373,62.045 333.5,61C 334.71,59.9609 335.71,58.7942 336.5,57.5C 337.514,56.3263 338.847,55.6596 340.5,55.5C 346.297,54.2383 351.963,54.2383 357.5,55.5 Z"/></g>
<g><path style="opacity:1" fill="#ccc8b1" d="M 357.5,55.5 C 357.833,55.5 358.167,55.5 358.5,55.5C 358.587,58.5983 358.087,58.9316 357,56.5C 356.333,59.1667 355.667,59.1667 355,56.5C 351.851,58.3625 348.351,59.0291 344.5,58.5C 344.5,57.5 344.5,56.5 344.5,55.5C 348.833,55.5 353.167,55.5 357.5,55.5 Z"/></g>
<g><path style="opacity:1" fill="#444343" d="M 47.5,55.5 C 48.5,55.5 49.5,55.5 50.5,55.5C 50.5,56.8333 50.5,58.1667 50.5,59.5C 47.5046,61.0976 44.6713,63.0976 42,65.5C 41.7216,64.5842 41.2216,63.9175 40.5,63.5C 40.0825,62.7784 39.4158,62.2784 38.5,62C 41.402,59.5828 44.402,57.4161 47.5,55.5 Z"/></g>
<g><path style="opacity:1" fill="#41403c" d="M 62.5,53.5 C 66.8786,53.8484 70.8786,55.1817 74.5,57.5C 74.5,58.1667 74.8333,58.5 75.5,58.5C 76.4363,59.9744 77.7697,60.9744 79.5,61.5C 79.8333,62.5 80.5,63.1667 81.5,63.5C 81.5,63.8333 81.5,64.1667 81.5,64.5C 80.8333,64.8333 80.1667,65.1667 79.5,65.5C 78.3478,64.375 77.3478,64.375 76.5,65.5C 69.4958,60.0276 61.4958,58.0276 52.5,59.5C 55.8144,59.0574 58.981,58.0574 62,56.5C 62.6667,59.1667 63.3333,59.1667 64,56.5C 65.0875,58.9316 65.5875,58.5983 65.5,55.5C 61.1667,55.5 56.8333,55.5 52.5,55.5C 52.9175,54.7784 53.5842,54.2784 54.5,54C 57.146,53.5026 59.8127,53.3359 62.5,53.5 Z"/></g>
<g><path style="opacity:1" fill="#f25247" d="M 96.5,62.5 C 100.298,61.5166 104.298,61.1832 108.5,61.5C 116.5,61.5 124.5,61.5 132.5,61.5C 154.673,61.1693 176.673,61.5026 198.5,62.5C 165.832,62.3334 133.165,62.5 100.5,63C 101.056,63.3826 101.389,63.8826 101.5,64.5C 99.7162,64.1075 98.0495,63.4408 96.5,62.5 Z"/></g>
<g><path style="opacity:1" fill="#f04743" d="M 288.5,55.5 C 289.5,55.5 290.5,55.5 291.5,55.5C 287.794,59.2044 283.46,62.2044 278.5,64.5C 278.167,64.5 277.833,64.5 277.5,64.5C 276.761,64.631 276.094,64.4643 275.5,64C 279.898,61.1428 284.232,58.3095 288.5,55.5 Z"/></g>
<g><path style="opacity:1" fill="#0c0403" d="M 43.5,96.5 C 37.3769,85.7605 38.3769,75.7605 46.5,66.5C 59.9941,60.165 70.1608,63.4983 77,76.5C 79.5252,93.9849 72.0252,102.485 54.5,102C 50.501,100.667 46.8344,98.8339 43.5,96.5 Z"/></g>
<g><path style="opacity:1" fill="#e2e3e7" d="M 201.5,61.5 C 202.5,61.5 203.5,61.5 204.5,61.5C 204.5,62.8333 204.5,64.1667 204.5,65.5C 201.092,64.828 198.425,65.828 196.5,68.5C 199.308,70.1428 202.308,71.6428 205.5,73C 206.406,74.6995 206.739,76.5328 206.5,78.5C 204.297,78.9349 202.297,78.9349 200.5,78.5C 200.5,77.8333 200.167,77.5 199.5,77.5C 196.231,76.7751 193.398,75.1084 191,72.5C 189.959,69.3637 190.793,66.8637 193.5,65C 192.906,64.5357 192.239,64.369 191.5,64.5C 183.472,64.169 175.472,64.5023 167.5,65.5C 167.291,66.086 166.957,66.586 166.5,67C 168.833,67.3333 171.167,67.6667 173.5,68C 167.319,68.1724 161.319,68.6724 155.5,69.5C 141.5,69.5 127.5,69.5 113.5,69.5C 109.924,67.0779 105.924,65.4113 101.5,64.5C 101.389,63.8826 101.056,63.3826 100.5,63C 133.165,62.5 165.832,62.3334 198.5,62.5C 199.391,61.8902 200.391,61.5569 201.5,61.5 Z"/></g>
<g><path style="opacity:1" fill="#c11318" d="M 43.5,96.5 C 46.8344,98.8339 50.501,100.667 54.5,102C 72.0252,102.485 79.5252,93.9849 77,76.5C 70.1608,63.4983 59.9941,60.165 46.5,66.5C 56.6454,59.2853 66.1454,60.2853 75,69.5C 82.7841,82.7965 80.2841,93.6298 67.5,102C 60.6932,104.21 54.0265,103.877 47.5,101C 45.8082,99.6927 44.4749,98.1927 43.5,96.5 Z"/></g>
<g><path style="opacity:1" fill="#cd2d28" d="M 101.5,64.5 C 105.924,65.4113 109.924,67.0779 113.5,69.5C 111.883,68.962 110.216,68.6287 108.5,68.5C 108.167,68.5 107.833,68.5 107.5,68.5C 105.5,67.1667 103.5,65.8333 101.5,64.5 Z"/></g>
<g><path style="opacity:1" fill="#dfdee4" d="M 191.5,64.5 C 187.947,65.3982 186.281,67.7315 186.5,71.5C 186.5,75.5 186.5,79.5 186.5,83.5C 184.784,83.6287 183.117,83.962 181.5,84.5C 180.377,63.5463 178.043,63.5463 174.5,84.5C 170.841,84.1494 167.841,85.1494 165.5,87.5C 163.926,86.0158 162.593,84.3492 161.5,82.5C 161.5,82.1667 161.5,81.8333 161.5,81.5C 160.737,79.6316 159.737,77.9649 158.5,76.5C 158.119,75.0689 157.119,74.2355 155.5,74C 158.406,72.6815 161.406,72.3482 164.5,73C 165.809,76.5991 167.309,80.0991 169,83.5C 169.226,79.174 170.059,75.0073 171.5,71C 170.906,70.5357 170.239,70.369 169.5,70.5C 165.03,69.5139 160.363,69.1805 155.5,69.5C 161.319,68.6724 167.319,68.1724 173.5,68C 171.167,67.6667 168.833,67.3333 166.5,67C 166.957,66.586 167.291,66.086 167.5,65.5C 175.472,64.5023 183.472,64.169 191.5,64.5 Z"/></g>
<g><path style="opacity:1" fill="#d8d8dd" d="M 215.5,59.5 C 217.527,59.3379 219.527,59.5045 221.5,60C 222.056,60.3826 222.389,60.8826 222.5,61.5C 222.427,63.0269 223.094,64.0269 224.5,64.5C 224.402,66.5529 225.069,68.2196 226.5,69.5C 226.704,71.6854 227.37,73.6854 228.5,75.5C 225.803,76.6303 223.137,76.6303 220.5,75.5C 216.585,75.2467 212.919,75.9133 209.5,77.5C 209.909,73.1235 210.575,68.7902 211.5,64.5C 212.29,63.3915 212.79,62.0581 213,60.5C 213.671,59.7476 214.504,59.4142 215.5,59.5 Z"/></g>
<g><path style="opacity:1" fill="#202750" d="M 96.5,62.5 C 98.0495,63.4408 99.7162,64.1075 101.5,64.5C 103.5,65.8333 105.5,67.1667 107.5,68.5C 103.47,68.799 99.6368,69.799 96,71.5C 95.5045,69.5273 95.3379,67.5273 95.5,65.5C 91.2325,65.203 87.0659,65.5363 83,66.5C 82.7216,65.5842 82.2216,64.9175 81.5,64.5C 81.5,64.1667 81.5,63.8333 81.5,63.5C 86.518,63.3867 91.518,63.0534 96.5,62.5 Z"/></g>
<g><path style="opacity:1" fill="#4f4f72" d="M 253.5,53.5 C 256.206,53.5751 258.873,53.9084 261.5,54.5C 258.023,55.3227 254.356,55.8227 250.5,56C 255.489,56.4993 260.489,56.6659 265.5,56.5C 265.5,58.1667 265.5,59.8333 265.5,61.5C 262.482,61.3354 259.482,61.502 256.5,62C 255.584,62.2784 254.918,62.7784 254.5,63.5C 245.115,65.2958 235.782,67.2958 226.5,69.5C 225.069,68.2196 224.402,66.5529 224.5,64.5C 236.333,65.9246 248,64.0913 259.5,59C 255.204,58.9244 251.204,58.0911 247.5,56.5C 249.048,56.1788 249.715,55.1788 249.5,53.5C 250.833,53.5 252.167,53.5 253.5,53.5 Z"/></g>
<g><path style="opacity:1" fill="#e06d66" d="M 118.5,64.5 C 121.187,64.3359 123.854,64.5026 126.5,65C 127.308,65.3076 127.975,65.8076 128.5,66.5C 127.312,67.84 125.812,68.5066 124,68.5C 122.175,68.0566 120.342,67.7233 118.5,67.5C 118.5,66.5 118.5,65.5 118.5,64.5 Z"/></g>
<g><path style="opacity:1" fill="#605f93" d="M 204.5,61.5 C 205.29,62.6085 205.79,63.9419 206,65.5C 207.699,64.5939 209.533,64.2606 211.5,64.5C 210.575,68.7902 209.909,73.1235 209.5,77.5C 209.672,78.4916 209.338,79.1583 208.5,79.5C 208.633,76.075 207.967,75.7417 206.5,78.5C 206.739,76.5328 206.406,74.6995 205.5,73C 202.308,71.6428 199.308,70.1428 196.5,68.5C 198.425,65.828 201.092,64.828 204.5,65.5C 204.5,64.1667 204.5,62.8333 204.5,61.5 Z"/></g>
<g><path style="opacity:1" fill="#21254a" d="M 254.5,63.5 C 256.527,63.3379 258.527,63.5045 260.5,64C 259.263,64.2321 258.263,64.7321 257.5,65.5C 255.928,66.6873 254.261,67.6873 252.5,68.5C 244.484,70.8366 236.484,73.1699 228.5,75.5C 227.37,73.6854 226.704,71.6854 226.5,69.5C 235.782,67.2958 245.115,65.2958 254.5,63.5 Z"/></g>
<g><path style="opacity:1" fill="#6f6d73" d="M 277.5,64.5 C 277.833,64.5 278.167,64.5 278.5,64.5C 278.768,66.099 278.434,67.4324 277.5,68.5C 269.319,67.318 260.986,67.318 252.5,68.5C 254.261,67.6873 255.928,66.6873 257.5,65.5C 262.348,65.5755 267.181,65.9089 272,66.5C 274.295,66.4535 276.129,65.7868 277.5,64.5 Z"/></g>
<g><path style="opacity:0.98" fill="#19191a" d="M 336.5,57.5 C 335.71,58.7942 334.71,59.9609 333.5,61C 334.373,62.045 335.373,62.8783 336.5,63.5C 335.167,65.5 333.5,67.1667 331.5,68.5C 333.968,62.4836 333.134,62.1503 329,67.5C 322.132,79.7795 323.299,91.1129 332.5,101.5C 333.562,100.575 333.562,99.5754 332.5,98.5C 334.054,99.693 335.721,100.86 337.5,102C 337.167,102.333 336.833,102.667 336.5,103C 337.416,103.278 338.082,103.778 338.5,104.5C 337.624,104.369 336.957,104.702 336.5,105.5C 338.894,106.349 341.227,107.349 343.5,108.5C 344.107,108.376 344.44,108.043 344.5,107.5C 344.833,107.5 345.167,107.5 345.5,107.5C 345.369,108.376 345.702,109.043 346.5,109.5C 348.5,110.167 350.5,110.833 352.5,111.5C 354.336,110.081 356.336,108.914 358.5,108C 358.272,107.601 357.938,107.435 357.5,107.5C 359,105.821 360.833,104.488 363,103.5C 363.333,104.167 363.667,104.833 364,105.5C 365.487,104.747 365.654,103.914 364.5,103C 365.579,102.044 366.745,101.211 368,100.5C 368.69,102.35 369.856,103.684 371.5,104.5C 367.937,108.447 363.604,111.113 358.5,112.5C 353.833,112.5 349.167,112.5 344.5,112.5C 332.234,108.564 324.901,100.231 322.5,87.5C 319.167,87.5 315.833,87.5 312.5,87.5C 312.782,92.9265 312.449,98.2599 311.5,103.5C 308.833,103.5 306.167,103.5 303.5,103.5C 302.737,102.732 301.737,102.232 300.5,102C 301.167,101.667 301.833,101.333 302.5,101C 302.27,95.0619 301.937,89.0619 301.5,83C 302.167,82 302.833,81 303.5,80C 300.808,79.5702 298.141,79.7369 295.5,80.5C 307.5,73.8333 319.5,67.1667 331.5,60.5C 332.167,60.5 332.5,60.1667 332.5,59.5C 333.605,58.3995 334.938,57.7329 336.5,57.5 Z"/></g>
<g><path style="opacity:1" fill="#e36f6a" d="M 130.5,64.5 C 132.017,64.5106 133.184,65.1772 134,66.5C 135.099,63.9557 136.265,63.9557 137.5,66.5C 135.535,67.2922 133.535,67.9588 131.5,68.5C 129.358,67.5629 129.024,66.2296 130.5,64.5 Z"/></g>
<g><path style="opacity:1" fill="#e3e3e4" d="M 291.5,55.5 C 292.833,55.5 294.167,55.5 295.5,55.5C 296.167,56.8333 296.833,56.8333 297.5,55.5C 309.222,56.2866 320.888,57.6199 332.5,59.5C 332.5,60.1667 332.167,60.5 331.5,60.5C 330.127,60.3433 328.793,60.51 327.5,61C 317.423,66.7049 307.09,71.8716 296.5,76.5C 296.062,76.5654 295.728,76.3988 295.5,76C 296.167,75.6667 296.833,75.3333 297.5,75C 296.391,74.3623 295.225,73.8623 294,73.5C 289.426,74.4203 284.593,74.087 279.5,72.5C 276.617,73.626 273.784,73.2927 271,71.5C 269.441,72.0294 267.941,72.696 266.5,73.5C 265.893,73.3764 265.56,73.0431 265.5,72.5C 266.71,72.0679 267.71,71.4013 268.5,70.5C 271.5,69.8333 274.5,69.1667 277.5,68.5C 278.434,67.4324 278.768,66.099 278.5,64.5C 283.46,62.2044 287.794,59.2044 291.5,55.5 Z"/></g>
<g><path style="opacity:1" fill="#d82219" d="M 310.5,60.5 C 314.013,61.0282 315.013,62.8615 313.5,66C 310.763,67.0798 309.096,66.2464 308.5,63.5C 308.942,62.2613 309.609,61.2613 310.5,60.5 Z"/></g>
<g><path style="opacity:1" fill="#d8281e" d="M 302.5,60.5 C 306.335,61.0035 306.335,62.0035 302.5,63.5C 302.833,64.5 303.5,65.1667 304.5,65.5C 304.489,64.5585 304.989,63.8919 306,63.5C 307.826,64.0104 307.993,64.8438 306.5,66C 301.728,66.8104 300.395,64.9771 302.5,60.5 Z"/></g>
<g><path style="opacity:1" fill="#e8e5e5" d="M 310.5,62.5 C 313.674,62.9522 314.007,63.9522 311.5,65.5C 309.481,64.8671 309.147,63.8671 310.5,62.5 Z"/></g>
<g><path style="opacity:1" fill="#d72316" d="M 294.5,61.5 C 295.807,66.7772 297.307,66.7772 299,61.5C 299.494,63.1341 299.66,64.8008 299.5,66.5C 297.833,66.5 296.167,66.5 294.5,66.5C 294.5,64.8333 294.5,63.1667 294.5,61.5 Z"/></g>
<g><path style="opacity:1" fill="#da251e" d="M 290.5,60.5 C 291.693,60.9704 292.36,61.9704 292.5,63.5C 292.279,66.9431 291.279,67.2764 289.5,64.5C 288.833,65.1667 288.167,65.8333 287.5,66.5C 286.167,64.8333 286.167,63.1667 287.5,61.5C 289.367,64.2291 290.367,63.8957 290.5,60.5 Z"/></g>
<g><path style="opacity:1" fill="#3a3938" d="M 17.5,60.5 C 18.5336,61.6871 19.867,62.5204 21.5,63C 19.447,64.2022 17.447,64.5356 15.5,64C 16.3366,65.0113 16.67,66.1779 16.5,67.5C 20.8333,67.5 25.1667,67.5 29.5,67.5C 29.719,66.325 29.3857,65.325 28.5,64.5C 27.3132,65.6527 26.3132,65.6527 25.5,64.5C 26.6216,63.8442 27.9549,63.5108 29.5,63.5C 35.319,63.483 35.9856,65.3163 31.5,69C 30.0494,68.7374 28.7161,68.9041 27.5,69.5C 28.325,70.3857 29.325,70.719 30.5,70.5C 30.5,71.5 30.5,72.5 30.5,73.5C 29.6993,75.0418 29.366,76.7085 29.5,78.5C 24.8333,77.5 20.1667,76.5 15.5,75.5C 15.5,77.5 15.5,79.5 15.5,81.5C 14.7839,79.4437 14.1172,77.277 13.5,75C 10.8832,74.1785 8.2165,73.6785 5.5,73.5C 5.5,69.8333 5.5,66.1667 5.5,62.5C 6.65944,63.4558 7.8261,64.4558 9,65.5C 11.7592,63.4955 14.5926,61.8289 17.5,60.5 Z"/></g>
<g><path style="opacity:1" fill="#62619a" d="M 216.5,65.5 C 218.363,66.9672 219.696,68.9672 220.5,71.5C 219.264,72.3567 217.931,73.0234 216.5,73.5C 216.218,71.0134 216.218,68.3467 216.5,65.5 Z"/></g>
<g><path style="opacity:1" fill="#bd3447" d="M 113.5,69.5 C 127.5,69.5 141.5,69.5 155.5,69.5C 160.363,69.1805 165.03,69.5139 169.5,70.5C 155.215,71.4663 140.882,71.7996 126.5,71.5C 122.486,71.6655 118.486,71.4988 114.5,71C 113.944,70.6174 113.611,70.1174 113.5,69.5 Z"/></g>
<g><path style="opacity:1" fill="#d7d9da" d="M 296.5,76.5 C 294.343,78.4121 292.009,80.0787 289.5,81.5C 288.833,81.5 288.167,81.5 287.5,81.5C 280.783,80.281 274.117,80.6144 267.5,82.5C 258.011,83.873 248.678,85.873 239.5,88.5C 248.131,83.1809 256.797,77.8476 265.5,72.5C 265.56,73.0431 265.893,73.3764 266.5,73.5C 267.941,72.696 269.441,72.0294 271,71.5C 273.784,73.2927 276.617,73.626 279.5,72.5C 284.593,74.087 289.426,74.4203 294,73.5C 295.225,73.8623 296.391,74.3623 297.5,75C 296.833,75.3333 296.167,75.6667 295.5,76C 295.728,76.3988 296.062,76.5654 296.5,76.5 Z"/></g>
<g><path style="opacity:1" fill="#d8d8df" d="M 381.5,69.5 C 385.965,70.0333 390.298,71.0333 394.5,72.5C 393.833,73.1667 393.167,73.8333 392.5,74.5C 392.736,77.6085 392.403,80.6085 391.5,83.5C 390.616,81.4394 389.449,79.4394 388,77.5C 387.167,78.3333 386.333,79.1667 385.5,80C 386.973,80.7096 387.64,81.8762 387.5,83.5C 385.167,83.5 382.833,83.5 380.5,83.5C 380.5,82.5 380.5,81.5 380.5,80.5C 381.482,81.1408 382.482,81.8075 383.5,82.5C 384.462,80.1167 383.462,79.1167 380.5,79.5C 380.308,76.3992 379.642,73.3992 378.5,70.5C 379.325,69.6143 380.325,69.281 381.5,69.5 Z"/></g>
<g><path style="opacity:1" fill="#222e61" d="M 108.5,68.5 C 110.216,68.6287 111.883,68.962 113.5,69.5C 113.611,70.1174 113.944,70.6174 114.5,71C 118.486,71.4988 122.486,71.6655 126.5,71.5C 128.903,72.0646 130.57,73.5646 131.5,76C 131.095,76.9454 130.428,77.6121 129.5,78C 129.728,78.3988 130.062,78.5654 130.5,78.5C 129.551,79.1524 128.385,79.4857 127,79.5C 122.911,78.1929 118.744,77.1929 114.5,76.5C 108.274,76.6123 102.274,75.9457 96.5,74.5C 100.565,72.4673 104.565,70.4673 108.5,68.5 Z"/></g>
<g><path style="opacity:1" fill="#14141e" d="M 81.5,64.5 C 82.2216,64.9175 82.7216,65.5842 83,66.5C 87.0659,65.5363 91.2325,65.203 95.5,65.5C 95.3379,67.5273 95.5045,69.5273 96,71.5C 99.6368,69.799 103.47,68.799 107.5,68.5C 107.833,68.5 108.167,68.5 108.5,68.5C 104.565,70.4673 100.565,72.4673 96.5,74.5C 94.9519,74.1788 94.2852,73.1788 94.5,71.5C 92.1732,71.6646 90.0065,72.3313 88,73.5C 88.2012,76.7772 88.3679,80.1105 88.5,83.5C 95.1344,83.6768 95.1344,84.1768 88.5,85C 87.4019,85.7697 87.4019,86.603 88.5,87.5C 88.2914,88.9217 87.7914,90.255 87,91.5C 85.3335,90.6598 85.1669,91.1598 86.5,93C 85.051,94.1022 83.7177,95.2689 82.5,96.5C 87.2817,85.5368 86.2817,75.2034 79.5,65.5C 80.1667,65.1667 80.8333,64.8333 81.5,64.5 Z"/></g>
<g><path style="opacity:1" fill="#53548d" d="M 191.5,64.5 C 192.239,64.369 192.906,64.5357 193.5,65C 190.793,66.8637 189.959,69.3637 191,72.5C 193.398,75.1084 196.231,76.7751 199.5,77.5C 195.6,78.4299 191.6,78.7633 187.5,78.5C 187.802,75.9407 187.468,73.6074 186.5,71.5C 186.281,67.7315 187.947,65.3982 191.5,64.5 Z"/></g>
<g><path style="opacity:1" fill="#09090c" d="M 277.5,68.5 C 274.5,69.1667 271.5,69.8333 268.5,70.5C 264.968,70.31 261.635,70.9767 258.5,72.5C 256.801,72.3398 255.134,72.5065 253.5,73C 245.93,77.2228 237.93,80.2228 229.5,82C 223.964,87.7074 217.297,90.3741 209.5,90C 208.093,87.7483 206.093,86.5816 203.5,86.5C 196.33,87.022 190.997,90.3554 187.5,96.5C 185.922,97.2978 184.256,97.7978 182.5,98C 184.9,98.1858 187.234,98.6858 189.5,99.5C 188.146,101.462 188.813,102.462 191.5,102.5C 197.134,103.355 202.801,103.688 208.5,103.5C 208.238,102.022 208.571,100.689 209.5,99.5C 211.664,100.414 213.664,101.581 215.5,103C 225.577,103.191 235.577,103.691 245.5,104.5C 253.5,104.5 261.5,104.5 269.5,104.5C 281.012,104.828 292.346,104.495 303.5,103.5C 306.167,103.5 308.833,103.5 311.5,103.5C 314.113,104.095 314.113,104.929 311.5,106C 303.833,106.167 296.167,106.333 288.5,106.5C 264.73,105.555 241.063,105.555 217.5,106.5C 205.191,105.544 192.858,104.878 180.5,104.5C 179.909,103.849 179.243,103.182 178.5,102.5C 179.833,101.833 181.167,101.167 182.5,100.5C 180.234,99.6858 177.9,99.1858 175.5,99C 174.577,96.9592 174.244,94.7925 174.5,92.5C 175.791,92.7373 176.791,92.404 177.5,91.5C 188.322,88.335 198.989,85.0017 209.5,81.5C 212.892,79.1349 216.558,77.1349 220.5,75.5C 223.137,76.6303 225.803,76.6303 228.5,75.5C 236.484,73.1699 244.484,70.8366 252.5,68.5C 260.986,67.318 269.319,67.318 277.5,68.5 Z"/></g>
<g><path style="opacity:1" fill="#e5251d" d="M 331.5,60.5 C 319.5,67.1667 307.5,73.8333 295.5,80.5C 293.742,80.8769 292.075,81.5435 290.5,82.5C 289.893,82.3764 289.56,82.0431 289.5,81.5C 292.009,80.0787 294.343,78.4121 296.5,76.5C 307.09,71.8716 317.423,66.7049 327.5,61C 328.793,60.51 330.127,60.3433 331.5,60.5 Z"/></g>
<g><path style="opacity:1" fill="#e61715" d="M 268.5,70.5 C 267.71,71.4013 266.71,72.0679 265.5,72.5C 256.797,77.8476 248.131,83.1809 239.5,88.5C 237.323,88.5861 235.323,89.2528 233.5,90.5C 232.304,90.1543 232.304,89.6543 233.5,89C 241.899,83.4764 250.232,77.9764 258.5,72.5C 261.635,70.9767 264.968,70.31 268.5,70.5 Z"/></g>
<g><path style="opacity:0.857" fill="#171718" d="M 33.5,71.5 C 29.2849,82.8731 31.2849,92.8731 39.5,101.5C 40.2975,101.043 40.6309,100.376 40.5,99.5C 41.9733,100.072 43.3066,100.905 44.5,102C 44.1667,102.333 43.8333,102.667 43.5,103C 44.4158,103.278 45.0825,103.778 45.5,104.5C 44.6236,104.369 43.9569,104.702 43.5,105.5C 45.8935,106.349 48.2269,107.349 50.5,108.5C 51.1067,108.376 51.44,108.043 51.5,107.5C 51.8333,107.5 52.1667,107.5 52.5,107.5C 54.6832,109.234 57.3498,110.234 60.5,110.5C 61.1667,110.167 61.8333,109.833 62.5,109.5C 63.6956,109.846 63.6956,110.346 62.5,111C 63.448,111.483 64.448,111.649 65.5,111.5C 65.5,111.833 65.5,112.167 65.5,112.5C 60.8333,112.5 56.1667,112.5 51.5,112.5C 45.6475,110.84 40.6475,107.673 36.5,103C 32.5138,102.501 28.5138,102.334 24.5,102.5C 24.8293,96.4632 24.4959,90.4632 23.5,84.5C 20.6156,83.7908 17.949,82.7908 15.5,81.5C 15.5,79.5 15.5,77.5 15.5,75.5C 20.1667,76.5 24.8333,77.5 29.5,78.5C 29.366,76.7085 29.6993,75.0418 30.5,73.5C 31.7899,72.9423 32.6232,71.9423 33,70.5C 33.3988,70.7284 33.5654,71.0618 33.5,71.5 Z"/></g>
<g><path style="opacity:1" fill="#919294" d="M 220.5,75.5 C 216.558,77.1349 212.892,79.1349 209.5,81.5C 207.302,81.5912 206.969,80.9245 208.5,79.5C 209.338,79.1583 209.672,78.4916 209.5,77.5C 212.919,75.9133 216.585,75.2467 220.5,75.5 Z"/></g>
<g><path style="opacity:1" fill="#2d3c84" d="M 169.5,70.5 C 170.239,70.369 170.906,70.5357 171.5,71C 170.059,75.0073 169.226,79.174 169,83.5C 167.309,80.0991 165.809,76.5991 164.5,73C 161.406,72.3482 158.406,72.6815 155.5,74C 157.119,74.2355 158.119,75.0689 158.5,76.5C 148.621,79.158 138.621,81.8247 128.5,84.5C 127.893,84.3764 127.56,84.0431 127.5,83.5C 129.296,82.2073 130.963,80.7073 132.5,79C 131.906,78.5357 131.239,78.369 130.5,78.5C 130.062,78.5654 129.728,78.3988 129.5,78C 130.428,77.6121 131.095,76.9454 131.5,76C 130.57,73.5646 128.903,72.0646 126.5,71.5C 140.882,71.7996 155.215,71.4663 169.5,70.5 Z"/></g>
<g><path style="opacity:1" fill="#2b3691" d="M 380.5,80.5 C 380.5,80.1667 380.5,79.8333 380.5,79.5C 383.462,79.1167 384.462,80.1167 383.5,82.5C 382.482,81.8075 381.482,81.1408 380.5,80.5 Z"/></g>
<g><path style="opacity:1" fill="#2e2827" d="M 303.5,103.5 C 292.346,104.495 281.012,104.828 269.5,104.5C 273.647,103.675 277.981,103.175 282.5,103C 280.24,102.451 278.574,101.284 277.5,99.5C 284.5,99.5 291.5,99.5 298.5,99.5C 298.5,96.8333 298.5,94.1667 298.5,91.5C 291.833,91.5 285.167,91.5 278.5,91.5C 277.797,89.9657 277.964,88.299 279,86.5C 281.602,85.5229 284.102,84.3563 286.5,83C 282.774,81.9568 283.107,81.4568 287.5,81.5C 288.167,81.5 288.833,81.5 289.5,81.5C 289.56,82.0431 289.893,82.3764 290.5,82.5C 292.075,81.5435 293.742,80.8769 295.5,80.5C 298.141,79.7369 300.808,79.5702 303.5,80C 302.833,81 302.167,82 301.5,83C 301.937,89.0619 302.27,95.0619 302.5,101C 301.833,101.333 301.167,101.667 300.5,102C 301.737,102.232 302.737,102.732 303.5,103.5 Z"/></g>
<g><path style="opacity:1" fill="#c11218" d="M 46.5,66.5 C 38.3769,75.7605 37.3769,85.7605 43.5,96.5C 39.3845,92.8433 37.3845,88.1766 37.5,82.5C 37.5326,75.3223 40.5326,69.9889 46.5,66.5 Z"/></g>
<g><path style="opacity:1" fill="#dad314" d="M 76.5,65.5 C 77.3478,64.375 78.3478,64.375 79.5,65.5C 86.2817,75.2034 87.2817,85.5368 82.5,96.5C 81.0665,97.8333 79.7332,99.3333 78.5,101C 77.8333,101.667 77.1667,101.667 76.5,101C 78.1233,98.9205 79.6233,96.7538 81,94.5C 85.4997,83.7216 83.9997,74.0549 76.5,65.5 Z"/></g>
<g><path style="opacity:1" fill="#c01218" d="M 335.5,70.5 C 340.276,63.6205 346.943,60.7871 355.5,62C 369.696,66.5887 374.863,76.0887 371,90.5C 364.224,103.316 354.057,106.816 340.5,101C 329.406,92.1196 327.739,81.9529 335.5,70.5 Z"/></g>
<g><path style="opacity:1" fill="#0b0302" d="M 335.5,70.5 C 344.507,62.2662 354.173,61.4329 364.5,68C 370.162,74.0977 371.995,81.2644 370,89.5C 363.251,101.983 353.418,105.149 340.5,99C 331.853,90.8103 330.186,81.3103 335.5,70.5 Z"/></g>
<g><path style="opacity:1" fill="#ddd614" d="M 369.5,65.5 C 369.56,64.9569 369.893,64.6236 370.5,64.5C 371.852,65.5244 373.185,66.5244 374.5,67.5C 375.654,70.4788 376.82,73.4788 378,76.5C 379.808,86.2346 377.308,94.5679 370.5,101.5C 370.167,101.333 369.833,101.167 369.5,101C 372.164,98.3308 373.998,95.1641 375,91.5C 378.193,81.6264 376.359,72.9597 369.5,65.5 Z"/></g>
<g><path style="opacity:1" fill="#3b3b3a" d="M 394.5,72.5 C 402.84,72.3336 411.173,72.5003 419.5,73C 423.296,76.1067 425.963,79.94 427.5,84.5C 428.921,87.0094 430.588,89.3428 432.5,91.5C 434.527,94.2062 435.36,97.2062 435,100.5C 426.535,97.8322 417.702,95.3322 408.5,93C 414.167,92.6667 419.833,92.3333 425.5,92C 415.784,90.6957 406.284,88.529 397,85.5C 395.779,84.7282 394.779,83.7282 394,82.5C 393.817,79.6353 393.317,76.9686 392.5,74.5C 393.167,73.8333 393.833,73.1667 394.5,72.5 Z"/></g>
<g><path style="opacity:1" fill="#949493" d="M 403.5,77.5 C 406.999,77.7245 410.165,78.7245 413,80.5C 413.582,77.3323 414.582,76.999 416,79.5C 417.965,78.115 419.798,78.2816 421.5,80C 420.57,80.9907 419.404,81.4907 418,81.5C 413.314,81.4223 408.481,81.2556 403.5,81C 402.316,79.8545 402.316,78.6879 403.5,77.5 Z"/></g>
<g><path style="opacity:1" fill="#77be5c" d="M 395.5,76.5 C 397.5,76.5 399.5,76.5 401.5,76.5C 401.5,78.5 401.5,80.5 401.5,82.5C 399.5,82.5 397.5,82.5 395.5,82.5C 395.5,80.5 395.5,78.5 395.5,76.5 Z"/></g>
<g><path style="opacity:1" fill="#55557c" d="M 158.5,76.5 C 159.737,77.9649 160.737,79.6316 161.5,81.5C 153.347,82.4749 145.347,83.8082 137.5,85.5C 133.519,86.0209 129.519,86.3542 125.5,86.5C 125.5,86.1667 125.5,85.8333 125.5,85.5C 125.833,84.5 126.5,83.8333 127.5,83.5C 127.56,84.0431 127.893,84.3764 128.5,84.5C 138.621,81.8247 148.621,79.158 158.5,76.5 Z"/></g>
<g><path style="opacity:1" fill="#2a2a29" d="M 52.5,66.5 C 69.5045,65.0038 76.6711,72.6705 74,89.5C 69.5427,97.6437 62.7094,100.81 53.5,99C 42.0348,92.9376 39.2014,84.1042 45,72.5C 47.4784,70.3606 49.9784,68.3606 52.5,66.5 Z"/></g>
<g><path style="opacity:1" fill="#a41b1e" d="M 56.5,76.5 C 62.1327,76.9613 64.6327,79.9613 64,85.5C 60.3333,89.5 56.6667,89.5 53,85.5C 52.3333,83.8333 52.3333,82.1667 53,80.5C 54.3756,79.2949 55.5423,77.9616 56.5,76.5 Z"/></g>
<g><path style="opacity:1" fill="#5e5d67" d="M 114.5,76.5 C 118.744,77.1929 122.911,78.1929 127,79.5C 128.385,79.4857 129.551,79.1524 130.5,78.5C 131.239,78.369 131.906,78.5357 132.5,79C 130.963,80.7073 129.296,82.2073 127.5,83.5C 126.5,83.8333 125.833,84.5 125.5,85.5C 118.748,85.4146 112.081,85.5812 105.5,86C 109.709,82.0633 114.709,80.0633 120.5,80C 116.789,79.8253 113.122,79.3253 109.5,78.5C 111.291,77.8302 112.958,77.1635 114.5,76.5 Z"/></g>
<g><path style="opacity:1" fill="#2a3068" d="M 181.5,84.5 C 181.5,85.5 181.5,86.5 181.5,87.5C 183.467,87.7394 185.301,87.4061 187,86.5C 187.497,83.854 187.664,81.1873 187.5,78.5C 191.6,78.7633 195.6,78.4299 199.5,77.5C 200.167,77.5 200.5,77.8333 200.5,78.5C 200.047,79.4584 199.381,80.2917 198.5,81C 195.854,81.4974 193.187,81.6641 190.5,81.5C 190.5,82.8333 190.5,84.1667 190.5,85.5C 195.31,84.9641 199.977,83.7975 204.5,82C 205.823,81.1841 206.489,80.0174 206.5,78.5C 207.967,75.7417 208.633,76.075 208.5,79.5C 206.969,80.9245 207.302,81.5912 209.5,81.5C 198.989,85.0017 188.322,88.335 177.5,91.5C 175.585,91.7845 173.919,91.4511 172.5,90.5C 173.167,88.5 173.833,86.5 174.5,84.5C 178.043,63.5463 180.377,63.5463 181.5,84.5 Z"/></g>
<g><path style="opacity:1" fill="#8b8c8e" d="M 200.5,78.5 C 202.297,78.9349 204.297,78.9349 206.5,78.5C 206.489,80.0174 205.823,81.1841 204.5,82C 199.977,83.7975 195.31,84.9641 190.5,85.5C 190.5,84.1667 190.5,82.8333 190.5,81.5C 193.187,81.6641 195.854,81.4974 198.5,81C 199.381,80.2917 200.047,79.4584 200.5,78.5 Z"/></g>
<g><path style="opacity:1" fill="#222220" d="M 345.5,66.5 C 362.604,65.0993 369.771,72.766 367,89.5C 360.19,100.205 351.357,102.205 340.5,95.5C 338.808,93.6414 337.308,91.6414 336,89.5C 333.182,79.1576 336.349,71.4909 345.5,66.5 Z"/></g>
<g><path style="opacity:1" fill="#414794" d="M 391.5,83.5 C 390.89,84.391 390.557,85.391 390.5,86.5C 387.962,86.4928 385.462,86.1595 383,85.5C 381.624,85.3158 380.791,84.6491 380.5,83.5C 382.833,83.5 385.167,83.5 387.5,83.5C 387.64,81.8762 386.973,80.7096 385.5,80C 386.333,79.1667 387.167,78.3333 388,77.5C 389.449,79.4394 390.616,81.4394 391.5,83.5 Z"/></g>
<g><path style="opacity:1" fill="#1d292d" d="M 56.5,78.5 C 62.6426,79.0262 63.9759,81.8595 60.5,87C 55.5036,87.6643 53.6703,85.4977 55,80.5C 55.7172,79.9558 56.2172,79.2891 56.5,78.5 Z"/></g>
<g><path style="opacity:1" fill="#7e7240" d="M 56.5,80.5 C 57.8333,80.5 59.1667,80.5 60.5,80.5C 60.7778,82.3464 60.1112,83.6798 58.5,84.5C 56.8888,83.6798 56.2222,82.3464 56.5,80.5 Z"/></g>
<g><path style="opacity:1" fill="#8f8f98" d="M 186.5,71.5 C 187.468,73.6074 187.802,75.9407 187.5,78.5C 187.664,81.1873 187.497,83.854 187,86.5C 185.301,87.4061 183.467,87.7394 181.5,87.5C 181.5,86.5 181.5,85.5 181.5,84.5C 183.117,83.962 184.784,83.6287 186.5,83.5C 186.5,79.5 186.5,75.5 186.5,71.5 Z"/></g>
<g><path style="opacity:0.718" fill="#224795" d="M 427.5,84.5 C 433.151,86.6588 438.484,89.3255 443.5,92.5C 442.726,93.1471 441.726,93.4805 440.5,93.5C 437.767,93.032 435.1,92.3653 432.5,91.5C 430.588,89.3428 428.921,87.0094 427.5,84.5 Z"/></g>
<g><path style="opacity:1" fill="#5b5b5c" d="M 287.5,81.5 C 283.107,81.4568 282.774,81.9568 286.5,83C 284.102,84.3563 281.602,85.5229 279,86.5C 277.964,88.299 277.797,89.9657 278.5,91.5C 277.527,93.9479 277.194,96.6146 277.5,99.5C 278.574,101.284 280.24,102.451 282.5,103C 277.981,103.175 273.647,103.675 269.5,104.5C 261.5,104.5 253.5,104.5 245.5,104.5C 246.99,102.72 248.99,102.054 251.5,102.5C 258.066,103.785 262.733,103.785 265.5,102.5C 265.286,100.856 265.62,99.3561 266.5,98C 269.226,97.8184 271.893,97.3184 274.5,96.5C 271.829,94.6971 269.162,94.0304 266.5,94.5C 266.611,93.8826 266.944,93.3826 267.5,93C 269.5,92.6667 271.5,92.3333 273.5,92C 271.167,91.3333 268.833,91.3333 266.5,92C 258.075,95.6275 249.575,99.1275 241,102.5C 240.167,102.333 239.333,102.167 238.5,102C 248.511,98.4955 258.178,94.1621 267.5,89C 257.76,88.7227 248.426,90.3894 239.5,94C 238.167,94.6667 236.833,94.6667 235.5,94C 236.579,91.957 238.246,90.6237 240.5,90C 251.286,88.4868 261.952,86.4868 272.5,84C 271.095,82.7308 269.429,82.2308 267.5,82.5C 274.117,80.6144 280.783,80.281 287.5,81.5 Z"/></g>
<g><path style="opacity:0.972" fill="#262625" d="M 392.5,74.5 C 393.317,76.9686 393.817,79.6353 394,82.5C 394.779,83.7282 395.779,84.7282 397,85.5C 406.284,88.529 415.784,90.6957 425.5,92C 419.833,92.3333 414.167,92.6667 408.5,93C 417.702,95.3322 426.535,97.8322 435,100.5C 435.36,97.2062 434.527,94.2062 432.5,91.5C 435.1,92.3653 437.767,93.032 440.5,93.5C 441.726,93.4805 442.726,93.1471 443.5,92.5C 444.965,93.4057 445.965,94.739 446.5,96.5C 442.374,97.482 438.708,99.3153 435.5,102C 423.49,102.976 411.657,102.142 400,99.5C 396.582,100.266 393.082,100.266 389.5,99.5C 389.264,96.3915 389.597,93.3915 390.5,90.5C 390.5,89.1667 390.5,87.8333 390.5,86.5C 390.557,85.391 390.89,84.391 391.5,83.5C 392.403,80.6085 392.736,77.6085 392.5,74.5 Z"/></g>
<g><path style="opacity:1" fill="#171933" d="M 161.5,82.5 C 162.593,84.3492 163.926,86.0158 165.5,87.5C 165.414,88.4959 165.748,89.3292 166.5,90C 168.473,90.4955 170.473,90.6621 172.5,90.5C 173.919,91.4511 175.585,91.7845 177.5,91.5C 176.791,92.404 175.791,92.7373 174.5,92.5C 163.887,94.0638 153.22,95.0638 142.5,95.5C 142.5,92.1667 142.5,88.8333 142.5,85.5C 147.528,83.9024 152.361,84.2357 157,86.5C 159.616,86.3829 161.116,85.0496 161.5,82.5 Z"/></g>
<g><path style="opacity:1" fill="#303130" d="M 346.5,68.5 C 360.376,66.8739 366.209,72.8739 364,86.5C 356.563,95.2644 348.729,95.5977 340.5,87.5C 339.167,83.5 339.167,79.5 340.5,75.5C 342.281,72.9088 344.281,70.5755 346.5,68.5 Z"/></g>
<g><path style="opacity:1" fill="#ae1a1d" d="M 355.5,79.5 C 358.276,82.5102 357.942,85.3435 354.5,88C 348.166,89.3286 345.332,86.8286 346,80.5C 348.979,75.7747 352.145,75.4413 355.5,79.5 Z"/></g>
<g><path style="opacity:1" fill="#212a2e" d="M 355.5,79.5 C 356.822,84.9933 354.822,87.4933 349.5,87C 346.057,80.2716 348.057,77.7716 355.5,79.5 Z"/></g>
<g><path style="opacity:1" fill="#7f723f" d="M 349.5,80.5 C 350.833,80.5 352.167,80.5 353.5,80.5C 353.778,82.3464 353.111,83.6798 351.5,84.5C 349.889,83.6798 349.222,82.3464 349.5,80.5 Z"/></g>
<g><path style="opacity:0.951" fill="#1d1c1c" d="M 88.5,87.5 C 92.1817,87.3347 95.8484,87.5014 99.5,88C 97.5172,89.8889 95.1838,91.2223 92.5,92C 99.5661,92.5614 106.566,93.0614 113.5,93.5C 122.376,95.1755 132.043,95.8421 142.5,95.5C 153.22,95.0638 163.887,94.0638 174.5,92.5C 174.244,94.7925 174.577,96.9592 175.5,99C 177.9,99.1858 180.234,99.6858 182.5,100.5C 181.167,101.167 179.833,101.833 178.5,102.5C 179.243,103.182 179.909,103.849 180.5,104.5C 146.336,105.332 112.002,105.832 77.5,106C 74.126,109.187 70.126,111.02 65.5,111.5C 64.448,111.649 63.448,111.483 62.5,111C 63.6956,110.346 63.6956,109.846 62.5,109.5C 61.8333,109.833 61.1667,110.167 60.5,110.5C 57.3498,110.234 54.6832,109.234 52.5,107.5C 58.082,108.391 63.4154,107.391 68.5,104.5C 68.8333,105.167 69.1667,105.833 69.5,106.5C 70.8776,104.228 72.7109,102.228 75,100.5C 75.3742,101.416 75.8742,102.25 76.5,103C 79.9296,102.397 81.9296,100.231 82.5,96.5C 83.7177,95.2689 85.051,94.1022 86.5,93C 85.1669,91.1598 85.3335,90.6598 87,91.5C 87.7914,90.255 88.2914,88.9217 88.5,87.5 Z"/></g>
<g><path style="opacity:1" fill="#212122" d="M 96.5,74.5 C 102.274,75.9457 108.274,76.6123 114.5,76.5C 112.958,77.1635 111.291,77.8302 109.5,78.5C 113.122,79.3253 116.789,79.8253 120.5,80C 114.709,80.0633 109.709,82.0633 105.5,86C 112.081,85.5812 118.748,85.4146 125.5,85.5C 125.5,85.8333 125.5,86.1667 125.5,86.5C 124.833,86.5 124.5,86.8333 124.5,87.5C 121.303,90.365 117.636,92.365 113.5,93.5C 106.566,93.0614 99.5661,92.5614 92.5,92C 95.1838,91.2223 97.5172,89.8889 99.5,88C 95.8484,87.5014 92.1817,87.3347 88.5,87.5C 87.4019,86.603 87.4019,85.7697 88.5,85C 95.1344,84.1768 95.1344,83.6768 88.5,83.5C 88.3679,80.1105 88.2012,76.7772 88,73.5C 90.0065,72.3313 92.1732,71.6646 94.5,71.5C 94.2852,73.1788 94.9519,74.1788 96.5,74.5 Z"/></g>
<g><path style="opacity:1" fill="#25357d" d="M 137.5,85.5 C 138.112,88.304 138.112,91.304 137.5,94.5C 132.821,94.6658 128.155,94.4992 123.5,94C 124.833,93.6667 126.167,93.3333 127.5,93C 126.777,90.9817 125.777,89.1484 124.5,87.5C 124.5,86.8333 124.833,86.5 125.5,86.5C 129.519,86.3542 133.519,86.0209 137.5,85.5 Z"/></g>
<g><path style="opacity:1" fill="#999a9c" d="M 174.5,84.5 C 173.833,86.5 173.167,88.5 172.5,90.5C 170.473,90.6621 168.473,90.4955 166.5,90C 165.748,89.3292 165.414,88.4959 165.5,87.5C 167.841,85.1494 170.841,84.1494 174.5,84.5 Z"/></g>
<g><path style="opacity:1" fill="#1c1c1d" d="M 258.5,72.5 C 250.232,77.9764 241.899,83.4764 233.5,89C 232.304,89.6543 232.304,90.1543 233.5,90.5C 235.323,89.2528 237.323,88.5861 239.5,88.5C 248.678,85.873 258.011,83.873 267.5,82.5C 269.429,82.2308 271.095,82.7308 272.5,84C 261.952,86.4868 251.286,88.4868 240.5,90C 238.246,90.6237 236.579,91.957 235.5,94C 236.833,94.6667 238.167,94.6667 239.5,94C 248.426,90.3894 257.76,88.7227 267.5,89C 258.178,94.1621 248.511,98.4955 238.5,102C 239.333,102.167 240.167,102.333 241,102.5C 249.575,99.1275 258.075,95.6275 266.5,92C 268.833,91.3333 271.167,91.3333 273.5,92C 271.5,92.3333 269.5,92.6667 267.5,93C 266.944,93.3826 266.611,93.8826 266.5,94.5C 263.755,95.7372 261.422,97.5705 259.5,100C 256.846,100.941 254.179,101.774 251.5,102.5C 248.99,102.054 246.99,102.72 245.5,104.5C 235.577,103.691 225.577,103.191 215.5,103C 213.664,101.581 211.664,100.414 209.5,99.5C 208.571,100.689 208.238,102.022 208.5,103.5C 202.801,103.688 197.134,103.355 191.5,102.5C 188.813,102.462 188.146,101.462 189.5,99.5C 187.234,98.6858 184.9,98.1858 182.5,98C 184.256,97.7978 185.922,97.2978 187.5,96.5C 190.997,90.3554 196.33,87.022 203.5,86.5C 206.093,86.5816 208.093,87.7483 209.5,90C 217.297,90.3741 223.964,87.7074 229.5,82C 237.93,80.2228 245.93,77.2228 253.5,73C 255.134,72.5065 256.801,72.3398 258.5,72.5 Z"/></g>
<g><path style="opacity:1" fill="#d8d015" d="M 40.5,63.5 C 38.9239,66.9262 37.0906,70.2595 35,73.5C 33.9933,76.5755 33.4933,79.7421 33.5,83C 33.424,89.6281 35.7573,95.1281 40.5,99.5C 40.6309,100.376 40.2975,101.043 39.5,101.5C 31.2849,92.8731 29.2849,82.8731 33.5,71.5C 35.1398,68.1956 37.4731,65.529 40.5,63.5 Z"/></g>
<g><path style="opacity:1" fill="#222c5f" d="M 161.5,81.5 C 161.5,81.8333 161.5,82.1667 161.5,82.5C 161.116,85.0496 159.616,86.3829 157,86.5C 152.361,84.2357 147.528,83.9024 142.5,85.5C 142.5,88.8333 142.5,92.1667 142.5,95.5C 132.043,95.8421 122.376,95.1755 113.5,93.5C 117.636,92.365 121.303,90.365 124.5,87.5C 125.777,89.1484 126.777,90.9817 127.5,93C 126.167,93.3333 124.833,93.6667 123.5,94C 128.155,94.4992 132.821,94.6658 137.5,94.5C 138.112,91.304 138.112,88.304 137.5,85.5C 145.347,83.8082 153.347,82.4749 161.5,81.5 Z"/></g>
<g><path style="opacity:1" fill="#de1a19" d="M 278.5,91.5 C 285.167,91.5 291.833,91.5 298.5,91.5C 298.5,94.1667 298.5,96.8333 298.5,99.5C 291.5,99.5 284.5,99.5 277.5,99.5C 277.194,96.6146 277.527,93.9479 278.5,91.5 Z"/></g>
<g><path style="opacity:1" fill="#e5dbd5" d="M 280.5,93.5 C 283.598,93.4125 283.932,93.9125 281.5,95C 282.451,95.7175 282.617,96.5509 282,97.5C 279.988,96.4335 279.488,95.1002 280.5,93.5 Z"/></g>
<g><path style="opacity:1" fill="#e5918d" d="M 286.5,94.5 C 290.167,94.5 293.833,94.5 297.5,94.5C 297.5,95.5 297.5,96.5 297.5,97.5C 293.788,97.3416 290.288,97.3416 287,97.5C 285.272,96.6477 285.105,95.6477 286.5,94.5 Z"/></g>
<g><path style="opacity:1" fill="#d7d016" d="M 331.5,68.5 C 327.983,72.2072 326.316,76.7072 326.5,82C 326.306,88.449 328.306,93.949 332.5,98.5C 333.562,99.5754 333.562,100.575 332.5,101.5C 323.299,91.1129 322.132,79.7795 329,67.5C 333.134,62.1503 333.968,62.4836 331.5,68.5 Z"/></g>
<g><path style="opacity:1" fill="#9e9fa0" d="M 266.5,94.5 C 269.162,94.0304 271.829,94.6971 274.5,96.5C 271.893,97.3184 269.226,97.8184 266.5,98C 265.62,99.3561 265.286,100.856 265.5,102.5C 262.733,103.785 258.066,103.785 251.5,102.5C 254.179,101.774 256.846,100.941 259.5,100C 261.422,97.5705 263.755,95.7372 266.5,94.5 Z"/></g>
<g><path style="opacity:1" fill="#8c832d" d="M 45.5,104.5 C 47.5739,105.514 49.5739,106.514 51.5,107.5C 51.44,108.043 51.1067,108.376 50.5,108.5C 48.2269,107.349 45.8935,106.349 43.5,105.5C 43.9569,104.702 44.6236,104.369 45.5,104.5 Z"/></g>
<g><path style="opacity:1" fill="#8e852d" d="M 338.5,104.5 C 340.574,105.514 342.574,106.514 344.5,107.5C 344.44,108.043 344.107,108.376 343.5,108.5C 341.227,107.349 338.894,106.349 336.5,105.5C 336.957,104.702 337.624,104.369 338.5,104.5 Z"/></g>
<g><path style="opacity:1" fill="#4a442a" d="M 345.5,107.5 C 349.32,107.762 353.32,107.762 357.5,107.5C 357.938,107.435 358.272,107.601 358.5,108C 356.336,108.914 354.336,110.081 352.5,111.5C 350.5,110.833 348.5,110.167 346.5,109.5C 345.702,109.043 345.369,108.376 345.5,107.5 Z"/></g>
</svg>
