<?xml version="1.0" encoding="UTF-8"?>
<!DOCTYPE svg PUBLIC "-//W3C//DTD SVG 1.1//EN" "http://www.w3.org/Graphics/SVG/1.1/DTD/svg11.dtd">
<svg xmlns="http://www.w3.org/2000/svg" version="1.1" width="450px" height="113px" style="shape-rendering:geometricPrecision; text-rendering:geometricPrecision; image-rendering:optimizeQuality; fill-rule:evenodd; clip-rule:evenodd" xmlns:xlink="http://www.w3.org/1999/xlink">
<g><path style="opacity:0.882" fill="#2e2a27" d="M 188.5,27.5 C 182.833,28.8333 177.167,28.8333 171.5,27.5C 172.239,27.631 172.906,27.4643 173.5,27C 171.549,25.2658 170.549,23.0991 170.5,20.5C 171.5,20.5 172.5,20.5 173.5,20.5C 174.193,16.7222 175.36,16.7222 177,20.5C 178.747,19.6699 180.413,18.6699 182,17.5C 183.752,18.958 185.585,20.2913 187.5,21.5C 186.975,22.1924 186.308,22.6924 185.5,23C 186.748,24.3997 187.748,25.8997 188.5,27.5 Z"/></g>
<g><path style="opacity:0.465" fill="#e42b2b" d="M 163.5,27.5 C 163.5,27.8333 163.5,28.1667 163.5,28.5C 156.14,28.5578 148.806,29.0578 141.5,30C 132.493,32.2339 123.493,34.4006 114.5,36.5C 114.5,36.1667 114.5,35.8333 114.5,35.5C 130.169,29.5095 146.502,26.8429 163.5,27.5 Z"/></g>
<g><path style="opacity:0.998" fill="#f3d280" d="M 163.5,28.5 C 163.5,28.1667 163.5,27.8333 163.5,27.5C 166.167,27.5 168.833,27.5 171.5,27.5C 177.167,28.8333 182.833,28.8333 188.5,27.5C 190.912,27.6941 191.912,29.0274 191.5,31.5C 183.5,31.5 175.5,31.5 167.5,31.5C 166.272,30.6935 165.272,29.6935 164.5,28.5C 164.167,28.5 163.833,28.5 163.5,28.5 Z"/></g>
<g><path style="opacity:0.518" fill="#b1b2b3" d="M 34.5,31.5 C 32.1667,31.5 29.8333,31.5 27.5,31.5C 29.6128,27.8364 31.9461,27.8364 34.5,31.5 Z"/></g>
<g><path style="opacity:1" fill="#ec635b" d="M 163.5,28.5 C 163.833,28.5 164.167,28.5 164.5,28.5C 164.5,29.1667 164.5,29.8333 164.5,30.5C 162.757,29.9144 160.924,29.5811 159,29.5C 152.91,30.8938 146.743,31.7271 140.5,32C 135.524,32.6608 130.858,34.1608 126.5,36.5C 125.833,36.8333 125.167,37.1667 124.5,37.5C 118.426,39.3024 112.426,41.3024 106.5,43.5C 107.736,41.1725 109.736,40.0058 112.5,40C 113.823,39.1841 114.489,38.0174 114.5,36.5C 123.493,34.4006 132.493,32.2339 141.5,30C 148.806,29.0578 156.14,28.5578 163.5,28.5 Z"/></g>
<g><path style="opacity:1" fill="#f08382" d="M 164.5,30.5 C 164.5,31.5 164.5,32.5 164.5,33.5C 162.167,30.5 160.5,30.8333 159.5,34.5C 157.5,34.5 155.5,34.5 153.5,34.5C 152.508,34.3284 151.842,34.6618 151.5,35.5C 142.954,34.9572 134.62,35.9572 126.5,38.5C 126.5,37.8333 126.5,37.1667 126.5,36.5C 130.858,34.1608 135.524,32.6608 140.5,32C 146.743,31.7271 152.91,30.8938 159,29.5C 160.924,29.5811 162.757,29.9144 164.5,30.5 Z"/></g>
<g><path style="opacity:1" fill="#f5be41" d="M 167.5,31.5 C 175.5,31.5 183.5,31.5 191.5,31.5C 191.5,33.1667 191.5,34.8333 191.5,36.5C 191.167,36.5 190.833,36.5 190.5,36.5C 190.389,35.8826 190.056,35.3826 189.5,35C 186.183,34.5017 182.85,34.335 179.5,34.5C 175.988,33.9455 172.988,34.6122 170.5,36.5C 169.5,36.1667 168.833,35.5 168.5,34.5C 167.89,33.609 167.557,32.609 167.5,31.5 Z"/></g>
<g><path style="opacity:0.98" fill="#f6b023" d="M 164.5,33.5 C 164.5,34.5 164.5,35.5 164.5,36.5C 163.685,35.5707 162.852,34.5707 162,33.5C 161.329,34.2524 160.496,34.5858 159.5,34.5C 160.5,30.8333 162.167,30.5 164.5,33.5 Z"/></g>
<g><path style="opacity:0.031" fill="#d6d7d7" d="M 39.5,35.5 C 39.56,34.9569 39.8933,34.6236 40.5,34.5C 42.444,35.1892 44.444,35.6892 46.5,36C 45.944,36.3826 45.6107,36.8826 45.5,37.5C 43.2646,37.7947 41.2646,37.4614 39.5,36.5C 40.8333,36.1667 40.8333,35.8333 39.5,35.5 Z"/></g>
<g><path style="opacity:1" fill="#1f180c" d="M 179.5,34.5 C 182.85,34.335 186.183,34.5017 189.5,35C 190.056,35.3826 190.389,35.8826 190.5,36.5C 185.825,37.8688 181.159,37.7021 176.5,36C 177.737,35.7679 178.737,35.2679 179.5,34.5 Z"/></g>
<g><path style="opacity:0.852" fill="#0f111f" d="M 112.5,35.5 C 112.5,36.5 112.5,37.5 112.5,38.5C 109.215,38.2693 106.715,39.6026 105,42.5C 103.085,41.0844 101.585,41.4178 100.5,43.5C 97.1991,43.7922 95.1991,45.4589 94.5,48.5C 97.1667,48.1667 99.8333,47.8333 102.5,47.5C 104.857,47.3367 107.19,47.5034 109.5,48C 98.3282,48.4447 88.3282,51.9447 79.5,58.5C 76.5531,57.0266 73.5531,55.5266 70.5,54C 68.8659,53.5065 67.1992,53.3398 65.5,53.5C 65.5,53.1667 65.5,52.8333 65.5,52.5C 66.412,50.4048 67.5787,48.4048 69,46.5C 83.2636,42.0125 97.7636,38.3458 112.5,35.5 Z"/></g>
<g><path style="opacity:1" fill="#e69519" d="M 179.5,34.5 C 178.737,35.2679 177.737,35.7679 176.5,36C 181.159,37.7021 185.825,37.8688 190.5,36.5C 190.833,36.5 191.167,36.5 191.5,36.5C 191.5,37.5 191.5,38.5 191.5,39.5C 187.3,39.6139 182.967,39.2806 178.5,38.5C 176.833,38.6667 175.167,38.8333 173.5,39C 174.167,39.3333 174.833,39.6667 175.5,40C 175.272,40.3988 174.938,40.5654 174.5,40.5C 172.736,39.674 171.402,38.3407 170.5,36.5C 172.988,34.6122 175.988,33.9455 179.5,34.5 Z"/></g>
<g><path style="opacity:0.976" fill="#df3a23" d="M 168.5,34.5 C 168.833,35.5 169.5,36.1667 170.5,36.5C 171.402,38.3407 172.736,39.674 174.5,40.5C 175.602,42.0919 174.935,42.9252 172.5,43C 173.167,43.3333 173.833,43.6667 174.5,44C 171.975,44.8959 169.808,44.3959 168,42.5C 167.292,43.3805 166.458,44.0472 165.5,44.5C 165.5,41.1667 165.5,37.8333 165.5,34.5C 166.5,34.5 167.5,34.5 168.5,34.5 Z"/></g>
<g><path style="opacity:0.988" fill="#e1761a" d="M 153.5,34.5 C 153.579,35.9305 153.246,37.2638 152.5,38.5C 154.216,38.9972 155.883,39.3306 157.5,39.5C 156.833,40.5 156.167,41.5 155.5,42.5C 156.127,43.4168 156.461,44.4168 156.5,45.5C 154.833,45.5 153.167,45.5 151.5,45.5C 150.26,44.027 149.26,42.3604 148.5,40.5C 150.756,39.5791 151.756,37.9124 151.5,35.5C 151.842,34.6618 152.508,34.3284 153.5,34.5 Z"/></g>
<g><path style="opacity:1" fill="#3b3b50" d="M 273.5,52.5 C 272.883,52.6107 272.383,52.944 272,53.5C 265.649,46.4093 257.815,42.076 248.5,40.5C 246.022,40.6668 244.022,41.6668 242.5,43.5C 241.265,43.2786 240.265,42.6119 239.5,41.5C 230.03,44.7305 220.363,45.7305 210.5,44.5C 223.268,42.1787 236.101,39.512 249,36.5C 258.932,39.2105 267.098,44.5438 273.5,52.5 Z"/></g>
<g><path style="opacity:0.988" fill="#d9cd80" d="M 112.5,35.5 C 113.167,35.5 113.833,35.5 114.5,35.5C 114.5,35.8333 114.5,36.1667 114.5,36.5C 114.489,38.0174 113.823,39.1841 112.5,40C 109.736,40.0058 107.736,41.1725 106.5,43.5C 105.833,43.8333 105.167,44.1667 104.5,44.5C 103.292,43.7659 101.959,43.4326 100.5,43.5C 101.585,41.4178 103.085,41.0844 105,42.5C 106.715,39.6026 109.215,38.2693 112.5,38.5C 112.5,37.5 112.5,36.5 112.5,35.5 Z"/></g>
<g><path style="opacity:1" fill="#f08183" d="M 124.5,37.5 C 124.607,39.9032 123.607,41.7365 121.5,43C 117.5,43.3333 113.5,43.6667 109.5,44C 108.058,44.3768 107.058,45.2101 106.5,46.5C 105.5,46.5 104.5,46.5 103.5,46.5C 103.833,45.8333 104.167,45.1667 104.5,44.5C 105.167,44.1667 105.833,43.8333 106.5,43.5C 112.426,41.3024 118.426,39.3024 124.5,37.5 Z"/></g>
<g><path style="opacity:1" fill="#e6362c" d="M 151.5,35.5 C 151.756,37.9124 150.756,39.5791 148.5,40.5C 149.26,42.3604 150.26,44.027 151.5,45.5C 149.833,45.5 148.167,45.5 146.5,45.5C 145.207,43.7041 143.707,42.0375 142,40.5C 141.481,41.5156 140.647,42.1822 139.5,42.5C 134.878,41.6149 130.211,41.2816 125.5,41.5C 125.263,40.209 125.596,39.209 126.5,38.5C 134.62,35.9572 142.954,34.9572 151.5,35.5 Z"/></g>
<g><path style="opacity:0.99" fill="#d77217" d="M 191.5,39.5 C 191.489,41.0174 190.823,42.1841 189.5,43C 190.252,43.6708 190.586,44.5041 190.5,45.5C 188.059,46.7563 185.726,46.7563 183.5,45.5C 182.833,44.1667 182.167,44.1667 181.5,45.5C 181.167,45.5 180.833,45.5 180.5,45.5C 175.305,45.8205 170.305,45.4872 165.5,44.5C 166.458,44.0472 167.292,43.3805 168,42.5C 169.808,44.3959 171.975,44.8959 174.5,44C 173.833,43.6667 173.167,43.3333 172.5,43C 174.935,42.9252 175.602,42.0919 174.5,40.5C 174.938,40.5654 175.272,40.3988 175.5,40C 174.833,39.6667 174.167,39.3333 173.5,39C 175.167,38.8333 176.833,38.6667 178.5,38.5C 182.967,39.2806 187.3,39.6139 191.5,39.5 Z"/></g>
<g><path style="opacity:0.95" fill="#15182c" d="M 273.5,52.5 C 274.272,53.6935 275.272,54.6935 276.5,55.5C 276.611,56.1174 276.944,56.6174 277.5,57C 275.618,57.1981 273.952,57.6981 272.5,58.5C 263.088,59.0883 253.755,59.0883 244.5,58.5C 244.5,57.5 244.5,56.5 244.5,55.5C 246.527,55.6621 248.527,55.4955 250.5,55C 249.167,53.3333 249.167,51.6667 250.5,50C 252.473,49.5045 254.473,49.3379 256.5,49.5C 258.394,52.1867 259.061,52.1867 258.5,49.5C 256.727,48.1077 254.727,46.941 252.5,46C 248.953,45.6931 245.62,44.8597 242.5,43.5C 244.022,41.6668 246.022,40.6668 248.5,40.5C 257.815,42.076 265.649,46.4093 272,53.5C 272.383,52.944 272.883,52.6107 273.5,52.5 Z"/></g>
<g><path style="opacity:1" fill="#e73222" d="M 164.5,36.5 C 165.055,40.0122 164.388,43.0122 162.5,45.5C 160.5,45.5 158.5,45.5 156.5,45.5C 156.461,44.4168 156.127,43.4168 155.5,42.5C 156.167,41.5 156.833,40.5 157.5,39.5C 155.883,39.3306 154.216,38.9972 152.5,38.5C 153.246,37.2638 153.579,35.9305 153.5,34.5C 155.5,34.5 157.5,34.5 159.5,34.5C 160.496,34.5858 161.329,34.2524 162,33.5C 162.852,34.5707 163.685,35.5707 164.5,36.5 Z"/></g>
<g><path style="opacity:1" fill="#161719" d="M 27.5,31.5 C 29.8333,31.5 32.1667,31.5 34.5,31.5C 36.1667,32.8333 37.8333,34.1667 39.5,35.5C 39.5,35.8333 39.5,36.1667 39.5,36.5C 41.2646,37.4614 43.2646,37.7947 45.5,37.5C 48.2626,37.7438 50.4293,39.0771 52,41.5C 53.2367,45.0601 53.7367,48.7267 53.5,52.5C 57.5709,51.5877 61.5709,51.5877 65.5,52.5C 65.5,52.8333 65.5,53.1667 65.5,53.5C 61.6286,53.185 57.9619,53.5184 54.5,54.5C 54.1667,54.5 53.8333,54.5 53.5,54.5C 51.2972,54.6036 49.2972,55.2702 47.5,56.5C 47.8226,52.774 47.4892,49.1073 46.5,45.5C 45.52,48.0865 45.1866,50.7531 45.5,53.5C 42.5,53.5 39.5,53.5 36.5,53.5C 36.1977,50.6275 35.531,47.9608 34.5,45.5C 33.0597,46.3629 31.7264,46.3629 30.5,45.5C 29.7189,46.7287 29.2189,48.062 29,49.5C 27.0036,49.0037 25.3369,48.0037 24,46.5C 23.5065,48.1341 23.3398,49.8008 23.5,51.5C 23.1667,51.5 22.8333,51.5 22.5,51.5C 22.853,49.3652 22.0197,48.0319 20,47.5C 17.9264,48.0717 16.7598,49.405 16.5,51.5C 15.4975,53.0109 14.8308,54.6776 14.5,56.5C 12.5,57.1667 10.5,57.8333 8.5,58.5C 8.99665,60.5972 9.32999,62.4305 9.5,64C 8.70689,65.0852 8.04022,66.2519 7.5,67.5C 9.74269,68.4742 12.076,68.8076 14.5,68.5C 13.3915,69.29 12.0581,69.79 10.5,70C 11.8333,70.6667 11.8333,71.3333 10.5,72C 12.5675,72.6869 14.5675,72.5202 16.5,71.5C 18.1151,72.154 19.7818,72.654 21.5,73C 19.4523,74.2259 19.119,75.7259 20.5,77.5C 19.8423,78.3984 19.1757,79.3984 18.5,80.5C 16.2534,79.6258 13.9201,79.2924 11.5,79.5C 9.95819,78.6993 8.29152,78.366 6.5,78.5C 6.35544,73.965 5.52211,69.6317 4,65.5C 3.50038,58.5079 3.33371,51.5079 3.5,44.5C 8.76888,43.3508 14.1022,42.5175 19.5,42C 18.2341,41.6905 17.0674,41.1905 16,40.5C 10.4486,32.2162 11.4486,30.8829 19,36.5C 21.3128,33.9277 24.1461,32.261 27.5,31.5 Z M 26.5,36.5 C 28.6825,37.2997 30.3492,38.7997 31.5,41C 31,41.1667 30.5,41.3333 30,41.5C 28.8319,40.4911 27.6652,39.4911 26.5,38.5C 25.549,39.3256 24.549,39.4922 23.5,39C 24.5707,38.1482 25.5707,37.3149 26.5,36.5 Z"/></g>
<g><path style="opacity:0.992" fill="#f7ad28" d="M 126.5,36.5 C 126.5,37.1667 126.5,37.8333 126.5,38.5C 125.596,39.209 125.263,40.209 125.5,41.5C 121.982,45.5344 117.649,46.5344 112.5,44.5C 110.962,44.4534 109.962,45.1201 109.5,46.5C 108.5,46.5 107.5,46.5 106.5,46.5C 107.058,45.2101 108.058,44.3768 109.5,44C 113.5,43.6667 117.5,43.3333 121.5,43C 123.607,41.7365 124.607,39.9032 124.5,37.5C 125.167,37.1667 125.833,36.8333 126.5,36.5 Z"/></g>
<g><path style="opacity:1" fill="#ca791a" d="M 146.5,45.5 C 140.773,45.8111 135.94,45.1444 132,43.5C 129.319,43.7694 126.819,44.4361 124.5,45.5C 124.833,44.1667 125.167,42.8333 125.5,41.5C 130.211,41.2816 134.878,41.6149 139.5,42.5C 140.647,42.1822 141.481,41.5156 142,40.5C 143.707,42.0375 145.207,43.7041 146.5,45.5 Z"/></g>
<g><path style="opacity:1" fill="#cb4744" d="M 125.5,41.5 C 125.167,42.8333 124.833,44.1667 124.5,45.5C 119.595,46.4454 114.595,46.7787 109.5,46.5C 109.962,45.1201 110.962,44.4534 112.5,44.5C 117.649,46.5344 121.982,45.5344 125.5,41.5 Z"/></g>
<g><path style="opacity:1" fill="#a25d3b" d="M 164.5,28.5 C 165.272,29.6935 166.272,30.6935 167.5,31.5C 167.557,32.609 167.89,33.609 168.5,34.5C 167.5,34.5 166.5,34.5 165.5,34.5C 165.5,37.8333 165.5,41.1667 165.5,44.5C 170.305,45.4872 175.305,45.8205 180.5,45.5C 174.5,46.8333 168.5,46.8333 162.5,45.5C 164.388,43.0122 165.055,40.0122 164.5,36.5C 164.5,35.5 164.5,34.5 164.5,33.5C 164.5,32.5 164.5,31.5 164.5,30.5C 164.5,29.8333 164.5,29.1667 164.5,28.5 Z"/></g>
<g><path style="opacity:0.976" fill="#df9f5f" d="M 100.5,43.5 C 101.959,43.4326 103.292,43.7659 104.5,44.5C 104.167,45.1667 103.833,45.8333 103.5,46.5C 102.833,46.5 102.5,46.8333 102.5,47.5C 99.8333,47.8333 97.1667,48.1667 94.5,48.5C 95.1991,45.4589 97.1991,43.7922 100.5,43.5 Z"/></g>
<g><path style="opacity:1" fill="#cececf" d="M 8.5,46.5 C 10.4109,46.5743 11.5776,47.5743 12,49.5C 12.4828,48.552 12.6495,47.552 12.5,46.5C 13.5,46.5 14.5,46.5 15.5,46.5C 15.6621,48.5273 15.4955,50.5273 15,52.5C 14.6667,51.5 14.3333,50.5 14,49.5C 12.7109,54.7842 11.3775,54.7842 10,49.5C 9.66667,50.8333 9.33333,52.1667 9,53.5C 8.50335,51.1902 8.33669,48.8568 8.5,46.5 Z"/></g>
<g><path style="opacity:0.376" fill="#a1a041" d="M 256.5,49.5 C 257.167,49.5 257.833,49.5 258.5,49.5C 259.061,52.1867 258.394,52.1867 256.5,49.5 Z"/></g>
<g><path style="opacity:1" fill="#999a9a" d="M 34.5,45.5 C 34.5,48.1667 34.5,50.8333 34.5,53.5C 31.5203,52.975 28.687,52.975 26,53.5C 24.6244,53.3158 23.7911,52.6491 23.5,51.5C 23.3398,49.8008 23.5065,48.1341 24,46.5C 25.3369,48.0037 27.0036,49.0037 29,49.5C 29.2189,48.062 29.7189,46.7287 30.5,45.5C 31.7264,46.3629 33.0597,46.3629 34.5,45.5 Z"/></g>
<g><path style="opacity:1" fill="#030304" d="M 25.5,49.5 C 27.337,49.6395 27.6704,50.3061 26.5,51.5C 25.7025,51.0431 25.3691,50.3764 25.5,49.5 Z"/></g>
<g><path style="opacity:1" fill="#171a2f" d="M 156.5,51.5 C 146.497,51.7502 136.497,52.0836 126.5,52.5C 126.5,55.5 126.5,58.5 126.5,61.5C 128.5,61.5 130.5,61.5 132.5,61.5C 132.5,62.5 132.5,63.5 132.5,64.5C 131.209,64.2627 130.209,64.596 129.5,65.5C 128.85,65.8039 128.183,66.1373 127.5,66.5C 123.3,63.3945 121.133,64.3945 121,69.5C 122.688,71.8483 124.522,72.0149 126.5,70C 125.551,69.3828 124.718,69.5494 124,70.5C 125.455,67.924 127.288,68.0907 129.5,71C 131.313,70.9536 132.979,71.1203 134.5,71.5C 135.487,68.2317 135.82,64.8984 135.5,61.5C 136.167,61.5 136.833,61.5 137.5,61.5C 137.5,64.8333 137.5,68.1667 137.5,71.5C 139.735,71.7947 141.735,71.4614 143.5,70.5C 144.167,70.5 144.5,70.1667 144.5,69.5C 145.167,69.5 145.833,69.5 146.5,69.5C 147.314,71.2726 148.648,71.7726 150.5,71C 152.155,69.5557 152.822,67.7224 152.5,65.5C 152.833,65.5 153.167,65.5 153.5,65.5C 153.5,67.5 153.5,69.5 153.5,71.5C 147.21,73.3226 140.877,74.9892 134.5,76.5C 133.653,75.0337 132.32,74.2004 130.5,74C 122.758,73.352 115.091,73.852 107.5,75.5C 107.492,78.5448 107.159,81.5448 106.5,84.5C 103.167,84.5 99.8333,84.5 96.5,84.5C 96.5,82.5 96.5,80.5 96.5,78.5C 94.5,78.5 92.5,78.5 90.5,78.5C 90.456,75.5192 90.1227,75.1858 89.5,77.5C 90.8401,81.4185 90.5068,85.0851 88.5,88.5C 89.9995,79.0095 87.6661,70.6761 81.5,63.5C 82.5,63.5 83.5,63.5 84.5,63.5C 85.5,63.5 86.5,63.5 87.5,63.5C 87.5,62.5 87.5,61.5 87.5,60.5C 87.8333,60.5 88.1667,60.5 88.5,60.5C 88.5,61.5 88.5,62.5 88.5,63.5C 92.623,63.1597 96.623,62.9931 100.5,63C 99.4404,61.702 98.2737,60.5353 97,59.5C 96.0546,59.9054 95.3879,60.572 95,61.5C 94.2917,60.6195 93.4584,59.9528 92.5,59.5C 90.369,58.6862 88.0356,58.1862 85.5,58C 90.9927,55.6692 96.6593,53.8359 102.5,52.5C 121.74,49.8065 141.073,48.9732 160.5,50C 158.942,50.21 157.609,50.71 156.5,51.5 Z"/></g>
<g><path style="opacity:1" fill="#1e1e33" d="M 242.5,43.5 C 235.036,45.631 227.369,47.4644 219.5,49C 218.484,49.5194 217.818,50.3527 217.5,51.5C 218.219,53.7277 219.552,55.561 221.5,57C 226.78,58.0946 232.113,58.5946 237.5,58.5C 239.631,59.3138 241.964,59.8138 244.5,60C 231.158,60.3892 217.825,60.8892 204.5,61.5C 204.461,60.2438 204.961,59.2438 206,58.5C 209.73,59.4601 213.563,59.7935 217.5,59.5C 217.67,58.1779 217.337,57.0113 216.5,56C 213.937,54.9207 211.271,54.4207 208.5,54.5C 202.674,53.7679 196.674,53.4345 190.5,53.5C 190.5,54.8333 190.5,56.1667 190.5,57.5C 179.737,56.341 169.07,57.1744 158.5,60C 158.171,63.892 157.171,67.392 155.5,70.5C 155.82,67.1016 155.487,63.7683 154.5,60.5C 153.548,62.0453 153.215,63.712 153.5,65.5C 153.167,65.5 152.833,65.5 152.5,65.5C 152.44,64.9569 152.107,64.6236 151.5,64.5C 150.548,66.0453 150.215,67.712 150.5,69.5C 149.5,69.5 148.5,69.5 147.5,69.5C 147.167,64.1667 146.833,64.1667 146.5,69.5C 145.833,69.5 145.167,69.5 144.5,69.5C 144.663,67.1432 144.497,64.8098 144,62.5C 143.617,61.944 143.117,61.6107 142.5,61.5C 142.158,60.6618 141.492,60.3284 140.5,60.5C 140.5,59.5 140.5,58.5 140.5,57.5C 147.841,57.6663 155.174,57.4997 162.5,57C 163.833,55.3333 163.833,53.6667 162.5,52C 160.527,51.5045 158.527,51.3379 156.5,51.5C 157.609,50.71 158.942,50.21 160.5,50C 141.073,48.9732 121.74,49.8065 102.5,52.5C 106.93,50.925 111.597,49.7583 116.5,49C 131.075,48.8246 145.575,48.3246 160,47.5C 162.93,50.8659 166.097,51.1992 169.5,48.5C 181.12,49.6452 192.787,49.8119 204.5,49C 206.117,47.9085 207.117,46.4085 207.5,44.5C 208.5,44.5 209.5,44.5 210.5,44.5C 220.363,45.7305 230.03,44.7305 239.5,41.5C 240.265,42.6119 241.265,43.2786 242.5,43.5 Z"/></g>
<g><path style="opacity:0.821" fill="#1c1b19" d="M 362.5,51.5 C 357.216,53.2567 351.55,54.2567 345.5,54.5C 345.286,52.8561 345.62,51.3561 346.5,50C 351.433,47.7835 356.433,47.4502 361.5,49C 362.252,49.6708 362.586,50.5041 362.5,51.5 Z"/></g>
<g><path style="opacity:1" fill="#cd1717" d="M 22.5,51.5 C 20.6409,54.0186 18.6409,54.0186 16.5,51.5C 16.7598,49.405 17.9264,48.0717 20,47.5C 22.0197,48.0319 22.853,49.3652 22.5,51.5 Z"/></g>
<g><path style="opacity:1" fill="#090608" d="M 18.5,49.5 C 20.337,49.6395 20.6704,50.3061 19.5,51.5C 18.7025,51.0431 18.3691,50.3764 18.5,49.5 Z"/></g>
<g><path style="opacity:1" fill="#08090b" d="M 34.5,45.5 C 35.531,47.9608 36.1977,50.6275 36.5,53.5C 39.5,53.5 42.5,53.5 45.5,53.5C 45.1866,50.7531 45.52,48.0865 46.5,45.5C 47.4892,49.1073 47.8226,52.774 47.5,56.5C 45.0948,57.3981 43.0948,58.8981 41.5,61C 42.1667,61.3333 42.8333,61.6667 43.5,62C 42.5842,62.2784 41.9175,62.7784 41.5,63.5C 35.1592,70.2193 32.8259,78.2193 34.5,87.5C 34.631,88.2389 34.4643,88.9056 34,89.5C 33.338,87.1873 32.838,84.854 32.5,82.5C 28.4809,82.3542 24.4809,82.0209 20.5,81.5C 20.5271,79.8007 21.1938,78.4674 22.5,77.5C 24.8309,77.5023 26.8309,76.669 28.5,75C 26.7536,74.5291 25.087,73.8624 23.5,73C 24.5458,71.4615 25.8791,71.2948 27.5,72.5C 28.91,72.1322 29.91,71.2989 30.5,70C 25.1456,69.6095 19.8123,69.1095 14.5,68.5C 12.076,68.8076 9.74269,68.4742 7.5,67.5C 8.04022,66.2519 8.70689,65.0852 9.5,64C 9.32999,62.4305 8.99665,60.5972 8.5,58.5C 10.5,57.8333 12.5,57.1667 14.5,56.5C 14.8308,54.6776 15.4975,53.0109 16.5,51.5C 18.6409,54.0186 20.6409,54.0186 22.5,51.5C 22.8333,51.5 23.1667,51.5 23.5,51.5C 23.7911,52.6491 24.6244,53.3158 26,53.5C 28.687,52.975 31.5203,52.975 34.5,53.5C 34.5,50.8333 34.5,48.1667 34.5,45.5 Z"/></g>
<g><path style="opacity:1" fill="#e8e8e8" d="M 39.5,46.5 C 40.6935,46.9704 41.3601,47.9704 41.5,49.5C 41.3333,50.5 41.1667,51.5 41,52.5C 40.4954,50.4817 39.9954,48.4817 39.5,46.5 Z"/></g>
<g><path style="opacity:1" fill="#2d1b1b" d="M 156.5,51.5 C 158.527,51.3379 160.527,51.5045 162.5,52C 163.833,53.6667 163.833,55.3333 162.5,57C 155.174,57.4997 147.841,57.6663 140.5,57.5C 140.5,58.5 140.5,59.5 140.5,60.5C 139.209,60.2627 138.209,60.596 137.5,61.5C 136.833,61.5 136.167,61.5 135.5,61.5C 135.44,60.9569 135.107,60.6236 134.5,60.5C 133.548,62.0453 133.215,63.712 133.5,65.5C 132.167,65.5 130.833,65.5 129.5,65.5C 130.209,64.596 131.209,64.2627 132.5,64.5C 132.5,63.5 132.5,62.5 132.5,61.5C 130.5,61.5 128.5,61.5 126.5,61.5C 126.5,58.5 126.5,55.5 126.5,52.5C 136.497,52.0836 146.497,51.7502 156.5,51.5 Z"/></g>
<g><path style="opacity:0.591" fill="#697080" d="M 327.5,58.5 C 326.508,58.6716 325.842,58.3382 325.5,57.5C 327.056,54.5505 326.722,51.8838 324.5,49.5C 325,49.1667 325.5,48.8333 326,48.5C 328.862,49.0283 331.696,49.6949 334.5,50.5C 332.604,51.4656 330.604,51.7989 328.5,51.5C 328.552,53.9029 328.219,56.2362 327.5,58.5 Z"/></g>
<g><path style="opacity:1" fill="#37374d" d="M 146.5,45.5 C 148.167,45.5 149.833,45.5 151.5,45.5C 153.167,45.5 154.833,45.5 156.5,45.5C 158.5,45.5 160.5,45.5 162.5,45.5C 168.5,46.8333 174.5,46.8333 180.5,45.5C 180.833,45.5 181.167,45.5 181.5,45.5C 182.167,45.5 182.833,45.5 183.5,45.5C 185.726,46.7563 188.059,46.7563 190.5,45.5C 196.203,45.6252 201.87,45.2919 207.5,44.5C 207.117,46.4085 206.117,47.9085 204.5,49C 192.787,49.8119 181.12,49.6452 169.5,48.5C 166.097,51.1992 162.93,50.8659 160,47.5C 145.575,48.3246 131.075,48.8246 116.5,49C 111.597,49.7583 106.93,50.925 102.5,52.5C 96.6593,53.8359 90.9927,55.6692 85.5,58C 88.0356,58.1862 90.369,58.6862 92.5,59.5C 90.901,59.2322 89.5676,59.5655 88.5,60.5C 88.1667,60.5 87.8333,60.5 87.5,60.5C 86.1802,61.173 84.5136,61.173 82.5,60.5C 81.2905,60.0679 80.2905,59.4013 79.5,58.5C 88.3282,51.9447 98.3282,48.4447 109.5,48C 107.19,47.5034 104.857,47.3367 102.5,47.5C 102.5,46.8333 102.833,46.5 103.5,46.5C 104.5,46.5 105.5,46.5 106.5,46.5C 107.5,46.5 108.5,46.5 109.5,46.5C 114.595,46.7787 119.595,46.4454 124.5,45.5C 126.819,44.4361 129.319,43.7694 132,43.5C 135.94,45.1444 140.773,45.8111 146.5,45.5 Z"/></g>
<g><path style="opacity:1" fill="#9593a2" d="M 208.5,54.5 C 207.069,54.8807 206.236,55.8807 206,57.5C 205,53.5 204,53.5 203,57.5C 202.667,57.1667 202.333,56.8333 202,56.5C 201.692,57.3081 201.192,57.9747 200.5,58.5C 198.5,58.5 196.5,58.5 194.5,58.5C 193.808,57.9747 193.308,57.3081 193,56.5C 192.399,58.3588 191.566,58.6921 190.5,57.5C 190.5,56.1667 190.5,54.8333 190.5,53.5C 196.674,53.4345 202.674,53.7679 208.5,54.5 Z"/></g>
<g><path style="opacity:1" fill="#42423e" d="M 362.5,51.5 C 366.46,53.1377 370.126,55.1377 373.5,57.5C 374.625,59.1288 375.959,60.6288 377.5,62C 376.944,62.3826 376.611,62.8826 376.5,63.5C 375.833,63.5 375.5,63.8333 375.5,64.5C 374.604,63.4937 373.938,63.4937 373.5,64.5C 365.999,58.558 357.666,57.058 348.5,60C 346.416,60.6972 344.749,61.8639 343.5,63.5C 342.391,63.5569 341.391,63.8902 340.5,64.5C 339.833,64.5 339.167,64.5 338.5,64.5C 338.5,63.8333 338.167,63.5 337.5,63.5C 338.598,62.603 338.598,61.7697 337.5,61C 338.71,59.9609 339.71,58.7942 340.5,57.5C 341.659,55.7497 343.326,54.7497 345.5,54.5C 351.55,54.2567 357.216,53.2567 362.5,51.5 Z"/></g>
<g><path style="opacity:1" fill="#c2bfa9" d="M 349.5,54.5 C 354.5,54.5 359.5,54.5 364.5,54.5C 364.649,55.552 364.483,56.552 364,57.5C 359.277,57.1779 354.444,57.1779 349.5,57.5C 349.5,56.5 349.5,55.5 349.5,54.5 Z"/></g>
<g><path style="opacity:1" fill="#41413d" d="M 54.5,54.5 C 57.9619,53.5184 61.6286,53.185 65.5,53.5C 67.1992,53.3398 68.8659,53.5065 70.5,54C 73.5531,55.5266 76.5531,57.0266 79.5,58.5C 80.2905,59.4013 81.2905,60.0679 82.5,60.5C 83.5511,61.2223 84.2178,62.2223 84.5,63.5C 83.5,63.5 82.5,63.5 81.5,63.5C 80.7611,63.369 80.0944,63.5357 79.5,64C 80.3805,64.7083 81.0472,65.5416 81.5,66.5C 80.8333,66.5 80.5,66.8333 80.5,67.5C 78.4268,65.4202 76.0934,63.7536 73.5,62.5C 70.2138,59.4043 66.2138,58.0709 61.5,58.5C 55.8596,58.3801 50.8596,60.0468 46.5,63.5C 45.5,63.5 44.5,63.5 43.5,63.5C 42.8333,63.5 42.1667,63.5 41.5,63.5C 41.9175,62.7784 42.5842,62.2784 43.5,62C 42.8333,61.6667 42.1667,61.3333 41.5,61C 43.0948,58.8981 45.0948,57.3981 47.5,56.5C 49.2972,55.2702 51.2972,54.6036 53.5,54.5C 53.5,55.5 53.5,56.5 53.5,57.5C 58.8178,57.1991 63.6511,57.1991 68,57.5C 68.4828,56.552 68.6495,55.552 68.5,54.5C 63.8333,54.5 59.1667,54.5 54.5,54.5 Z"/></g>
<g><path style="opacity:1" fill="#c6c2a3" d="M 53.5,54.5 C 53.8333,54.5 54.1667,54.5 54.5,54.5C 59.1667,54.5 63.8333,54.5 68.5,54.5C 68.6495,55.552 68.4828,56.552 68,57.5C 63.6511,57.1991 58.8178,57.1991 53.5,57.5C 53.5,56.5 53.5,55.5 53.5,54.5 Z"/></g>
<g><path style="opacity:1" fill="#3a3446" d="M 208.5,54.5 C 211.271,54.4207 213.937,54.9207 216.5,56C 217.337,57.0113 217.67,58.1779 217.5,59.5C 213.563,59.7935 209.73,59.4601 206,58.5C 204.961,59.2438 204.461,60.2438 204.5,61.5C 199.609,62.9031 194.609,63.5698 189.5,63.5C 197.433,61.3925 197.266,60.3925 189,60.5C 179.19,62.029 169.356,63.3623 159.5,64.5C 159.205,66.7354 159.539,68.7354 160.5,70.5C 160.5,71.1667 160.5,71.8333 160.5,72.5C 155.641,73.4648 150.975,74.7982 146.5,76.5C 138.82,77.5846 131.487,79.5846 124.5,82.5C 121.07,83.7138 117.736,85.2138 114.5,87C 110.81,90.1749 106.81,92.8415 102.5,95C 99.7433,95.5837 97.0766,95.2504 94.5,94C 102.674,93.0791 109.674,89.7458 115.5,84C 121.556,80.7388 127.89,78.2388 134.5,76.5C 140.877,74.9892 147.21,73.3226 153.5,71.5C 154.492,71.6716 155.158,71.3382 155.5,70.5C 157.171,67.392 158.171,63.892 158.5,60C 169.07,57.1744 179.737,56.341 190.5,57.5C 191.566,58.6921 192.399,58.3588 193,56.5C 193.308,57.3081 193.808,57.9747 194.5,58.5C 196.5,58.5 198.5,58.5 200.5,58.5C 201.192,57.9747 201.692,57.3081 202,56.5C 202.333,56.8333 202.667,57.1667 203,57.5C 204,53.5 205,53.5 206,57.5C 206.236,55.8807 207.069,54.8807 208.5,54.5 Z"/></g>
<g><path style="opacity:1" fill="#333345" d="M 316.5,56.5 C 315.737,57.2679 314.737,57.7679 313.5,58C 320.639,58.9001 327.639,60.4001 334.5,62.5C 333.667,62.8333 332.833,63.1667 332,63.5C 319.613,61.2011 307.947,59.2011 297,57.5C 294.705,57.5465 292.871,58.2132 291.5,59.5C 291.5,60.8333 291.5,62.1667 291.5,63.5C 291.167,63.5 290.833,63.5 290.5,63.5C 289.713,61.8958 288.38,61.2291 286.5,61.5C 287.263,60.7321 288.263,60.2321 289.5,60C 284.316,59.1837 279.316,59.3503 274.5,60.5C 273.5,60.1667 272.833,59.5 272.5,58.5C 273.952,57.6981 275.618,57.1981 277.5,57C 276.944,56.6174 276.611,56.1174 276.5,55.5C 277.097,55.2648 277.43,54.7648 277.5,54C 276.754,48.1164 275.754,42.283 274.5,36.5C 275.325,35.6143 276.325,35.281 277.5,35.5C 277.455,42.8516 278.788,49.8516 281.5,56.5C 293.167,56.5 304.833,56.5 316.5,56.5 Z"/></g>
<g><path style="opacity:1" fill="#060201" d="M 73.5,62.5 C 84.7977,72.7634 86.4644,84.4301 78.5,97.5C 68.3353,105.936 57.6686,106.603 46.5,99.5C 45.8333,98.1667 44.8333,97.1667 43.5,96.5C 39.0141,88.1838 38.3474,79.5171 41.5,70.5C 43.5869,69.4154 44.9202,67.7488 45.5,65.5C 54.1611,58.8838 63.4945,57.8838 73.5,62.5 Z"/></g>
<g><path style="opacity:1" fill="#050201" d="M 375.5,68.5 C 381.653,80.2362 379.986,90.7362 370.5,100C 358.767,107.054 348.267,105.554 339,95.5C 331.981,83.6518 333.481,72.9851 343.5,63.5C 355.386,57.4109 366.053,59.0775 375.5,68.5 Z"/></g>
<g><path style="opacity:1" fill="#7d0b0e" d="M 73.5,62.5 C 63.4945,57.8838 54.1611,58.8838 45.5,65.5C 45.8333,64.8333 46.1667,64.1667 46.5,63.5C 50.8596,60.0468 55.8596,58.3801 61.5,58.5C 66.2138,58.0709 70.2138,59.4043 73.5,62.5 Z"/></g>
<g><path style="opacity:1" fill="#c9cace" d="M 87.5,60.5 C 87.5,61.5 87.5,62.5 87.5,63.5C 86.5,63.5 85.5,63.5 84.5,63.5C 84.2178,62.2223 83.5511,61.2223 82.5,60.5C 84.5136,61.173 86.1802,61.173 87.5,60.5 Z"/></g>
<g><path style="opacity:1" fill="#9a9ba1" d="M 92.5,59.5 C 93.4584,59.9528 94.2917,60.6195 95,61.5C 95.3879,60.572 96.0546,59.9054 97,59.5C 98.2737,60.5353 99.4404,61.702 100.5,63C 96.623,62.9931 92.623,63.1597 88.5,63.5C 88.5,62.5 88.5,61.5 88.5,60.5C 89.5676,59.5655 90.901,59.2322 92.5,59.5 Z"/></g>
<g><path style="opacity:1" fill="#cf1918" d="M 113.5,61.5 C 119.484,60.9453 121.151,63.112 118.5,68C 121.274,71.697 120.774,72.197 117,69.5C 116.376,67.5355 116.876,65.8689 118.5,64.5C 117.675,63.6143 116.675,63.281 115.5,63.5C 115.813,66.2469 115.48,68.9135 114.5,71.5C 113.513,68.2317 113.18,64.8984 113.5,61.5 Z"/></g>
<g><path style="opacity:1" fill="#c7412e" d="M 155.5,70.5 C 155.158,71.3382 154.492,71.6716 153.5,71.5C 153.5,69.5 153.5,67.5 153.5,65.5C 153.215,63.712 153.548,62.0453 154.5,60.5C 155.487,63.7683 155.82,67.1016 155.5,70.5 Z"/></g>
<g><path style="opacity:1" fill="#b7b7ba" d="M 278.5,61.5 C 280.594,65.7993 279.26,67.7993 274.5,67.5C 274.5,65.8333 274.5,64.1667 274.5,62.5C 275.568,61.5655 276.901,61.2322 278.5,61.5 Z"/></g>
<g><path style="opacity:1" fill="#810c0f" d="M 373.5,64.5 C 374.6,65.6049 375.267,66.9382 375.5,68.5C 366.053,59.0775 355.386,57.4109 343.5,63.5C 344.749,61.8639 346.416,60.6972 348.5,60C 357.666,57.058 365.999,58.558 373.5,64.5 Z"/></g>
<g><path style="opacity:1" fill="#333d5a" d="M 237.5,58.5 C 239.833,58.5 242.167,58.5 244.5,58.5C 253.755,59.0883 263.088,59.0883 272.5,58.5C 272.833,59.5 273.5,60.1667 274.5,60.5C 276.099,60.2322 277.432,60.5655 278.5,61.5C 276.901,61.2322 275.568,61.5655 274.5,62.5C 264.176,63.0784 253.843,63.4117 243.5,63.5C 234.35,61.007 230.016,64.3403 230.5,73.5C 227.5,73.5 224.5,73.5 221.5,73.5C 222.055,69.9878 221.388,66.9878 219.5,64.5C 218.523,67.2869 218.19,70.2869 218.5,73.5C 215.223,73.7839 212.057,73.4505 209,72.5C 208.257,70.5594 208.424,68.7261 209.5,67C 212.226,66.8184 214.893,66.3184 217.5,65.5C 208.332,62.3396 204.999,65.3396 207.5,74.5C 204.822,71.668 202.488,68.5013 200.5,65C 199.212,64.7613 198.212,65.2613 197.5,66.5C 195.5,66.5 193.5,66.5 191.5,66.5C 190.833,66.5 190.5,66.1667 190.5,65.5C 190.167,64.8333 189.833,64.1667 189.5,63.5C 194.609,63.5698 199.609,62.9031 204.5,61.5C 217.825,60.8892 231.158,60.3892 244.5,60C 241.964,59.8138 239.631,59.3138 237.5,58.5 Z"/></g>
<g><path style="opacity:1" fill="#cdccce" d="M 243.5,63.5 C 243.389,64.1174 243.056,64.6174 242.5,65C 239.833,65.3333 237.167,65.6667 234.5,66C 233.833,66.6667 233.167,67.3333 232.5,68C 245.785,68.8479 245.785,70.0145 232.5,71.5C 234.01,73.6895 236.01,75.0228 238.5,75.5C 235.487,75.8928 232.82,75.2261 230.5,73.5C 230.016,64.3403 234.35,61.007 243.5,63.5 Z"/></g>
<g><path style="opacity:1" fill="#8f302e" d="M 140.5,60.5 C 141.492,60.3284 142.158,60.6618 142.5,61.5C 141.167,61.5 139.833,61.5 138.5,61.5C 138.5,64.5 138.5,67.5 138.5,70.5C 140.167,70.5 141.833,70.5 143.5,70.5C 141.735,71.4614 139.735,71.7947 137.5,71.5C 137.5,68.1667 137.5,64.8333 137.5,61.5C 138.209,60.596 139.209,60.2627 140.5,60.5 Z"/></g>
<g><path style="opacity:1" fill="#3f3f3e" d="M 73.5,70.5 C 71.0182,72.0394 71.0182,73.5394 73.5,75C 71.9512,76.214 70.7845,77.714 70,79.5C 64.8333,71.9209 59.1667,71.5876 53,78.5C 52.1667,77 51,75.8333 49.5,75C 51.9818,73.5394 51.9818,72.0394 49.5,70.5C 52.3715,66.8182 56.2048,65.1516 61,65.5C 66.0999,65.1379 70.2665,66.8045 73.5,70.5 Z"/></g>
<g><path style="opacity:1" fill="#d8d8da" d="M 207.5,74.5 C 207.53,75.4972 207.03,76.1639 206,76.5C 203.629,75.209 201.129,74.209 198.5,73.5C 199.833,72.8333 201.167,72.1667 202.5,71.5C 201.5,70.1667 200.5,68.8333 199.5,67.5C 198.172,70.8244 196.339,73.8244 194,76.5C 194.274,72.932 195.44,69.5987 197.5,66.5C 198.212,65.2613 199.212,64.7613 200.5,65C 202.488,68.5013 204.822,71.668 207.5,74.5 Z"/></g>
<g><path style="opacity:1" fill="#cbccd0" d="M 218.5,73.5 C 216.012,75.3878 213.012,76.0545 209.5,75.5C 208.833,75.1667 208.167,74.8333 207.5,74.5C 204.999,65.3396 208.332,62.3396 217.5,65.5C 214.893,66.3184 212.226,66.8184 209.5,67C 208.424,68.7261 208.257,70.5594 209,72.5C 212.057,73.4505 215.223,73.7839 218.5,73.5 Z"/></g>
<g><path style="opacity:1" fill="#841012" d="M 45.5,65.5 C 44.9202,67.7488 43.5869,69.4154 41.5,70.5C 42.0798,68.2512 43.4131,66.5846 45.5,65.5 Z"/></g>
<g><path style="opacity:1" fill="#bfbebf" d="M 219.5,64.5 C 221.388,66.9878 222.055,69.9878 221.5,73.5C 224.5,73.5 227.5,73.5 230.5,73.5C 230.586,74.4959 230.252,75.3292 229.5,76C 226.183,76.4983 222.85,76.665 219.5,76.5C 219.5,72.5 219.5,68.5 219.5,64.5 Z"/></g>
<g><path style="opacity:1" fill="#bd3e2e" d="M 135.5,61.5 C 135.82,64.8984 135.487,68.2317 134.5,71.5C 132.979,71.1203 131.313,70.9536 129.5,71C 127.288,68.0907 125.455,67.924 124,70.5C 124.718,69.5494 125.551,69.3828 126.5,70C 124.522,72.0149 122.688,71.8483 121,69.5C 121.133,64.3945 123.3,63.3945 127.5,66.5C 128.183,66.1373 128.85,65.8039 129.5,65.5C 130.833,65.5 132.167,65.5 133.5,65.5C 133.215,63.712 133.548,62.0453 134.5,60.5C 135.107,60.6236 135.44,60.9569 135.5,61.5 Z"/></g>
<g><path style="opacity:1" fill="#2b3651" d="M 130.5,66.5 C 133.674,66.9522 134.007,67.9522 131.5,69.5C 130.614,68.675 130.281,67.675 130.5,66.5 Z"/></g>
<g><path style="opacity:1" fill="#e64127" d="M 142.5,61.5 C 143.117,61.6107 143.617,61.944 144,62.5C 144.497,64.8098 144.663,67.1432 144.5,69.5C 144.5,70.1667 144.167,70.5 143.5,70.5C 141.833,70.5 140.167,70.5 138.5,70.5C 138.5,67.5 138.5,64.5 138.5,61.5C 139.833,61.5 141.167,61.5 142.5,61.5 Z"/></g>
<g><path style="opacity:1" fill="#5c3743" d="M 139.5,62.5 C 143.135,62.6556 143.468,63.8223 140.5,66C 144.723,68.2435 144.389,69.4102 139.5,69.5C 139.5,67.1667 139.5,64.8333 139.5,62.5 Z"/></g>
<g><path style="opacity:1" fill="#d52c1e" d="M 152.5,65.5 C 152.822,67.7224 152.155,69.5557 150.5,71C 148.648,71.7726 147.314,71.2726 146.5,69.5C 146.833,64.1667 147.167,64.1667 147.5,69.5C 148.5,69.5 149.5,69.5 150.5,69.5C 150.215,67.712 150.548,66.0453 151.5,64.5C 152.107,64.6236 152.44,64.9569 152.5,65.5 Z"/></g>
<g><path style="opacity:1" fill="#161a2e" d="M 325.5,57.5 C 325.842,58.3382 326.508,58.6716 327.5,58.5C 330.038,58.5072 332.538,58.8405 335,59.5C 336.939,59.0457 338.772,58.379 340.5,57.5C 339.71,58.7942 338.71,59.9609 337.5,61C 338.598,61.7697 338.598,62.603 337.5,63.5C 335.605,64.973 333.939,66.6397 332.5,68.5C 332.5,67.8333 332.5,67.1667 332.5,66.5C 321.674,65.341 310.674,65.1743 299.5,66C 309.669,67.4741 320.002,67.9741 330.5,67.5C 330.461,68.5832 330.127,69.5832 329.5,70.5C 312.513,71.4995 295.513,71.8328 278.5,71.5C 275.833,71.5 273.167,71.5 270.5,71.5C 263.947,72.0677 257.613,71.401 251.5,69.5C 250.817,69.8627 250.15,70.1961 249.5,70.5C 248.833,70.8333 248.167,71.1667 247.5,71.5C 245.302,73.0981 242.969,74.4314 240.5,75.5C 239.833,75.5 239.167,75.5 238.5,75.5C 236.01,75.0228 234.01,73.6895 232.5,71.5C 245.785,70.0145 245.785,68.8479 232.5,68C 233.167,67.3333 233.833,66.6667 234.5,66C 237.167,65.6667 239.833,65.3333 242.5,65C 243.056,64.6174 243.389,64.1174 243.5,63.5C 253.843,63.4117 264.176,63.0784 274.5,62.5C 274.5,64.1667 274.5,65.8333 274.5,67.5C 279.26,67.7993 280.594,65.7993 278.5,61.5C 277.432,60.5655 276.099,60.2322 274.5,60.5C 279.316,59.3503 284.316,59.1837 289.5,60C 288.263,60.2321 287.263,60.7321 286.5,61.5C 285.631,63.717 285.298,66.0504 285.5,68.5C 289.5,69.1667 291.167,67.5 290.5,63.5C 290.833,63.5 291.167,63.5 291.5,63.5C 291.369,64.3764 291.702,65.0431 292.5,65.5C 292.833,64.5 293.167,63.5 293.5,62.5C 293.36,60.9704 292.693,59.9704 291.5,59.5C 292.871,58.2132 294.705,57.5465 297,57.5C 307.947,59.2011 319.613,61.2011 332,63.5C 332.833,63.1667 333.667,62.8333 334.5,62.5C 327.639,60.4001 320.639,58.9001 313.5,58C 314.737,57.7679 315.737,57.2679 316.5,56.5C 317.583,56.4606 318.583,56.1272 319.5,55.5C 321.173,57.0863 323.173,57.7529 325.5,57.5 Z"/></g>
<g><path style="opacity:1" fill="#a5a5aa" d="M 286.5,61.5 C 288.38,61.2291 289.713,61.8958 290.5,63.5C 291.167,67.5 289.5,69.1667 285.5,68.5C 285.298,66.0504 285.631,63.717 286.5,61.5 Z"/></g>
<g><path style="opacity:1" fill="#941c20" d="M 271.5,65.5 C 272.043,65.56 272.376,65.8933 272.5,66.5C 267.014,67.8147 261.68,67.8147 256.5,66.5C 261.305,65.5128 266.305,65.1795 271.5,65.5 Z"/></g>
<g><path style="opacity:1" fill="#b81917" d="M 332.5,66.5 C 331.833,66.8333 331.167,67.1667 330.5,67.5C 320.002,67.9741 309.669,67.4741 299.5,66C 310.674,65.1743 321.674,65.341 332.5,66.5 Z"/></g>
<g><path style="opacity:1" fill="#c6c6c9" d="M 280.5,61.5 C 281.975,62.262 283.309,62.5953 284.5,62.5C 282.775,68.8886 281.441,68.5553 280.5,61.5 Z"/></g>
<g><path style="opacity:1" fill="#6d1a23" d="M 271.5,65.5 C 266.305,65.1795 261.305,65.5128 256.5,66.5C 255.957,66.44 255.624,66.1067 255.5,65.5C 260.986,64.1853 266.32,64.1853 271.5,65.5 Z"/></g>
<g><path style="opacity:1" fill="#c1c1c4" d="M 294.5,62.5 C 295.601,61.4017 296.934,61.235 298.5,62C 297.897,63.8254 297.23,65.6587 296.5,67.5C 295.83,65.7086 295.163,64.0419 294.5,62.5 Z"/></g>
<g><path style="opacity:1" fill="#c1ae33" d="M 291.5,59.5 C 292.693,59.9704 293.36,60.9704 293.5,62.5C 293.167,63.5 292.833,64.5 292.5,65.5C 291.702,65.0431 291.369,64.3764 291.5,63.5C 291.5,62.1667 291.5,60.8333 291.5,59.5 Z"/></g>
<g><path style="opacity:1" fill="#8b8b8c" d="M 14.5,68.5 C 19.8123,69.1095 25.1456,69.6095 30.5,70C 29.91,71.2989 28.91,72.1322 27.5,72.5C 25.8791,71.2948 24.5458,71.4615 23.5,73C 25.087,73.8624 26.7536,74.5291 28.5,75C 26.8309,76.669 24.8309,77.5023 22.5,77.5C 21.8333,77.5 21.1667,77.5 20.5,77.5C 19.119,75.7259 19.4523,74.2259 21.5,73C 19.7818,72.654 18.1151,72.154 16.5,71.5C 14.5675,72.5202 12.5675,72.6869 10.5,72C 11.8333,71.3333 11.8333,70.6667 10.5,70C 12.0581,69.79 13.3915,69.29 14.5,68.5 Z"/></g>
<g><path style="opacity:1" fill="#0e111a" d="M 270.5,71.5 C 273.167,71.5 275.833,71.5 278.5,71.5C 284.295,72.5405 289.962,74.3738 295.5,77C 296.38,78.3561 296.714,79.8561 296.5,81.5C 299.62,81.8441 302.453,81.1775 305,79.5C 305.5,79.8333 306,80.1667 306.5,80.5C 305.687,81.8139 304.687,82.9805 303.5,84C 296.936,86.3081 290.27,88.3081 283.5,90C 282.944,90.3826 282.611,90.8826 282.5,91.5C 278.279,92.2109 276.112,94.5442 276,98.5C 279.292,101.32 283.125,102.653 287.5,102.5C 287.196,103.15 286.863,103.817 286.5,104.5C 281.683,105.167 277.017,105.834 272.5,106.5C 263.5,106.5 254.5,106.5 245.5,106.5C 253.482,99.5121 262.816,95.1788 273.5,93.5C 275.808,91.1973 277.808,88.6973 279.5,86C 280.833,85.6667 282.167,85.3333 283.5,85C 279.074,84.2093 274.741,84.5427 270.5,86C 272.271,86.5354 272.604,87.3687 271.5,88.5C 269.382,89.9459 267.049,90.6126 264.5,90.5C 259.523,90.3147 254.523,91.3147 249.5,93.5C 248.826,90.8118 249.16,88.1451 250.5,85.5C 255.81,78.85 262.477,74.1834 270.5,71.5 Z"/></g>
<g><path style="opacity:0.93" fill="#0b0c0e" d="M 332.5,66.5 C 332.5,67.1667 332.5,67.8333 332.5,68.5C 330.785,72.8182 329.785,77.3182 329.5,82C 329.423,85.3583 330.089,88.5249 331.5,91.5C 330.069,91.1193 329.236,90.1193 329,88.5C 328.536,89.0944 328.369,89.7611 328.5,90.5C 327.596,89.791 327.263,88.791 327.5,87.5C 320.819,87.9457 314.152,88.6123 307.5,89.5C 305.844,93.3575 306.511,96.6909 309.5,99.5C 308.5,100.167 307.5,100.833 306.5,101.5C 307.95,102.85 308.617,104.516 308.5,106.5C 296.5,106.5 284.5,106.5 272.5,106.5C 277.017,105.834 281.683,105.167 286.5,104.5C 286.863,103.817 287.196,103.15 287.5,102.5C 289.735,102.795 291.735,102.461 293.5,101.5C 298.849,101.344 300.849,98.8436 299.5,94C 297.975,92.9914 296.308,92.4914 294.5,92.5C 290.702,91.5166 286.702,91.1832 282.5,91.5C 282.611,90.8826 282.944,90.3826 283.5,90C 290.27,88.3081 296.936,86.3081 303.5,84C 304.687,82.9805 305.687,81.8139 306.5,80.5C 306,80.1667 305.5,79.8333 305,79.5C 302.453,81.1775 299.62,81.8441 296.5,81.5C 296.714,79.8561 296.38,78.3561 295.5,77C 289.962,74.3738 284.295,72.5405 278.5,71.5C 295.513,71.8328 312.513,71.4995 329.5,70.5C 330.127,69.5832 330.461,68.5832 330.5,67.5C 331.167,67.1667 331.833,66.8333 332.5,66.5 Z"/></g>
<g><path style="opacity:1" fill="#cdc817" d="M 337.5,63.5 C 338.167,63.5 338.5,63.8333 338.5,64.5C 329.213,76.2585 329.213,88.0918 338.5,100C 337.898,101.563 337.065,101.396 336,99.5C 333.838,97.1799 332.338,94.5133 331.5,91.5C 330.089,88.5249 329.423,85.3583 329.5,82C 329.785,77.3182 330.785,72.8182 332.5,68.5C 333.939,66.6397 335.605,64.973 337.5,63.5 Z"/></g>
<g><path style="opacity:1" fill="#262629" d="M 270.5,71.5 C 262.477,74.1834 255.81,78.85 250.5,85.5C 249.513,80.6946 249.179,75.6946 249.5,70.5C 250.15,70.1961 250.817,69.8627 251.5,69.5C 257.613,71.401 263.947,72.0677 270.5,71.5 Z"/></g>
<g><path style="opacity:0.747" fill="#131523" d="M 416.5,77.5 C 415.5,77.5 414.5,77.5 413.5,77.5C 413.649,78.552 413.483,79.552 413,80.5C 410.464,77.304 408.964,77.304 408.5,80.5C 407.065,78.5989 405.398,78.2655 403.5,79.5C 402.542,76.8753 401.376,76.8753 400,79.5C 399.29,78.0267 398.124,77.3601 396.5,77.5C 396.5,76.8333 396.5,76.1667 396.5,75.5C 396.5,74.5 396.5,73.5 396.5,72.5C 402.711,72.0161 408.711,72.8494 414.5,75C 415.381,75.7083 416.047,76.5416 416.5,77.5 Z"/></g>
<g><path style="opacity:0.992" fill="#0d0e0f" d="M 81.5,66.5 C 88.604,78.094 87.9373,89.2606 79.5,100C 81.3867,100.163 82.8867,99.3293 84,97.5C 85.4235,94.3522 86.9235,91.3522 88.5,88.5C 90.5068,85.0851 90.8401,81.4185 89.5,77.5C 90.1227,75.1858 90.456,75.5192 90.5,78.5C 92.5,78.5 94.5,78.5 96.5,78.5C 96.5,80.5 96.5,82.5 96.5,84.5C 99.8333,84.5 103.167,84.5 106.5,84.5C 107.159,81.5448 107.492,78.5448 107.5,75.5C 115.091,73.852 122.758,73.352 130.5,74C 132.32,74.2004 133.653,75.0337 134.5,76.5C 127.89,78.2388 121.556,80.7388 115.5,84C 109.674,89.7458 102.674,93.0791 94.5,94C 97.0766,95.2504 99.7433,95.5837 102.5,95C 106.81,92.8415 110.81,90.1749 114.5,87C 117.736,85.2138 121.07,83.7138 124.5,82.5C 122.806,84.8606 120.806,86.8606 118.5,88.5C 113.235,90.8011 108.235,93.6344 103.5,97C 105.087,97.8624 106.754,98.5291 108.5,99C 116.5,99.3333 124.5,99.6667 132.5,100C 118.488,100.167 104.488,100.667 90.5,101.5C 110.167,102.418 129.833,102.585 149.5,102C 155.515,102.535 161.515,103.201 167.5,104C 168.252,104.671 168.586,105.504 168.5,106.5C 149.167,106.5 129.833,106.5 110.5,106.5C 110.047,105.542 109.381,104.708 108.5,104C 101.077,103.302 93.7439,103.802 86.5,105.5C 84.1432,105.337 81.8098,105.503 79.5,106C 76.5201,108.324 73.1867,109.824 69.5,110.5C 71.6749,108.586 73.8416,106.586 76,104.5C 76.2735,102.671 77.1068,101.171 78.5,100C 78.2716,99.6012 77.9382,99.4346 77.5,99.5C 77.8333,98.8333 78.1667,98.1667 78.5,97.5C 86.973,88.1412 87.6396,78.1412 80.5,67.5C 80.5,66.8333 80.8333,66.5 81.5,66.5 Z"/></g>
<g><path style="opacity:1" fill="#171c30" d="M 189.5,63.5 C 189.833,64.1667 190.167,64.8333 190.5,65.5C 187.223,65.2161 184.057,65.5495 181,66.5C 180.176,69.8823 180.343,73.2156 181.5,76.5C 182.484,73.5719 182.817,70.5719 182.5,67.5C 192.353,67.8388 192.686,69.1721 183.5,71.5C 185.555,73.5547 187.888,75.2213 190.5,76.5C 190.833,76.1667 191.167,75.8333 191.5,75.5C 190.5,74.6667 189.5,73.8333 188.5,73C 192.136,71.899 193.136,69.7323 191.5,66.5C 193.5,66.5 195.5,66.5 197.5,66.5C 195.44,69.5987 194.274,72.932 194,76.5C 196.339,73.8244 198.172,70.8244 199.5,67.5C 200.5,68.8333 201.5,70.1667 202.5,71.5C 201.167,72.1667 199.833,72.8333 198.5,73.5C 201.129,74.209 203.629,75.209 206,76.5C 207.03,76.1639 207.53,75.4972 207.5,74.5C 208.167,74.8333 208.833,75.1667 209.5,75.5C 211.969,76.3171 214.635,76.8171 217.5,77C 210.695,79.9911 203.695,82.4911 196.5,84.5C 192.601,83.2092 188.601,83.2092 184.5,84.5C 184.423,83.2502 183.756,82.4169 182.5,82C 174.803,81.2318 167.137,81.3985 159.5,82.5C 156.205,81.184 153.205,79.3506 150.5,77C 149.207,76.51 147.873,76.3433 146.5,76.5C 150.975,74.7982 155.641,73.4648 160.5,72.5C 162.095,76.4687 165.095,78.1354 169.5,77.5C 174.102,77.898 177.102,75.898 178.5,71.5C 177.526,68.0629 175.193,66.7296 171.5,67.5C 167.46,67.425 163.793,68.425 160.5,70.5C 159.539,68.7354 159.205,66.7354 159.5,64.5C 169.356,63.3623 179.19,62.029 189,60.5C 197.266,60.3925 197.433,61.3925 189.5,63.5 Z"/></g>
<g><path style="opacity:1" fill="#d3d4d6" d="M 190.5,65.5 C 190.5,66.1667 190.833,66.5 191.5,66.5C 193.136,69.7323 192.136,71.899 188.5,73C 189.5,73.8333 190.5,74.6667 191.5,75.5C 191.167,75.8333 190.833,76.1667 190.5,76.5C 187.888,75.2213 185.555,73.5547 183.5,71.5C 192.686,69.1721 192.353,67.8388 182.5,67.5C 182.817,70.5719 182.484,73.5719 181.5,76.5C 180.343,73.2156 180.176,69.8823 181,66.5C 184.057,65.5495 187.223,65.2161 190.5,65.5 Z"/></g>
<g><path style="opacity:1" fill="#dadadc" d="M 160.5,72.5 C 160.5,71.8333 160.5,71.1667 160.5,70.5C 163.793,68.425 167.46,67.425 171.5,67.5C 175.193,66.7296 177.526,68.0629 178.5,71.5C 177.102,75.898 174.102,77.898 169.5,77.5C 165.095,78.1354 162.095,76.4687 160.5,72.5 Z"/></g>
<g><path style="opacity:1" fill="#252a45" d="M 169.5,68.5 C 171.591,68.3184 173.591,68.6518 175.5,69.5C 176.848,71.6114 176.515,73.4447 174.5,75C 171.167,75.6667 167.833,75.6667 164.5,75C 162.579,73.7592 162.246,72.2592 163.5,70.5C 165.657,69.9495 167.657,69.2829 169.5,68.5 Z"/></g>
<g><path style="opacity:1" fill="#28282b" d="M 247.5,71.5 C 247.666,76.5111 247.499,81.5111 247,86.5C 246.167,87.3333 245.333,88.1667 244.5,89C 241.628,89.3148 238.795,89.8148 236,90.5C 233.98,89.9681 233.147,88.6348 233.5,86.5C 234.087,81.646 236.42,77.9793 240.5,75.5C 242.969,74.4314 245.302,73.0981 247.5,71.5 Z"/></g>
<g><path style="opacity:1" fill="#e29692" d="M 385.5,72.5 C 387.833,73.1667 390.167,73.8333 392.5,74.5C 394.025,77.4574 393.358,78.1241 390.5,76.5C 389.167,76.5 387.833,76.5 386.5,76.5C 385.766,75.2921 385.433,73.9587 385.5,72.5 Z"/></g>
<g><path style="opacity:1" fill="#ce2c19" d="M 386.5,76.5 C 387.833,76.5 389.167,76.5 390.5,76.5C 392.796,77.8191 394.796,79.4857 396.5,81.5C 396.5,82.1667 396.5,82.8333 396.5,83.5C 394.007,83.6709 392.174,82.6709 391,80.5C 390.692,81.3081 390.192,81.9747 389.5,82.5C 388.289,81.7261 388.289,80.8928 389.5,80C 388.552,79.5172 387.552,79.3505 386.5,79.5C 386.5,78.5 386.5,77.5 386.5,76.5 Z"/></g>
<g><path style="opacity:1" fill="#161721" d="M 219.5,64.5 C 219.5,68.5 219.5,72.5 219.5,76.5C 220.952,77.3019 222.618,77.8019 224.5,78C 215.156,81.8874 205.823,85.5541 196.5,89C 187.167,89.6667 177.833,89.6667 168.5,89C 167.956,88.2828 167.289,87.7828 166.5,87.5C 167.718,86.8386 169.051,86.1719 170.5,85.5C 167.572,84.5159 164.572,84.1826 161.5,84.5C 158.319,86.9904 154.986,86.9904 151.5,84.5C 148.774,84.8551 146.774,86.1885 145.5,88.5C 146.902,89.8425 146.569,90.6758 144.5,91C 137.524,91.8918 130.524,92.3918 123.5,92.5C 121.293,91.8697 119.626,90.5363 118.5,88.5C 120.806,86.8606 122.806,84.8606 124.5,82.5C 131.487,79.5846 138.82,77.5846 146.5,76.5C 147.873,76.3433 149.207,76.51 150.5,77C 153.205,79.3506 156.205,81.184 159.5,82.5C 167.137,81.3985 174.803,81.2318 182.5,82C 183.756,82.4169 184.423,83.2502 184.5,84.5C 182.18,85.2766 182.514,85.9432 185.5,86.5C 189.305,86.9698 192.972,86.3031 196.5,84.5C 203.695,82.4911 210.695,79.9911 217.5,77C 214.635,76.8171 211.969,76.3171 209.5,75.5C 213.012,76.0545 216.012,75.3878 218.5,73.5C 218.19,70.2869 218.523,67.2869 219.5,64.5 Z"/></g>
<g><path style="opacity:1" fill="#ebb353" d="M 392.5,74.5 C 393.959,74.4326 395.292,74.7659 396.5,75.5C 396.5,76.1667 396.5,76.8333 396.5,77.5C 396.5,78.8333 396.5,80.1667 396.5,81.5C 394.796,79.4857 392.796,77.8191 390.5,76.5C 393.358,78.1241 394.025,77.4574 392.5,74.5 Z"/></g>
<g><path style="opacity:1" fill="#0b0c0d" d="M 230.5,73.5 C 232.82,75.2261 235.487,75.8928 238.5,75.5C 239.167,75.5 239.833,75.5 240.5,75.5C 236.42,77.9793 234.087,81.646 233.5,86.5C 232.778,86.9175 232.278,87.5842 232,88.5C 230.384,87.1991 228.884,87.1991 227.5,88.5C 221.675,88.0793 216.675,89.9126 212.5,94C 200.025,99.1951 187.025,102.028 173.5,102.5C 151.574,99.6934 129.574,97.6934 107.5,96.5C 109.422,95.289 111.255,93.9557 113,92.5C 113.333,93.1667 113.667,93.8333 114,94.5C 117.049,93.3899 120.216,92.7233 123.5,92.5C 130.524,92.3918 137.524,91.8918 144.5,91C 146.569,90.6758 146.902,89.8425 145.5,88.5C 146.774,86.1885 148.774,84.8551 151.5,84.5C 154.986,86.9904 158.319,86.9904 161.5,84.5C 162.605,86.2231 164.272,87.2231 166.5,87.5C 167.289,87.7828 167.956,88.2828 168.5,89C 177.833,89.6667 187.167,89.6667 196.5,89C 205.823,85.5541 215.156,81.8874 224.5,78C 222.618,77.8019 220.952,77.3019 219.5,76.5C 222.85,76.665 226.183,76.4983 229.5,76C 230.252,75.3292 230.586,74.4959 230.5,73.5 Z"/></g>
<g><path style="opacity:1" fill="#7c0f10" d="M 73.5,62.5 C 76.0934,63.7536 78.4268,65.4202 80.5,67.5C 87.6396,78.1412 86.973,88.1412 78.5,97.5C 86.4644,84.4301 84.7977,72.7634 73.5,62.5 Z"/></g>
<g><path style="opacity:0.952" fill="#0b0d10" d="M 249.5,70.5 C 249.179,75.6946 249.513,80.6946 250.5,85.5C 249.16,88.1451 248.826,90.8118 249.5,93.5C 254.523,91.3147 259.523,90.3147 264.5,90.5C 255.309,91.262 248.642,95.762 244.5,104C 242.685,104.757 241.019,105.59 239.5,106.5C 224.833,106.5 210.167,106.5 195.5,106.5C 194.933,104.97 194.267,103.47 193.5,102C 201.04,99.8965 208.373,97.2298 215.5,94C 218.882,93.8236 222.215,93.3236 225.5,92.5C 226.364,90.8035 227.697,89.6368 229.5,89C 228.906,88.5357 228.239,88.369 227.5,88.5C 228.884,87.1991 230.384,87.1991 232,88.5C 232.278,87.5842 232.778,86.9175 233.5,86.5C 233.147,88.6348 233.98,89.9681 236,90.5C 238.795,89.8148 241.628,89.3148 244.5,89C 245.333,88.1667 246.167,87.3333 247,86.5C 247.499,81.5111 247.666,76.5111 247.5,71.5C 248.167,71.1667 248.833,70.8333 249.5,70.5 Z"/></g>
<g><path style="opacity:1" fill="#8a888a" d="M 161.5,84.5 C 164.572,84.1826 167.572,84.5159 170.5,85.5C 169.051,86.1719 167.718,86.8386 166.5,87.5C 164.272,87.2231 162.605,86.2231 161.5,84.5 Z"/></g>
<g><path style="opacity:1" fill="#7f7e82" d="M 196.5,84.5 C 192.972,86.3031 189.305,86.9698 185.5,86.5C 182.514,85.9432 182.18,85.2766 184.5,84.5C 188.601,83.2092 192.601,83.2092 196.5,84.5 Z"/></g>
<g><path style="opacity:1" fill="#1d1d35" d="M 245.5,106.5 C 243.549,107.641 241.549,107.641 239.5,106.5C 241.019,105.59 242.685,104.757 244.5,104C 248.642,95.762 255.309,91.262 264.5,90.5C 267.049,90.6126 269.382,89.9459 271.5,88.5C 272.604,87.3687 272.271,86.5354 270.5,86C 274.741,84.5427 279.074,84.2093 283.5,85C 282.167,85.3333 280.833,85.6667 279.5,86C 277.808,88.6973 275.808,91.1973 273.5,93.5C 262.816,95.1788 253.482,99.5121 245.5,106.5 Z"/></g>
<g><path style="opacity:1" fill="#7f0f10" d="M 41.5,70.5 C 38.3474,79.5171 39.0141,88.1838 43.5,96.5C 41.8267,95.657 40.66,94.3237 40,92.5C 36.2973,84.7102 36.7973,77.3768 41.5,70.5 Z"/></g>
<g><path style="opacity:1" fill="#dcd711" d="M 41.5,63.5 C 42.1667,63.5 42.8333,63.5 43.5,63.5C 36.8841,70.9135 34.7175,79.5801 37,89.5C 38.5403,93.4192 40.7069,96.9192 43.5,100C 41.6133,100.163 40.1133,99.3293 39,97.5C 36.9971,94.2971 35.4971,90.9637 34.5,87.5C 32.8259,78.2193 35.1592,70.2193 41.5,63.5 Z"/></g>
<g><path style="opacity:0.994" fill="#181824" d="M 373.5,57.5 C 376.056,58.5434 378.223,60.2101 380,62.5C 382.112,65.7271 383.945,69.0604 385.5,72.5C 385.433,73.9587 385.766,75.2921 386.5,76.5C 386.5,77.5 386.5,78.5 386.5,79.5C 385.725,83.1816 387.059,85.6816 390.5,87C 392.473,87.4955 394.473,87.6621 396.5,87.5C 396.5,86.1667 396.5,84.8333 396.5,83.5C 397.931,83.1193 398.764,82.1193 399,80.5C 399.359,83.5443 400.026,83.8776 401,81.5C 401.601,83.3588 402.434,83.6921 403.5,82.5C 405.398,83.7345 407.065,83.4011 408.5,81.5C 408.47,82.4972 408.97,83.1639 410,83.5C 412.112,82.6138 414.278,82.6138 416.5,83.5C 416.5,81.5 416.5,79.5 416.5,77.5C 419.857,79.8658 423.19,82.1992 426.5,84.5C 433.511,87.4218 440.344,90.7552 447,94.5C 447.684,95.7839 447.517,96.9505 446.5,98C 443.25,98.3269 439.916,98.9936 436.5,100C 435.5,101 434.5,102 433.5,103C 421.631,103.248 409.797,102.748 398,101.5C 397.127,101.735 396.293,102.069 395.5,102.5C 395.49,98.5048 395.49,94.1715 395.5,89.5C 392.553,88.5774 389.553,87.9107 386.5,87.5C 385.503,87.4701 384.836,87.9701 384.5,89C 383.933,92.6571 382.266,95.4904 379.5,97.5C 383.211,90.2886 384.377,82.6219 383,74.5C 381.828,70.1417 379.661,66.475 376.5,63.5C 376.611,62.8826 376.944,62.3826 377.5,62C 375.959,60.6288 374.625,59.1288 373.5,57.5 Z"/></g>
<g><path style="opacity:1" fill="#d61e1d" d="M 402.5,88.5 C 407.888,91.5251 407.555,92.8584 401.5,92.5C 401.423,91.2502 400.756,90.4169 399.5,90C 400.737,89.7679 401.737,89.2679 402.5,88.5 Z"/></g>
<g><path style="opacity:1" fill="#f4eda4" d="M 426.5,84.5 C 427.749,86.1361 429.416,87.3028 431.5,88C 428.404,88.9267 426.07,87.9267 424.5,85C 425.094,84.5357 425.761,84.369 426.5,84.5 Z"/></g>
<g><path style="opacity:1" fill="#dc7515" d="M 386.5,79.5 C 387.552,79.3505 388.552,79.5172 389.5,80C 388.289,80.8928 388.289,81.7261 389.5,82.5C 390.192,81.9747 390.692,81.3081 391,80.5C 392.174,82.6709 394.007,83.6709 396.5,83.5C 396.5,84.8333 396.5,86.1667 396.5,87.5C 394.473,87.6621 392.473,87.4955 390.5,87C 387.059,85.6816 385.725,83.1816 386.5,79.5 Z"/></g>
<g><path style="opacity:1" fill="#a2a4a7" d="M 416.5,77.5 C 416.5,79.5 416.5,81.5 416.5,83.5C 414.278,82.6138 412.112,82.6138 410,83.5C 408.97,83.1639 408.47,82.4972 408.5,81.5C 408.5,81.1667 408.5,80.8333 408.5,80.5C 408.964,77.304 410.464,77.304 413,80.5C 413.483,79.552 413.649,78.552 413.5,77.5C 414.5,77.5 415.5,77.5 416.5,77.5 Z"/></g>
<g><path style="opacity:1" fill="#ad1819" d="M 408.5,80.5 C 408.5,80.8333 408.5,81.1667 408.5,81.5C 407.065,83.4011 405.398,83.7345 403.5,82.5C 403.5,81.5 403.5,80.5 403.5,79.5C 405.398,78.2655 407.065,78.5989 408.5,80.5 Z"/></g>
<g><path style="opacity:1" fill="#a5a8ac" d="M 396.5,77.5 C 398.124,77.3601 399.29,78.0267 400,79.5C 401.376,76.8753 402.542,76.8753 403.5,79.5C 403.5,80.5 403.5,81.5 403.5,82.5C 402.434,83.6921 401.601,83.3588 401,81.5C 400.026,83.8776 399.359,83.5443 399,80.5C 398.764,82.1193 397.931,83.1193 396.5,83.5C 396.5,82.8333 396.5,82.1667 396.5,81.5C 396.5,80.1667 396.5,78.8333 396.5,77.5 Z"/></g>
<g><path style="opacity:1" fill="#ded810" d="M 81.5,63.5 C 87.6661,70.6761 89.9995,79.0095 88.5,88.5C 86.9235,91.3522 85.4235,94.3522 84,97.5C 82.8867,99.3293 81.3867,100.163 79.5,100C 87.9373,89.2606 88.604,78.094 81.5,66.5C 81.0472,65.5416 80.3805,64.7083 79.5,64C 80.0944,63.5357 80.7611,63.369 81.5,63.5 Z"/></g>
<g><path style="opacity:1" fill="#7c1c22" d="M 402.5,88.5 C 401.737,89.2679 400.737,89.7679 399.5,90C 400.756,90.4169 401.423,91.2502 401.5,92.5C 401.539,93.7562 401.039,94.7562 400,95.5C 399.536,93.3 399.036,90.9667 398.5,88.5C 399.833,88.5 401.167,88.5 402.5,88.5 Z"/></g>
<g><path style="opacity:1" fill="#deda10" d="M 376.5,63.5 C 379.661,66.475 381.828,70.1417 383,74.5C 384.377,82.6219 383.211,90.2886 379.5,97.5C 378.571,98.9361 377.405,100.269 376,101.5C 375.833,101 375.667,100.5 375.5,100C 384.722,88.1653 384.722,76.3319 375.5,64.5C 375.5,63.8333 375.833,63.5 376.5,63.5 Z"/></g>
<g><path style="opacity:1" fill="#212120" d="M 49.5,70.5 C 51.9818,72.0394 51.9818,73.5394 49.5,75C 51,75.8333 52.1667,77 53,78.5C 59.1667,71.5876 64.8333,71.9209 70,79.5C 70.7845,77.714 71.9512,76.214 73.5,75C 71.0182,73.5394 71.0182,72.0394 73.5,70.5C 74.8036,71.9869 75.9702,73.6536 77,75.5C 80.2197,89.1043 75.0531,96.7709 61.5,98.5C 48.859,97.2506 43.359,90.2506 45,77.5C 46.0259,74.7613 47.5259,72.428 49.5,70.5 Z"/></g>
<g><path style="opacity:1" fill="#bbb317" d="M 58.5,76.5 C 63.4058,75.3057 66.4058,77.139 67.5,82C 64.8905,88.2417 61.0572,89.075 56,84.5C 55.0182,81.2253 55.8515,78.5586 58.5,76.5 Z"/></g>
<g><path style="opacity:1" fill="#1d1d25" d="M 59.5,77.5 C 65.6426,78.0262 66.9759,80.8595 63.5,86C 58.5036,86.6643 56.6703,84.4977 58,79.5C 58.7172,78.9558 59.2172,78.2891 59.5,77.5 Z"/></g>
<g><path style="opacity:1" fill="#cccdcd" d="M 60.5,80.5 C 62.0481,80.8212 62.7148,81.8212 62.5,83.5C 59.7524,83.5983 59.0857,82.5983 60.5,80.5 Z"/></g>
<g><path style="opacity:1" fill="#5e8c2c" d="M 296.5,94.5 C 297.833,95.8333 297.833,97.1667 296.5,98.5C 291.976,99.0246 287.309,99.0246 282.5,98.5C 282.238,97.0222 282.571,95.6888 283.5,94.5C 284.833,95.8333 286.167,95.8333 287.5,94.5C 288.738,98.3107 289.404,98.3107 289.5,94.5C 292.044,94.1043 294.211,94.771 296,96.5C 296.464,95.9056 296.631,95.2389 296.5,94.5 Z"/></g>
<g><path style="opacity:1" fill="#851615" d="M 438.5,95.5 C 439.873,95.3433 441.207,95.51 442.5,96C 439.862,97.5485 437.029,98.7152 434,99.5C 433.5,99.1667 433,98.8333 432.5,98.5C 434.594,97.4824 436.594,96.4824 438.5,95.5 Z"/></g>
<g><path style="opacity:1" fill="#c67618" d="M 282.5,91.5 C 286.702,91.1832 290.702,91.5166 294.5,92.5C 289.703,92.1211 285.036,92.6211 280.5,94C 281.246,96.0932 281.579,98.0932 281.5,100C 285.363,101.354 289.363,101.854 293.5,101.5C 291.735,102.461 289.735,102.795 287.5,102.5C 283.125,102.653 279.292,101.32 276,98.5C 276.112,94.5442 278.279,92.2109 282.5,91.5 Z"/></g>
<g><path style="opacity:1" fill="#1b1b21" d="M 43.5,63.5 C 44.5,63.5 45.5,63.5 46.5,63.5C 46.1667,64.1667 45.8333,64.8333 45.5,65.5C 43.4131,66.5846 42.0798,68.2512 41.5,70.5C 36.7973,77.3768 36.2973,84.7102 40,92.5C 40.66,94.3237 41.8267,95.657 43.5,96.5C 44.8333,97.1667 45.8333,98.1667 46.5,99.5C 50.4596,103.826 55.4596,105.826 61.5,105.5C 67.6963,105.659 73.0296,103.659 77.5,99.5C 77.9382,99.4346 78.2716,99.6012 78.5,100C 77.1068,101.171 76.2735,102.671 76,104.5C 73.8416,106.586 71.6749,108.586 69.5,110.5C 64.0154,111.652 58.3487,111.818 52.5,111C 48.9824,109.467 45.4824,107.967 42,106.5C 37.5395,107.345 33.0395,107.678 28.5,107.5C 28.5,101.5 28.5,95.5 28.5,89.5C 23.0414,89.8967 17.7081,89.3967 12.5,88C 11.5562,85.2809 11.2229,82.4475 11.5,79.5C 13.9201,79.2924 16.2534,79.6258 18.5,80.5C 19.1757,79.3984 19.8423,78.3984 20.5,77.5C 21.1667,77.5 21.8333,77.5 22.5,77.5C 21.1938,78.4674 20.5271,79.8007 20.5,81.5C 24.4809,82.0209 28.4809,82.3542 32.5,82.5C 32.838,84.854 33.338,87.1873 34,89.5C 34.4643,88.9056 34.631,88.2389 34.5,87.5C 35.4971,90.9637 36.9971,94.2971 39,97.5C 40.1133,99.3293 41.6133,100.163 43.5,100C 40.7069,96.9192 38.5403,93.4192 37,89.5C 34.7175,79.5801 36.8841,70.9135 43.5,63.5 Z"/></g>
<g><path style="opacity:1" fill="#f6d609" d="M 294.5,92.5 C 294.833,93.5 295.5,94.1667 296.5,94.5C 296.631,95.2389 296.464,95.9056 296,96.5C 294.211,94.771 292.044,94.1043 289.5,94.5C 289.404,98.3107 288.738,98.3107 287.5,94.5C 286.167,95.8333 284.833,95.8333 283.5,94.5C 282.571,95.6888 282.238,97.0222 282.5,98.5C 287.309,99.0246 291.976,99.0246 296.5,98.5C 295.694,99.7281 294.694,100.728 293.5,101.5C 289.363,101.854 285.363,101.354 281.5,100C 281.579,98.0932 281.246,96.0932 280.5,94C 285.036,92.6211 289.703,92.1211 294.5,92.5 Z"/></g>
<g><path style="opacity:1" fill="#d58a14" d="M 294.5,92.5 C 296.308,92.4914 297.975,92.9914 299.5,94C 300.849,98.8436 298.849,101.344 293.5,101.5C 294.694,100.728 295.694,99.7281 296.5,98.5C 297.833,97.1667 297.833,95.8333 296.5,94.5C 295.5,94.1667 294.833,93.5 294.5,92.5 Z"/></g>
<g><path style="opacity:1" fill="#2f2f32" d="M 118.5,88.5 C 119.626,90.5363 121.293,91.8697 123.5,92.5C 120.216,92.7233 117.049,93.3899 114,94.5C 113.667,93.8333 113.333,93.1667 113,92.5C 111.255,93.9557 109.422,95.289 107.5,96.5C 129.574,97.6934 151.574,99.6934 173.5,102.5C 187.025,102.028 200.025,99.1951 212.5,94C 216.675,89.9126 221.675,88.0793 227.5,88.5C 228.239,88.369 228.906,88.5357 229.5,89C 227.697,89.6368 226.364,90.8035 225.5,92.5C 222.215,93.3236 218.882,93.8236 215.5,94C 208.373,97.2298 201.04,99.8965 193.5,102C 194.267,103.47 194.933,104.97 195.5,106.5C 186.5,106.5 177.5,106.5 168.5,106.5C 168.586,105.504 168.252,104.671 167.5,104C 161.515,103.201 155.515,102.535 149.5,102C 129.833,102.585 110.167,102.418 90.5,101.5C 104.488,100.667 118.488,100.167 132.5,100C 124.5,99.6667 116.5,99.3333 108.5,99C 106.754,98.5291 105.087,97.8624 103.5,97C 108.235,93.6344 113.235,90.8011 118.5,88.5 Z"/></g>
<g><path style="opacity:1" fill="#810f10" d="M 78.5,97.5 C 78.1667,98.1667 77.8333,98.8333 77.5,99.5C 73.0296,103.659 67.6963,105.659 61.5,105.5C 55.4596,105.826 50.4596,103.826 46.5,99.5C 57.6686,106.603 68.3353,105.936 78.5,97.5 Z"/></g>
<g><path style="opacity:1" fill="#9a8c2a" d="M 46.5,103.5 C 49.2622,104.38 51.9289,105.546 54.5,107C 53.1667,107.667 51.8333,107.667 50.5,107C 48.6813,106.26 47.3479,105.093 46.5,103.5 Z"/></g>
<g><path style="opacity:1" fill="#333336" d="M 110.5,106.5 C 102.316,106.826 94.3159,106.492 86.5,105.5C 93.7439,103.802 101.077,103.302 108.5,104C 109.381,104.708 110.047,105.542 110.5,106.5 Z"/></g>
<g><path style="opacity:1" fill="#840f10" d="M 343.5,63.5 C 333.481,72.9851 331.981,83.6518 339,95.5C 348.267,105.554 358.767,107.054 370.5,100C 379.986,90.7362 381.653,80.2362 375.5,68.5C 380.12,73.9493 381.62,80.2826 380,87.5C 378.555,94.415 374.722,99.415 368.5,102.5C 366.426,103.514 364.426,104.514 362.5,105.5C 341.867,106.034 332.367,96.0341 334,75.5C 335.564,71.4452 337.731,67.7786 340.5,64.5C 341.391,63.8902 342.391,63.5569 343.5,63.5 Z"/></g>
<g><path style="opacity:1" fill="#5c552a" d="M 55.5,106.5 C 59.6634,106.574 63.9967,106.741 68.5,107C 65.0239,108.623 61.5239,109.456 58,109.5C 56.583,108.922 55.7496,107.922 55.5,106.5 Z"/></g>
<g><path style="opacity:0.651" fill="#171719" d="M 375.5,64.5 C 384.722,76.3319 384.722,88.1653 375.5,100C 375.667,100.5 375.833,101 376,101.5C 377.405,100.269 378.571,98.9361 379.5,97.5C 382.266,95.4904 383.933,92.6571 384.5,89C 384.836,87.9701 385.503,87.4701 386.5,87.5C 380.938,106.527 368.271,114.36 348.5,111C 338.244,107.579 331.578,100.745 328.5,90.5C 328.369,89.7611 328.536,89.0944 329,88.5C 329.236,90.1193 330.069,91.1193 331.5,91.5C 332.338,94.5133 333.838,97.1799 336,99.5C 337.065,101.396 337.898,101.563 338.5,100C 329.213,88.0918 329.213,76.2585 338.5,64.5C 339.167,64.5 339.833,64.5 340.5,64.5C 337.731,67.7786 335.564,71.4452 334,75.5C 332.367,96.0341 341.867,106.034 362.5,105.5C 359.185,106.276 355.185,106.943 350.5,107.5C 354.647,108.325 358.981,108.825 363.5,109C 361.405,109.556 361.238,110.056 363,110.5C 365.818,109.09 368.485,107.423 371,105.5C 371.667,104.833 371.667,104.167 371,103.5C 369.737,105.797 367.903,106.63 365.5,106C 367.426,105.578 368.426,104.411 368.5,102.5C 374.722,99.415 378.555,94.415 380,87.5C 381.62,80.2826 380.12,73.9493 375.5,68.5C 375.267,66.9382 374.6,65.6049 373.5,64.5C 373.938,63.4937 374.604,63.4937 375.5,64.5 Z"/></g>
<g><path style="opacity:1" fill="#867c29" d="M 350.5,107.5 C 347.356,107.044 344.356,106.044 341.5,104.5C 342,104.167 342.5,103.833 343,103.5C 345.867,104.381 348.367,105.714 350.5,107.5 Z"/></g>
<g><path style="opacity:1" fill="#1f1e1d" d="M 343.5,72.5 C 344.364,72.7024 345.364,73.0357 346.5,73.5C 345.689,74.2164 345.022,75.0497 344.5,76C 346.332,80.6679 348.665,85.0013 351.5,89C 356.646,91.5039 361.146,90.6706 365,86.5C 365.333,86.8333 365.667,87.1667 366,87.5C 369.348,84.5589 371.515,80.8923 372.5,76.5C 375.341,85.3387 372.675,92.172 364.5,97C 353.66,101.057 345.827,97.8905 341,87.5C 340.333,83.8333 340.333,80.1667 341,76.5C 341.608,74.9336 342.442,73.6002 343.5,72.5 Z"/></g>
<g><path style="opacity:1" fill="#303030" d="M 372.5,76.5 C 371.515,80.8923 369.348,84.5589 366,87.5C 365.667,87.1667 365.333,86.8333 365,86.5C 361.146,90.6706 356.646,91.5039 351.5,89C 348.665,85.0013 346.332,80.6679 344.5,76C 345.022,75.0497 345.689,74.2164 346.5,73.5C 345.364,73.0357 344.364,72.7024 343.5,72.5C 348.202,65.9429 354.536,63.7762 362.5,66C 367.41,68.0746 370.743,71.5746 372.5,76.5 Z"/></g>
<g><path style="opacity:1" fill="#bab319" d="M 354.5,76.5 C 362.022,76.6698 364.022,80.0031 360.5,86.5C 353.55,89.0463 350.717,86.7129 352,79.5C 352.698,78.3094 353.531,77.3094 354.5,76.5 Z"/></g>
<g><path style="opacity:1" fill="#1e1c22" d="M 355.5,77.5 C 360.013,77.9906 361.68,80.3239 360.5,84.5C 356.751,87.4182 354.085,86.5849 352.5,82C 352.957,80.0598 353.957,78.5598 355.5,77.5 Z"/></g>
<g><path style="opacity:1" fill="#d7d8d8" d="M 355.5,80.5 C 356.5,80.5 357.5,80.5 358.5,80.5C 358.5,81.5 358.5,82.5 358.5,83.5C 357.5,83.5 356.5,83.5 355.5,83.5C 355.5,82.5 355.5,81.5 355.5,80.5 Z"/></g>
<g><path style="opacity:1" fill="#433e25" d="M 368.5,102.5 C 368.426,104.411 367.426,105.578 365.5,106C 367.903,106.63 369.737,105.797 371,103.5C 371.667,104.167 371.667,104.833 371,105.5C 368.485,107.423 365.818,109.09 363,110.5C 361.238,110.056 361.405,109.556 363.5,109C 358.981,108.825 354.647,108.325 350.5,107.5C 355.185,106.943 359.185,106.276 362.5,105.5C 364.426,104.514 366.426,103.514 368.5,102.5 Z"/></g>
</svg>
