<?xml version="1.0" encoding="UTF-8"?>
<!DOCTYPE svg PUBLIC "-//W3C//DTD SVG 1.1//EN" "http://www.w3.org/Graphics/SVG/1.1/DTD/svg11.dtd">
<svg xmlns="http://www.w3.org/2000/svg" version="1.1" width="450px" height="113px" style="shape-rendering:geometricPrecision; text-rendering:geometricPrecision; image-rendering:optimizeQuality; fill-rule:evenodd; clip-rule:evenodd" xmlns:xlink="http://www.w3.org/1999/xlink">
<g><path style="opacity:1" fill="#1c1c1b" d="M 198.5,20.5 C 197.375,22.377 197.709,24.2103 199.5,26C 195.08,26.7684 190.747,26.6018 186.5,25.5C 186.278,23.3925 185.278,21.7258 183.5,20.5C 185.559,19.433 187.392,18.0996 189,16.5C 191.132,17.7797 193.298,17.7797 195.5,16.5C 196.833,17.5 198.167,18.5 199.5,19.5C 199.376,20.1067 199.043,20.44 198.5,20.5 Z"/></g>
<g><path style="opacity:0.004" fill="#75787b" d="M 152.5,24.5 C 153.833,25.1667 153.833,25.1667 152.5,24.5 Z"/></g>
<g><path style="opacity:0.004" fill="#2d2e32" d="M 146.5,26.5 C 147.251,25.4265 148.251,25.2599 149.5,26C 148.552,26.4828 147.552,26.6495 146.5,26.5 Z"/></g>
<g><path style="opacity:0.004" fill="#201f1f" d="M 141.5,27.5 C 142.601,26.4017 143.934,26.235 145.5,27C 144.207,27.49 142.873,27.6567 141.5,27.5 Z"/></g>
<g><path style="opacity:1" fill="#89c460" d="M 160.5,25.5 C 166.167,25.5 171.833,25.5 177.5,25.5C 177.5,25.8333 177.5,26.1667 177.5,26.5C 177.5,26.8333 177.5,27.1667 177.5,27.5C 171.402,28.1167 165.735,27.45 160.5,25.5 Z"/></g>
<g><path style="opacity:0.004" fill="#1e1d1d" d="M 136.5,28.5 C 137.601,27.4017 138.934,27.235 140.5,28C 139.207,28.49 137.873,28.6567 136.5,28.5 Z"/></g>
<g><path style="opacity:1" fill="#727066" d="M 177.5,26.5 C 185.33,26.7401 192.997,27.5734 200.5,29C 193.042,28.2576 185.709,28.4242 178.5,29.5C 177.833,29.5 177.5,29.1667 177.5,28.5C 177.5,28.1667 177.5,27.8333 177.5,27.5C 177.5,27.1667 177.5,26.8333 177.5,26.5 Z"/></g>
<g><path style="opacity:0.004" fill="#19191b" d="M 132.5,29.5 C 133.251,28.4265 134.251,28.2599 135.5,29C 134.552,29.4828 133.552,29.6495 132.5,29.5 Z"/></g>
<g><path style="opacity:0.804" fill="#737172" d="M 50.5,29.5 C 44.7414,29.2143 39.0748,29.5476 33.5,30.5C 28.8189,30.6686 24.1522,31.0019 19.5,31.5C 18.1667,31.5 17.5,30.8333 17.5,29.5C 25.8745,28.8658 34.2078,27.8658 42.5,26.5C 44.7088,26.6039 46.8755,26.9372 49,27.5C 50.0299,27.8361 50.5299,28.5028 50.5,29.5 Z"/></g>
<g><path style="opacity:0.008" fill="#212022" d="M 122.5,31.5 C 125.228,29.9236 128.228,29.4236 131.5,30C 128.568,30.9533 125.568,31.4533 122.5,31.5 Z"/></g>
<g><path style="opacity:0.004" fill="#1d1c1c" d="M 122.5,31.5 C 121.749,32.5735 120.749,32.7401 119.5,32C 120.448,31.5172 121.448,31.3505 122.5,31.5 Z"/></g>
<g><path style="opacity:1" fill="#2a3638" d="M 198.5,20.5 C 202.515,26.7398 203.515,33.4065 201.5,40.5C 199.389,39.2584 197.389,39.2584 195.5,40.5C 190.361,41.9407 190.361,42.9407 195.5,43.5C 196.043,43.56 196.376,43.8933 196.5,44.5C 194.155,46.4047 191.488,47.5714 188.5,48C 189.056,48.3826 189.389,48.8826 189.5,49.5C 188.167,49.5 186.833,49.5 185.5,49.5C 184.833,49.8333 184.167,50.1667 183.5,50.5C 183.672,49.5084 183.338,48.8417 182.5,48.5C 182.473,46.8007 181.806,45.4674 180.5,44.5C 180.158,39.4516 179.492,34.4516 178.5,29.5C 185.709,28.4242 193.042,28.2576 200.5,29C 192.997,27.5734 185.33,26.7401 177.5,26.5C 177.5,26.1667 177.5,25.8333 177.5,25.5C 180.5,25.5 183.5,25.5 186.5,25.5C 190.747,26.6018 195.08,26.7684 199.5,26C 197.709,24.2103 197.375,22.377 198.5,20.5 Z"/></g>
<g><path style="opacity:0.004" fill="#353536" d="M 114.5,33.5 C 115.251,32.4265 116.251,32.2599 117.5,33C 116.552,33.4828 115.552,33.6495 114.5,33.5 Z"/></g>
<g><path style="opacity:1" fill="#5c5c5e" d="M 160.5,29.5 C 160.5,30.5 160.5,31.5 160.5,32.5C 157.946,33.388 155.279,33.7214 152.5,33.5C 151.503,33.4701 150.836,33.9701 150.5,35C 149.922,36.8114 149.422,38.6447 149,40.5C 148.517,39.552 148.351,38.552 148.5,37.5C 146.097,37.393 144.264,38.393 143,40.5C 142.837,38.6133 143.671,37.1133 145.5,36C 143.699,35.6827 143.366,35.016 144.5,34C 149.711,31.9843 155.044,30.4843 160.5,29.5 Z"/></g>
<g><path style="opacity:0.004" fill="#1f1f20" d="M 114.5,33.5 C 113.399,34.5983 112.066,34.765 110.5,34C 111.793,33.51 113.127,33.3433 114.5,33.5 Z"/></g>
<g><path style="opacity:0.004" fill="#2b2a2c" d="M 107.5,35.5 C 107.897,34.475 108.563,34.3083 109.5,35C 108.906,35.4643 108.239,35.631 107.5,35.5 Z"/></g>
<g><path style="opacity:1" fill="#bcbdbd" d="M 160.5,25.5 C 165.735,27.45 171.402,28.1167 177.5,27.5C 177.5,27.8333 177.5,28.1667 177.5,28.5C 171.642,28.1778 165.975,28.5111 160.5,29.5C 155.044,30.4843 149.711,31.9843 144.5,34C 143.366,35.016 143.699,35.6827 145.5,36C 143.671,37.1133 142.837,38.6133 143,40.5C 144.264,38.393 146.097,37.393 148.5,37.5C 148.351,38.552 148.517,39.552 149,40.5C 149.422,38.6447 149.922,36.8114 150.5,35C 150.836,33.9701 151.503,33.4701 152.5,33.5C 150.81,37.1873 151.31,37.854 154,35.5C 154.324,37.5689 155.158,37.9023 156.5,36.5C 157.308,36.8076 157.975,37.3076 158.5,38C 157.529,39.2036 156.529,39.7036 155.5,39.5C 156.562,40.7701 157.562,41.9367 158.5,43C 155.225,44.9616 152.725,44.1283 151,40.5C 148.084,41.7747 145.25,42.4413 142.5,42.5C 141.141,41.3757 140.141,40.0423 139.5,38.5C 141.259,36.5223 142.925,34.3556 144.5,32C 144.167,31.6667 143.833,31.3333 143.5,31C 144.737,30.7679 145.737,30.2679 146.5,29.5C 148.403,29.2041 150.07,28.5375 151.5,27.5C 154.219,26.087 157.219,25.4203 160.5,25.5 Z"/></g>
<g><path style="opacity:0.004" fill="#54545a" d="M 102.5,36.5 C 102.897,35.475 103.563,35.3083 104.5,36C 103.906,36.4643 103.239,36.631 102.5,36.5 Z"/></g>
<g><path style="opacity:1" fill="#55a53a" d="M 177.5,28.5 C 177.5,29.1667 177.833,29.5 178.5,29.5C 179.492,34.4516 180.158,39.4516 180.5,44.5C 174.5,44.5 168.5,44.5 162.5,44.5C 161.994,40.4393 161.327,36.4393 160.5,32.5C 160.5,31.5 160.5,30.5 160.5,29.5C 165.975,28.5111 171.642,28.1778 177.5,28.5 Z"/></g>
<g><path style="opacity:0.004" fill="#595a5d" d="M 99.5,36.5 C 100.833,37.1667 100.833,37.1667 99.5,36.5 Z"/></g>
<g><path style="opacity:0.977" fill="#242424" d="M 151.5,27.5 C 150.07,28.5375 148.403,29.2041 146.5,29.5C 125.515,34.7167 105.182,41.7167 85.5,50.5C 86.7568,47.3132 88.0901,44.1465 89.5,41C 110.046,35.8629 130.713,31.3629 151.5,27.5 Z"/></g>
<g><path style="opacity:1" fill="#161619" d="M 160.5,32.5 C 161.327,36.4393 161.994,40.4393 162.5,44.5C 150.011,45.4954 137.344,45.8287 124.5,45.5C 123.761,45.631 123.094,45.4643 122.5,45C 124.5,44.6667 126.5,44.3333 128.5,44C 129.667,43.5 130.5,42.6667 131,41.5C 131.278,42.4158 131.778,43.0825 132.5,43.5C 136.623,45.5244 138.956,44.1911 139.5,39.5C 139.5,39.1667 139.5,38.8333 139.5,38.5C 140.141,40.0423 141.141,41.3757 142.5,42.5C 145.25,42.4413 148.084,41.7747 151,40.5C 152.725,44.1283 155.225,44.9616 158.5,43C 157.562,41.9367 156.562,40.7701 155.5,39.5C 156.529,39.7036 157.529,39.2036 158.5,38C 157.975,37.3076 157.308,36.8076 156.5,36.5C 155.158,37.9023 154.324,37.5689 154,35.5C 151.31,37.854 150.81,37.1873 152.5,33.5C 155.279,33.7214 157.946,33.388 160.5,32.5 Z"/></g>
<g><path style="opacity:0.908" fill="#0e1110" d="M 255.5,34.5 C 255.881,35.9311 256.881,36.7645 258.5,37C 254.91,37.3106 251.577,38.144 248.5,39.5C 243.538,40.6567 238.538,41.6567 233.5,42.5C 231.112,43.3485 228.779,44.3485 226.5,45.5C 225.833,45.8333 225.167,46.1667 224.5,46.5C 217.877,45.6204 211.211,45.287 204.5,45.5C 204.5,44.5 204.5,43.5 204.5,42.5C 221.414,39.3174 238.414,36.6507 255.5,34.5 Z"/></g>
<g><path style="opacity:1" fill="#2aa239" d="M 17.5,29.5 C 17.5,30.8333 18.1667,31.5 19.5,31.5C 20.7653,32.4793 22.0986,33.4793 23.5,34.5C 23.2907,35.086 22.9574,35.586 22.5,36C 27.1373,36.8294 31.804,37.3294 36.5,37.5C 39.6248,38.4794 42.9581,38.8128 46.5,38.5C 46.2155,40.4147 46.5489,42.0813 47.5,43.5C 47.5987,46.2372 47.2653,48.9039 46.5,51.5C 45.8333,51.5 45.5,51.8333 45.5,52.5C 44.078,53.925 42.4113,54.925 40.5,55.5C 37.3163,54.5786 34.1496,53.5786 31,52.5C 30.7216,53.4158 30.2216,54.0825 29.5,54.5C 26.5261,49.4346 24.1928,49.4346 22.5,54.5C 21.6801,52.6812 20.6801,51.0145 19.5,49.5C 15.4459,44.9559 11.1126,40.6225 6.5,36.5C 9.63811,34.1928 12.3048,31.3594 14.5,28C 15.9976,27.4153 16.9976,27.9153 17.5,29.5 Z"/></g>
<g><path style="opacity:1" fill="#a8aaac" d="M 233.5,42.5 C 232.022,42.762 230.689,42.4287 229.5,41.5C 232.562,40.1302 235.729,39.1302 239,38.5C 239.167,38.8333 239.333,39.1667 239.5,39.5C 237.406,40.5176 235.406,41.5176 233.5,42.5 Z"/></g>
<g><path style="opacity:1" fill="#8f8b8c" d="M 146.5,29.5 C 145.737,30.2679 144.737,30.7679 143.5,31C 143.833,31.3333 144.167,31.6667 144.5,32C 142.925,34.3556 141.259,36.5223 139.5,38.5C 139.5,38.8333 139.5,39.1667 139.5,39.5C 132.934,36.2971 133.267,34.6304 140.5,34.5C 136.556,32.5802 133.89,33.5802 132.5,37.5C 119.94,39.6866 107.94,43.6866 96.5,49.5C 89.7631,51.4523 83.0965,53.119 76.5,54.5C 74.901,54.7678 73.5676,54.4345 72.5,53.5C 76.6151,52.0566 80.9484,51.0566 85.5,50.5C 105.182,41.7167 125.515,34.7167 146.5,29.5 Z"/></g>
<g><path style="opacity:0.314" fill="#999898" d="M 308.5,53.5 C 307.833,53.5 307.167,53.5 306.5,53.5C 307.167,30.8333 307.833,30.8333 308.5,53.5 Z"/></g>
<g><path style="opacity:1" fill="#117c35" d="M 6.5,36.5 C 11.1126,40.6225 15.4459,44.9559 19.5,49.5C 14.6058,50.6855 14.2725,52.6855 18.5,55.5C 18.0431,56.2975 17.3764,56.6309 16.5,56.5C 13.0175,54.2524 9.68421,51.7524 6.5,49C 5.55198,48.5172 4.55198,48.3505 3.5,48.5C 2.83787,44.5341 2.50454,40.5341 2.5,36.5C 3.83333,36.5 5.16667,36.5 6.5,36.5 Z"/></g>
<g><path style="opacity:1" fill="#e5e5e5" d="M 139.5,39.5 C 138.956,44.1911 136.623,45.5244 132.5,43.5C 132.088,41.0274 133.088,39.6941 135.5,39.5C 134.71,38.5987 133.71,37.9321 132.5,37.5C 133.89,33.5802 136.556,32.5802 140.5,34.5C 133.267,34.6304 132.934,36.2971 139.5,39.5 Z"/></g>
<g><path style="opacity:1" fill="#202021" d="M 135.5,39.5 C 138.101,40.9225 137.934,42.2558 135,43.5C 134.5,43.1667 134,42.8333 133.5,42.5C 134.193,41.4822 134.859,40.4822 135.5,39.5 Z"/></g>
<g><path style="opacity:0.167" fill="#4e9540" d="M 248.5,39.5 C 250.483,39.1568 251.817,39.8235 252.5,41.5C 243.932,43.4804 235.265,44.8137 226.5,45.5C 228.779,44.3485 231.112,43.3485 233.5,42.5C 238.538,41.6567 243.538,40.6567 248.5,39.5 Z"/></g>
<g><path style="opacity:1" fill="#565456" d="M 132.5,37.5 C 133.71,37.9321 134.71,38.5987 135.5,39.5C 133.088,39.6941 132.088,41.0274 132.5,43.5C 131.778,43.0825 131.278,42.4158 131,41.5C 130.5,42.6667 129.667,43.5 128.5,44C 126.5,44.3333 124.5,44.6667 122.5,45C 123.094,45.4643 123.761,45.631 124.5,45.5C 124.158,46.3382 123.492,46.6716 122.5,46.5C 121.662,46.8417 121.328,47.5084 121.5,48.5C 121.5,48.8333 121.5,49.1667 121.5,49.5C 110.066,49.9905 98.7331,51.3239 87.5,53.5C 83.8019,53.5524 80.1352,53.8857 76.5,54.5C 83.0965,53.119 89.7631,51.4523 96.5,49.5C 107.94,43.6866 119.94,39.6866 132.5,37.5 Z"/></g>
<g><path style="opacity:1" fill="#323132" d="M 50.5,29.5 C 49.3933,31.9689 47.3933,32.9689 44.5,32.5C 44.3505,33.552 44.5172,34.552 45,35.5C 55.8947,34.2302 60.728,39.2302 59.5,50.5C 64.0854,50.4744 68.4187,51.4744 72.5,53.5C 73.5676,54.4345 74.901,54.7678 76.5,54.5C 80.1352,53.8857 83.8019,53.5524 87.5,53.5C 82.8436,54.9333 78.1769,55.7667 73.5,56C 78.2505,58.4585 81.2505,62.2919 82.5,67.5C 80.8818,65.215 78.8818,63.215 76.5,61.5C 76.1667,61.6667 75.8333,61.8333 75.5,62C 76.8228,62.8159 77.4894,63.9826 77.5,65.5C 74.0416,61.6989 70.0416,58.6989 65.5,56.5C 65.5,55.1667 65.5,53.8333 65.5,52.5C 60.1667,52.5 54.8333,52.5 49.5,52.5C 49.5,53.8333 49.5,55.1667 49.5,56.5C 44.9584,58.6989 40.9584,61.6989 37.5,65.5C 37.5106,63.9826 38.1772,62.8159 39.5,62C 38.9056,61.5357 38.2389,61.369 37.5,61.5C 37.9175,60.7784 38.5842,60.2784 39.5,60C 38.4019,59.2303 38.4019,58.397 39.5,57.5C 39.8333,56.8333 40.1667,56.1667 40.5,55.5C 42.4113,54.925 44.078,53.925 45.5,52.5C 46.1667,52.5 46.5,52.1667 46.5,51.5C 47.5,51.5 48.5,51.5 49.5,51.5C 50.0356,48.3019 49.369,45.6353 47.5,43.5C 46.5489,42.0813 46.2155,40.4147 46.5,38.5C 42.9581,38.8128 39.6248,38.4794 36.5,37.5C 36.4208,36.0695 36.7542,34.7362 37.5,33.5C 35.8164,32.8503 34.4831,31.8503 33.5,30.5C 39.0748,29.5476 44.7414,29.2143 50.5,29.5 Z"/></g>
<g><path style="opacity:0.007" fill="#161516" d="M 85.5,42.5 C 86.7928,44.3635 86.7928,46.3635 85.5,48.5C 84.2638,49.2458 82.9305,49.5792 81.5,49.5C 81.5713,46.3477 82.9046,44.0144 85.5,42.5 Z"/></g>
<g><path style="opacity:1" fill="#72a652" d="M 162.5,44.5 C 168.5,44.5 174.5,44.5 180.5,44.5C 181.806,45.4674 182.473,46.8007 182.5,48.5C 169.833,48.5 157.167,48.5 144.5,48.5C 137.167,47.8333 129.833,47.1667 122.5,46.5C 123.492,46.6716 124.158,46.3382 124.5,45.5C 137.344,45.8287 150.011,45.4954 162.5,44.5 Z"/></g>
<g><path style="opacity:0.874" fill="#4f4f4e" d="M 360.5,48.5 C 355.637,48.8195 350.97,48.4861 346.5,47.5C 349.435,46.7308 352.435,46.0641 355.5,45.5C 357.692,45.7573 359.359,46.7573 360.5,48.5 Z"/></g>
<g><path style="opacity:1" fill="#898988" d="M 254.5,46.5 C 257.994,45.6648 261.66,45.6648 265.5,46.5C 265.833,47.1667 266.167,47.8333 266.5,48.5C 263.598,49.7085 260.765,50.3751 258,50.5C 257.51,49.2068 257.343,47.8734 257.5,46.5C 256.5,46.5 255.5,46.5 254.5,46.5 Z"/></g>
<g><path style="opacity:0.999" fill="#0d0c08" d="M 346.5,47.5 C 350.97,48.4861 355.637,48.8195 360.5,48.5C 360.414,49.4959 360.748,50.3292 361.5,51C 356.981,51.1753 352.647,51.6753 348.5,52.5C 347.833,52.5 347.167,52.5 346.5,52.5C 345.5,52.5 344.5,52.5 343.5,52.5C 343.953,50.4348 344.953,48.7682 346.5,47.5 Z"/></g>
<g><path style="opacity:1" fill="#468b39" d="M 121.5,48.5 C 123.833,48.5 126.167,48.5 128.5,48.5C 128.5,50.1667 128.5,51.8333 128.5,53.5C 126.5,53.5 124.5,53.5 122.5,53.5C 121.766,52.2921 121.433,50.9587 121.5,49.5C 121.5,49.1667 121.5,48.8333 121.5,48.5 Z"/></g>
<g><path style="opacity:1" fill="#b7b49e" d="M 65.5,56.5 C 60.1667,56.5 54.8333,56.5 49.5,56.5C 49.5,55.1667 49.5,53.8333 49.5,52.5C 54.8333,52.5 60.1667,52.5 65.5,52.5C 65.5,53.8333 65.5,55.1667 65.5,56.5 Z"/></g>
<g><path style="opacity:1" fill="#377b38" d="M 144.5,48.5 C 150.084,50.2952 156.084,51.1285 162.5,51C 163.328,51.9147 164.328,52.5814 165.5,53C 163.699,53.3173 163.366,53.984 164.5,55C 160.975,55.1787 157.641,55.6787 154.5,56.5C 150.833,56.5 147.167,56.5 143.5,56.5C 143.66,54.8008 143.494,53.1341 143,51.5C 142.333,52.1667 141.667,52.8333 141,53.5C 139.731,52.0953 139.231,50.4286 139.5,48.5C 141.167,48.5 142.833,48.5 144.5,48.5 Z"/></g>
<g><path style="opacity:1" fill="#121213" d="M 121.5,49.5 C 121.433,50.9587 121.766,52.2921 122.5,53.5C 122.931,57.3366 123.598,61.0032 124.5,64.5C 124.401,67.2372 124.735,69.9039 125.5,72.5C 124.167,73.1667 122.833,73.8333 121.5,74.5C 117.687,75.1596 114.021,76.3262 110.5,78C 108.456,78.4983 107.122,79.665 106.5,81.5C 101.704,83.3983 97.037,85.565 92.5,88C 94.5,88.6667 96.5,88.6667 98.5,88C 100.818,86.0073 103.484,84.8406 106.5,84.5C 106.581,87.5134 107.914,89.5134 110.5,90.5C 116.31,91.4896 122.31,91.8229 128.5,91.5C 128.5,91.8333 128.5,92.1667 128.5,92.5C 127.5,92.5 126.5,92.5 125.5,92.5C 125.798,95.3356 125.131,95.8356 123.5,94C 119.789,93.1747 116.122,93.3414 112.5,94.5C 115.785,95.3236 119.118,95.8236 122.5,96C 120.167,96.1667 117.833,96.3333 115.5,96.5C 108.583,95.0175 101.583,93.8508 94.5,93C 98.5108,95.3077 102.844,96.8077 107.5,97.5C 106.359,98.4255 106.359,99.2588 107.5,100C 112.792,101.696 118.126,101.863 123.5,100.5C 124.737,100.556 125.737,101.056 126.5,102C 116.658,102.17 106.991,102.67 97.5,103.5C 90.4921,103.334 83.4921,103.5 76.5,104C 63.8717,112.662 51.205,112.662 38.5,104C 33.5111,103.501 28.5111,103.334 23.5,103.5C 23.5,96.5 23.5,89.5 23.5,82.5C 15.6829,83.0135 12.3496,79.3468 13.5,71.5C 14.4916,71.3284 15.1583,71.6618 15.5,72.5C 13.8894,74.8334 14.3894,76.5001 17,77.5C 19.6106,76.5001 20.1106,74.8334 18.5,72.5C 21.7786,73.4922 25.1119,73.6588 28.5,73C 29.3366,71.9887 29.67,70.8221 29.5,69.5C 30.1029,66.8252 31.4362,64.4918 33.5,62.5C 34.8851,60.1165 36.8851,58.4499 39.5,57.5C 38.4019,58.397 38.4019,59.2303 39.5,60C 38.5842,60.2784 37.9175,60.7784 37.5,61.5C 28.1904,74.0005 28.1904,86.5005 37.5,99C 38.3317,99.6877 38.9984,99.521 39.5,98.5C 32.5369,90.2652 30.7035,80.9319 34,70.5C 34.6972,68.4156 35.8639,66.7489 37.5,65.5C 40.9584,61.6989 44.9584,58.6989 49.5,56.5C 54.8333,56.5 60.1667,56.5 65.5,56.5C 70.0416,58.6989 74.0416,61.6989 77.5,65.5C 81.6808,69.5559 83.3474,74.5559 82.5,80.5C 82.8334,87.668 80.5001,93.8347 75.5,99C 77.3867,99.1626 78.8867,98.3293 80,96.5C 84.904,87.1751 85.7374,77.5084 82.5,67.5C 81.2505,62.2919 78.2505,58.4585 73.5,56C 78.1769,55.7667 82.8436,54.9333 87.5,53.5C 98.7331,51.3239 110.066,49.9905 121.5,49.5 Z"/></g>
<g><path style="opacity:1" fill="#439936" d="M 144.5,48.5 C 157.167,48.5 169.833,48.5 182.5,48.5C 183.338,48.8417 183.672,49.5084 183.5,50.5C 183.5,52.5 183.5,54.5 183.5,56.5C 183.167,56.5 182.833,56.5 182.5,56.5C 173.167,56.5 163.833,56.5 154.5,56.5C 157.641,55.6787 160.975,55.1787 164.5,55C 163.366,53.984 163.699,53.3173 165.5,53C 164.328,52.5814 163.328,51.9147 162.5,51C 156.084,51.1285 150.084,50.2952 144.5,48.5 Z"/></g>
<g><path style="opacity:0.997" fill="#2f2e30" d="M 255.5,34.5 C 264.644,37.7952 272.644,42.9618 279.5,50C 280.745,50.7914 282.078,51.2914 283.5,51.5C 282.791,52.404 281.791,52.7373 280.5,52.5C 273.576,52.0678 266.909,52.7345 260.5,54.5C 260.167,54.5 259.833,54.5 259.5,54.5C 259.565,54.0618 259.399,53.7284 259,53.5C 257.066,55.9606 254.566,57.7939 251.5,59C 238.167,59.3333 224.833,59.6667 211.5,60C 212.416,60.2784 213.082,60.7784 213.5,61.5C 212.391,61.5569 211.391,61.8902 210.5,62.5C 209.402,61.603 209.402,60.7697 210.5,60C 206.619,59.6496 202.952,60.1496 199.5,61.5C 198.833,61.5 198.167,61.5 197.5,61.5C 196.432,60.5655 195.099,60.2322 193.5,60.5C 193.737,61.791 193.404,62.791 192.5,63.5C 192.714,61.8561 192.38,60.3561 191.5,59C 188.649,57.7114 185.649,57.2114 182.5,57.5C 182.5,57.1667 182.5,56.8333 182.5,56.5C 182.833,56.5 183.167,56.5 183.5,56.5C 206.179,56.587 228.846,56.087 251.5,55C 244.475,54.5878 237.475,53.9212 230.5,53C 237.673,53.1407 244.673,52.9741 251.5,52.5C 251.389,51.8826 251.056,51.3826 250.5,51C 251.793,50.51 253.127,50.3433 254.5,50.5C 254.5,49.1667 254.5,47.8333 254.5,46.5C 255.5,46.5 256.5,46.5 257.5,46.5C 257.343,47.8734 257.51,49.2068 258,50.5C 260.765,50.3751 263.598,49.7085 266.5,48.5C 267.149,49.6063 267.483,50.6063 267.5,51.5C 270.036,48.9534 269.37,47.2867 265.5,46.5C 261.935,43.0853 257.602,41.4187 252.5,41.5C 251.817,39.8235 250.483,39.1568 248.5,39.5C 251.577,38.144 254.91,37.3106 258.5,37C 256.881,36.7645 255.881,35.9311 255.5,34.5 Z M 265.5,46.5 C 269.37,47.2867 270.036,48.9534 267.5,51.5C 267.483,50.6063 267.149,49.6063 266.5,48.5C 266.167,47.8333 265.833,47.1667 265.5,46.5 Z"/></g>
<g><path style="opacity:1" fill="#b7b392" d="M 346.5,52.5 C 347.167,52.5 347.833,52.5 348.5,52.5C 352.833,52.5 357.167,52.5 361.5,52.5C 361.5,53.8333 361.5,55.1667 361.5,56.5C 356.5,56.5 351.5,56.5 346.5,56.5C 346.5,55.1667 346.5,53.8333 346.5,52.5 Z"/></g>
<g><path style="opacity:1" fill="#3a3c3f" d="M 201.5,40.5 C 201.821,42.0481 202.821,42.7148 204.5,42.5C 204.5,43.5 204.5,44.5 204.5,45.5C 211.211,45.287 217.877,45.6204 224.5,46.5C 225.673,48.5041 227.34,50.0041 229.5,51C 236.829,51.6279 244.163,52.1279 251.5,52.5C 244.673,52.9741 237.673,53.1407 230.5,53C 237.475,53.9212 244.475,54.5878 251.5,55C 228.846,56.087 206.179,56.587 183.5,56.5C 183.5,54.5 183.5,52.5 183.5,50.5C 184.167,50.1667 184.833,49.8333 185.5,49.5C 185.5,50.5 185.5,51.5 185.5,52.5C 188.079,52.9167 190.246,52.25 192,50.5C 192.839,51.6241 194.006,52.2908 195.5,52.5C 200.014,52.2027 204.68,52.2027 209.5,52.5C 209.649,51.448 209.483,50.448 209,49.5C 202.668,49.366 196.168,49.366 189.5,49.5C 189.389,48.8826 189.056,48.3826 188.5,48C 191.488,47.5714 194.155,46.4047 196.5,44.5C 196.376,43.8933 196.043,43.56 195.5,43.5C 195.5,42.5 195.5,41.5 195.5,40.5C 197.389,39.2584 199.389,39.2584 201.5,40.5 Z"/></g>
<g><path style="opacity:1" fill="#9ea1a4" d="M 185.5,49.5 C 186.833,49.5 188.167,49.5 189.5,49.5C 196.168,49.366 202.668,49.366 209,49.5C 209.483,50.448 209.649,51.448 209.5,52.5C 204.68,52.2027 200.014,52.2027 195.5,52.5C 194.006,52.2908 192.839,51.6241 192,50.5C 190.246,52.25 188.079,52.9167 185.5,52.5C 185.5,51.5 185.5,50.5 185.5,49.5 Z"/></g>
<g><path style="opacity:1" fill="#818588" d="M 215.5,48.5 C 218.482,48.1044 221.149,48.7711 223.5,50.5C 222.609,51.5896 221.609,51.5896 220.5,50.5C 217.911,53.1046 215.411,53.1046 213,50.5C 211.913,52.9316 211.413,52.5983 211.5,49.5C 213.099,49.7678 214.432,49.4345 215.5,48.5 Z"/></g>
<g><path style="opacity:1" fill="#bddcb6" d="M 306.5,53.5 C 307.167,53.5 307.833,53.5 308.5,53.5C 317.838,54.1065 327.171,54.7732 336.5,55.5C 336.167,56.1667 335.833,56.8333 335.5,57.5C 334.5,58.1667 333.5,58.8333 332.5,59.5C 326.596,59.6787 320.929,59.0121 315.5,57.5C 317.199,57.6602 318.866,57.4935 320.5,57C 308.065,55.8574 296.399,54.3574 285.5,52.5C 288.579,52.7399 291.579,52.4066 294.5,51.5C 298.423,52.5983 302.423,53.265 306.5,53.5 Z"/></g>
<g><path style="opacity:1" fill="#295533" d="M 122.5,46.5 C 129.833,47.1667 137.167,47.8333 144.5,48.5C 142.833,48.5 141.167,48.5 139.5,48.5C 139.231,50.4286 139.731,52.0953 141,53.5C 141.667,52.8333 142.333,52.1667 143,51.5C 143.494,53.1341 143.66,54.8008 143.5,56.5C 147.167,56.5 150.833,56.5 154.5,56.5C 163.833,56.5 173.167,56.5 182.5,56.5C 182.5,56.8333 182.5,57.1667 182.5,57.5C 181.833,57.5 181.167,57.5 180.5,57.5C 168.162,57.3335 155.829,57.5001 143.5,58C 142.956,58.7172 142.289,59.2172 141.5,59.5C 140.726,58.8529 139.726,58.5195 138.5,58.5C 135.416,59.2068 132.416,60.2068 129.5,61.5C 128.094,60.3318 126.928,60.6652 126,62.5C 125.667,62.1667 125.333,61.8333 125,61.5C 124.517,62.448 124.351,63.448 124.5,64.5C 123.598,61.0032 122.931,57.3366 122.5,53.5C 124.5,53.5 126.5,53.5 128.5,53.5C 128.5,51.8333 128.5,50.1667 128.5,48.5C 126.167,48.5 123.833,48.5 121.5,48.5C 121.328,47.5084 121.662,46.8417 122.5,46.5 Z"/></g>
<g><path style="opacity:1" fill="#8da17d" d="M 285.5,52.5 C 296.399,54.3574 308.065,55.8574 320.5,57C 318.866,57.4935 317.199,57.6602 315.5,57.5C 304.181,57.002 293.014,55.6687 282,53.5C 280.893,54.7119 280.393,54.3786 280.5,52.5C 281.791,52.7373 282.791,52.404 283.5,51.5C 283.215,49.712 283.548,48.0453 284.5,46.5C 285.466,48.396 285.799,50.396 285.5,52.5 Z"/></g>
<g><path style="opacity:1" fill="#3e3e3c" d="M 343.5,52.5 C 344.5,52.5 345.5,52.5 346.5,52.5C 346.5,53.8333 346.5,55.1667 346.5,56.5C 343.47,58.109 340.637,60.109 338,62.5C 337.23,61.4019 336.397,61.4019 335.5,62.5C 335.5,61.8333 335.167,61.5 334.5,61.5C 335.028,60.2794 335.695,59.1127 336.5,58C 336.272,57.6012 335.938,57.4346 335.5,57.5C 335.833,56.8333 336.167,56.1667 336.5,55.5C 338.645,54.0115 340.978,53.0115 343.5,52.5 Z"/></g>
<g><path style="opacity:1" fill="#13301b" d="M 19.5,49.5 C 20.6801,51.0145 21.6801,52.6812 22.5,54.5C 24.1928,49.4346 26.5261,49.4346 29.5,54.5C 28.9033,54.7352 28.5699,55.2352 28.5,56C 29.0556,57.0111 29.7222,57.8444 30.5,58.5C 29.5655,59.5676 29.2322,60.901 29.5,62.5C 27.1795,61.3751 24.8462,61.2084 22.5,62C 25.0515,60.4842 24.7181,59.6509 21.5,59.5C 21.7148,61.1788 21.0481,62.1788 19.5,62.5C 18.4502,62.0954 18.4502,61.4288 19.5,60.5C 18.3717,59.7379 17.2051,59.0712 16,58.5C 15.3083,57.5632 15.475,56.8966 16.5,56.5C 17.3764,56.6309 18.0431,56.2975 18.5,55.5C 14.2725,52.6855 14.6058,50.6855 19.5,49.5 Z"/></g>
<g><path style="opacity:1" fill="#7bb94e" d="M 280.5,52.5 C 280.393,54.3786 280.893,54.7119 282,53.5C 293.014,55.6687 304.181,57.002 315.5,57.5C 320.929,59.0121 326.596,59.6787 332.5,59.5C 332.167,60.5 331.5,61.1667 330.5,61.5C 306.791,59.5528 283.458,57.2194 260.5,54.5C 266.909,52.7345 273.576,52.0678 280.5,52.5 Z"/></g>
<g><path style="opacity:1" fill="#1a7330" d="M 40.5,55.5 C 40.1667,56.1667 39.8333,56.8333 39.5,57.5C 36.8851,58.4499 34.8851,60.1165 33.5,62.5C 32.1224,61.4549 31.1224,60.1216 30.5,58.5C 29.7222,57.8444 29.0556,57.0111 28.5,56C 28.5699,55.2352 28.9033,54.7352 29.5,54.5C 30.2216,54.0825 30.7216,53.4158 31,52.5C 34.1496,53.5786 37.3163,54.5786 40.5,55.5 Z"/></g>
<g><path style="opacity:1" fill="#4ea434" d="M 259.5,54.5 C 259.833,54.5 260.167,54.5 260.5,54.5C 283.458,57.2194 306.791,59.5528 330.5,61.5C 328.952,62.7943 326.952,63.4609 324.5,63.5C 314.182,62.5268 303.849,61.8601 293.5,61.5C 282.346,60.5052 271.012,60.1719 259.5,60.5C 259.5,58.5 259.5,56.5 259.5,54.5 Z"/></g>
<g><path style="opacity:1" fill="#959696" d="M 110.5,55.5 C 114.161,55.3501 115.161,56.8501 113.5,60C 109.707,60.4866 108.707,58.9866 110.5,55.5 Z"/></g>
<g><path style="opacity:1" fill="#8d8e8f" d="M 98.5,59.5 C 101.26,59.9808 103.927,59.9808 106.5,59.5C 109.582,59.9874 110.082,61.3208 108,63.5C 107.333,62.8333 106.667,62.1667 106,61.5C 103.997,62.2166 101.831,62.55 99.5,62.5C 98.6143,61.675 98.281,60.675 98.5,59.5 Z"/></g>
<g><path style="opacity:1" fill="#164421" d="M 30.5,58.5 C 31.1224,60.1216 32.1224,61.4549 33.5,62.5C 31.4362,64.4918 30.1029,66.8252 29.5,69.5C 27.1097,69.2299 24.6097,68.2299 22,66.5C 19.2628,67.6105 16.4294,67.7772 13.5,67C 12.1667,66 12.1667,65 13.5,64C 16.025,63.1041 18.1917,63.6041 20,65.5C 20.4696,64.4232 20.3029,63.4232 19.5,62.5C 21.0481,62.1788 21.7148,61.1788 21.5,59.5C 24.7181,59.6509 25.0515,60.4842 22.5,62C 24.8462,61.2084 27.1795,61.3751 29.5,62.5C 29.2322,60.901 29.5655,59.5676 30.5,58.5 Z"/></g>
<g><path style="opacity:1" fill="#175c2b" d="M 3.5,48.5 C 4.55198,48.3505 5.55198,48.5172 6.5,49C 9.68421,51.7524 13.0175,54.2524 16.5,56.5C 15.475,56.8966 15.3083,57.5632 16,58.5C 17.2051,59.0712 18.3717,59.7379 19.5,60.5C 18.4502,61.4288 18.4502,62.0954 19.5,62.5C 20.3029,63.4232 20.4696,64.4232 20,65.5C 18.1917,63.6041 16.025,63.1041 13.5,64C 12.1667,65 12.1667,66 13.5,67C 16.4294,67.7772 19.2628,67.6105 22,66.5C 24.6097,68.2299 27.1097,69.2299 29.5,69.5C 29.67,70.8221 29.3366,71.9887 28.5,73C 25.1119,73.6588 21.7786,73.4922 18.5,72.5C 17.5,72.5 16.5,72.5 15.5,72.5C 15.1583,71.6618 14.4916,71.3284 13.5,71.5C 11.9826,71.4894 10.8159,70.8228 10,69.5C 6.43931,62.9218 4.27264,55.9218 3.5,48.5 Z"/></g>
<g><path style="opacity:1" fill="#177d37" d="M 141.5,59.5 C 141.5,62.1667 141.5,64.8333 141.5,67.5C 136.03,68.7681 130.696,70.4348 125.5,72.5C 124.735,69.9039 124.401,67.2372 124.5,64.5C 124.351,63.448 124.517,62.448 125,61.5C 125.333,61.8333 125.667,62.1667 126,62.5C 126.928,60.6652 128.094,60.3318 129.5,61.5C 132.416,60.2068 135.416,59.2068 138.5,58.5C 139.726,58.5195 140.726,58.8529 141.5,59.5 Z"/></g>
<g><path style="opacity:1" fill="#121214" d="M 259.5,54.5 C 259.5,56.5 259.5,58.5 259.5,60.5C 271.012,60.1719 282.346,60.5052 293.5,61.5C 303.849,61.8601 314.182,62.5268 324.5,63.5C 326.952,63.4609 328.952,62.7943 330.5,61.5C 331.5,61.1667 332.167,60.5 332.5,59.5C 333.5,58.8333 334.5,58.1667 335.5,57.5C 335.938,57.4346 336.272,57.6012 336.5,58C 335.695,59.1127 335.028,60.2794 334.5,61.5C 330.6,65.2998 328.267,69.9665 327.5,75.5C 326.681,78.3054 326.181,81.3054 326,84.5C 325.502,81.1832 325.335,77.8499 325.5,74.5C 318.364,73.1692 310.864,72.5025 303,72.5C 295.326,72.5003 287.826,72.8336 280.5,73.5C 262.139,74.9056 244.139,78.2389 226.5,83.5C 221.548,84.4918 216.548,85.1584 211.5,85.5C 213.69,84.3048 216.69,83.4715 220.5,83C 220.833,82.6667 221.167,82.3333 221.5,82C 220.207,81.51 218.873,81.3433 217.5,81.5C 218.833,80.8333 220.167,80.1667 221.5,79.5C 223.686,79.4894 224.519,78.4894 224,76.5C 216.888,79.3856 213.888,77.0523 215,69.5C 216.353,68.3147 217.52,66.9814 218.5,65.5C 217.998,64.479 217.332,64.3123 216.5,65C 212.136,69.6456 211.469,68.979 214.5,63C 214.43,62.2352 214.097,61.7352 213.5,61.5C 213.082,60.7784 212.416,60.2784 211.5,60C 224.833,59.6667 238.167,59.3333 251.5,59C 254.566,57.7939 257.066,55.9606 259,53.5C 259.399,53.7284 259.565,54.0618 259.5,54.5 Z"/></g>
<g><path style="opacity:1" fill="#131415" d="M 210.5,62.5 C 210.128,66.6548 209.128,70.6548 207.5,74.5C 206.319,72.8647 206.319,71.198 207.5,69.5C 206.562,68.4471 205.395,67.7804 204,67.5C 200.929,69.0682 198.762,71.4015 197.5,74.5C 196.319,72.8647 196.319,71.198 197.5,69.5C 199.482,68.7838 201.149,67.6171 202.5,66C 201.207,65.51 199.873,65.3433 198.5,65.5C 198.433,64.0413 198.766,62.7079 199.5,61.5C 202.952,60.1496 206.619,59.6496 210.5,60C 209.402,60.7697 209.402,61.603 210.5,62.5 Z"/></g>
<g><path style="opacity:1" fill="#8e9091" d="M 293.5,61.5 C 293.75,62.9221 294.583,63.9221 296,64.5C 298.507,63.933 301.007,63.5997 303.5,63.5C 304.583,64.365 304.749,65.365 304,66.5C 302.657,65.7865 301.324,66.1198 300,67.5C 299.333,66.8333 298.667,66.1667 298,65.5C 296.333,66.8333 294.667,66.8333 293,65.5C 291.488,66.2567 290.154,67.2567 289,68.5C 287.312,66.9551 285.312,65.9551 283,65.5C 280.534,66.7766 278.034,66.7766 275.5,65.5C 276.369,62.2374 277.703,61.9041 279.5,64.5C 283.03,63.6432 286.363,63.6432 289.5,64.5C 290.852,63.4756 292.185,62.4756 293.5,61.5 Z"/></g>
<g><path style="opacity:1" fill="#acacab" d="M 182.5,57.5 C 185.649,57.2114 188.649,57.7114 191.5,59C 192.38,60.3561 192.714,61.8561 192.5,63.5C 191.518,64.1408 190.518,64.8075 189.5,65.5C 189.12,63.9793 188.954,62.3126 189,60.5C 183.825,58.3502 181.492,60.0168 182,65.5C 184.251,67.3773 186.751,68.8773 189.5,70C 192.822,75.1839 191.489,78.6839 185.5,80.5C 183.5,80.5 181.5,80.5 179.5,80.5C 177.455,76.3621 178.455,73.3621 182.5,71.5C 182.833,71.8333 183.167,72.1667 183.5,72.5C 181.914,74.1727 181.247,76.1727 181.5,78.5C 186.934,79.0204 188.934,76.8537 187.5,72C 184.241,70.7894 181.408,68.9561 179,66.5C 178.333,64.5 178.333,62.5 179,60.5C 180.518,59.8366 181.685,58.8366 182.5,57.5 Z"/></g>
<g><path style="opacity:1" fill="#444246" d="M 180.5,57.5 C 168.479,59.5068 156.479,62.1735 144.5,65.5C 143.749,64.624 143.249,63.624 143,62.5C 142.333,64.1667 142.333,65.8333 143,67.5C 154.22,63.7892 165.72,61.6225 177.5,61C 159.371,64.1157 141.705,68.949 124.5,75.5C 123.534,77.396 123.201,79.396 123.5,81.5C 123.167,81.5 122.833,81.5 122.5,81.5C 122.802,78.9407 122.468,76.6074 121.5,74.5C 122.833,73.8333 124.167,73.1667 125.5,72.5C 130.696,70.4348 136.03,68.7681 141.5,67.5C 141.5,64.8333 141.5,62.1667 141.5,59.5C 142.289,59.2172 142.956,58.7172 143.5,58C 155.829,57.5001 168.162,57.3335 180.5,57.5 Z"/></g>
<g><path style="opacity:1" fill="#b8b7b7" d="M 219.5,67.5 C 224.75,67.3284 225.583,68.9951 222,72.5C 221.5,72.3333 221,72.1667 220.5,72C 223.15,68.7927 222.984,68.2927 220,70.5C 219.51,71.7932 219.343,73.1266 219.5,74.5C 221.331,73.9478 222.997,73.9478 224.5,74.5C 219.308,77.9227 216.808,76.5894 217,70.5C 218.045,69.6266 218.878,68.6266 219.5,67.5 Z"/></g>
<g><path style="opacity:1" fill="#63af33" d="M 401.5,70.5 C 398.506,72.1115 395.172,73.4449 391.5,74.5C 389.218,73.7766 386.884,73.4433 384.5,73.5C 383.261,71.2989 381.928,69.1322 380.5,67C 380.833,66.8333 381.167,66.6667 381.5,66.5C 388.195,67.8418 394.862,69.1752 401.5,70.5 Z"/></g>
<g><path style="opacity:1" fill="#bdbdbd" d="M 197.5,61.5 C 198.167,61.5 198.833,61.5 199.5,61.5C 198.766,62.7079 198.433,64.0413 198.5,65.5C 199.873,65.3433 201.207,65.51 202.5,66C 201.149,67.6171 199.482,68.7838 197.5,69.5C 196.319,71.198 196.319,72.8647 197.5,74.5C 198.762,71.4015 200.929,69.0682 204,67.5C 205.395,67.7804 206.562,68.4471 207.5,69.5C 206.319,71.198 206.319,72.8647 207.5,74.5C 209.128,70.6548 210.128,66.6548 210.5,62.5C 211.391,61.8902 212.391,61.5569 213.5,61.5C 214.097,61.7352 214.43,62.2352 214.5,63C 211.469,68.979 212.136,69.6456 216.5,65C 217.332,64.3123 217.998,64.479 218.5,65.5C 217.52,66.9814 216.353,68.3147 215,69.5C 213.888,77.0523 216.888,79.3856 224,76.5C 224.519,78.4894 223.686,79.4894 221.5,79.5C 219.379,79.6747 217.379,79.3414 215.5,78.5C 213.82,76.4726 212.653,74.1392 212,71.5C 211.506,73.1341 211.34,74.8008 211.5,76.5C 205.774,76.2641 200.108,76.0974 194.5,76C 194.014,73.9734 194.014,71.8067 194.5,69.5C 193.022,69.762 191.689,69.4287 190.5,68.5C 191.85,67.0499 193.516,66.3832 195.5,66.5C 195.12,64.302 195.787,62.6354 197.5,61.5 Z"/></g>
<g><path style="opacity:1" fill="#1d1e1f" d="M 203.5,69.5 C 204.239,69.369 204.906,69.5357 205.5,70C 204.95,71.8446 203.95,73.3446 202.5,74.5C 201.799,72.8084 202.133,71.1417 203.5,69.5 Z"/></g>
<g><path style="opacity:1" fill="#131616" d="M 180.5,57.5 C 181.167,57.5 181.833,57.5 182.5,57.5C 181.685,58.8366 180.518,59.8366 179,60.5C 178.333,62.5 178.333,64.5 179,66.5C 181.408,68.9561 184.241,70.7894 187.5,72C 188.934,76.8537 186.934,79.0204 181.5,78.5C 181.247,76.1727 181.914,74.1727 183.5,72.5C 183.167,72.1667 182.833,71.8333 182.5,71.5C 178.455,73.3621 177.455,76.3621 179.5,80.5C 163.8,78.1361 148.133,78.1361 132.5,80.5C 130.104,81.3005 127.771,82.3005 125.5,83.5C 126.381,84.9705 127.714,85.8038 129.5,86C 128.552,86.4828 127.552,86.6495 126.5,86.5C 124.75,85.3406 123.75,83.674 123.5,81.5C 123.201,79.396 123.534,77.396 124.5,75.5C 141.705,68.949 159.371,64.1157 177.5,61C 165.72,61.6225 154.22,63.7892 143,67.5C 142.333,65.8333 142.333,64.1667 143,62.5C 143.249,63.624 143.749,64.624 144.5,65.5C 156.479,62.1735 168.479,59.5068 180.5,57.5 Z"/></g>
<g><path style="opacity:1" fill="#1c6a2f" d="M 280.5,73.5 C 287.826,72.8336 295.326,72.5003 303,72.5C 310.864,72.5025 318.364,73.1692 325.5,74.5C 314.148,74.3725 302.815,74.7059 291.5,75.5C 292.952,74.6981 294.618,74.1981 296.5,74C 291.177,73.5006 285.844,73.334 280.5,73.5 Z"/></g>
<g><path style="opacity:1" fill="#7c797b" d="M 15.5,72.5 C 16.5,72.5 17.5,72.5 18.5,72.5C 20.1106,74.8334 19.6106,76.5001 17,77.5C 14.3894,76.5001 13.8894,74.8334 15.5,72.5 Z"/></g>
<g><path style="opacity:1" fill="#0c602a" d="M 69.5,67.5 C 75.0164,72.2242 76.8497,78.2242 75,85.5C 73.896,88.7212 72.0626,91.3878 69.5,93.5C 66.4188,97.0903 62.4188,98.757 57.5,98.5C 52.5812,98.757 48.5812,97.0903 45.5,93.5C 42.5947,91.244 40.928,88.244 40.5,84.5C 38.332,77.805 39.9986,72.1383 45.5,67.5C 48.5065,63.6689 52.5065,62.0022 57.5,62.5C 62.4935,62.0022 66.4935,63.6689 69.5,67.5 Z"/></g>
<g><path style="opacity:1" fill="#030e05" d="M 69.5,67.5 C 69.5852,68.9953 68.9185,69.9953 67.5,70.5C 65.9991,69.2485 64.3325,68.2485 62.5,67.5C 61.6143,66.675 61.281,65.675 61.5,64.5C 64.4056,64.9565 67.0722,65.9565 69.5,67.5 Z"/></g>
<g><path style="opacity:1" fill="#000702" d="M 45.5,67.5 C 47.9278,65.9565 50.5944,64.9565 53.5,64.5C 53.719,65.675 53.3857,66.675 52.5,67.5C 50.7419,68.1279 49.2419,69.1279 48,70.5C 46.955,69.6266 46.1217,68.6266 45.5,67.5 Z"/></g>
<g><path style="opacity:1" fill="#181718" d="M 360.5,48.5 C 367.526,52.3504 373.859,57.1837 379.5,63C 386.968,65.4331 394.302,67.9331 401.5,70.5C 394.862,69.1752 388.195,67.8418 381.5,66.5C 381.167,66.6667 380.833,66.8333 380.5,67C 381.928,69.1322 383.261,71.2989 384.5,73.5C 383.596,74.209 383.263,75.209 383.5,76.5C 382.732,75.7375 382.232,74.7375 382,73.5C 381.601,73.7284 381.435,74.0618 381.5,74.5C 380.245,70.6571 378.412,66.9905 376,63.5C 375.163,61.9926 373.996,61.4926 372.5,62C 379.045,69.3118 381.212,77.8118 379,87.5C 377.077,91.6821 374.911,95.6821 372.5,99.5C 372.782,100.778 373.449,101.778 374.5,102.5C 366.636,109.947 357.303,112.447 346.5,110C 337.078,106.742 330.411,100.576 326.5,91.5C 326.833,90.1667 327.167,88.8333 327.5,87.5C 329.211,91.907 331.711,95.907 335,99.5C 333.686,95.8575 332.019,92.1908 330,88.5C 327.094,78.7939 328.928,70.1272 335.5,62.5C 336.397,61.4019 337.23,61.4019 338,62.5C 340.637,60.109 343.47,58.109 346.5,56.5C 351.5,56.5 356.5,56.5 361.5,56.5C 361.5,55.1667 361.5,53.8333 361.5,52.5C 357.167,52.5 352.833,52.5 348.5,52.5C 352.647,51.6753 356.981,51.1753 361.5,51C 360.748,50.3292 360.414,49.4959 360.5,48.5 Z"/></g>
<g><path style="opacity:1" fill="#0c692e" d="M 358.5,64.5 C 358.281,65.675 358.614,66.675 359.5,67.5C 361.258,68.1279 362.758,69.1279 364,70.5C 365.045,69.6266 365.878,68.6266 366.5,67.5C 372.001,72.1383 373.668,77.805 371.5,84.5C 367.927,95.6296 360.261,100.13 348.5,98C 345.894,97.2082 343.894,95.7082 342.5,93.5C 339.834,91.5106 338.167,88.844 337.5,85.5C 338.167,85.5 338.5,85.1667 338.5,84.5C 339.748,83.6661 340.415,82.3328 340.5,80.5C 340.489,78.9549 340.156,77.6216 339.5,76.5C 338.833,75.8333 338.167,75.1667 337.5,74.5C 337.328,73.5084 337.662,72.8417 338.5,72.5C 339.482,73.1408 340.482,73.8075 341.5,74.5C 342.739,72.9928 342.405,71.8261 340.5,71C 341.044,70.2828 341.711,69.7828 342.5,69.5C 343.15,69.8039 343.817,70.1373 344.5,70.5C 346.001,69.2485 347.668,68.2485 349.5,67.5C 350.386,66.675 350.719,65.675 350.5,64.5C 352.011,65.5025 353.678,66.1692 355.5,66.5C 355.5,65.5 355.5,64.5 355.5,63.5C 356.791,63.2627 357.791,63.596 358.5,64.5 Z"/></g>
<g><path style="opacity:1" fill="#08441c" d="M 366.5,67.5 C 363.807,66.4485 361.14,65.4485 358.5,64.5C 357.791,63.596 356.791,63.2627 355.5,63.5C 355.5,64.5 355.5,65.5 355.5,66.5C 353.678,66.1692 352.011,65.5025 350.5,64.5C 346.791,64.679 344.124,66.3457 342.5,69.5C 341.711,69.7828 341.044,70.2828 340.5,71C 342.405,71.8261 342.739,72.9928 341.5,74.5C 340.482,73.8075 339.482,73.1408 338.5,72.5C 343.17,63.6739 350.503,60.5073 360.5,63C 363.106,63.7918 365.106,65.2918 366.5,67.5 Z"/></g>
<g><path style="opacity:1" fill="#000602" d="M 358.5,64.5 C 361.14,65.4485 363.807,66.4485 366.5,67.5C 365.878,68.6266 365.045,69.6266 364,70.5C 362.758,69.1279 361.258,68.1279 359.5,67.5C 358.614,66.675 358.281,65.675 358.5,64.5 Z"/></g>
<g><path style="opacity:1" fill="#030e05" d="M 350.5,64.5 C 350.719,65.675 350.386,66.675 349.5,67.5C 347.668,68.2485 346.001,69.2485 344.5,70.5C 343.817,70.1373 343.15,69.8039 342.5,69.5C 344.124,66.3457 346.791,64.679 350.5,64.5 Z"/></g>
<g><path style="opacity:1" fill="#010a03" d="M 40.5,84.5 C 40.5,81.8333 40.5,79.1667 40.5,76.5C 41.5,76.5 42.5,76.5 43.5,76.5C 43.5,79.1667 43.5,81.8333 43.5,84.5C 42.5,84.5 41.5,84.5 40.5,84.5 Z"/></g>
<g><path style="opacity:1" fill="#010402" d="M 71.5,76.5 C 72.5,76.5 73.5,76.5 74.5,76.5C 74.5,79.1667 74.5,81.8333 74.5,84.5C 73.5,84.5 72.5,84.5 71.5,84.5C 71.5,81.8333 71.5,79.1667 71.5,76.5 Z"/></g>
<g><path style="opacity:0.957" fill="#121211" d="M 325.5,74.5 C 325.335,77.8499 325.502,81.1832 326,84.5C 326.181,81.3054 326.681,78.3054 327.5,75.5C 327.5,79.5 327.5,83.5 327.5,87.5C 327.167,88.8333 326.833,90.1667 326.5,91.5C 325.262,89.7857 324.595,87.7857 324.5,85.5C 322.5,85.5 320.5,85.5 318.5,85.5C 318.248,88.2438 318.915,90.7438 320.5,93C 317.896,96.546 317.896,100.046 320.5,103.5C 309.52,104.499 298.52,104.832 287.5,104.5C 287.833,103.833 288.167,103.167 288.5,102.5C 288.666,95.825 288.5,89.1583 288,82.5C 287.5,82 287,81.5 286.5,81C 287.973,80.2904 288.64,79.1238 288.5,77.5C 286.265,77.7947 284.265,77.4614 282.5,76.5C 285.455,75.8413 288.455,75.5079 291.5,75.5C 302.815,74.7059 314.148,74.3725 325.5,74.5 Z"/></g>
<g><path style="opacity:1" fill="#ece70f" d="M 334.5,61.5 C 335.167,61.5 335.5,61.8333 335.5,62.5C 328.928,70.1272 327.094,78.7939 330,88.5C 332.019,92.1908 333.686,95.8575 335,99.5C 331.711,95.907 329.211,91.907 327.5,87.5C 327.5,83.5 327.5,79.5 327.5,75.5C 328.267,69.9665 330.6,65.2998 334.5,61.5 Z"/></g>
<g><path style="opacity:1" fill="#010301" d="M 339.5,76.5 C 340.156,77.6216 340.489,78.9549 340.5,80.5C 340.415,82.3328 339.748,83.6661 338.5,84.5C 337.844,83.3784 337.511,82.0451 337.5,80.5C 337.585,78.6672 338.252,77.3339 339.5,76.5 Z"/></g>
<g><path style="opacity:1" fill="#020c02" d="M 352.5,68.5 C 355.168,68.6663 357.502,69.6663 359.5,71.5C 360.451,70.6744 361.451,70.5078 362.5,71C 362.725,74.3268 364.059,77.4935 366.5,80.5C 365.5,82.1667 364.5,83.8333 363.5,85.5C 364.326,86.451 364.492,87.451 364,88.5C 360.673,88.7253 357.506,90.0587 354.5,92.5C 352.417,91.0413 350.25,89.7079 348,88.5C 346.816,90.6538 345.65,90.3205 344.5,87.5C 344.833,86.8333 345.167,86.1667 345.5,85.5C 344.5,83.8333 343.5,82.1667 342.5,80.5C 343.669,78.5801 344.669,76.5801 345.5,74.5C 344.524,72.8767 345.024,71.5433 347,70.5C 349.609,71.9085 351.442,71.2418 352.5,68.5 Z"/></g>
<g><path style="opacity:1" fill="#242425" d="M 350.5,73.5 C 358.272,71.7807 361.772,74.7807 361,82.5C 359.348,87.0384 356.182,88.5384 351.5,87C 345.317,82.921 344.983,78.421 350.5,73.5 Z"/></g>
<g><path style="opacity:1" fill="#051609" d="M 371.5,84.5 C 370.178,84.67 369.011,84.3366 368,83.5C 367.503,81.1902 367.337,78.8568 367.5,76.5C 368.833,76.5 370.167,76.5 371.5,76.5C 371.5,79.1667 371.5,81.8333 371.5,84.5 Z"/></g>
<g><path style="opacity:1" fill="#ddd613" d="M 381.5,74.5 C 382.329,82.8491 380.496,90.5158 376,97.5C 375.184,98.8228 374.017,99.4894 372.5,99.5C 374.911,95.6821 377.077,91.6821 379,87.5C 381.212,77.8118 379.045,69.3118 372.5,62C 373.996,61.4926 375.163,61.9926 376,63.5C 378.412,66.9905 380.245,70.6571 381.5,74.5 Z"/></g>
<g><path style="opacity:1" fill="#239537" d="M 280.5,73.5 C 285.844,73.334 291.177,73.5006 296.5,74C 294.618,74.1981 292.952,74.6981 291.5,75.5C 288.455,75.5079 285.455,75.8413 282.5,76.5C 265.957,78.5344 249.624,81.5344 233.5,85.5C 230.933,85.2785 228.599,84.6118 226.5,83.5C 244.139,78.2389 262.139,74.9056 280.5,73.5 Z"/></g>
<g><path style="opacity:1" fill="#023a17" d="M 337.5,74.5 C 338.167,75.1667 338.833,75.8333 339.5,76.5C 338.252,77.3339 337.585,78.6672 337.5,80.5C 337.511,82.0451 337.844,83.3784 338.5,84.5C 338.5,85.1667 338.167,85.5 337.5,85.5C 334.833,81.8333 334.833,78.1667 337.5,74.5 Z"/></g>
<g><path style="opacity:1" fill="#2b3f36" d="M 179.5,80.5 C 181.5,80.5 183.5,80.5 185.5,80.5C 188.526,82.0186 191.859,82.6852 195.5,82.5C 202.477,82.0832 209.143,80.7499 215.5,78.5C 217.379,79.3414 219.379,79.6747 221.5,79.5C 220.167,80.1667 218.833,80.8333 217.5,81.5C 200.819,84.2532 184.152,84.0865 167.5,81C 155.646,80.6829 143.979,80.5162 132.5,80.5C 148.133,78.1361 163.8,78.1361 179.5,80.5 Z"/></g>
<g><path style="opacity:1" fill="#151e1a" d="M 192.5,63.5 C 193.404,62.791 193.737,61.791 193.5,60.5C 195.099,60.2322 196.432,60.5655 197.5,61.5C 195.787,62.6354 195.12,64.302 195.5,66.5C 193.516,66.3832 191.85,67.0499 190.5,68.5C 191.689,69.4287 193.022,69.762 194.5,69.5C 194.014,71.8067 194.014,73.9734 194.5,76C 200.108,76.0974 205.774,76.2641 211.5,76.5C 211.34,74.8008 211.506,73.1341 212,71.5C 212.653,74.1392 213.82,76.4726 215.5,78.5C 209.143,80.7499 202.477,82.0832 195.5,82.5C 191.859,82.6852 188.526,82.0186 185.5,80.5C 191.489,78.6839 192.822,75.1839 189.5,70C 186.751,68.8773 184.251,67.3773 182,65.5C 181.492,60.0168 183.825,58.3502 189,60.5C 188.954,62.3126 189.12,63.9793 189.5,65.5C 190.518,64.8075 191.518,64.1408 192.5,63.5 Z"/></g>
<g><path style="opacity:1" fill="#112219" d="M 132.5,80.5 C 143.979,80.5162 155.646,80.6829 167.5,81C 184.152,84.0865 200.819,84.2532 217.5,81.5C 218.873,81.3433 220.207,81.51 221.5,82C 221.167,82.3333 220.833,82.6667 220.5,83C 216.69,83.4715 213.69,84.3048 211.5,85.5C 203.064,87.1289 194.397,87.9622 185.5,88C 167.489,88.6815 149.489,88.5148 131.5,87.5C 129.585,87.7845 127.919,87.4511 126.5,86.5C 127.552,86.6495 128.552,86.4828 129.5,86C 127.714,85.8038 126.381,84.9705 125.5,83.5C 127.771,82.3005 130.104,81.3005 132.5,80.5 Z"/></g>
<g><path style="opacity:1" fill="#030f04" d="M 55.5,68.5 C 58.2625,68.7964 60.7625,69.7964 63,71.5C 63.3333,70.8333 63.6667,70.1667 64,69.5C 65.1667,70.6667 66.3333,71.8333 67.5,73C 67.0426,73.414 66.7093,73.914 66.5,74.5C 67.3306,76.5801 68.3306,78.5801 69.5,80.5C 68.5,82.1667 67.5,83.8333 66.5,85.5C 67.3256,86.451 67.4922,87.451 67,88.5C 63.6732,88.7253 60.5065,90.0587 57.5,92.5C 54.4935,90.0587 51.3268,88.7253 48,88.5C 47.5078,87.451 47.6744,86.451 48.5,85.5C 44.1255,79.7894 44.7922,74.7894 50.5,70.5C 52.9414,71.7795 54.6081,71.1128 55.5,68.5 Z"/></g>
<g><path style="opacity:1" fill="#232325" d="M 53.5,73.5 C 63.4929,72.6552 66.4929,76.8219 62.5,86C 58.4071,88.3169 54.7405,87.8169 51.5,84.5C 49.9059,80.3958 50.5726,76.7292 53.5,73.5 Z"/></g>
<g><path style="opacity:1" fill="#989233" d="M 56.5,79.5 C 58.337,79.6395 58.6704,80.3061 57.5,81.5C 56.7025,81.0431 56.3691,80.3764 56.5,79.5 Z"/></g>
<g><path style="opacity:1" fill="#534e51" d="M 106.5,81.5 C 106.5,82.5 106.5,83.5 106.5,84.5C 103.484,84.8406 100.818,86.0073 98.5,88C 96.5,88.6667 94.5,88.6667 92.5,88C 97.037,85.565 101.704,83.3983 106.5,81.5 Z"/></g>
<g><path style="opacity:1" fill="#298a3c" d="M 121.5,74.5 C 122.468,76.6074 122.802,78.9407 122.5,81.5C 120.438,82.7763 118.104,83.6097 115.5,84C 114.5,86.3333 112.833,88 110.5,89C 119.81,89.8281 119.81,90.3281 110.5,90.5C 107.914,89.5134 106.581,87.5134 106.5,84.5C 106.5,83.5 106.5,82.5 106.5,81.5C 107.122,79.665 108.456,78.4983 110.5,78C 114.021,76.3262 117.687,75.1596 121.5,74.5 Z"/></g>
<g><path style="opacity:0.926" fill="#0b100e" d="M 401.5,70.5 C 403.099,70.2322 404.432,70.5655 405.5,71.5C 402.201,72.9015 401.868,74.7348 404.5,77C 402.606,78.0793 402.273,79.4126 403.5,81C 406.123,80.1637 408.956,79.6637 412,79.5C 415.073,79.4805 417.907,80.1472 420.5,81.5C 419.948,79.6693 419.948,78.0026 420.5,76.5C 419.059,76.3631 417.726,75.3631 416.5,73.5C 415.201,74.09 414.368,75.09 414,76.5C 410.756,72.3505 408.756,73.0172 408,78.5C 406.647,77.3147 405.48,75.9814 404.5,74.5C 405.631,73.3961 406.465,73.7295 407,75.5C 408.768,74.3181 408.935,72.9848 407.5,71.5C 411.146,70.7166 414.812,70.5499 418.5,71C 421.813,73.9834 424.813,77.3167 427.5,81C 432.01,82.4182 436.01,84.5849 439.5,87.5C 435.392,86.5309 431.559,84.8642 428,82.5C 427.493,83.9961 427.993,85.1627 429.5,86C 434.08,87.6378 438.58,89.4712 443,91.5C 443.765,91.4301 444.265,91.0967 444.5,90.5C 446.104,91.287 446.771,92.6203 446.5,94.5C 441.584,94.2899 437.251,95.7899 433.5,99C 432.167,99.1667 430.833,99.3333 429.5,99.5C 419.877,99.1106 410.377,98.1106 401,96.5C 398.724,97.645 396.557,97.3117 394.5,95.5C 393.558,95.6082 392.725,95.9415 392,96.5C 391.502,93.5184 391.335,90.5184 391.5,87.5C 388.794,87.4249 386.127,87.0916 383.5,86.5C 382.563,93.0459 379.563,98.3792 374.5,102.5C 373.449,101.778 372.782,100.778 372.5,99.5C 374.017,99.4894 375.184,98.8228 376,97.5C 380.496,90.5158 382.329,82.8491 381.5,74.5C 381.435,74.0618 381.601,73.7284 382,73.5C 382.232,74.7375 382.732,75.7375 383.5,76.5C 383.263,75.209 383.596,74.209 384.5,73.5C 386.884,73.4433 389.218,73.7766 391.5,74.5C 395.172,73.4449 398.506,72.1115 401.5,70.5 Z"/></g>
<g><path style="opacity:1" fill="#219135" d="M 392.5,82.5 C 405.722,84.1467 418.722,86.6467 431.5,90C 418.677,87.4542 405.677,85.9542 392.5,85.5C 392.5,84.5 392.5,83.5 392.5,82.5 Z"/></g>
<g><path style="opacity:1" fill="#175d2a" d="M 383.5,76.5 C 386.843,77.2239 390.176,78.0572 393.5,79C 390.5,79.6667 387.5,79.6667 384.5,79C 383.748,78.3292 383.414,77.4959 383.5,76.5 Z"/></g>
<g><path style="opacity:1" fill="#9e9f9f" d="M 405.5,71.5 C 406.167,71.5 406.833,71.5 407.5,71.5C 408.935,72.9848 408.768,74.3181 407,75.5C 406.465,73.7295 405.631,73.3961 404.5,74.5C 405.48,75.9814 406.647,77.3147 408,78.5C 408.756,73.0172 410.756,72.3505 414,76.5C 414.368,75.09 415.201,74.09 416.5,73.5C 417.726,75.3631 419.059,76.3631 420.5,76.5C 419.948,78.0026 419.948,79.6693 420.5,81.5C 417.907,80.1472 415.073,79.4805 412,79.5C 408.956,79.6637 406.123,80.1637 403.5,81C 402.273,79.4126 402.606,78.0793 404.5,77C 401.868,74.7348 402.201,72.9015 405.5,71.5 Z"/></g>
<g><path style="opacity:1" fill="#086831" d="M 122.5,81.5 C 122.833,81.5 123.167,81.5 123.5,81.5C 123.75,83.674 124.75,85.3406 126.5,86.5C 127.919,87.4511 129.585,87.7845 131.5,87.5C 133.631,88.3138 135.964,88.8138 138.5,89C 135.5,89.3333 132.5,89.6667 129.5,90C 132.833,90.3333 136.167,90.6667 139.5,91C 135.848,91.4986 132.182,91.6653 128.5,91.5C 122.31,91.8229 116.31,91.4896 110.5,90.5C 119.81,90.3281 119.81,89.8281 110.5,89C 112.833,88 114.5,86.3333 115.5,84C 118.104,83.6097 120.438,82.7763 122.5,81.5 Z"/></g>
<g><path style="opacity:1" fill="#1a4d24" d="M 226.5,83.5 C 228.599,84.6118 230.933,85.2785 233.5,85.5C 230.113,86.2879 226.78,87.2879 223.5,88.5C 213.513,89.6201 203.513,90.6201 193.5,91.5C 187.848,92.0318 182.181,92.3651 176.5,92.5C 172.833,92.5 169.167,92.5 165.5,92.5C 153.167,92.5 140.833,92.5 128.5,92.5C 128.5,92.1667 128.5,91.8333 128.5,91.5C 132.182,91.6653 135.848,91.4986 139.5,91C 136.167,90.6667 132.833,90.3333 129.5,90C 132.5,89.6667 135.5,89.3333 138.5,89C 135.964,88.8138 133.631,88.3138 131.5,87.5C 149.489,88.5148 167.489,88.6815 185.5,88C 194.397,87.9622 203.064,87.1289 211.5,85.5C 216.548,85.1584 221.548,84.4918 226.5,83.5 Z"/></g>
<g><path style="opacity:1" fill="#63b233" d="M 439.5,87.5 C 441.332,88.2485 442.999,89.2485 444.5,90.5C 444.265,91.0967 443.765,91.4301 443,91.5C 438.58,89.4712 434.08,87.6378 429.5,86C 427.993,85.1627 427.493,83.9961 428,82.5C 431.559,84.8642 435.392,86.5309 439.5,87.5 Z"/></g>
<g><path style="opacity:1" fill="#ddd614" d="M 37.5,61.5 C 38.2389,61.369 38.9056,61.5357 39.5,62C 38.1772,62.8159 37.5106,63.9826 37.5,65.5C 35.8639,66.7489 34.6972,68.4156 34,70.5C 30.7035,80.9319 32.5369,90.2652 39.5,98.5C 38.9984,99.521 38.3317,99.6877 37.5,99C 28.1904,86.5005 28.1904,74.0005 37.5,61.5 Z"/></g>
<g><path style="opacity:1" fill="#030d05" d="M 45.5,93.5 C 45.4148,92.0047 46.0815,91.0047 47.5,90.5C 50.1332,91.3001 52.1332,92.8001 53.5,95C 53.1667,95.5 52.8333,96 52.5,96.5C 50.2612,95.2122 47.9279,94.2122 45.5,93.5 Z"/></g>
<g><path style="opacity:1" fill="#020a04" d="M 69.5,93.5 C 67.3071,94.6805 64.9738,95.6805 62.5,96.5C 62.3883,93.5597 64.0549,91.5597 67.5,90.5C 68.9185,91.0047 69.5852,92.0047 69.5,93.5 Z"/></g>
<g><path style="opacity:1" fill="#020a04" d="M 342.5,93.5 C 342.415,92.0047 343.081,91.0047 344.5,90.5C 347.945,91.5597 349.612,93.5597 349.5,96.5C 347.026,95.6805 344.693,94.6805 342.5,93.5 Z"/></g>
<g><path style="opacity:1" fill="#020803" d="M 362.5,90.5 C 363.995,90.4148 364.995,91.0815 365.5,92.5C 363.882,94.316 361.882,95.6493 359.5,96.5C 358.417,95.635 358.251,94.635 359,93.5C 360.518,92.8366 361.685,91.8366 362.5,90.5 Z"/></g>
<g><path style="opacity:1" fill="#202323" d="M 282.5,76.5 C 284.265,77.4614 286.265,77.7947 288.5,77.5C 288.64,79.1238 287.973,80.2904 286.5,81C 287,81.5 287.5,82 288,82.5C 288.5,89.1583 288.666,95.825 288.5,102.5C 287.672,96.3466 287.172,90.0133 287,83.5C 285.278,81.5559 283.111,80.5559 280.5,80.5C 277.219,81.6584 273.886,82.8251 270.5,84C 265.769,89.7287 259.769,93.3954 252.5,95C 250.667,96.8333 248.833,98.6667 247,100.5C 246.586,100.043 246.086,99.7093 245.5,99.5C 234.695,99.8405 224.029,100.84 213.5,102.5C 212.205,101.902 210.872,101.402 209.5,101C 196.865,99.4471 184.198,98.7804 171.5,99C 166.19,100.777 160.857,102.11 155.5,103C 159.916,100.749 164.583,99.0825 169.5,98C 182.879,97.3809 196.212,97.8809 209.5,99.5C 212.038,96.5789 215.704,94.4123 220.5,93C 219.24,91.887 218.073,91.7203 217,92.5C 216.312,91.6683 216.479,91.0016 217.5,90.5C 219.657,89.9495 221.657,89.2829 223.5,88.5C 226.78,87.2879 230.113,86.2879 233.5,85.5C 249.624,81.5344 265.957,78.5344 282.5,76.5 Z"/></g>
<g><path style="opacity:1" fill="#373939" d="M 193.5,91.5 C 195.042,92.1635 196.709,92.8302 198.5,93.5C 196.015,96.0769 193.515,96.0769 191,93.5C 187.713,95.7917 184.213,96.4584 180.5,95.5C 181.999,94.0962 181.666,93.4296 179.5,93.5C 176.713,96.4736 173.379,97.1403 169.5,95.5C 171.764,94.1308 174.097,93.1308 176.5,92.5C 182.181,92.3651 187.848,92.0318 193.5,91.5 Z"/></g>
<g><path style="opacity:1" fill="#ddd716" d="M 82.5,67.5 C 85.7374,77.5084 84.904,87.1751 80,96.5C 78.8867,98.3293 77.3867,99.1626 75.5,99C 80.5001,93.8347 82.8334,87.668 82.5,80.5C 83.3474,74.5559 81.6808,69.5559 77.5,65.5C 77.4894,63.9826 76.8228,62.8159 75.5,62C 75.8333,61.8333 76.1667,61.6667 76.5,61.5C 78.8818,63.215 80.8818,65.215 82.5,67.5 Z"/></g>
<g><path style="opacity:1" fill="#242425" d="M 128.5,92.5 C 140.833,92.5 153.167,92.5 165.5,92.5C 166.172,93.2674 167.005,93.9341 168,94.5C 168.688,95.3317 168.521,95.9984 167.5,96.5C 165.868,95.7026 164.368,94.7026 163,93.5C 161.431,96.2657 159.264,96.9324 156.5,95.5C 157.025,94.8076 157.692,94.3076 158.5,94C 156.741,93.2025 155.074,93.3691 153.5,94.5C 154.771,96.8287 156.771,97.9953 159.5,98C 156.5,98.8333 153.5,99.6667 150.5,100.5C 150.291,101.086 149.957,101.586 149.5,102C 150.756,102.417 151.423,103.25 151.5,104.5C 133.508,103.834 115.508,103.5 97.5,103.5C 106.991,102.67 116.658,102.17 126.5,102C 125.737,101.056 124.737,100.556 123.5,100.5C 118.126,101.863 112.792,101.696 107.5,100C 106.359,99.2588 106.359,98.4255 107.5,97.5C 102.844,96.8077 98.5108,95.3077 94.5,93C 101.583,93.8508 108.583,95.0175 115.5,96.5C 117.833,96.3333 120.167,96.1667 122.5,96C 119.118,95.8236 115.785,95.3236 112.5,94.5C 116.122,93.3414 119.789,93.1747 123.5,94C 125.131,95.8356 125.798,95.3356 125.5,92.5C 126.5,92.5 127.5,92.5 128.5,92.5 Z"/></g>
<g><path style="opacity:1" fill="#a0a0a3" d="M 143.5,93.5 C 146.572,93.1826 149.572,93.5159 152.5,94.5C 151,94.8333 149.5,95.1667 148,95.5C 146.014,95.4313 144.514,94.7647 143.5,93.5 Z"/></g>
<g><path style="opacity:0.732" fill="#0c0f0e" d="M 288.5,102.5 C 288.167,103.167 287.833,103.833 287.5,104.5C 242.167,104.5 196.833,104.5 151.5,104.5C 151.423,103.25 150.756,102.417 149.5,102C 149.957,101.586 150.291,101.086 150.5,100.5C 153.5,99.6667 156.5,98.8333 159.5,98C 156.771,97.9953 154.771,96.8287 153.5,94.5C 155.074,93.3691 156.741,93.2025 158.5,94C 157.692,94.3076 157.025,94.8076 156.5,95.5C 159.264,96.9324 161.431,96.2657 163,93.5C 164.368,94.7026 165.868,95.7026 167.5,96.5C 168.521,95.9984 168.688,95.3317 168,94.5C 167.005,93.9341 166.172,93.2674 165.5,92.5C 169.167,92.5 172.833,92.5 176.5,92.5C 174.097,93.1308 171.764,94.1308 169.5,95.5C 173.379,97.1403 176.713,96.4736 179.5,93.5C 181.666,93.4296 181.999,94.0962 180.5,95.5C 184.213,96.4584 187.713,95.7917 191,93.5C 193.515,96.0769 196.015,96.0769 198.5,93.5C 196.709,92.8302 195.042,92.1635 193.5,91.5C 203.513,90.6201 213.513,89.6201 223.5,88.5C 221.657,89.2829 219.657,89.9495 217.5,90.5C 216.479,91.0016 216.312,91.6683 217,92.5C 218.073,91.7203 219.24,91.887 220.5,93C 215.704,94.4123 212.038,96.5789 209.5,99.5C 196.212,97.8809 182.879,97.3809 169.5,98C 164.583,99.0825 159.916,100.749 155.5,103C 160.857,102.11 166.19,100.777 171.5,99C 184.198,98.7804 196.865,99.4471 209.5,101C 210.872,101.402 212.205,101.902 213.5,102.5C 224.029,100.84 234.695,99.8405 245.5,99.5C 246.086,99.7093 246.586,100.043 247,100.5C 248.833,98.6667 250.667,96.8333 252.5,95C 259.769,93.3954 265.769,89.7287 270.5,84C 273.886,82.8251 277.219,81.6584 280.5,80.5C 283.111,80.5559 285.278,81.5559 287,83.5C 287.172,90.0133 287.672,96.3466 288.5,102.5 Z"/></g>
<g><path style="opacity:1" fill="#777a7a" d="M 269.5,91.5 C 270.397,92.5981 271.23,92.5981 272,91.5C 272.667,94.1667 273.333,94.1667 274,91.5C 277.415,92.0491 281.248,92.0491 285.5,91.5C 285.649,92.552 285.483,93.552 285,94.5C 284.086,93.3463 283.253,93.513 282.5,95C 283.624,95.2492 284.624,95.7492 285.5,96.5C 280.167,97.8333 274.833,97.8333 269.5,96.5C 273.311,95.2624 273.311,94.5958 269.5,94.5C 269.5,93.5 269.5,92.5 269.5,91.5 Z"/></g>
<g><path style="opacity:1" fill="#676869" d="M 202.5,91.5 C 205.779,91.6396 209.112,91.9729 212.5,92.5C 209.164,93.2396 205.83,93.9062 202.5,94.5C 201.438,93.5754 201.438,92.5754 202.5,91.5 Z"/></g>
<g><path style="opacity:1" fill="#8d8633" d="M 42.5,103.5 C 45.4225,102.25 48.0891,102.917 50.5,105.5C 50.1667,105.833 49.8333,106.167 49.5,106.5C 47.2612,105.212 44.9279,104.212 42.5,103.5 Z"/></g>
<g><path style="opacity:1" fill="#7a7030" d="M 339.5,103.5 C 339.735,102.903 340.235,102.57 341,102.5C 344.221,103.528 347.388,104.694 350.5,106C 349.975,106.692 349.308,107.192 348.5,107.5C 345.441,106.153 342.441,104.82 339.5,103.5 Z"/></g>
<g><path style="opacity:1" fill="#4e482e" d="M 63.5,104.5 C 64.0431,104.56 64.3764,104.893 64.5,105.5C 60.5371,110.36 56.2038,110.693 51.5,106.5C 55.3749,106.061 59.3749,105.394 63.5,104.5 Z"/></g>
</svg>
