<?xml version="1.0" encoding="UTF-8"?>
<!DOCTYPE svg PUBLIC "-//W3C//DTD SVG 1.1//EN" "http://www.w3.org/Graphics/SVG/1.1/DTD/svg11.dtd">
<svg xmlns="http://www.w3.org/2000/svg" version="1.1" width="450px" height="113px" style="shape-rendering:geometricPrecision; text-rendering:geometricPrecision; image-rendering:optimizeQuality; fill-rule:evenodd; clip-rule:evenodd" xmlns:xlink="http://www.w3.org/1999/xlink">
<g><path style="opacity:0.962" fill="#222120" d="M 197.5,27.5 C 193.366,28.4849 189.032,28.8182 184.5,28.5C 184.5,27.8333 184.167,27.5 183.5,27.5C 182.994,25.5713 181.994,23.9047 180.5,22.5C 182.332,21.7515 183.999,20.7515 185.5,19.5C 187.975,20.6868 190.309,20.3535 192.5,18.5C 194.899,21.1075 196.565,24.1075 197.5,27.5 Z"/></g>
<g><path style="opacity:1" fill="#9b8c8e" d="M 183.5,27.5 C 184.167,27.5 184.5,27.8333 184.5,28.5C 184.5,28.8333 184.5,29.1667 184.5,29.5C 184.167,29.5 183.833,29.5 183.5,29.5C 175.167,29.5 166.833,29.5 158.5,29.5C 158.5,29.1667 158.5,28.8333 158.5,28.5C 166.65,27.5073 174.983,27.1739 183.5,27.5 Z"/></g>
<g><path style="opacity:0.592" fill="#eb6d3b" d="M 197.5,27.5 C 198.995,27.9887 200.329,28.6554 201.5,29.5C 195.677,30.5817 190.01,30.5817 184.5,29.5C 184.5,29.1667 184.5,28.8333 184.5,28.5C 189.032,28.8182 193.366,28.4849 197.5,27.5 Z"/></g>
<g><path style="opacity:0.91" fill="#232221" d="M 22.5,34.5 C 22.5,35.1667 22.8333,35.5 23.5,35.5C 27.2984,36.4834 31.2984,36.8168 35.5,36.5C 37.1667,36.5 38.8333,36.5 40.5,36.5C 40.5,35.1667 40.5,33.8333 40.5,32.5C 42.099,32.7678 43.4324,32.4345 44.5,31.5C 49.0226,31.345 52.1893,33.345 54,37.5C 54.4993,42.4889 54.6659,47.4889 54.5,52.5C 59.1208,52.4058 63.4541,53.4058 67.5,55.5C 69.2202,56.3077 70.8869,57.3077 72.5,58.5C 72.5,58.8333 72.5,59.1667 72.5,59.5C 73.6005,60.6049 74.2671,61.9382 74.5,63.5C 73.5084,63.3284 72.8417,63.6618 72.5,64.5C 71.603,63.4019 70.7697,63.4019 70,64.5C 66.9312,61.5545 63.4312,59.5545 59.5,58.5C 59.7208,55.9028 60.2208,55.9028 61,58.5C 61.4828,57.552 61.6495,56.552 61.5,55.5C 56.5,55.5 51.5,55.5 46.5,55.5C 46.5,56.5 46.5,57.5 46.5,58.5C 43.0107,61.08 39.3441,63.4133 35.5,65.5C 36.0367,62.8604 35.2034,62.8604 33,65.5C 30.588,68.9905 28.7547,72.6571 27.5,76.5C 27.5299,75.5028 27.0299,74.8361 26,74.5C 23.6539,74.0098 21.4872,73.3432 19.5,72.5C 21.5,72.5 23.5,72.5 25.5,72.5C 26.7368,71.0351 27.7368,69.3684 28.5,67.5C 30.137,65.5248 31.8036,63.5248 33.5,61.5C 35.899,58.9421 38.7323,56.9421 42,55.5C 42.4993,50.5111 42.6659,45.5111 42.5,40.5C 29.3226,40.1712 16.3226,40.5045 3.5,41.5C 3.36596,43.2915 3.69929,44.9582 4.5,46.5C 3.83333,46.5 3.16667,46.5 2.5,46.5C 2.5,44.1667 2.5,41.8333 2.5,39.5C 9.05693,40.6579 12.2236,37.9912 12,31.5C 13.4443,29.8446 15.2776,29.178 17.5,29.5C 17.5367,32.7016 19.2033,34.3683 22.5,34.5 Z M 29.5,35.5 C 31.7354,35.2053 33.7354,35.5386 35.5,36.5C 31.2984,36.8168 27.2984,36.4834 23.5,35.5C 25.6112,34.6201 27.6112,34.6201 29.5,35.5 Z"/></g>
<g><path style="opacity:1" fill="#403f3e" d="M 44.5,31.5 C 43.4324,32.4345 42.099,32.7678 40.5,32.5C 40.5,33.8333 40.5,35.1667 40.5,36.5C 38.8333,36.5 37.1667,36.5 35.5,36.5C 33.7354,35.5386 31.7354,35.2053 29.5,35.5C 29.7148,33.8212 29.0481,32.8212 27.5,32.5C 27.5,31.1667 27.5,29.8333 27.5,28.5C 33.5606,27.9967 39.2273,28.9967 44.5,31.5 Z"/></g>
<g><path style="opacity:1" fill="#d89971" d="M 183.5,29.5 C 183.833,29.5 184.167,29.5 184.5,29.5C 190.01,30.5817 195.677,30.5817 201.5,29.5C 201.5,30.5 201.5,31.5 201.5,32.5C 195.862,33.2197 190.196,33.553 184.5,33.5C 184.167,33.5 183.833,33.5 183.5,33.5C 183.5,32.1667 183.5,30.8333 183.5,29.5 Z"/></g>
<g><path style="opacity:0.898" fill="#a6a6a6" d="M 27.5,32.5 C 29.0481,32.8212 29.7148,33.8212 29.5,35.5C 27.6112,34.6201 25.6112,34.6201 23.5,35.5C 22.8333,35.5 22.5,35.1667 22.5,34.5C 23.9303,33.4625 25.597,32.7959 27.5,32.5 Z"/></g>
<g><path style="opacity:0.985" fill="#14151d" d="M 158.5,29.5 C 166.833,29.5 175.167,29.5 183.5,29.5C 183.5,30.8333 183.5,32.1667 183.5,33.5C 183.5,35.8333 183.5,38.1667 183.5,40.5C 188.544,40.1725 193.544,40.5059 198.5,41.5C 197.479,43.188 196.145,44.5213 194.5,45.5C 193.81,44.1198 193.476,42.7865 193.5,41.5C 191.889,42.3202 191.222,43.6536 191.5,45.5C 191.331,49.1255 192.831,49.4589 196,46.5C 196.414,46.9574 196.914,47.2907 197.5,47.5C 200.692,46.134 204.026,45.3007 207.5,45C 204.964,44.8138 202.631,44.3138 200.5,43.5C 205.5,43.5 210.5,43.5 215.5,43.5C 210.593,45.624 205.26,47.124 199.5,48C 198.748,48.6708 198.414,49.5041 198.5,50.5C 193.521,50.5268 188.521,50.1935 183.5,49.5C 183.5,48.8333 183.167,48.5 182.5,48.5C 178.351,46.2611 174.018,44.2611 169.5,42.5C 171.604,40.9013 173.604,39.068 175.5,37C 169.151,37.569 162.818,37.4024 156.5,36.5C 154.883,35.962 153.216,35.6287 151.5,35.5C 150.158,34.207 148.491,33.3736 146.5,33C 150.327,31.2103 154.327,30.0436 158.5,29.5 Z M 194.5,45.5 C 193.652,46.625 192.652,46.625 191.5,45.5C 191.222,43.6536 191.889,42.3202 193.5,41.5C 193.476,42.7865 193.81,44.1198 194.5,45.5 Z"/></g>
<g><path style="opacity:1" fill="#7c7e80" d="M 157.5,31.5 C 159.787,33.7666 161.954,33.7666 164,31.5C 166.441,32.2801 169.107,32.2801 172,31.5C 173.326,31.7549 174.326,32.4216 175,33.5C 176.813,32.3909 177.646,33.0576 177.5,35.5C 170.616,34.7463 163.949,34.7463 157.5,35.5C 156.374,34.1916 156.374,32.8583 157.5,31.5 Z"/></g>
<g><path style="opacity:1" fill="#7c362b" d="M 201.5,32.5 C 201.5,33.8333 201.5,35.1667 201.5,36.5C 195.833,36.5 190.167,36.5 184.5,36.5C 184.5,35.5 184.5,34.5 184.5,33.5C 190.196,33.553 195.862,33.2197 201.5,32.5 Z"/></g>
<g><path style="opacity:1" fill="#d4d6dd" d="M 151.5,36.5 C 151.5,36.1667 151.5,35.8333 151.5,35.5C 153.216,35.6287 154.883,35.962 156.5,36.5C 160.649,38.7389 164.982,40.7389 169.5,42.5C 174.018,44.2611 178.351,46.2611 182.5,48.5C 180.708,48.634 179.042,48.3007 177.5,47.5C 170.361,44.118 163.028,41.118 155.5,38.5C 154.329,37.6554 152.995,36.9887 151.5,36.5 Z"/></g>
<g><path style="opacity:1" fill="#373944" d="M 156.5,36.5 C 162.818,37.4024 169.151,37.569 175.5,37C 173.604,39.068 171.604,40.9013 169.5,42.5C 164.982,40.7389 160.649,38.7389 156.5,36.5 Z"/></g>
<g><path style="opacity:0.29" fill="#14151b" d="M 256.5,37.5 C 251.694,38.5926 246.694,39.2593 241.5,39.5C 246.234,37.8554 251.234,37.1888 256.5,37.5 Z"/></g>
<g><path style="opacity:1" fill="#442f34" d="M 183.5,33.5 C 183.833,33.5 184.167,33.5 184.5,33.5C 184.5,34.5 184.5,35.5 184.5,36.5C 190.167,36.5 195.833,36.5 201.5,36.5C 201.326,38.861 200.993,41.1944 200.5,43.5C 202.631,44.3138 204.964,44.8138 207.5,45C 204.026,45.3007 200.692,46.134 197.5,47.5C 196.914,47.2907 196.414,46.9574 196,46.5C 192.831,49.4589 191.331,49.1255 191.5,45.5C 192.652,46.625 193.652,46.625 194.5,45.5C 196.145,44.5213 197.479,43.188 198.5,41.5C 193.544,40.5059 188.544,40.1725 183.5,40.5C 183.5,38.1667 183.5,35.8333 183.5,33.5 Z"/></g>
<g><path style="opacity:1" fill="#707077" d="M 256.5,37.5 C 265.462,40.132 272.796,45.132 278.5,52.5C 277.448,52.6495 276.448,52.4828 275.5,52C 272.271,49.2589 268.938,46.7589 265.5,44.5C 262.755,41.9624 259.422,40.4624 255.5,40C 251.305,39.9187 247.138,40.4187 243,41.5C 241.833,41.3333 240.667,41.1667 239.5,41C 240.416,40.7216 241.082,40.2216 241.5,39.5C 246.694,39.2593 251.694,38.5926 256.5,37.5 Z"/></g>
<g><path style="opacity:0.749" fill="#0b101b" d="M 227.5,40.5 C 227.414,41.4959 227.748,42.3292 228.5,43C 232.841,43.0932 237.174,43.0932 241.5,43C 238.809,43.1558 236.476,43.9891 234.5,45.5C 230.372,45.9922 226.372,46.9922 222.5,48.5C 222.863,49.1835 223.196,49.8501 223.5,50.5C 218.215,47.8517 212.882,47.8517 207.5,50.5C 206.274,50.4805 205.274,50.1471 204.5,49.5C 209.431,46.7379 214.598,46.0712 220,47.5C 220.667,46.8333 220.667,46.1667 220,45.5C 218.698,44.9152 217.531,44.2485 216.5,43.5C 220.046,42.3848 223.712,41.3848 227.5,40.5 Z"/></g>
<g><path style="opacity:1" fill="#184392" d="M 155.5,38.5 C 163.028,41.118 170.361,44.118 177.5,47.5C 172.36,48.4881 167.026,48.8214 161.5,48.5C 164.008,46.7629 167.008,45.9296 170.5,46C 159.195,44.9077 147.862,44.2411 136.5,44C 142.612,41.2386 148.945,39.4053 155.5,38.5 Z"/></g>
<g><path style="opacity:0.139" fill="#1e2b40" d="M 241.5,39.5 C 241.082,40.2216 240.416,40.7216 239.5,41C 240.667,41.1667 241.833,41.3333 243,41.5C 247.138,40.4187 251.305,39.9187 255.5,40C 259.422,40.4624 262.755,41.9624 265.5,44.5C 266.141,45.4822 266.807,46.4822 267.5,47.5C 267.167,47.8333 266.833,48.1667 266.5,48.5C 263.842,45.0057 260.342,43.0057 256,42.5C 254.93,42.528 254.097,42.8614 253.5,43.5C 252.584,43.0183 251.584,42.685 250.5,42.5C 245.155,43.5025 239.822,44.5025 234.5,45.5C 236.476,43.9891 238.809,43.1558 241.5,43C 237.174,43.0932 232.841,43.0932 228.5,43C 227.748,42.3292 227.414,41.4959 227.5,40.5C 232.193,40.4599 236.859,40.1266 241.5,39.5 Z"/></g>
<g><path style="opacity:0.908" fill="#383838" d="M 127.5,37.5 C 117.344,42.7234 106.678,46.8901 95.5,50C 96.0944,50.4643 96.7611,50.631 97.5,50.5C 87.7808,53.0862 77.7808,54.7529 67.5,55.5C 68.1641,52.8632 68.8307,50.1965 69.5,47.5C 88.8625,44.294 108.196,40.9606 127.5,37.5 Z"/></g>
<g><path style="opacity:1" fill="#a0a0ad" d="M 158.5,28.5 C 158.5,28.8333 158.5,29.1667 158.5,29.5C 154.327,30.0436 150.327,31.2103 146.5,33C 148.491,33.3736 150.158,34.207 151.5,35.5C 151.5,35.8333 151.5,36.1667 151.5,36.5C 150.833,36.1667 150.167,35.8333 149.5,35.5C 146.201,34.6239 142.868,34.4572 139.5,35C 129.602,38.4113 119.935,42.4113 110.5,47C 106.284,48.6842 101.951,49.8509 97.5,50.5C 96.7611,50.631 96.0944,50.4643 95.5,50C 106.678,46.8901 117.344,42.7234 127.5,37.5C 137.47,33.5131 147.803,30.5131 158.5,28.5 Z"/></g>
<g><path style="opacity:1" fill="#1e2a53" d="M 149.5,35.5 C 139.97,39.0684 130.303,42.5684 120.5,46C 134.15,47.1656 147.817,47.9989 161.5,48.5C 167.026,48.8214 172.36,48.4881 177.5,47.5C 179.042,48.3007 180.708,48.634 182.5,48.5C 183.167,48.5 183.5,48.8333 183.5,49.5C 181.698,50.4582 179.698,51.1249 177.5,51.5C 154.498,51.3334 131.498,51.5 108.5,52C 98.7821,52.9686 89.1154,54.302 79.5,56C 76.8091,56.1558 74.4758,56.9891 72.5,58.5C 70.8869,57.3077 69.2202,56.3077 67.5,55.5C 77.7808,54.7529 87.7808,53.0862 97.5,50.5C 101.951,49.8509 106.284,48.6842 110.5,47C 119.935,42.4113 129.602,38.4113 139.5,35C 142.868,34.4572 146.201,34.6239 149.5,35.5 Z"/></g>
<g><path style="opacity:1" fill="#4166a7" d="M 149.5,35.5 C 150.167,35.8333 150.833,36.1667 151.5,36.5C 152.995,36.9887 154.329,37.6554 155.5,38.5C 148.945,39.4053 142.612,41.2386 136.5,44C 147.862,44.2411 159.195,44.9077 170.5,46C 167.008,45.9296 164.008,46.7629 161.5,48.5C 147.817,47.9989 134.15,47.1656 120.5,46C 130.303,42.5684 139.97,39.0684 149.5,35.5 Z"/></g>
<g><path style="opacity:0.318" fill="#9e9d9c" d="M 305.5,55.5 C 304.833,55.5 304.167,55.5 303.5,55.5C 302.679,50.1368 302.679,44.8035 303.5,39.5C 305.088,44.7097 305.755,50.0431 305.5,55.5 Z"/></g>
<g><path style="opacity:1" fill="#cccfdc" d="M 33.5,47.5 C 32.0689,47.1193 31.2355,46.1193 31,44.5C 30.4177,47.6677 29.4177,48.001 28,45.5C 25.9587,46.7522 23.6254,47.4188 21,47.5C 16.912,46.8695 13.2454,46.8695 10,47.5C 9.33333,46.1667 9.33333,44.8333 10,43.5C 12.0866,43.9208 14.2532,43.9208 16.5,43.5C 18.4734,43.5266 20.4734,43.5266 22.5,43.5C 23.1924,44.0253 23.6924,44.6919 24,45.5C 25.7972,43.8444 27.9639,42.8444 30.5,42.5C 33.0841,43.3928 35.7508,43.7261 38.5,43.5C 38.5,44.8333 38.5,46.1667 38.5,47.5C 36.8333,47.5 35.1667,47.5 33.5,47.5 Z"/></g>
<g><path style="opacity:1" fill="#292526" d="M 4.5,46.5 C 5.5,46.5 6.5,46.5 7.5,46.5C 7.50505,49.5318 7.83838,52.5318 8.5,55.5C 8.38019,57.5885 7.38019,58.9218 5.5,59.5C 5.41355,55.1434 5.08021,50.81 4.5,46.5 Z"/></g>
<g><path style="opacity:1" fill="#5b5a65" d="M 215.5,43.5 C 215.833,43.5 216.167,43.5 216.5,43.5C 217.531,44.2485 218.698,44.9152 220,45.5C 220.667,46.1667 220.667,46.8333 220,47.5C 214.598,46.0712 209.431,46.7379 204.5,49.5C 202.621,50.3414 200.621,50.6747 198.5,50.5C 198.414,49.5041 198.748,48.6708 199.5,48C 205.26,47.124 210.593,45.624 215.5,43.5 Z"/></g>
<g><path style="opacity:0.897" fill="#0d1017" d="M 253.5,43.5 C 254.097,42.8614 254.93,42.528 256,42.5C 260.342,43.0057 263.842,45.0057 266.5,48.5C 266.833,48.1667 267.167,47.8333 267.5,47.5C 266.807,46.4822 266.141,45.4822 265.5,44.5C 268.938,46.7589 272.271,49.2589 275.5,52C 276.448,52.4828 277.448,52.6495 278.5,52.5C 279.167,52.5 279.5,52.8333 279.5,53.5C 272.591,52.9603 265.924,53.6269 259.5,55.5C 259.721,54.2652 260.388,53.2652 261.5,52.5C 261.145,51.4777 260.478,50.811 259.5,50.5C 259.082,49.7784 258.416,49.2784 257.5,49C 259.488,48.8195 261.488,48.9862 263.5,49.5C 264.507,51.4765 264.507,51.1432 263.5,48.5C 263.158,47.6618 262.492,47.3284 261.5,47.5C 259.421,45.127 256.754,43.7936 253.5,43.5 Z"/></g>
<g><path style="opacity:1" fill="#1d3f82" d="M 3.5,41.5 C 8.29399,40.9031 12.6273,41.5698 16.5,43.5C 14.2532,43.9208 12.0866,43.9208 10,43.5C 9.33333,44.8333 9.33333,46.1667 10,47.5C 13.2454,46.8695 16.912,46.8695 21,47.5C 23.6254,47.4188 25.9587,46.7522 28,45.5C 29.4177,48.001 30.4177,47.6677 31,44.5C 31.2355,46.1193 32.0689,47.1193 33.5,47.5C 31.369,48.3138 29.0356,48.8138 26.5,49C 27.7932,49.49 29.1266,49.6567 30.5,49.5C 31.8203,53.6547 32.8203,57.6547 33.5,61.5C 31.8036,63.5248 30.137,65.5248 28.5,67.5C 22.6826,66.2843 17.016,64.2843 11.5,61.5C 10.8933,61.6236 10.56,61.9569 10.5,62.5C 9.54163,62.0472 8.7083,61.3805 8,60.5C 7.46436,62.5672 7.96436,64.4006 9.5,66C 14.7931,68.4871 20.1264,70.6538 25.5,72.5C 23.5,72.5 21.5,72.5 19.5,72.5C 16.4824,72.2962 13.4824,71.9629 10.5,71.5C 9.04125,71.5674 7.70792,71.2341 6.5,70.5C 6.67726,66.7657 6.34392,63.0991 5.5,59.5C 7.38019,58.9218 8.38019,57.5885 8.5,55.5C 7.83838,52.5318 7.50505,49.5318 7.5,46.5C 6.5,46.5 5.5,46.5 4.5,46.5C 3.69929,44.9582 3.36596,43.2915 3.5,41.5 Z"/></g>
<g><path style="opacity:1" fill="#16214b" d="M 3.5,41.5 C 16.3226,40.5045 29.3226,40.1712 42.5,40.5C 42.6659,45.5111 42.4993,50.5111 42,55.5C 38.7323,56.9421 35.899,58.9421 33.5,61.5C 32.8203,57.6547 31.8203,53.6547 30.5,49.5C 29.1266,49.6567 27.7932,49.49 26.5,49C 29.0356,48.8138 31.369,48.3138 33.5,47.5C 35.1667,47.5 36.8333,47.5 38.5,47.5C 38.5,46.1667 38.5,44.8333 38.5,43.5C 35.7508,43.7261 33.0841,43.3928 30.5,42.5C 27.9639,42.8444 25.7972,43.8444 24,45.5C 23.6924,44.6919 23.1924,44.0253 22.5,43.5C 20.4734,43.5266 18.4734,43.5266 16.5,43.5C 12.6273,41.5698 8.29399,40.9031 3.5,41.5 Z"/></g>
<g><path style="opacity:1" fill="#60605f" d="M 261.5,47.5 C 261.842,48.3382 262.508,48.6716 263.5,48.5C 263.5,48.8333 263.5,49.1667 263.5,49.5C 261.488,48.9862 259.488,48.8195 257.5,49C 258.416,49.2784 259.082,49.7784 259.5,50.5C 259.209,51.6491 258.376,52.3158 257,52.5C 255.175,52.0566 253.342,51.7233 251.5,51.5C 251.5,50.5 251.5,49.5 251.5,48.5C 254.625,47.5206 257.958,47.1872 261.5,47.5 Z"/></g>
<g><path style="opacity:0.114" fill="#93918d" d="M 293.5,53.5 C 292.833,53.8333 292.167,54.1667 291.5,54.5C 291.579,53.0695 291.246,51.7362 290.5,50.5C 291.325,49.6143 292.325,49.281 293.5,49.5C 293.5,50.8333 293.5,52.1667 293.5,53.5 Z"/></g>
<g><path style="opacity:1" fill="#c1bc9a" d="M 59.5,58.5 C 55.1667,58.5 50.8333,58.5 46.5,58.5C 46.5,57.5 46.5,56.5 46.5,55.5C 51.5,55.5 56.5,55.5 61.5,55.5C 61.6495,56.552 61.4828,57.552 61,58.5C 60.2208,55.9028 59.7208,55.9028 59.5,58.5 Z"/></g>
<g><path style="opacity:1" fill="#65667d" d="M 177.5,51.5 C 178.842,52.793 180.509,53.6264 182.5,54C 181.584,54.2784 180.918,54.7784 180.5,55.5C 178.181,56.167 175.847,56.3336 173.5,56C 174.833,55.3333 174.833,54.6667 173.5,54C 165.841,53.5003 158.174,53.3336 150.5,53.5C 139.086,53.1894 127.752,53.5227 116.5,54.5C 101.743,54.8805 87.0763,56.2138 72.5,58.5C 74.4758,56.9891 76.8091,56.1558 79.5,56C 89.1154,54.302 98.7821,52.9686 108.5,52C 131.498,51.5 154.498,51.3334 177.5,51.5 Z"/></g>
<g><path style="opacity:0.997" fill="#2c2b29" d="M 251.5,48.5 C 251.5,49.5 251.5,50.5 251.5,51.5C 253.342,51.7233 255.175,52.0566 257,52.5C 258.376,52.3158 259.209,51.6491 259.5,50.5C 260.478,50.811 261.145,51.4777 261.5,52.5C 260.388,53.2652 259.721,54.2652 259.5,55.5C 259.167,56.1667 258.833,56.8333 258.5,57.5C 256.766,58.562 255.099,58.562 253.5,57.5C 253.167,56.1667 252.833,56.1667 252.5,57.5C 248.265,58.436 243.931,58.7693 239.5,58.5C 239.5,57.5 239.5,56.5 239.5,55.5C 241.907,54.9118 244.24,53.9118 246.5,52.5C 247.451,53.3256 248.451,53.4922 249.5,53C 248.62,51.6439 248.286,50.1439 248.5,48.5C 249.5,48.5 250.5,48.5 251.5,48.5 Z"/></g>
<g><path style="opacity:1" fill="#697db1" d="M 300.5,55.5 C 301.5,55.5 302.5,55.5 303.5,55.5C 304.167,55.5 304.833,55.5 305.5,55.5C 313.033,56.4203 320.366,57.7536 327.5,59.5C 327.167,60.5 326.5,61.1667 325.5,61.5C 312.573,59.2346 299.573,57.4013 286.5,56C 291.155,55.5008 295.821,55.3342 300.5,55.5 Z"/></g>
<g><path style="opacity:0.747" fill="#f98a63" d="M 2.5,46.5 C 3.16667,46.5 3.83333,46.5 4.5,46.5C 5.08021,50.81 5.41355,55.1434 5.5,59.5C 5.16667,59.5 4.83333,59.5 4.5,59.5C 3.91427,55.1456 3.24761,50.8122 2.5,46.5 Z"/></g>
<g><path style="opacity:1" fill="#131d37" d="M 150.5,53.5 C 158.174,53.3336 165.841,53.5003 173.5,54C 174.833,54.6667 174.833,55.3333 173.5,56C 175.847,56.3336 178.181,56.167 180.5,55.5C 192.81,54.0196 205.143,53.6863 217.5,54.5C 206.825,55.5766 196.158,56.7432 185.5,58C 191.157,58.4994 196.824,58.6661 202.5,58.5C 197.349,59.3267 192.016,59.8267 186.5,60C 185.833,60.3333 185.167,60.6667 184.5,61C 185.756,61.4169 186.423,62.2502 186.5,63.5C 182.207,60.5057 177.54,59.839 172.5,61.5C 172.082,60.7784 171.416,60.2784 170.5,60C 173.063,59.237 173.063,58.737 170.5,58.5C 156.897,60.4948 143.231,61.3282 129.5,61C 134.769,59.8938 140.103,59.2272 145.5,59C 142.518,58.502 139.518,58.3354 136.5,58.5C 140.647,57.6753 144.981,57.1753 149.5,57C 145.179,56.501 140.846,56.3343 136.5,56.5C 141.316,55.6739 146.316,55.1739 151.5,55C 150.944,54.6174 150.611,54.1174 150.5,53.5 Z"/></g>
<g><path style="opacity:1" fill="#222e4d" d="M 223.5,50.5 C 228.053,55.0513 233.386,56.7179 239.5,55.5C 239.5,56.5 239.5,57.5 239.5,58.5C 227.339,59.1497 215.005,59.1497 202.5,58.5C 196.824,58.6661 191.157,58.4994 185.5,58C 196.158,56.7432 206.825,55.5766 217.5,54.5C 205.143,53.6863 192.81,54.0196 180.5,55.5C 180.918,54.7784 181.584,54.2784 182.5,54C 180.509,53.6264 178.842,52.793 177.5,51.5C 179.698,51.1249 181.698,50.4582 183.5,49.5C 188.521,50.1935 193.521,50.5268 198.5,50.5C 200.621,50.6747 202.621,50.3414 204.5,49.5C 205.274,50.1471 206.274,50.4805 207.5,50.5C 212.882,47.8517 218.215,47.8517 223.5,50.5 Z"/></g>
<g><path style="opacity:1" fill="#265295" d="M 279.5,53.5 C 283.6,53.2367 287.6,53.5701 291.5,54.5C 292.167,54.1667 292.833,53.8333 293.5,53.5C 295.833,54.1667 298.167,54.8333 300.5,55.5C 295.821,55.3342 291.155,55.5008 286.5,56C 299.573,57.4013 312.573,59.2346 325.5,61.5C 325.167,62.1667 324.833,62.8333 324.5,63.5C 321.833,63.5 319.167,63.5 316.5,63.5C 311.463,61.5982 306.13,60.4315 300.5,60C 292.5,59.5 284.5,59 276.5,58.5C 273.645,58.5025 270.978,58.8359 268.5,59.5C 268.5,59.8333 268.5,60.1667 268.5,60.5C 267.29,60.0679 266.29,59.4013 265.5,58.5C 263.067,57.6777 260.733,57.3444 258.5,57.5C 258.833,56.8333 259.167,56.1667 259.5,55.5C 265.924,53.6269 272.591,52.9603 279.5,53.5 Z"/></g>
<g><path style="opacity:1" fill="#192340" d="M 116.5,54.5 C 114.058,56.2258 111.391,57.7258 108.5,59C 99.1377,59.9327 89.8043,61.0994 80.5,62.5C 78.7927,62.2716 77.126,61.9383 75.5,61.5C 75.0269,60.0937 74.0269,59.427 72.5,59.5C 72.5,59.1667 72.5,58.8333 72.5,58.5C 87.0763,56.2138 101.743,54.8805 116.5,54.5 Z"/></g>
<g><path style="opacity:1" fill="#384262" d="M 136.5,56.5 C 140.846,56.3343 145.179,56.501 149.5,57C 144.981,57.1753 140.647,57.6753 136.5,58.5C 127.176,59.6663 117.843,60.4997 108.5,61C 117.574,58.3453 126.907,56.8453 136.5,56.5 Z"/></g>
<g><path style="opacity:1" fill="#c17a7a" d="M 268.5,59.5 C 270.978,58.8359 273.645,58.5025 276.5,58.5C 284.5,59 292.5,59.5 300.5,60C 306.13,60.4315 311.463,61.5982 316.5,63.5C 300.509,61.6035 284.509,60.2702 268.5,59.5 Z"/></g>
<g><path style="opacity:1" fill="#9ea2ba" d="M 265.5,58.5 C 266.29,59.4013 267.29,60.0679 268.5,60.5C 267.791,61.404 266.791,61.7373 265.5,61.5C 265.265,60.9033 264.765,60.5699 264,60.5C 260.906,61.5655 257.74,62.2322 254.5,62.5C 254.66,64.1992 254.494,65.8659 254,67.5C 252.691,65.1088 251.691,65.1088 251,67.5C 250,60.8333 249,60.8333 248,67.5C 247.883,64.3713 246.383,63.2046 243.5,64C 244.833,64.6667 244.833,65.3333 243.5,66C 244.167,66.3333 244.833,66.6667 245.5,67C 244.207,67.49 242.873,67.6567 241.5,67.5C 241.058,62.3055 240.058,62.3055 238.5,67.5C 237.719,66.2713 237.219,64.938 237,63.5C 236.768,64.7375 236.268,65.7375 235.5,66.5C 235.5,65.1667 235.5,63.8333 235.5,62.5C 234.5,62.5 233.5,62.5 232.5,62.5C 243.447,61.8672 254.447,60.5339 265.5,58.5 Z"/></g>
<g><path style="opacity:1" fill="#91b2d9" d="M 10.5,62.5 C 10.56,61.9569 10.8933,61.6236 11.5,61.5C 17.016,64.2843 22.6826,66.2843 28.5,67.5C 21.8094,68.1455 15.8094,66.4788 10.5,62.5 Z"/></g>
<g><path style="opacity:1" fill="#5481bc" d="M 186.5,63.5 C 191.5,63.5 196.5,63.5 201.5,63.5C 201.5,63.8333 201.5,64.1667 201.5,64.5C 187.255,63.6279 173.255,64.9612 159.5,68.5C 159.082,67.7784 158.416,67.2784 157.5,67C 160.859,65.3878 164.192,63.8878 167.5,62.5C 169.216,62.3713 170.883,62.038 172.5,61.5C 177.54,59.839 182.207,60.5057 186.5,63.5 Z"/></g>
<g><path style="opacity:1" fill="#090d24" d="M 150.5,53.5 C 150.611,54.1174 150.944,54.6174 151.5,55C 146.316,55.1739 141.316,55.6739 136.5,56.5C 126.907,56.8453 117.574,58.3453 108.5,61C 117.843,60.4997 127.176,59.6663 136.5,58.5C 139.518,58.3354 142.518,58.502 145.5,59C 140.103,59.2272 134.769,59.8938 129.5,61C 143.231,61.3282 156.897,60.4948 170.5,58.5C 173.063,58.737 173.063,59.237 170.5,60C 171.416,60.2784 172.082,60.7784 172.5,61.5C 170.883,62.038 169.216,62.3713 167.5,62.5C 157.985,62.1731 148.652,62.5064 139.5,63.5C 134.808,62.5124 131.141,63.8458 128.5,67.5C 127.527,67.9867 126.527,68.4867 125.5,69C 132.833,69.3333 140.167,69.6667 147.5,70C 137.302,74.2321 126.969,77.7321 116.5,80.5C 114.131,80.8511 111.797,81.0178 109.5,81C 111.324,80.34 112.657,79.1733 113.5,77.5C 113.833,76.8333 114.167,76.1667 114.5,75.5C 116.115,72.5983 115.449,70.265 112.5,68.5C 111.5,68.1667 110.833,67.5 110.5,66.5C 108.034,65.3659 105.367,65.1993 102.5,66C 101.944,66.3826 101.611,66.8826 101.5,67.5C 101.167,68.1667 100.833,68.8333 100.5,69.5C 97.0709,71.5185 96.7376,73.8518 99.5,76.5C 99.5,77.5 99.5,78.5 99.5,79.5C 94.1667,79.5 88.8333,79.5 83.5,79.5C 82.4821,72.795 79.8154,66.795 75.5,61.5C 77.126,61.9383 78.7927,62.2716 80.5,62.5C 89.8043,61.0994 99.1377,59.9327 108.5,59C 111.391,57.7258 114.058,56.2258 116.5,54.5C 127.752,53.5227 139.086,53.1894 150.5,53.5 Z"/></g>
<g><path style="opacity:1" fill="#154a9c" d="M 139.5,63.5 C 145.509,63.3338 151.509,63.5005 157.5,64C 151.949,64.7211 146.615,66.0544 141.5,68C 136.98,68.8136 132.646,68.647 128.5,67.5C 131.141,63.8458 134.808,62.5124 139.5,63.5 Z"/></g>
<g><path style="opacity:0.882" fill="#303033" d="M 4.5,59.5 C 4.83333,59.5 5.16667,59.5 5.5,59.5C 6.34392,63.0991 6.67726,66.7657 6.5,70.5C 4.78303,67.1552 4.11636,63.4885 4.5,59.5 Z"/></g>
<g><path style="opacity:1" fill="#b08287" d="M 110.5,66.5 C 107.43,66.3677 104.43,66.701 101.5,67.5C 101.611,66.8826 101.944,66.3826 102.5,66C 105.367,65.1993 108.034,65.3659 110.5,66.5 Z"/></g>
<g><path style="opacity:1" fill="#9aa3c9" d="M 201.5,64.5 C 201.5,64.8333 201.5,65.1667 201.5,65.5C 197.958,65.1872 194.625,65.5206 191.5,66.5C 178.788,65.8636 166.455,67.6969 154.5,72C 155.056,72.3826 155.389,72.8826 155.5,73.5C 151.167,73.1667 149.167,75.1667 149.5,79.5C 147.137,77.917 147.137,76.0836 149.5,74C 148.552,73.5172 147.552,73.3505 146.5,73.5C 150.576,71.3876 154.909,69.721 159.5,68.5C 173.255,64.9612 187.255,63.6279 201.5,64.5 Z"/></g>
<g><path style="opacity:1" fill="#b6533c" d="M 201.5,63.5 C 202.586,63.62 203.253,64.2867 203.5,65.5C 202.758,68.0828 202.092,68.0828 201.5,65.5C 201.5,65.1667 201.5,64.8333 201.5,64.5C 201.5,64.1667 201.5,63.8333 201.5,63.5 Z"/></g>
<g><path style="opacity:1" fill="#151f45" d="M 10.5,62.5 C 15.8094,66.4788 21.8094,68.1455 28.5,67.5C 27.7368,69.3684 26.7368,71.0351 25.5,72.5C 20.1264,70.6538 14.7931,68.4871 9.5,66C 7.96436,64.4006 7.46436,62.5672 8,60.5C 8.7083,61.3805 9.54163,62.0472 10.5,62.5 Z"/></g>
<g><path style="opacity:1" fill="#e5511f" d="M 110.5,66.5 C 110.833,67.5 111.5,68.1667 112.5,68.5C 112.5,69.1667 112.5,69.8333 112.5,70.5C 109.167,70.5 105.833,70.5 102.5,70.5C 101.508,70.6716 100.842,70.3382 100.5,69.5C 100.833,68.8333 101.167,68.1667 101.5,67.5C 104.43,66.701 107.43,66.3677 110.5,66.5 Z"/></g>
<g><path style="opacity:1" fill="#102250" d="M 252.5,57.5 C 252.833,57.5 253.167,57.5 253.5,57.5C 255.099,58.562 256.766,58.562 258.5,57.5C 260.733,57.3444 263.067,57.6777 265.5,58.5C 254.447,60.5339 243.447,61.8672 232.5,62.5C 224.185,63.5232 216.519,63.5232 209.5,62.5C 208.548,64.0453 208.215,65.712 208.5,67.5C 211.244,67.7521 213.744,67.0855 216,65.5C 217.892,68.3895 218.725,68.0562 218.5,64.5C 219.5,64.5 220.5,64.5 221.5,64.5C 221.351,65.552 221.517,66.552 222,67.5C 224.058,63.9083 225.725,63.9083 227,67.5C 227.667,66.1667 228.333,66.1667 229,67.5C 229.424,63.81 230.258,63.6433 231.5,67C 233.066,67.765 234.399,67.5983 235.5,66.5C 236.268,65.7375 236.768,64.7375 237,63.5C 237.219,64.938 237.719,66.2713 238.5,67.5C 240.058,62.3055 241.058,62.3055 241.5,67.5C 242.873,67.6567 244.207,67.49 245.5,67C 244.833,66.6667 244.167,66.3333 243.5,66C 244.833,65.3333 244.833,64.6667 243.5,64C 246.383,63.2046 247.883,64.3713 248,67.5C 249,60.8333 250,60.8333 251,67.5C 251.691,65.1088 252.691,65.1088 254,67.5C 254.494,65.8659 254.66,64.1992 254.5,62.5C 257.74,62.2322 260.906,61.5655 264,60.5C 264.765,60.5699 265.265,60.9033 265.5,61.5C 263.983,61.5106 262.816,62.1772 262,63.5C 261.505,65.4727 261.338,67.4727 261.5,69.5C 255.167,69.5 248.833,69.5 242.5,69.5C 240.712,68.3775 238.712,68.2109 236.5,69C 229.65,72.0048 222.65,74.5048 215.5,76.5C 207.808,72.5975 199.808,69.2642 191.5,66.5C 194.625,65.5206 197.958,65.1872 201.5,65.5C 202.092,68.0828 202.758,68.0828 203.5,65.5C 203.253,64.2867 202.586,63.62 201.5,63.5C 196.5,63.5 191.5,63.5 186.5,63.5C 186.423,62.2502 185.756,61.4169 184.5,61C 185.167,60.6667 185.833,60.3333 186.5,60C 192.016,59.8267 197.349,59.3267 202.5,58.5C 215.005,59.1497 227.339,59.1497 239.5,58.5C 243.931,58.7693 248.265,58.436 252.5,57.5 Z"/></g>
<g><path style="opacity:1" fill="#de5d2f" d="M 205.5,63.5 C 206.782,64.7082 206.782,66.0416 205.5,67.5C 204.374,66.1916 204.374,64.8583 205.5,63.5 Z"/></g>
<g><path style="opacity:1" fill="#c5c6cf" d="M 232.5,62.5 C 233.5,62.5 234.5,62.5 235.5,62.5C 235.5,63.8333 235.5,65.1667 235.5,66.5C 234.399,67.5983 233.066,67.765 231.5,67C 230.258,63.6433 229.424,63.81 229,67.5C 228.333,66.1667 227.667,66.1667 227,67.5C 225.725,63.9083 224.058,63.9083 222,67.5C 221.517,66.552 221.351,65.552 221.5,64.5C 220.5,64.5 219.5,64.5 218.5,64.5C 218.725,68.0562 217.892,68.3895 216,65.5C 213.744,67.0855 211.244,67.7521 208.5,67.5C 208.215,65.712 208.548,64.0453 209.5,62.5C 216.519,63.5232 224.185,63.5232 232.5,62.5 Z"/></g>
<g><path style="opacity:1" fill="#242b50" d="M 232.5,63.5 C 234.465,63.9483 234.798,64.9483 233.5,66.5C 232.614,65.675 232.281,64.675 232.5,63.5 Z"/></g>
<g><path style="opacity:1" fill="#242322" d="M 242.5,69.5 C 241.5,69.5 240.5,69.5 239.5,69.5C 238.167,74.5 238.167,79.5 239.5,84.5C 236.784,84.6785 234.117,85.1785 231.5,86C 232.448,86.4828 233.448,86.6495 234.5,86.5C 234.36,88.1238 235.027,89.2904 236.5,90C 232.165,91.0158 227.831,91.8492 223.5,92.5C 222.791,91.596 221.791,91.2627 220.5,91.5C 220.5,90.5 220.5,89.5 220.5,88.5C 218.801,88.6602 217.134,88.4935 215.5,88C 216.999,87.1618 217.332,86.3285 216.5,85.5C 216.03,84.3065 215.03,83.6399 213.5,83.5C 195.372,88.827 176.872,91.827 158,92.5C 142.532,91.2412 127.032,90.4078 111.5,90C 112.901,89.5899 114.234,89.0899 115.5,88.5C 118.833,88.5 122.167,88.5 125.5,88.5C 140.486,89.5221 155.486,89.6887 170.5,89C 179.799,87.9249 188.799,85.7582 197.5,82.5C 203.703,81.0627 209.703,79.0627 215.5,76.5C 222.65,74.5048 229.65,72.0048 236.5,69C 238.712,68.2109 240.712,68.3775 242.5,69.5 Z"/></g>
<g><path style="opacity:1" fill="#191819" d="M 371.5,65.5 C 372.5,67.5 373.5,69.5 374.5,71.5C 378.163,73.4159 382.163,74.4159 386.5,74.5C 390.514,74.3345 394.514,74.5012 398.5,75C 394.833,75.3333 391.167,75.6667 387.5,76C 386.62,77.3561 386.286,78.8561 386.5,80.5C 388.415,80.2155 390.081,80.5489 391.5,81.5C 389.712,81.2148 388.045,81.5481 386.5,82.5C 394.715,84.2937 402.715,86.7937 410.5,90C 413.146,90.4974 415.813,90.6641 418.5,90.5C 415.695,91.3195 412.695,91.8195 409.5,92C 409.565,94.8301 409.565,97.6634 409.5,100.5C 403.72,100.689 398.053,100.022 392.5,98.5C 390.261,100.12 388.427,99.7871 387,97.5C 386.586,97.9574 386.086,98.2907 385.5,98.5C 384.52,95.9135 384.187,93.2469 384.5,90.5C 381.881,90.7683 379.381,90.435 377,89.5C 366.651,111.95 350.484,117.45 328.5,106C 321.811,100.788 318.144,93.955 317.5,85.5C 318.302,84.0484 318.802,82.3817 319,80.5C 319.198,82.3817 319.698,84.0484 320.5,85.5C 320.963,92.4413 323.963,97.7747 329.5,101.5C 332.35,100.072 333.35,100.739 332.5,103.5C 334.827,105.959 337.661,107.959 341,109.5C 341.995,108.934 342.828,108.267 343.5,107.5C 348.118,107.456 352.452,106.456 356.5,104.5C 357.696,104.846 357.696,105.346 356.5,106C 358.568,105.983 360.234,104.983 361.5,103C 361.167,102.667 360.833,102.333 360.5,102C 357.835,102.48 355.169,103.313 352.5,104.5C 349.937,104.263 349.937,103.763 352.5,103C 351.833,102.667 351.167,102.333 350.5,102C 364.451,97.2652 369.285,87.7652 365,73.5C 360.994,67.9248 356.494,63.7582 351.5,61C 352.833,60.3333 354.167,60.3333 355.5,61C 358.278,62.5289 360.945,63.8623 363.5,65C 360.353,61.7666 356.686,59.6 352.5,58.5C 352.721,55.9028 353.221,55.9028 354,58.5C 354.49,57.2068 354.657,55.8734 354.5,54.5C 349.5,54.5 344.5,54.5 339.5,54.5C 339.232,56.099 339.566,57.4324 340.5,58.5C 336.131,60.9893 332.131,63.3226 328.5,65.5C 328.631,64.7611 328.464,64.0944 328,63.5C 323.894,67.713 321.394,72.713 320.5,78.5C 319.694,77.0028 319.028,75.3361 318.5,73.5C 319.587,69.5112 321.587,66.1779 324.5,63.5C 324.833,62.8333 325.167,62.1667 325.5,61.5C 326.5,61.1667 327.167,60.5 327.5,59.5C 330.387,56.9483 333.72,55.2816 337.5,54.5C 337.297,52.6096 337.963,51.1096 339.5,50C 346.642,46.8995 352.642,48.2328 357.5,54C 363.279,56.6248 367.946,60.4582 371.5,65.5 Z"/></g>
<g><path style="opacity:1" fill="#d3ce13" d="M 365.5,63.5 C 374.554,71.867 376.721,81.867 372,93.5C 370.487,96.5244 368.487,99.1911 366,101.5C 366.732,98.7012 368.066,96.0345 370,93.5C 373.95,82.6449 372.45,72.6449 365.5,63.5 Z"/></g>
<g><path style="opacity:1" fill="#aca88d" d="M 352.5,58.5 C 348.5,58.5 344.5,58.5 340.5,58.5C 339.566,57.4324 339.232,56.099 339.5,54.5C 344.5,54.5 349.5,54.5 354.5,54.5C 354.657,55.8734 354.49,57.2068 354,58.5C 353.221,55.9028 352.721,55.9028 352.5,58.5 Z"/></g>
<g><path style="opacity:1" fill="#e1dbda" d="M 102.5,70.5 C 105.833,70.5 109.167,70.5 112.5,70.5C 112.461,71.5832 112.127,72.5832 111.5,73.5C 112.274,74.7112 113.107,74.7112 114,73.5C 114.464,74.0944 114.631,74.7611 114.5,75.5C 114.167,76.1667 113.833,76.8333 113.5,77.5C 113.167,77.5 112.833,77.5 112.5,77.5C 108.702,76.5166 104.702,76.1832 100.5,76.5C 100.167,76.5 99.8333,76.5 99.5,76.5C 100.718,75.8386 102.051,75.1719 103.5,74.5C 102.624,73.7492 101.624,73.2492 100.5,73C 101.381,72.2917 102.047,71.4584 102.5,70.5 Z"/></g>
<g><path style="opacity:1" fill="#8a8096" d="M 112.5,68.5 C 115.449,70.265 116.115,72.5983 114.5,75.5C 114.631,74.7611 114.464,74.0944 114,73.5C 113.107,74.7112 112.274,74.7112 111.5,73.5C 112.127,72.5832 112.461,71.5832 112.5,70.5C 112.5,69.8333 112.5,69.1667 112.5,68.5 Z"/></g>
<g><path style="opacity:1" fill="#2c2b2a" d="M 268.5,59.5 C 284.509,60.2702 300.509,61.6035 316.5,63.5C 319.167,63.5 321.833,63.5 324.5,63.5C 321.587,66.1779 319.587,69.5112 318.5,73.5C 319.028,75.3361 319.694,77.0028 320.5,78.5C 320.5,80.8333 320.5,83.1667 320.5,85.5C 319.698,84.0484 319.198,82.3817 319,80.5C 318.802,82.3817 318.302,84.0484 317.5,85.5C 313.833,85.5 310.167,85.5 306.5,85.5C 306.334,89.5138 306.501,93.5138 307,97.5C 311.601,99.0044 311.434,100.338 306.5,101.5C 308.756,102.421 309.756,104.088 309.5,106.5C 301.833,106.5 294.167,106.5 286.5,106.5C 289.34,105.314 291.506,103.314 293,100.5C 296.667,94.5 300.333,88.5 304,82.5C 305.187,80.9556 305.52,79.2889 305,77.5C 293.537,77.1863 282.371,79.0196 271.5,83C 271.273,84.1353 270.94,85.302 270.5,86.5C 268.775,87.0149 267.108,87.6816 265.5,88.5C 267.718,89.0574 270.051,89.0574 272.5,88.5C 272.768,91.1194 272.435,93.6194 271.5,96C 273.158,96.7253 273.658,97.892 273,99.5C 272.333,98.1667 271.667,98.1667 271,99.5C 270.505,101.473 270.338,103.473 270.5,105.5C 274.702,105.183 278.702,105.517 282.5,106.5C 265.325,106.83 248.325,106.497 231.5,105.5C 233.5,105.5 235.5,105.5 237.5,105.5C 236.874,101.625 238.541,99.7913 242.5,100C 240.369,98.3531 238.369,98.6864 236.5,101C 227.393,101.971 218.393,101.471 209.5,99.5C 214.118,97.1912 218.784,94.8579 223.5,92.5C 227.831,91.8492 232.165,91.0158 236.5,90C 235.027,89.2904 234.36,88.1238 234.5,86.5C 233.448,86.6495 232.448,86.4828 231.5,86C 234.117,85.1785 236.784,84.6785 239.5,84.5C 238.167,79.5 238.167,74.5 239.5,69.5C 240.5,69.5 241.5,69.5 242.5,69.5C 248.833,69.5 255.167,69.5 261.5,69.5C 261.338,67.4727 261.505,65.4727 262,63.5C 262.816,62.1772 263.983,61.5106 265.5,61.5C 266.791,61.7373 267.791,61.404 268.5,60.5C 268.5,60.1667 268.5,59.8333 268.5,59.5 Z"/></g>
<g><path style="opacity:1" fill="#989898" d="M 275.5,63.5 C 279.326,64.4796 279.326,65.3129 275.5,66C 276.931,66.4652 278.097,67.2986 279,68.5C 279.333,67.8333 279.667,67.1667 280,66.5C 280.428,71.498 281.261,71.6647 282.5,67C 284.769,66.2419 286.936,66.4086 289,67.5C 289.333,66.5 289.667,65.5 290,64.5C 290.7,66.032 291.866,67.032 293.5,67.5C 294.386,68.325 294.719,69.325 294.5,70.5C 297.718,70.3491 298.051,69.5158 295.5,68C 296.167,67.6667 296.833,67.3333 297.5,67C 299.574,67.2273 301.574,67.0606 303.5,66.5C 306.297,71.3724 304.964,73.0391 299.5,71.5C 299.167,66.1667 298.833,66.1667 298.5,71.5C 296.167,71.5 293.833,71.5 291.5,71.5C 291.307,67.551 290.807,67.551 290,71.5C 287.316,65.8589 285.983,66.1922 286,72.5C 285.51,71.2068 285.343,69.8734 285.5,68.5C 282.282,68.6509 281.949,69.4842 284.5,71C 281.693,71.0372 279.026,71.2039 276.5,71.5C 275.833,71.1667 275.167,70.8333 274.5,70.5C 275.603,70.0024 276.603,69.6691 277.5,69.5C 274.61,68.1627 273.943,66.1627 275.5,63.5 Z"/></g>
<g><path style="opacity:0.6" fill="#1a3e84" d="M 371.5,65.5 C 380.323,67.9988 388.989,70.6655 397.5,73.5C 393.833,73.5 390.167,73.5 386.5,73.5C 382.538,72.6245 378.538,71.9578 374.5,71.5C 373.5,69.5 372.5,67.5 371.5,65.5 Z"/></g>
<g><path style="opacity:1" fill="#cd6e6a" d="M 374.5,71.5 C 378.538,71.9578 382.538,72.6245 386.5,73.5C 386.5,73.8333 386.5,74.1667 386.5,74.5C 382.163,74.4159 378.163,73.4159 374.5,71.5 Z"/></g>
<g><path style="opacity:1" fill="#afb5c6" d="M 181.5,70.5 C 182.5,70.5 183.5,70.5 184.5,70.5C 184.5,71.5 184.5,72.5 184.5,73.5C 182.631,75.6353 181.964,78.3019 182.5,81.5C 180.901,81.7678 179.568,81.4345 178.5,80.5C 179.5,80.5 180.5,80.5 181.5,80.5C 181.5,78.1667 181.5,75.8333 181.5,73.5C 179.833,73.5 178.167,73.5 176.5,73.5C 178.531,73.0276 180.198,72.0276 181.5,70.5 Z"/></g>
<g><path style="opacity:1" fill="#284a92" d="M 191.5,66.5 C 199.808,69.2642 207.808,72.5975 215.5,76.5C 209.703,79.0627 203.703,81.0627 197.5,82.5C 196.167,81.8333 194.833,81.1667 193.5,80.5C 195.467,80.7394 197.301,80.4061 199,79.5C 199.497,77.1902 199.663,74.8568 199.5,72.5C 198.5,72.5 197.5,72.5 196.5,72.5C 195.833,79.1667 195.167,79.1667 194.5,72.5C 193.5,72.5 192.5,72.5 191.5,72.5C 191.167,72.5 190.833,72.5 190.5,72.5C 188.379,72.3253 186.379,72.6586 184.5,73.5C 184.5,72.5 184.5,71.5 184.5,70.5C 183.5,70.5 182.5,70.5 181.5,70.5C 179.532,71.819 177.532,71.819 175.5,70.5C 173.974,70.9943 172.641,71.661 171.5,72.5C 170.577,74.767 169.744,77.1003 169,79.5C 168.885,76.9918 167.885,74.9918 166,73.5C 165.05,74.0223 164.216,74.689 163.5,75.5C 162.476,74.1468 161.143,73.4802 159.5,73.5C 158.833,74.1667 158.167,74.8333 157.5,75.5C 157.167,74.5 156.5,73.8333 155.5,73.5C 155.389,72.8826 155.056,72.3826 154.5,72C 166.455,67.6969 178.788,65.8636 191.5,66.5 Z"/></g>
<g><path style="opacity:1" fill="#e2e3e7" d="M 146.5,73.5 C 147.552,73.3505 148.552,73.5172 149.5,74C 147.137,76.0836 147.137,77.917 149.5,79.5C 148.189,82.1331 146.689,82.1331 145,79.5C 144.29,80.9733 143.124,81.6399 141.5,81.5C 141.5,79.1667 141.5,76.8333 141.5,74.5C 142.919,73.5489 144.585,73.2155 146.5,73.5 Z"/></g>
<g><path style="opacity:1" fill="#ededf0" d="M 155.5,73.5 C 156.5,73.8333 157.167,74.5 157.5,75.5C 157.496,81.7842 154.829,83.1175 149.5,79.5C 149.167,75.1667 151.167,73.1667 155.5,73.5 Z"/></g>
<g><path style="opacity:1" fill="#e0e2e7" d="M 171.5,72.5 C 172.822,72.33 173.989,72.6634 175,73.5C 175.735,75.8713 176.568,78.2046 177.5,80.5C 175.218,81.9004 173.718,81.2337 173,78.5C 172.517,79.448 172.351,80.448 172.5,81.5C 169.635,81.9452 167.135,81.2785 165,79.5C 164,82.1667 163,82.1667 162,79.5C 161.174,81.4054 160.007,81.7388 158.5,80.5C 159.374,78.2534 159.708,75.9201 159.5,73.5C 161.143,73.4802 162.476,74.1468 163.5,75.5C 164.216,74.689 165.05,74.0223 166,73.5C 167.885,74.9918 168.885,76.9918 169,79.5C 169.744,77.1003 170.577,74.767 171.5,72.5 Z"/></g>
<g><path style="opacity:1" fill="#e4e6eb" d="M 191.5,72.5 C 192.5,72.5 193.5,72.5 194.5,72.5C 195.167,79.1667 195.833,79.1667 196.5,72.5C 197.5,72.5 198.5,72.5 199.5,72.5C 199.663,74.8568 199.497,77.1902 199,79.5C 197.301,80.4061 195.467,80.7394 193.5,80.5C 192.883,80.3893 192.383,80.056 192,79.5C 191.503,77.1902 191.337,74.8568 191.5,72.5 Z"/></g>
<g><path style="opacity:1" fill="#5c628b" d="M 100.5,69.5 C 100.842,70.3382 101.508,70.6716 102.5,70.5C 102.047,71.4584 101.381,72.2917 100.5,73C 101.624,73.2492 102.624,73.7492 103.5,74.5C 102.051,75.1719 100.718,75.8386 99.5,76.5C 96.7376,73.8518 97.0709,71.5185 100.5,69.5 Z"/></g>
<g><path style="opacity:1" fill="#5d6193" d="M 108.5,71.5 C 110.048,71.8212 110.715,72.8212 110.5,74.5C 108.54,75.1383 106.707,75.1383 105,74.5C 104.386,72.6866 104.719,72.3533 106,73.5C 106.995,72.9341 107.828,72.2674 108.5,71.5 Z"/></g>
<g><path style="opacity:1" fill="#161e5f" d="M 152.5,76.5 C 154.337,76.6395 154.67,77.3061 153.5,78.5C 152.702,78.0431 152.369,77.3764 152.5,76.5 Z"/></g>
<g><path style="opacity:1" fill="#ef5814" d="M 100.5,76.5 C 104.702,76.1832 108.702,76.5166 112.5,77.5C 109.608,80.3899 106.274,81.0565 102.5,79.5C 101.833,78.5 101.167,77.5 100.5,76.5 Z"/></g>
<g><path style="opacity:1" fill="#141315" d="M 46.5,58.5 C 50.8333,58.5 55.1667,58.5 59.5,58.5C 63.4312,59.5545 66.9312,61.5545 70,64.5C 70.7697,63.4019 71.603,63.4019 72.5,64.5C 81.8333,76.5 81.8333,88.5 72.5,100.5C 71.603,101.598 70.7697,101.598 70,100.5C 68.1667,103.667 65.6667,106.167 62.5,108C 65.3483,108.276 67.515,107.109 69,104.5C 69.4169,105.756 70.2502,106.423 71.5,106.5C 69.0578,108.226 66.3911,109.726 63.5,111C 49.5754,114.415 38.2421,110.581 29.5,99.5C 27.2573,98.5258 24.924,98.1924 22.5,98.5C 22.5,93.5 22.5,88.5 22.5,83.5C 19.7508,83.2739 17.0841,83.6072 14.5,84.5C 13.5,84 12.5,83.5 11.5,83C 10.5399,79.27 10.2065,75.4367 10.5,71.5C 13.4824,71.9629 16.4824,72.2962 19.5,72.5C 21.4872,73.3432 23.6539,74.0098 26,74.5C 27.0299,74.8361 27.5299,75.5028 27.5,76.5C 26.5048,85.6955 28.8381,93.8622 34.5,101C 35.3317,101.688 35.9984,101.521 36.5,100.5C 29.9744,93.027 27.8078,84.3603 30,74.5C 31.3571,71.1019 33.1904,68.1019 35.5,65.5C 39.3441,63.4133 43.0107,61.08 46.5,58.5 Z"/></g>
<g><path style="opacity:0.996" fill="#0a0c0e" d="M 286.5,106.5 C 285.167,106.5 283.833,106.5 282.5,106.5C 278.702,105.517 274.702,105.183 270.5,105.5C 270.338,103.473 270.505,101.473 271,99.5C 271.667,98.1667 272.333,98.1667 273,99.5C 273.658,97.892 273.158,96.7253 271.5,96C 272.435,93.6194 272.768,91.1194 272.5,88.5C 270.051,89.0574 267.718,89.0574 265.5,88.5C 267.108,87.6816 268.775,87.0149 270.5,86.5C 270.94,85.302 271.273,84.1353 271.5,83C 282.371,79.0196 293.537,77.1863 305,77.5C 305.52,79.2889 305.187,80.9556 304,82.5C 300.333,88.5 296.667,94.5 293,100.5C 291.506,103.314 289.34,105.314 286.5,106.5 Z"/></g>
<g><path style="opacity:0.585" fill="#184393" d="M 416.5,79.5 C 425.215,81.689 432.882,85.689 439.5,91.5C 432.955,88.7631 426.288,86.4297 419.5,84.5C 418.248,82.9991 417.248,81.3325 416.5,79.5 Z"/></g>
<g><path style="opacity:1" fill="#73758e" d="M 112.5,77.5 C 112.833,77.5 113.167,77.5 113.5,77.5C 112.657,79.1733 111.324,80.34 109.5,81C 111.797,81.0178 114.131,80.8511 116.5,80.5C 112.658,82.025 108.991,83.6917 105.5,85.5C 104.5,85.5 103.5,85.5 102.5,85.5C 95.8638,84.9782 95.8638,84.1449 102.5,83C 96.1406,82.8306 89.8072,82.3306 83.5,81.5C 90.1147,81.2985 96.7814,81.1318 103.5,81C 102.944,80.6174 102.611,80.1174 102.5,79.5C 106.274,81.0565 109.608,80.3899 112.5,77.5 Z"/></g>
<g><path style="opacity:1" fill="#203775" d="M 139.5,63.5 C 148.652,62.5064 157.985,62.1731 167.5,62.5C 164.192,63.8878 160.859,65.3878 157.5,67C 158.416,67.2784 159.082,67.7784 159.5,68.5C 154.909,69.721 150.576,71.3876 146.5,73.5C 144.585,73.2155 142.919,73.5489 141.5,74.5C 131.451,78.1814 121.451,81.8481 111.5,85.5C 109.5,85.5 107.5,85.5 105.5,85.5C 108.991,83.6917 112.658,82.025 116.5,80.5C 126.969,77.7321 137.302,74.2321 147.5,70C 140.167,69.6667 132.833,69.3333 125.5,69C 126.527,68.4867 127.527,67.9867 128.5,67.5C 132.646,68.647 136.98,68.8136 141.5,68C 146.615,66.0544 151.949,64.7211 157.5,64C 151.509,63.5005 145.509,63.3338 139.5,63.5 Z"/></g>
<g><path style="opacity:1" fill="#7e80a8" d="M 141.5,74.5 C 141.5,76.8333 141.5,79.1667 141.5,81.5C 140.71,80.3915 140.21,79.0581 140,77.5C 131.212,79.9791 122.712,82.9791 114.5,86.5C 113.209,86.7373 112.209,86.404 111.5,85.5C 121.451,81.8481 131.451,78.1814 141.5,74.5 Z"/></g>
<g><path style="opacity:1" fill="#23356f" d="M 181.5,70.5 C 180.198,72.0276 178.531,73.0276 176.5,73.5C 177.865,75.5909 178.532,77.9242 178.5,80.5C 179.568,81.4345 180.901,81.7678 182.5,81.5C 181.964,78.3019 182.631,75.6353 184.5,73.5C 184.244,75.9124 185.244,77.5791 187.5,78.5C 186.603,78.6691 185.603,79.0024 184.5,79.5C 185.966,81.6568 187.8,81.9901 190,80.5C 190.68,78.0243 189.847,76.191 187.5,75C 189.119,74.7645 190.119,73.9311 190.5,72.5C 190.833,72.5 191.167,72.5 191.5,72.5C 191.337,74.8568 191.503,77.1902 192,79.5C 192.383,80.056 192.883,80.3893 193.5,80.5C 194.833,81.1667 196.167,81.8333 197.5,82.5C 188.799,85.7582 179.799,87.9249 170.5,89C 155.486,89.6887 140.486,89.5221 125.5,88.5C 122.091,87.0966 118.425,86.4299 114.5,86.5C 122.712,82.9791 131.212,79.9791 140,77.5C 140.21,79.0581 140.71,80.3915 141.5,81.5C 143.124,81.6399 144.29,80.9733 145,79.5C 146.689,82.1331 148.189,82.1331 149.5,79.5C 154.829,83.1175 157.496,81.7842 157.5,75.5C 158.167,74.8333 158.833,74.1667 159.5,73.5C 159.708,75.9201 159.374,78.2534 158.5,80.5C 160.007,81.7388 161.174,81.4054 162,79.5C 163,82.1667 164,82.1667 165,79.5C 167.135,81.2785 169.635,81.9452 172.5,81.5C 172.351,80.448 172.517,79.448 173,78.5C 173.718,81.2337 175.218,81.9004 177.5,80.5C 176.568,78.2046 175.735,75.8713 175,73.5C 173.989,72.6634 172.822,72.33 171.5,72.5C 172.641,71.661 173.974,70.9943 175.5,70.5C 177.532,71.819 179.532,71.819 181.5,70.5 Z"/></g>
<g><path style="opacity:1" fill="#f7f8f8" d="M 176.5,73.5 C 178.167,73.5 179.833,73.5 181.5,73.5C 181.5,75.8333 181.5,78.1667 181.5,80.5C 180.5,80.5 179.5,80.5 178.5,80.5C 178.532,77.9242 177.865,75.5909 176.5,73.5 Z"/></g>
<g><path style="opacity:1" fill="#e8e9ed" d="M 190.5,72.5 C 190.119,73.9311 189.119,74.7645 187.5,75C 189.847,76.191 190.68,78.0243 190,80.5C 187.8,81.9901 185.966,81.6568 184.5,79.5C 185.603,79.0024 186.603,78.6691 187.5,78.5C 185.244,77.5791 184.244,75.9124 184.5,73.5C 186.379,72.6586 188.379,72.3253 190.5,72.5 Z"/></g>
<g><path style="opacity:1" fill="#636362" d="M 391.5,81.5 C 400.339,85.4422 409.339,88.4422 418.5,90.5C 415.813,90.6641 413.146,90.4974 410.5,90C 402.715,86.7937 394.715,84.2937 386.5,82.5C 388.045,81.5481 389.712,81.2148 391.5,81.5 Z"/></g>
<g><path style="opacity:1" fill="#9c717d" d="M 419.5,84.5 C 426.288,86.4297 432.955,88.7631 439.5,91.5C 440.167,91.8333 440.833,92.1667 441.5,92.5C 441.265,93.0967 440.765,93.4301 440,93.5C 433.926,90.8652 427.76,88.5318 421.5,86.5C 420.833,85.8333 420.167,85.1667 419.5,84.5 Z"/></g>
<g><path style="opacity:0.957" fill="#1c1b1b" d="M 72.5,59.5 C 74.0269,59.427 75.0269,60.0937 75.5,61.5C 79.8154,66.795 82.4821,72.795 83.5,79.5C 88.8333,79.5 94.1667,79.5 99.5,79.5C 99.5,78.5 99.5,77.5 99.5,76.5C 99.8333,76.5 100.167,76.5 100.5,76.5C 101.167,77.5 101.833,78.5 102.5,79.5C 102.611,80.1174 102.944,80.6174 103.5,81C 96.7814,81.1318 90.1147,81.2985 83.5,81.5C 89.8072,82.3306 96.1406,82.8306 102.5,83C 95.8638,84.1449 95.8638,84.9782 102.5,85.5C 105.974,86.5249 109.64,87.1916 113.5,87.5C 111.166,88.1237 108.833,88.957 106.5,90C 107.623,91.0437 108.956,91.7104 110.5,92C 131.493,93.1106 152.493,93.944 173.5,94.5C 176.187,94.3359 178.854,94.5026 181.5,95C 174.214,96.1857 166.881,96.6857 159.5,96.5C 159.5,99.5 159.5,102.5 159.5,105.5C 130.093,105.175 100.76,105.509 71.5,106.5C 70.2502,106.423 69.4169,105.756 69,104.5C 67.515,107.109 65.3483,108.276 62.5,108C 65.6667,106.167 68.1667,103.667 70,100.5C 70.7697,101.598 71.603,101.598 72.5,100.5C 75.5141,99.6406 77.6807,97.3073 79,93.5C 83.3419,82.5584 81.8419,72.5584 74.5,63.5C 74.2671,61.9382 73.6005,60.6049 72.5,59.5 Z"/></g>
<g><path style="opacity:1" fill="#3a3a39" d="M 216.5,85.5 C 214.473,87.1804 212.139,88.3471 209.5,89C 197.411,91.1834 185.411,93.0168 173.5,94.5C 152.493,93.944 131.493,93.1106 110.5,92C 108.956,91.7104 107.623,91.0437 106.5,90C 108.833,88.957 111.166,88.1237 113.5,87.5C 114.492,87.3284 115.158,87.6618 115.5,88.5C 114.234,89.0899 112.901,89.5899 111.5,90C 127.032,90.4078 142.532,91.2412 158,92.5C 176.872,91.827 195.372,88.827 213.5,83.5C 215.03,83.6399 216.03,84.3065 216.5,85.5 Z"/></g>
<g><path style="opacity:0.974" fill="#212120" d="M 216.5,85.5 C 217.332,86.3285 216.999,87.1618 215.5,88C 217.134,88.4935 218.801,88.6602 220.5,88.5C 220.5,89.5 220.5,90.5 220.5,91.5C 221.791,91.2627 222.791,91.596 223.5,92.5C 218.784,94.8579 214.118,97.1912 209.5,99.5C 218.393,101.471 227.393,101.971 236.5,101C 238.369,98.6864 240.369,98.3531 242.5,100C 238.541,99.7913 236.874,101.625 237.5,105.5C 235.5,105.5 233.5,105.5 231.5,105.5C 207.631,106.674 183.631,106.674 159.5,105.5C 159.5,102.5 159.5,99.5 159.5,96.5C 166.881,96.6857 174.214,96.1857 181.5,95C 178.854,94.5026 176.187,94.3359 173.5,94.5C 185.411,93.0168 197.411,91.1834 209.5,89C 212.139,88.3471 214.473,87.1804 216.5,85.5 Z"/></g>
<g><path style="opacity:1" fill="#bdbdbd" d="M 62.5,91.5 C 54.4451,97.6521 47.6118,96.3188 42,87.5C 40.0547,80.6756 41.888,75.1756 47.5,71C 60.5375,67.2553 67.0375,72.0887 67,85.5C 66.4339,88.2287 64.9339,90.2287 62.5,91.5 Z"/></g>
<g><path style="opacity:1" fill="#8b484d" d="M 102.5,85.5 C 103.5,85.5 104.5,85.5 105.5,85.5C 107.5,85.5 109.5,85.5 111.5,85.5C 112.209,86.404 113.209,86.7373 114.5,86.5C 118.425,86.4299 122.091,87.0966 125.5,88.5C 122.167,88.5 118.833,88.5 115.5,88.5C 115.158,87.6618 114.492,87.3284 113.5,87.5C 109.64,87.1916 105.974,86.5249 102.5,85.5 Z"/></g>
<g><path style="opacity:1" fill="#0f0e10" d="M 340.5,58.5 C 344.5,58.5 348.5,58.5 352.5,58.5C 356.686,59.6 360.353,61.7666 363.5,65C 360.945,63.8623 358.278,62.5289 355.5,61C 354.167,60.3333 352.833,60.3333 351.5,61C 356.494,63.7582 360.994,67.9248 365,73.5C 369.285,87.7652 364.451,97.2652 350.5,102C 351.167,102.333 351.833,102.667 352.5,103C 349.937,103.763 349.937,104.263 352.5,104.5C 355.169,103.313 357.835,102.48 360.5,102C 360.833,102.333 361.167,102.667 361.5,103C 360.234,104.983 358.568,105.983 356.5,106C 357.696,105.346 357.696,104.846 356.5,104.5C 352.452,106.456 348.118,107.456 343.5,107.5C 340.041,106.651 336.374,105.317 332.5,103.5C 333.35,100.739 332.35,100.072 329.5,101.5C 327.522,98.6667 325.689,95.6667 324,92.5C 320.815,82.5366 322.315,73.5366 328.5,65.5C 332.131,63.3226 336.131,60.9893 340.5,58.5 Z"/></g>
<g><path style="opacity:1" fill="#22201f" d="M 62.5,91.5 C 47.9792,96.4665 41.8125,91.4665 44,76.5C 48.9472,71.3154 54.7806,70.1487 61.5,73C 66.4309,78.9384 66.7643,85.105 62.5,91.5 Z"/></g>
<g><path style="opacity:1" fill="#79342a" d="M 49.5,77.5 C 50.2389,77.369 50.9056,77.5357 51.5,78C 50.1059,78.956 49.4393,80.2894 49.5,82C 50.7713,87.7879 50.1046,87.9546 47.5,82.5C 47.9024,80.6998 48.5691,79.0332 49.5,77.5 Z"/></g>
<g><path style="opacity:1" fill="#d9d410" d="M 74.5,63.5 C 81.8419,72.5584 83.3419,82.5584 79,93.5C 77.6807,97.3073 75.5141,99.6406 72.5,100.5C 81.8333,88.5 81.8333,76.5 72.5,64.5C 72.8417,63.6618 73.5084,63.3284 74.5,63.5 Z"/></g>
<g><path style="opacity:0.903" fill="#272626" d="M 416.5,79.5 C 417.248,81.3325 418.248,82.9991 419.5,84.5C 420.167,85.1667 420.833,85.8333 421.5,86.5C 423.8,90.762 425.8,95.0953 427.5,99.5C 426.054,100.94 424.221,101.607 422,101.5C 417.863,100.763 413.697,100.429 409.5,100.5C 409.565,97.6634 409.565,94.8301 409.5,92C 412.695,91.8195 415.695,91.3195 418.5,90.5C 409.339,88.4422 400.339,85.4422 391.5,81.5C 390.081,80.5489 388.415,80.2155 386.5,80.5C 386.286,78.8561 386.62,77.3561 387.5,76C 391.167,75.6667 394.833,75.3333 398.5,75C 394.514,74.5012 390.514,74.3345 386.5,74.5C 386.5,74.1667 386.5,73.8333 386.5,73.5C 390.167,73.5 393.833,73.5 397.5,73.5C 401.862,73.2437 406.195,73.077 410.5,73C 413.386,74.3845 415.386,76.5512 416.5,79.5 Z"/></g>
<g><path style="opacity:1" fill="#d1cc14" d="M 328.5,65.5 C 322.315,73.5366 320.815,82.5366 324,92.5C 325.689,95.6667 327.522,98.6667 329.5,101.5C 323.963,97.7747 320.963,92.4413 320.5,85.5C 320.5,83.1667 320.5,80.8333 320.5,78.5C 321.394,72.713 323.894,67.713 328,63.5C 328.464,64.0944 328.631,64.7611 328.5,65.5 Z"/></g>
<g><path style="opacity:1" fill="#1c1c1b" d="M 342.5,64.5 C 352.274,63.3024 359.44,66.9691 364,75.5C 365.77,94.733 357.27,102.233 338.5,98C 330.19,92.0688 327.69,84.2355 331,74.5C 333.818,69.8388 337.651,66.5055 342.5,64.5 Z"/></g>
<g><path style="opacity:1" fill="#c0c0bf" d="M 336.5,88.5 C 332.975,81.7563 334.309,75.923 340.5,71C 348.255,67.741 354.422,69.5743 359,76.5C 361.759,85.1537 358.925,91.3204 350.5,95C 344.095,96.2951 339.429,94.1284 336.5,88.5 Z"/></g>
<g><path style="opacity:1" fill="#1d1e1d" d="M 336.5,88.5 C 333.589,78.4216 337.255,72.4216 347.5,70.5C 356.242,72.3032 359.742,77.6365 358,86.5C 354.677,92.9081 349.511,95.0748 342.5,93C 340.34,91.668 338.34,90.168 336.5,88.5 Z"/></g>
<g><path style="opacity:1" fill="#753226" d="M 345.5,75.5 C 353.839,76.9506 355.506,80.9506 350.5,87.5C 350.167,87.3333 349.833,87.1667 349.5,87C 352.167,84 352.167,81 349.5,78C 343.799,77.0333 341.299,79.5333 342,85.5C 339.988,81.1683 341.155,77.835 345.5,75.5 Z"/></g>
<g><path style="opacity:1" fill="#d9d411" d="M 35.5,65.5 C 33.1904,68.1019 31.3571,71.1019 30,74.5C 27.8078,84.3603 29.9744,93.027 36.5,100.5C 35.9984,101.521 35.3317,101.688 34.5,101C 28.8381,93.8622 26.5048,85.6955 27.5,76.5C 28.7547,72.6571 30.588,68.9905 33,65.5C 35.2034,62.8604 36.0367,62.8604 35.5,65.5 Z"/></g>
<g><path style="opacity:1" fill="#0a0a0a" d="M 421.5,86.5 C 427.76,88.5318 433.926,90.8652 440,93.5C 440.765,93.4301 441.265,93.0967 441.5,92.5C 445.5,91.8333 447.167,93.5 446.5,97.5C 440.132,98.0025 433.798,98.6692 427.5,99.5C 425.8,95.0953 423.8,90.762 421.5,86.5 Z"/></g>
<g><path style="opacity:1" fill="#515150" d="M 110.5,96.5 C 111.429,97.3149 112.429,98.1482 113.5,99C 109.113,99.7062 104.78,99.5396 100.5,98.5C 93.8561,97.512 87.1894,96.512 80.5,95.5C 80.9186,94.3279 81.5853,93.3279 82.5,92.5C 91.7554,94.49 101.089,95.8233 110.5,96.5 Z"/></g>
<g><path style="opacity:1" fill="#091118" d="M 234.5,91.5 C 246.491,90.5178 247.158,92.0178 236.5,96C 229.617,98.4025 222.617,99.2359 215.5,98.5C 218.005,96.7467 220.671,95.2467 223.5,94C 227.43,93.7585 231.097,92.9251 234.5,91.5 Z"/></g>
<g><path style="opacity:1" fill="#818181" d="M 255.5,96.5 C 258.5,96.5 261.5,96.5 264.5,96.5C 264.5,97.5 264.5,98.5 264.5,99.5C 261.455,99.2964 258.621,99.2964 256,99.5C 255.517,98.552 255.351,97.552 255.5,96.5 Z"/></g>
<g><path style="opacity:1" fill="#8f8f8e" d="M 251.5,93.5 C 252.5,93.5 253.5,93.5 254.5,93.5C 254.623,97.0399 252.957,99.0399 249.5,99.5C 249.604,97.2972 250.27,95.2972 251.5,93.5 Z"/></g>
<g><path style="opacity:1" fill="#2f2f2e" d="M 110.5,96.5 C 116.068,98.1085 125.068,98.9419 137.5,99C 137.833,99.3333 138.167,99.6667 138.5,100C 125.635,99.907 112.969,100.907 100.5,103C 107.167,103.333 113.833,103.667 120.5,104C 106.488,104.833 92.4881,104.666 78.5,103.5C 77.9747,102.808 77.3081,102.308 76.5,102C 76.8333,101.667 77.1667,101.333 77.5,101C 85.3665,100.643 93.0332,99.8098 100.5,98.5C 104.78,99.5396 109.113,99.7062 113.5,99C 112.429,98.1482 111.429,97.3149 110.5,96.5 Z"/></g>
<g><path style="opacity:1" fill="#796f2b" d="M 332.5,103.5 C 336.374,105.317 340.041,106.651 343.5,107.5C 342.828,108.267 341.995,108.934 341,109.5C 337.661,107.959 334.827,105.959 332.5,103.5 Z"/></g>
<g><path style="opacity:1" fill="#5f572c" d="M 39.5,103.5 C 42.508,104.42 45.3413,105.754 48,107.5C 52.3579,107.251 56.8579,107.084 61.5,107C 58.5315,110.295 55.3649,110.795 52,108.5C 46.9545,109.233 42.7878,107.567 39.5,103.5 Z"/></g>
</svg>
